<?xml version="1.0" encoding="utf-8"?>
<!-- Generator: Adobe Illustrator 23.0.3, SVG Export Plug-In . SVG Version: 6.00 Build 0)  -->
<svg version="1.1" id="Layer_1" xmlns="http://www.w3.org/2000/svg" xmlns:xlink="http://www.w3.org/1999/xlink" x="0px" y="0px"
	 viewBox="0 0 512 512" style="enable-background:new 0 0 512 512;" xml:space="preserve">
<style type="text/css">
	.st0{fill:#FFFFFF;}
	.st1{fill:#03203C;}
	.st2{fill:#00B189;}
	.st3{fill:#0F213C;}
</style>
<g>
	<g>
		<g>
			<path class="st1" d="M307.2,184.3c3.2,0,9.3,0.8,14.5,6l102.4,102.4c8,8,8,21,0,29c-5.2,5.2-11.3,6-14.5,6c-3.2,0-9.3-0.8-14.5-6
				l-51.2-51.2l-36.7-36.7l-36.7,36.7L256,285l-14.5-14.5l-36.7-36.7l-36.7,36.7l-51.2,51.2c-5.2,5.2-11.3,6-14.5,6
				c-3.2,0-9.3-0.8-14.5-6c-8-8-8-21,0-29l102.4-102.4c5.2-5.2,11.3-6,14.5-6c3.2,0,9.3,0.8,14.5,6L256,227l36.7-36.7
				C297.9,185.1,304,184.3,307.2,184.3 M307.2,132.4c-18.5,0-37.1,7.1-51.2,21.2c-14.1-14.1-32.7-21.2-51.2-21.2
				c-18.5,0-37.1,7.1-51.2,21.2L51.2,256c-28.3,28.3-28.3,74.1,0,102.4c14.1,14.1,32.7,21.2,51.2,21.2c18.5,0,37.1-7.1,51.2-21.2
				l51.2-51.2l39.7,39.7c3.2,3.2,7.3,4.8,11.5,4.8c4.2,0,8.3-1.6,11.5-4.8l39.7-39.7l51.2,51.2c14.1,14.1,32.7,21.2,51.2,21.2
				c18.5,0,37.1-7.1,51.2-21.2c28.3-28.3,28.3-74.1,0-102.4L358.4,153.6C344.3,139.5,325.7,132.4,307.2,132.4L307.2,132.4z"/>
		</g>
		<path class="st2" d="M360,238.7l-43.3-43.3c-5.2-5.2-13.7-5.2-18.9,0L256,237.1l-41.7-41.7c-5.2-5.2-13.7-5.2-18.9,0L152,238.7
			c-4.8,4.8-5.5,12.3-1.8,17.5c2.3,3.2,5.9,5.2,9.8,5.6c3.9,0.3,7.8-1.1,10.5-3.9l34.2-34.2l51.2,51.2l51.2-51.2l34.2,34.2
			c2.8,2.8,6.6,4.2,10.5,3.9c3.9-0.3,7.5-2.3,9.8-5.6C365.5,251,364.7,243.4,360,238.7z"/>
	</g>
</g>
</svg>
