<svg width="325" height="104" viewBox="0 0 325 104" fill="none" xmlns="http://www.w3.org/2000/svg">
<mask id="path-1-outside-1_538_144869" maskUnits="userSpaceOnUse" x="-0.759766" y="1" width="326" height="39" fill="black">
<rect fill="white" x="-0.759766" y="1" width="326" height="39"/>
<path d="M4.00023 35.552V14.3H8.18623V10.16H12.3262V5.974H17.0182V10.16H21.1582V14.3H25.3902V35.552H20.6982V27.226H8.64623V35.552H4.00023ZM8.64623 22.58H20.6982V14.76H16.5582V10.62H12.7862V14.76H8.64623V22.58ZM37.0009 35.552V31.412H32.8149V14.3H37.4609V30.952H49.5129V14.3H54.2049V31.412H49.9729V35.552H37.0009ZM69.0123 35.552V31.412H64.8723V18.9H60.6863V14.3H64.8723V5.974H69.4723V14.3H82.0763V18.9H69.4723V30.952H81.6163V26.766H86.2623V31.412H82.0763V35.552H69.0123ZM97.3705 35.552V31.412H93.1845V18.486H97.3705V14.3H110.343V18.486H114.575V31.412H110.343V35.552H97.3705ZM97.8305 30.952H109.883V18.9H97.8305V30.952ZM127.084 35.552V31.412H122.898V18.486H127.084V14.3H140.056V18.486H144.288V23.04H139.596V18.9H127.544V30.952H139.596V26.766H144.288V31.412H140.056V35.552H127.084ZM155.404 35.552V31.412H151.218V18.486H155.404V14.3H168.376V18.486H172.608V30.952H176.794V35.552H172.148V31.412H168.376V35.552H155.404ZM155.864 30.952H167.916V18.9H155.864V30.952ZM188.359 35.552V31.412H184.219V18.9H180.033V14.3H184.219V5.974H188.819V14.3H201.423V18.9H188.819V30.952H200.963V26.766H205.609V31.412H201.423V35.552H188.359ZM213.025 35.552V5.974H217.671V18.486H221.351V14.3H230.183V18.486H234.415V35.552H229.723V18.9H221.811V23.04H217.671V35.552H213.025ZM242.738 35.552V5.974H259.896V10.16H264.128V14.76H259.436V10.62H247.384V18.486H255.756V23.04H247.384V35.552H242.738ZM271.553 35.552V5.974H288.711V10.16H292.943V14.76H288.251V10.62H276.199V18.486H284.571V23.04H276.199V35.552H271.553ZM299.424 35.552V10.16H303.61V5.974H316.582V10.16H320.814V23.04H316.582V27.226H314.558V30.952H318.698V35.552H314.098V31.412H309.866V27.226H304.07V35.552H299.424ZM304.07 22.58H316.122V10.62H304.07V22.58Z"/>
</mask>
<path d="M4.00023 35.552V14.3H8.18623V10.16H12.3262V5.974H17.0182V10.16H21.1582V14.3H25.3902V35.552H20.6982V27.226H8.64623V35.552H4.00023ZM8.64623 22.58H20.6982V14.76H16.5582V10.62H12.7862V14.76H8.64623V22.58ZM37.0009 35.552V31.412H32.8149V14.3H37.4609V30.952H49.5129V14.3H54.2049V31.412H49.9729V35.552H37.0009ZM69.0123 35.552V31.412H64.8723V18.9H60.6863V14.3H64.8723V5.974H69.4723V14.3H82.0763V18.9H69.4723V30.952H81.6163V26.766H86.2623V31.412H82.0763V35.552H69.0123ZM97.3705 35.552V31.412H93.1845V18.486H97.3705V14.3H110.343V18.486H114.575V31.412H110.343V35.552H97.3705ZM97.8305 30.952H109.883V18.9H97.8305V30.952ZM127.084 35.552V31.412H122.898V18.486H127.084V14.3H140.056V18.486H144.288V23.04H139.596V18.9H127.544V30.952H139.596V26.766H144.288V31.412H140.056V35.552H127.084ZM155.404 35.552V31.412H151.218V18.486H155.404V14.3H168.376V18.486H172.608V30.952H176.794V35.552H172.148V31.412H168.376V35.552H155.404ZM155.864 30.952H167.916V18.9H155.864V30.952ZM188.359 35.552V31.412H184.219V18.9H180.033V14.3H184.219V5.974H188.819V14.3H201.423V18.9H188.819V30.952H200.963V26.766H205.609V31.412H201.423V35.552H188.359ZM213.025 35.552V5.974H217.671V18.486H221.351V14.3H230.183V18.486H234.415V35.552H229.723V18.9H221.811V23.04H217.671V35.552H213.025ZM242.738 35.552V5.974H259.896V10.16H264.128V14.76H259.436V10.62H247.384V18.486H255.756V23.04H247.384V35.552H242.738ZM271.553 35.552V5.974H288.711V10.16H292.943V14.76H288.251V10.62H276.199V18.486H284.571V23.04H276.199V35.552H271.553ZM299.424 35.552V10.16H303.61V5.974H316.582V10.16H320.814V23.04H316.582V27.226H314.558V30.952H318.698V35.552H314.098V31.412H309.866V27.226H304.07V35.552H299.424ZM304.07 22.58H316.122V10.62H304.07V22.58Z" fill="#12F1C7"/>
<path d="M4.00023 35.552H0.000234485V39.552H4.00023V35.552ZM4.00023 14.3V10.3H0.000234485V14.3H4.00023ZM8.18623 14.3V18.3H12.1862V14.3H8.18623ZM8.18623 10.16V6.16H4.18623V10.16H8.18623ZM12.3262 10.16V14.16H16.3262V10.16H12.3262ZM12.3262 5.974V1.974H8.32623V5.974H12.3262ZM17.0182 5.974H21.0182V1.974H17.0182V5.974ZM17.0182 10.16H13.0182V14.16H17.0182V10.16ZM21.1582 10.16H25.1582V6.16H21.1582V10.16ZM21.1582 14.3H17.1582V18.3H21.1582V14.3ZM25.3902 14.3H29.3902V10.3H25.3902V14.3ZM25.3902 35.552V39.552H29.3902V35.552H25.3902ZM20.6982 35.552H16.6982V39.552H20.6982V35.552ZM20.6982 27.226H24.6982V23.226H20.6982V27.226ZM8.64623 27.226V23.226H4.64623V27.226H8.64623ZM8.64623 35.552V39.552H12.6462V35.552H8.64623ZM8.64623 22.58H4.64623V26.58H8.64623V22.58ZM20.6982 22.58V26.58H24.6982V22.58H20.6982ZM20.6982 14.76H24.6982V10.76H20.6982V14.76ZM16.5582 14.76H12.5582V18.76H16.5582V14.76ZM16.5582 10.62H20.5582V6.62H16.5582V10.62ZM12.7862 10.62V6.62H8.78624V10.62H12.7862ZM12.7862 14.76V18.76H16.7862V14.76H12.7862ZM8.64623 14.76V10.76H4.64623V14.76H8.64623ZM4.00023 35.552H8.00023V14.3H4.00023H0.000234485V35.552H4.00023ZM4.00023 14.3V18.3H8.18623V14.3V10.3H4.00023V14.3ZM8.18623 14.3H12.1862V10.16H8.18623H4.18623V14.3H8.18623ZM8.18623 10.16V14.16H12.3262V10.16V6.16H8.18623V10.16ZM12.3262 10.16H16.3262V5.974H12.3262H8.32623V10.16H12.3262ZM12.3262 5.974V9.974H17.0182V5.974V1.974H12.3262V5.974ZM17.0182 5.974H13.0182V10.16H17.0182H21.0182V5.974H17.0182ZM17.0182 10.16V14.16H21.1582V10.16V6.16H17.0182V10.16ZM21.1582 10.16H17.1582V14.3H21.1582H25.1582V10.16H21.1582ZM21.1582 14.3V18.3H25.3902V14.3V10.3H21.1582V14.3ZM25.3902 14.3H21.3902V35.552H25.3902H29.3902V14.3H25.3902ZM25.3902 35.552V31.552H20.6982V35.552V39.552H25.3902V35.552ZM20.6982 35.552H24.6982V27.226H20.6982H16.6982V35.552H20.6982ZM20.6982 27.226V23.226H8.64623V27.226V31.226H20.6982V27.226ZM8.64623 27.226H4.64623V35.552H8.64623H12.6462V27.226H8.64623ZM8.64623 35.552V31.552H4.00023V35.552V39.552H8.64623V35.552ZM8.64623 22.58V26.58H20.6982V22.58V18.58H8.64623V22.58ZM20.6982 22.58H24.6982V14.76H20.6982H16.6982V22.58H20.6982ZM20.6982 14.76V10.76H16.5582V14.76V18.76H20.6982V14.76ZM16.5582 14.76H20.5582V10.62H16.5582H12.5582V14.76H16.5582ZM16.5582 10.62V6.62H12.7862V10.62V14.62H16.5582V10.62ZM12.7862 10.62H8.78624V14.76H12.7862H16.7862V10.62H12.7862ZM12.7862 14.76V10.76H8.64623V14.76V18.76H12.7862V14.76ZM8.64623 14.76H4.64623V22.58H8.64623H12.6462V14.76H8.64623ZM37.0009 35.552H33.0009V39.552H37.0009V35.552ZM37.0009 31.412H41.0009V27.412H37.0009V31.412ZM32.8149 31.412H28.8149V35.412H32.8149V31.412ZM32.8149 14.3V10.3H28.8149V14.3H32.8149ZM37.4609 14.3H41.4609V10.3H37.4609V14.3ZM37.4609 30.952H33.4609V34.952H37.4609V30.952ZM49.5129 30.952V34.952H53.5129V30.952H49.5129ZM49.5129 14.3V10.3H45.5129V14.3H49.5129ZM54.2049 14.3H58.2049V10.3H54.2049V14.3ZM54.2049 31.412V35.412H58.2049V31.412H54.2049ZM49.9729 31.412V27.412H45.9729V31.412H49.9729ZM49.9729 35.552V39.552H53.9729V35.552H49.9729ZM37.0009 35.552H41.0009V31.412H37.0009H33.0009V35.552H37.0009ZM37.0009 31.412V27.412H32.8149V31.412V35.412H37.0009V31.412ZM32.8149 31.412H36.8149V14.3H32.8149H28.8149V31.412H32.8149ZM32.8149 14.3V18.3H37.4609V14.3V10.3H32.8149V14.3ZM37.4609 14.3H33.4609V30.952H37.4609H41.4609V14.3H37.4609ZM37.4609 30.952V34.952H49.5129V30.952V26.952H37.4609V30.952ZM49.5129 30.952H53.5129V14.3H49.5129H45.5129V30.952H49.5129ZM49.5129 14.3V18.3H54.2049V14.3V10.3H49.5129V14.3ZM54.2049 14.3H50.2049V31.412H54.2049H58.2049V14.3H54.2049ZM54.2049 31.412V27.412H49.9729V31.412V35.412H54.2049V31.412ZM49.9729 31.412H45.9729V35.552H49.9729H53.9729V31.412H49.9729ZM49.9729 35.552V31.552H37.0009V35.552V39.552H49.9729V35.552ZM69.0123 35.552H65.0123V39.552H69.0123V35.552ZM69.0123 31.412H73.0123V27.412H69.0123V31.412ZM64.8722 31.412H60.8722V35.412H64.8722V31.412ZM64.8722 18.9H68.8723V14.9H64.8722V18.9ZM60.6862 18.9H56.6862V22.9H60.6862V18.9ZM60.6862 14.3V10.3H56.6862V14.3H60.6862ZM64.8722 14.3V18.3H68.8723V14.3H64.8722ZM64.8722 5.974V1.974H60.8722V5.974H64.8722ZM69.4723 5.974H73.4723V1.974H69.4723V5.974ZM69.4723 14.3H65.4723V18.3H69.4723V14.3ZM82.0762 14.3H86.0762V10.3H82.0762V14.3ZM82.0762 18.9V22.9H86.0762V18.9H82.0762ZM69.4723 18.9V14.9H65.4723V18.9H69.4723ZM69.4723 30.952H65.4723V34.952H69.4723V30.952ZM81.6163 30.952V34.952H85.6163V30.952H81.6163ZM81.6163 26.766V22.766H77.6163V26.766H81.6163ZM86.2623 26.766H90.2623V22.766H86.2623V26.766ZM86.2623 31.412V35.412H90.2623V31.412H86.2623ZM82.0762 31.412V27.412H78.0762V31.412H82.0762ZM82.0762 35.552V39.552H86.0762V35.552H82.0762ZM69.0123 35.552H73.0123V31.412H69.0123H65.0123V35.552H69.0123ZM69.0123 31.412V27.412H64.8722V31.412V35.412H69.0123V31.412ZM64.8722 31.412H68.8723V18.9H64.8722H60.8722V31.412H64.8722ZM64.8722 18.9V14.9H60.6862V18.9V22.9H64.8722V18.9ZM60.6862 18.9H64.6862V14.3H60.6862H56.6862V18.9H60.6862ZM60.6862 14.3V18.3H64.8722V14.3V10.3H60.6862V14.3ZM64.8722 14.3H68.8723V5.974H64.8722H60.8722V14.3H64.8722ZM64.8722 5.974V9.974H69.4723V5.974V1.974H64.8722V5.974ZM69.4723 5.974H65.4723V14.3H69.4723H73.4723V5.974H69.4723ZM69.4723 14.3V18.3H82.0762V14.3V10.3H69.4723V14.3ZM82.0762 14.3H78.0762V18.9H82.0762H86.0762V14.3H82.0762ZM82.0762 18.9V14.9H69.4723V18.9V22.9H82.0762V18.9ZM69.4723 18.9H65.4723V30.952H69.4723H73.4723V18.9H69.4723ZM69.4723 30.952V34.952H81.6163V30.952V26.952H69.4723V30.952ZM81.6163 30.952H85.6163V26.766H81.6163H77.6163V30.952H81.6163ZM81.6163 26.766V30.766H86.2623V26.766V22.766H81.6163V26.766ZM86.2623 26.766H82.2623V31.412H86.2623H90.2623V26.766H86.2623ZM86.2623 31.412V27.412H82.0762V31.412V35.412H86.2623V31.412ZM82.0762 31.412H78.0762V35.552H82.0762H86.0762V31.412H82.0762ZM82.0762 35.552V31.552H69.0123V35.552V39.552H82.0762V35.552ZM97.3705 35.552H93.3705V39.552H97.3705V35.552ZM97.3705 31.412H101.371V27.412H97.3705V31.412ZM93.1845 31.412H89.1845V35.412H93.1845V31.412ZM93.1845 18.486V14.486H89.1845V18.486H93.1845ZM97.3705 18.486V22.486H101.371V18.486H97.3705ZM97.3705 14.3V10.3H93.3705V14.3H97.3705ZM110.343 14.3H114.343V10.3H110.343V14.3ZM110.343 18.486H106.343V22.486H110.343V18.486ZM114.575 18.486H118.575V14.486H114.575V18.486ZM114.575 31.412V35.412H118.575V31.412H114.575ZM110.343 31.412V27.412H106.343V31.412H110.343ZM110.343 35.552V39.552H114.343V35.552H110.343ZM97.8305 30.952H93.8305V34.952H97.8305V30.952ZM109.883 30.952V34.952H113.883V30.952H109.883ZM109.883 18.9H113.883V14.9H109.883V18.9ZM97.8305 18.9V14.9H93.8305V18.9H97.8305ZM97.3705 35.552H101.371V31.412H97.3705H93.3705V35.552H97.3705ZM97.3705 31.412V27.412H93.1845V31.412V35.412H97.3705V31.412ZM93.1845 31.412H97.1845V18.486H93.1845H89.1845V31.412H93.1845ZM93.1845 18.486V22.486H97.3705V18.486V14.486H93.1845V18.486ZM97.3705 18.486H101.371V14.3H97.3705H93.3705V18.486H97.3705ZM97.3705 14.3V18.3H110.343V14.3V10.3H97.3705V14.3ZM110.343 14.3H106.343V18.486H110.343H114.343V14.3H110.343ZM110.343 18.486V22.486H114.575V18.486V14.486H110.343V18.486ZM114.575 18.486H110.575V31.412H114.575H118.575V18.486H114.575ZM114.575 31.412V27.412H110.343V31.412V35.412H114.575V31.412ZM110.343 31.412H106.343V35.552H110.343H114.343V31.412H110.343ZM110.343 35.552V31.552H97.3705V35.552V39.552H110.343V35.552ZM97.8305 30.952V34.952H109.883V30.952V26.952H97.8305V30.952ZM109.883 30.952H113.883V18.9H109.883H105.883V30.952H109.883ZM109.883 18.9V14.9H97.8305V18.9V22.9H109.883V18.9ZM97.8305 18.9H93.8305V30.952H97.8305H101.831V18.9H97.8305ZM127.084 35.552H123.084V39.552H127.084V35.552ZM127.084 31.412H131.084V27.412H127.084V31.412ZM122.898 31.412H118.898V35.412H122.898V31.412ZM122.898 18.486V14.486H118.898V18.486H122.898ZM127.084 18.486V22.486H131.084V18.486H127.084ZM127.084 14.3V10.3H123.084V14.3H127.084ZM140.056 14.3H144.056V10.3H140.056V14.3ZM140.056 18.486H136.056V22.486H140.056V18.486ZM144.288 18.486H148.288V14.486H144.288V18.486ZM144.288 23.04V27.04H148.288V23.04H144.288ZM139.596 23.04H135.596V27.04H139.596V23.04ZM139.596 18.9H143.596V14.9H139.596V18.9ZM127.544 18.9V14.9H123.544V18.9H127.544ZM127.544 30.952H123.544V34.952H127.544V30.952ZM139.596 30.952V34.952H143.596V30.952H139.596ZM139.596 26.766V22.766H135.596V26.766H139.596ZM144.288 26.766H148.288V22.766H144.288V26.766ZM144.288 31.412V35.412H148.288V31.412H144.288ZM140.056 31.412V27.412H136.056V31.412H140.056ZM140.056 35.552V39.552H144.056V35.552H140.056ZM127.084 35.552H131.084V31.412H127.084H123.084V35.552H127.084ZM127.084 31.412V27.412H122.898V31.412V35.412H127.084V31.412ZM122.898 31.412H126.898V18.486H122.898H118.898V31.412H122.898ZM122.898 18.486V22.486H127.084V18.486V14.486H122.898V18.486ZM127.084 18.486H131.084V14.3H127.084H123.084V18.486H127.084ZM127.084 14.3V18.3H140.056V14.3V10.3H127.084V14.3ZM140.056 14.3H136.056V18.486H140.056H144.056V14.3H140.056ZM140.056 18.486V22.486H144.288V18.486V14.486H140.056V18.486ZM144.288 18.486H140.288V23.04H144.288H148.288V18.486H144.288ZM144.288 23.04V19.04H139.596V23.04V27.04H144.288V23.04ZM139.596 23.04H143.596V18.9H139.596H135.596V23.04H139.596ZM139.596 18.9V14.9H127.544V18.9V22.9H139.596V18.9ZM127.544 18.9H123.544V30.952H127.544H131.544V18.9H127.544ZM127.544 30.952V34.952H139.596V30.952V26.952H127.544V30.952ZM139.596 30.952H143.596V26.766H139.596H135.596V30.952H139.596ZM139.596 26.766V30.766H144.288V26.766V22.766H139.596V26.766ZM144.288 26.766H140.288V31.412H144.288H148.288V26.766H144.288ZM144.288 31.412V27.412H140.056V31.412V35.412H144.288V31.412ZM140.056 31.412H136.056V35.552H140.056H144.056V31.412H140.056ZM140.056 35.552V31.552H127.084V35.552V39.552H140.056V35.552ZM155.404 35.552H151.404V39.552H155.404V35.552ZM155.404 31.412H159.404V27.412H155.404V31.412ZM151.218 31.412H147.218V35.412H151.218V31.412ZM151.218 18.486V14.486H147.218V18.486H151.218ZM155.404 18.486V22.486H159.404V18.486H155.404ZM155.404 14.3V10.3H151.404V14.3H155.404ZM168.376 14.3H172.376V10.3H168.376V14.3ZM168.376 18.486H164.376V22.486H168.376V18.486ZM172.608 18.486H176.608V14.486H172.608V18.486ZM172.608 30.952H168.608V34.952H172.608V30.952ZM176.794 30.952H180.794V26.952H176.794V30.952ZM176.794 35.552V39.552H180.794V35.552H176.794ZM172.148 35.552H168.148V39.552H172.148V35.552ZM172.148 31.412H176.148V27.412H172.148V31.412ZM168.376 31.412V27.412H164.376V31.412H168.376ZM168.376 35.552V39.552H172.376V35.552H168.376ZM155.864 30.952H151.864V34.952H155.864V30.952ZM167.916 30.952V34.952H171.916V30.952H167.916ZM167.916 18.9H171.916V14.9H167.916V18.9ZM155.864 18.9V14.9H151.864V18.9H155.864ZM155.404 35.552H159.404V31.412H155.404H151.404V35.552H155.404ZM155.404 31.412V27.412H151.218V31.412V35.412H155.404V31.412ZM151.218 31.412H155.218V18.486H151.218H147.218V31.412H151.218ZM151.218 18.486V22.486H155.404V18.486V14.486H151.218V18.486ZM155.404 18.486H159.404V14.3H155.404H151.404V18.486H155.404ZM155.404 14.3V18.3H168.376V14.3V10.3H155.404V14.3ZM168.376 14.3H164.376V18.486H168.376H172.376V14.3H168.376ZM168.376 18.486V22.486H172.608V18.486V14.486H168.376V18.486ZM172.608 18.486H168.608V30.952H172.608H176.608V18.486H172.608ZM172.608 30.952V34.952H176.794V30.952V26.952H172.608V30.952ZM176.794 30.952H172.794V35.552H176.794H180.794V30.952H176.794ZM176.794 35.552V31.552H172.148V35.552V39.552H176.794V35.552ZM172.148 35.552H176.148V31.412H172.148H168.148V35.552H172.148ZM172.148 31.412V27.412H168.376V31.412V35.412H172.148V31.412ZM168.376 31.412H164.376V35.552H168.376H172.376V31.412H168.376ZM168.376 35.552V31.552H155.404V35.552V39.552H168.376V35.552ZM155.864 30.952V34.952H167.916V30.952V26.952H155.864V30.952ZM167.916 30.952H171.916V18.9H167.916H163.916V30.952H167.916ZM167.916 18.9V14.9H155.864V18.9V22.9H167.916V18.9ZM155.864 18.9H151.864V30.952H155.864H159.864V18.9H155.864ZM188.359 35.552H184.359V39.552H188.359V35.552ZM188.359 31.412H192.359V27.412H188.359V31.412ZM184.219 31.412H180.219V35.412H184.219V31.412ZM184.219 18.9H188.219V14.9H184.219V18.9ZM180.033 18.9H176.033V22.9H180.033V18.9ZM180.033 14.3V10.3H176.033V14.3H180.033ZM184.219 14.3V18.3H188.219V14.3H184.219ZM184.219 5.974V1.974H180.219V5.974H184.219ZM188.819 5.974H192.819V1.974H188.819V5.974ZM188.819 14.3H184.819V18.3H188.819V14.3ZM201.423 14.3H205.423V10.3H201.423V14.3ZM201.423 18.9V22.9H205.423V18.9H201.423ZM188.819 18.9V14.9H184.819V18.9H188.819ZM188.819 30.952H184.819V34.952H188.819V30.952ZM200.963 30.952V34.952H204.963V30.952H200.963ZM200.963 26.766V22.766H196.963V26.766H200.963ZM205.609 26.766H209.609V22.766H205.609V26.766ZM205.609 31.412V35.412H209.609V31.412H205.609ZM201.423 31.412V27.412H197.423V31.412H201.423ZM201.423 35.552V39.552H205.423V35.552H201.423ZM188.359 35.552H192.359V31.412H188.359H184.359V35.552H188.359ZM188.359 31.412V27.412H184.219V31.412V35.412H188.359V31.412ZM184.219 31.412H188.219V18.9H184.219H180.219V31.412H184.219ZM184.219 18.9V14.9H180.033V18.9V22.9H184.219V18.9ZM180.033 18.9H184.033V14.3H180.033H176.033V18.9H180.033ZM180.033 14.3V18.3H184.219V14.3V10.3H180.033V14.3ZM184.219 14.3H188.219V5.974H184.219H180.219V14.3H184.219ZM184.219 5.974V9.974H188.819V5.974V1.974H184.219V5.974ZM188.819 5.974H184.819V14.3H188.819H192.819V5.974H188.819ZM188.819 14.3V18.3H201.423V14.3V10.3H188.819V14.3ZM201.423 14.3H197.423V18.9H201.423H205.423V14.3H201.423ZM201.423 18.9V14.9H188.819V18.9V22.9H201.423V18.9ZM188.819 18.9H184.819V30.952H188.819H192.819V18.9H188.819ZM188.819 30.952V34.952H200.963V30.952V26.952H188.819V30.952ZM200.963 30.952H204.963V26.766H200.963H196.963V30.952H200.963ZM200.963 26.766V30.766H205.609V26.766V22.766H200.963V26.766ZM205.609 26.766H201.609V31.412H205.609H209.609V26.766H205.609ZM205.609 31.412V27.412H201.423V31.412V35.412H205.609V31.412ZM201.423 31.412H197.423V35.552H201.423H205.423V31.412H201.423ZM201.423 35.552V31.552H188.359V35.552V39.552H201.423V35.552ZM213.025 35.552H209.025V39.552H213.025V35.552ZM213.025 5.974V1.974H209.025V5.974H213.025ZM217.671 5.974H221.671V1.974H217.671V5.974ZM217.671 18.486H213.671V22.486H217.671V18.486ZM221.351 18.486V22.486H225.351V18.486H221.351ZM221.351 14.3V10.3H217.351V14.3H221.351ZM230.183 14.3H234.183V10.3H230.183V14.3ZM230.183 18.486H226.183V22.486H230.183V18.486ZM234.415 18.486H238.415V14.486H234.415V18.486ZM234.415 35.552V39.552H238.415V35.552H234.415ZM229.723 35.552H225.723V39.552H229.723V35.552ZM229.723 18.9H233.723V14.9H229.723V18.9ZM221.811 18.9V14.9H217.811V18.9H221.811ZM221.811 23.04V27.04H225.811V23.04H221.811ZM217.671 23.04V19.04H213.671V23.04H217.671ZM217.671 35.552V39.552H221.671V35.552H217.671ZM213.025 35.552H217.025V5.974H213.025H209.025V35.552H213.025ZM213.025 5.974V9.974H217.671V5.974V1.974H213.025V5.974ZM217.671 5.974H213.671V18.486H217.671H221.671V5.974H217.671ZM217.671 18.486V22.486H221.351V18.486V14.486H217.671V18.486ZM221.351 18.486H225.351V14.3H221.351H217.351V18.486H221.351ZM221.351 14.3V18.3H230.183V14.3V10.3H221.351V14.3ZM230.183 14.3H226.183V18.486H230.183H234.183V14.3H230.183ZM230.183 18.486V22.486H234.415V18.486V14.486H230.183V18.486ZM234.415 18.486H230.415V35.552H234.415H238.415V18.486H234.415ZM234.415 35.552V31.552H229.723V35.552V39.552H234.415V35.552ZM229.723 35.552H233.723V18.9H229.723H225.723V35.552H229.723ZM229.723 18.9V14.9H221.811V18.9V22.9H229.723V18.9ZM221.811 18.9H217.811V23.04H221.811H225.811V18.9H221.811ZM221.811 23.04V19.04H217.671V23.04V27.04H221.811V23.04ZM217.671 23.04H213.671V35.552H217.671H221.671V23.04H217.671ZM217.671 35.552V31.552H213.025V35.552V39.552H217.671V35.552ZM242.738 35.552H238.738V39.552H242.738V35.552ZM242.738 5.974V1.974H238.738V5.974H242.738ZM259.896 5.974H263.896V1.974H259.896V5.974ZM259.896 10.16H255.896V14.16H259.896V10.16ZM264.128 10.16H268.128V6.16H264.128V10.16ZM264.128 14.76V18.76H268.128V14.76H264.128ZM259.436 14.76H255.436V18.76H259.436V14.76ZM259.436 10.62H263.436V6.62H259.436V10.62ZM247.384 10.62V6.62H243.384V10.62H247.384ZM247.384 18.486H243.384V22.486H247.384V18.486ZM255.756 18.486H259.756V14.486H255.756V18.486ZM255.756 23.04V27.04H259.756V23.04H255.756ZM247.384 23.04V19.04H243.384V23.04H247.384ZM247.384 35.552V39.552H251.384V35.552H247.384ZM242.738 35.552H246.738V5.974H242.738H238.738V35.552H242.738ZM242.738 5.974V9.974H259.896V5.974V1.974H242.738V5.974ZM259.896 5.974H255.896V10.16H259.896H263.896V5.974H259.896ZM259.896 10.16V14.16H264.128V10.16V6.16H259.896V10.16ZM264.128 10.16H260.128V14.76H264.128H268.128V10.16H264.128ZM264.128 14.76V10.76H259.436V14.76V18.76H264.128V14.76ZM259.436 14.76H263.436V10.62H259.436H255.436V14.76H259.436ZM259.436 10.62V6.62H247.384V10.62V14.62H259.436V10.62ZM247.384 10.62H243.384V18.486H247.384H251.384V10.62H247.384ZM247.384 18.486V22.486H255.756V18.486V14.486H247.384V18.486ZM255.756 18.486H251.756V23.04H255.756H259.756V18.486H255.756ZM255.756 23.04V19.04H247.384V23.04V27.04H255.756V23.04ZM247.384 23.04H243.384V35.552H247.384H251.384V23.04H247.384ZM247.384 35.552V31.552H242.738V35.552V39.552H247.384V35.552ZM271.553 35.552H267.553V39.552H271.553V35.552ZM271.553 5.974V1.974H267.553V5.974H271.553ZM288.711 5.974H292.711V1.974H288.711V5.974ZM288.711 10.16H284.711V14.16H288.711V10.16ZM292.943 10.16H296.943V6.16H292.943V10.16ZM292.943 14.76V18.76H296.943V14.76H292.943ZM288.251 14.76H284.251V18.76H288.251V14.76ZM288.251 10.62H292.251V6.62H288.251V10.62ZM276.199 10.62V6.62H272.199V10.62H276.199ZM276.199 18.486H272.199V22.486H276.199V18.486ZM284.571 18.486H288.571V14.486H284.571V18.486ZM284.571 23.04V27.04H288.571V23.04H284.571ZM276.199 23.04V19.04H272.199V23.04H276.199ZM276.199 35.552V39.552H280.199V35.552H276.199ZM271.553 35.552H275.553V5.974H271.553H267.553V35.552H271.553ZM271.553 5.974V9.974H288.711V5.974V1.974H271.553V5.974ZM288.711 5.974H284.711V10.16H288.711H292.711V5.974H288.711ZM288.711 10.16V14.16H292.943V10.16V6.16H288.711V10.16ZM292.943 10.16H288.943V14.76H292.943H296.943V10.16H292.943ZM292.943 14.76V10.76H288.251V14.76V18.76H292.943V14.76ZM288.251 14.76H292.251V10.62H288.251H284.251V14.76H288.251ZM288.251 10.62V6.62H276.199V10.62V14.62H288.251V10.62ZM276.199 10.62H272.199V18.486H276.199H280.199V10.62H276.199ZM276.199 18.486V22.486H284.571V18.486V14.486H276.199V18.486ZM284.571 18.486H280.571V23.04H284.571H288.571V18.486H284.571ZM284.571 23.04V19.04H276.199V23.04V27.04H284.571V23.04ZM276.199 23.04H272.199V35.552H276.199H280.199V23.04H276.199ZM276.199 35.552V31.552H271.553V35.552V39.552H276.199V35.552ZM299.424 35.552H295.424V39.552H299.424V35.552ZM299.424 10.16V6.16H295.424V10.16H299.424ZM303.61 10.16V14.16H307.61V10.16H303.61ZM303.61 5.974V1.974H299.61V5.974H303.61ZM316.582 5.974H320.582V1.974H316.582V5.974ZM316.582 10.16H312.582V14.16H316.582V10.16ZM320.814 10.16H324.814V6.16H320.814V10.16ZM320.814 23.04V27.04H324.814V23.04H320.814ZM316.582 23.04V19.04H312.582V23.04H316.582ZM316.582 27.226V31.226H320.582V27.226H316.582ZM314.558 27.226V23.226H310.558V27.226H314.558ZM314.558 30.952H310.558V34.952H314.558V30.952ZM318.698 30.952H322.698V26.952H318.698V30.952ZM318.698 35.552V39.552H322.698V35.552H318.698ZM314.098 35.552H310.098V39.552H314.098V35.552ZM314.098 31.412H318.098V27.412H314.098V31.412ZM309.866 31.412H305.866V35.412H309.866V31.412ZM309.866 27.226H313.866V23.226H309.866V27.226ZM304.07 27.226V23.226H300.07V27.226H304.07ZM304.07 35.552V39.552H308.07V35.552H304.07ZM304.07 22.58H300.07V26.58H304.07V22.58ZM316.122 22.58V26.58H320.122V22.58H316.122ZM316.122 10.62H320.122V6.62H316.122V10.62ZM304.07 10.62V6.62H300.07V10.62H304.07ZM299.424 35.552H303.424V10.16H299.424H295.424V35.552H299.424ZM299.424 10.16V14.16H303.61V10.16V6.16H299.424V10.16ZM303.61 10.16H307.61V5.974H303.61H299.61V10.16H303.61ZM303.61 5.974V9.974H316.582V5.974V1.974H303.61V5.974ZM316.582 5.974H312.582V10.16H316.582H320.582V5.974H316.582ZM316.582 10.16V14.16H320.814V10.16V6.16H316.582V10.16ZM320.814 10.16H316.814V23.04H320.814H324.814V10.16H320.814ZM320.814 23.04V19.04H316.582V23.04V27.04H320.814V23.04ZM316.582 23.04H312.582V27.226H316.582H320.582V23.04H316.582ZM316.582 27.226V23.226H314.558V27.226V31.226H316.582V27.226ZM314.558 27.226H310.558V30.952H314.558H318.558V27.226H314.558ZM314.558 30.952V34.952H318.698V30.952V26.952H314.558V30.952ZM318.698 30.952H314.698V35.552H318.698H322.698V30.952H318.698ZM318.698 35.552V31.552H314.098V35.552V39.552H318.698V35.552ZM314.098 35.552H318.098V31.412H314.098H310.098V35.552H314.098ZM314.098 31.412V27.412H309.866V31.412V35.412H314.098V31.412ZM309.866 31.412H313.866V27.226H309.866H305.866V31.412H309.866ZM309.866 27.226V23.226H304.07V27.226V31.226H309.866V27.226ZM304.07 27.226H300.07V35.552H304.07H308.07V27.226H304.07ZM304.07 35.552V31.552H299.424V35.552V39.552H304.07V35.552ZM304.07 22.58V26.58H316.122V22.58V18.58H304.07V22.58ZM316.122 22.58H320.122V10.62H316.122H312.122V22.58H316.122ZM316.122 10.62V6.62H304.07V10.62V14.62H316.122V10.62ZM304.07 10.62H300.07V22.58H304.07H308.07V10.62H304.07Z" fill="black" mask="url(#path-1-outside-1_538_144869)"/>
<mask id="path-3-outside-2_538_144869" maskUnits="userSpaceOnUse" x="37.2402" y="65" width="250" height="39" fill="black">
<rect fill="white" x="37.2402" y="65" width="250" height="39"/>
<path d="M42.0002 99.552V74.16H46.1862V69.974H50.7862V74.16H55.0182V82.486H58.6982V74.16H62.9302V69.974H67.5762V74.16H71.7162V99.552H67.1162V74.62H63.3902V82.9H59.1582V95.412H54.5582V82.9H50.3262V74.62H46.6462V99.552H42.0002ZM84.2099 99.552V95.412H80.0239V82.486H84.2099V78.3H97.1819V82.486H101.414V87.04H96.7219V82.9H84.6699V86.58H93.0419V91.226H84.6699V94.952H96.7219V90.72H101.414V95.366H97.1819V99.552H84.2099ZM113.923 99.552V95.412H109.737V82.486H113.923V78.3H126.481V69.974H131.127V95.412H126.895V99.552H113.923ZM114.383 94.952H126.435V82.9H114.383V94.952ZM138.552 99.552V69.974H143.198V82.486H146.878V78.3H155.71V82.486H159.942V99.552H155.25V82.9H147.338V87.04H143.198V99.552H138.552ZM171.552 99.552V95.412H167.366V78.3H172.012V94.952H184.064V78.3H188.756V95.412H184.524V99.552H171.552ZM201.266 99.552V95.412H197.08V69.974H201.726V78.3H214.238V82.486H218.47V95.412H214.238V99.552H201.266ZM201.726 94.952H213.778V82.9H201.726V94.952ZM226.793 99V94.354H231.439V99H226.793ZM239.75 99.552V78.3H243.936V74.16H248.076V69.974H252.768V74.16H256.908V78.3H261.14V99.552H256.448V91.226H244.396V99.552H239.75ZM244.396 86.58H256.448V78.76H252.308V74.62H248.536V78.76H244.396V86.58ZM269.463 99.552V94.952H273.649V74.62H269.463V69.974H282.481V74.62H278.249V94.952H282.481V99.552H269.463Z"/>
</mask>
<path d="M42.0002 99.552V74.16H46.1862V69.974H50.7862V74.16H55.0182V82.486H58.6982V74.16H62.9302V69.974H67.5762V74.16H71.7162V99.552H67.1162V74.62H63.3902V82.9H59.1582V95.412H54.5582V82.9H50.3262V74.62H46.6462V99.552H42.0002ZM84.2099 99.552V95.412H80.0239V82.486H84.2099V78.3H97.1819V82.486H101.414V87.04H96.7219V82.9H84.6699V86.58H93.0419V91.226H84.6699V94.952H96.7219V90.72H101.414V95.366H97.1819V99.552H84.2099ZM113.923 99.552V95.412H109.737V82.486H113.923V78.3H126.481V69.974H131.127V95.412H126.895V99.552H113.923ZM114.383 94.952H126.435V82.9H114.383V94.952ZM138.552 99.552V69.974H143.198V82.486H146.878V78.3H155.71V82.486H159.942V99.552H155.25V82.9H147.338V87.04H143.198V99.552H138.552ZM171.552 99.552V95.412H167.366V78.3H172.012V94.952H184.064V78.3H188.756V95.412H184.524V99.552H171.552ZM201.266 99.552V95.412H197.08V69.974H201.726V78.3H214.238V82.486H218.47V95.412H214.238V99.552H201.266ZM201.726 94.952H213.778V82.9H201.726V94.952ZM226.793 99V94.354H231.439V99H226.793ZM239.75 99.552V78.3H243.936V74.16H248.076V69.974H252.768V74.16H256.908V78.3H261.14V99.552H256.448V91.226H244.396V99.552H239.75ZM244.396 86.58H256.448V78.76H252.308V74.62H248.536V78.76H244.396V86.58ZM269.463 99.552V94.952H273.649V74.62H269.463V69.974H282.481V74.62H278.249V94.952H282.481V99.552H269.463Z" fill="#12F1C7"/>
<path d="M42.0002 99.552H38.0002V103.552H42.0002V99.552ZM42.0002 74.16V70.16H38.0002V74.16H42.0002ZM46.1862 74.16V78.16H50.1862V74.16H46.1862ZM46.1862 69.974V65.974H42.1862V69.974H46.1862ZM50.7862 69.974H54.7862V65.974H50.7862V69.974ZM50.7862 74.16H46.7862V78.16H50.7862V74.16ZM55.0182 74.16H59.0182V70.16H55.0182V74.16ZM55.0182 82.486H51.0182V86.486H55.0182V82.486ZM58.6982 82.486V86.486H62.6982V82.486H58.6982ZM58.6982 74.16V70.16H54.6982V74.16H58.6982ZM62.9302 74.16V78.16H66.9302V74.16H62.9302ZM62.9302 69.974V65.974H58.9302V69.974H62.9302ZM67.5762 69.974H71.5762V65.974H67.5762V69.974ZM67.5762 74.16H63.5762V78.16H67.5762V74.16ZM71.7162 74.16H75.7162V70.16H71.7162V74.16ZM71.7162 99.552V103.552H75.7162V99.552H71.7162ZM67.1162 99.552H63.1162V103.552H67.1162V99.552ZM67.1162 74.62H71.1162V70.62H67.1162V74.62ZM63.3902 74.62V70.62H59.3902V74.62H63.3902ZM63.3902 82.9V86.9H67.3902V82.9H63.3902ZM59.1582 82.9V78.9H55.1582V82.9H59.1582ZM59.1582 95.412V99.412H63.1582V95.412H59.1582ZM54.5582 95.412H50.5582V99.412H54.5582V95.412ZM54.5582 82.9H58.5582V78.9H54.5582V82.9ZM50.3262 82.9H46.3262V86.9H50.3262V82.9ZM50.3262 74.62H54.3262V70.62H50.3262V74.62ZM46.6462 74.62V70.62H42.6462V74.62H46.6462ZM46.6462 99.552V103.552H50.6462V99.552H46.6462ZM42.0002 99.552H46.0002V74.16H42.0002H38.0002V99.552H42.0002ZM42.0002 74.16V78.16H46.1862V74.16V70.16H42.0002V74.16ZM46.1862 74.16H50.1862V69.974H46.1862H42.1862V74.16H46.1862ZM46.1862 69.974V73.974H50.7862V69.974V65.974H46.1862V69.974ZM50.7862 69.974H46.7862V74.16H50.7862H54.7862V69.974H50.7862ZM50.7862 74.16V78.16H55.0182V74.16V70.16H50.7862V74.16ZM55.0182 74.16H51.0182V82.486H55.0182H59.0182V74.16H55.0182ZM55.0182 82.486V86.486H58.6982V82.486V78.486H55.0182V82.486ZM58.6982 82.486H62.6982V74.16H58.6982H54.6982V82.486H58.6982ZM58.6982 74.16V78.16H62.9302V74.16V70.16H58.6982V74.16ZM62.9302 74.16H66.9302V69.974H62.9302H58.9302V74.16H62.9302ZM62.9302 69.974V73.974H67.5762V69.974V65.974H62.9302V69.974ZM67.5762 69.974H63.5762V74.16H67.5762H71.5762V69.974H67.5762ZM67.5762 74.16V78.16H71.7162V74.16V70.16H67.5762V74.16ZM71.7162 74.16H67.7162V99.552H71.7162H75.7162V74.16H71.7162ZM71.7162 99.552V95.552H67.1162V99.552V103.552H71.7162V99.552ZM67.1162 99.552H71.1162V74.62H67.1162H63.1162V99.552H67.1162ZM67.1162 74.62V70.62H63.3902V74.62V78.62H67.1162V74.62ZM63.3902 74.62H59.3902V82.9H63.3902H67.3902V74.62H63.3902ZM63.3902 82.9V78.9H59.1582V82.9V86.9H63.3902V82.9ZM59.1582 82.9H55.1582V95.412H59.1582H63.1582V82.9H59.1582ZM59.1582 95.412V91.412H54.5582V95.412V99.412H59.1582V95.412ZM54.5582 95.412H58.5582V82.9H54.5582H50.5582V95.412H54.5582ZM54.5582 82.9V78.9H50.3262V82.9V86.9H54.5582V82.9ZM50.3262 82.9H54.3262V74.62H50.3262H46.3262V82.9H50.3262ZM50.3262 74.62V70.62H46.6462V74.62V78.62H50.3262V74.62ZM46.6462 74.62H42.6462V99.552H46.6462H50.6462V74.62H46.6462ZM46.6462 99.552V95.552H42.0002V99.552V103.552H46.6462V99.552ZM84.2099 99.552H80.2099V103.552H84.2099V99.552ZM84.2099 95.412H88.2099V91.412H84.2099V95.412ZM80.0239 95.412H76.0239V99.412H80.0239V95.412ZM80.0239 82.486V78.486H76.0239V82.486H80.0239ZM84.2099 82.486V86.486H88.2099V82.486H84.2099ZM84.2099 78.3V74.3H80.2099V78.3H84.2099ZM97.1819 78.3H101.182V74.3H97.1819V78.3ZM97.1819 82.486H93.1819V86.486H97.1819V82.486ZM101.414 82.486H105.414V78.486H101.414V82.486ZM101.414 87.04V91.04H105.414V87.04H101.414ZM96.7219 87.04H92.7219V91.04H96.7219V87.04ZM96.7219 82.9H100.722V78.9H96.7219V82.9ZM84.6699 82.9V78.9H80.6699V82.9H84.6699ZM84.6699 86.58H80.6699V90.58H84.6699V86.58ZM93.0419 86.58H97.0419V82.58H93.0419V86.58ZM93.0419 91.226V95.226H97.0419V91.226H93.0419ZM84.6699 91.226V87.226H80.6699V91.226H84.6699ZM84.6699 94.952H80.6699V98.952H84.6699V94.952ZM96.7219 94.952V98.952H100.722V94.952H96.7219ZM96.7219 90.72V86.72H92.7219V90.72H96.7219ZM101.414 90.72H105.414V86.72H101.414V90.72ZM101.414 95.366V99.366H105.414V95.366H101.414ZM97.1819 95.366V91.366H93.1819V95.366H97.1819ZM97.1819 99.552V103.552H101.182V99.552H97.1819ZM84.2099 99.552H88.2099V95.412H84.2099H80.2099V99.552H84.2099ZM84.2099 95.412V91.412H80.0239V95.412V99.412H84.2099V95.412ZM80.0239 95.412H84.0239V82.486H80.0239H76.0239V95.412H80.0239ZM80.0239 82.486V86.486H84.2099V82.486V78.486H80.0239V82.486ZM84.2099 82.486H88.2099V78.3H84.2099H80.2099V82.486H84.2099ZM84.2099 78.3V82.3H97.1819V78.3V74.3H84.2099V78.3ZM97.1819 78.3H93.1819V82.486H97.1819H101.182V78.3H97.1819ZM97.1819 82.486V86.486H101.414V82.486V78.486H97.1819V82.486ZM101.414 82.486H97.4139V87.04H101.414H105.414V82.486H101.414ZM101.414 87.04V83.04H96.7219V87.04V91.04H101.414V87.04ZM96.7219 87.04H100.722V82.9H96.7219H92.7219V87.04H96.7219ZM96.7219 82.9V78.9H84.6699V82.9V86.9H96.7219V82.9ZM84.6699 82.9H80.6699V86.58H84.6699H88.6699V82.9H84.6699ZM84.6699 86.58V90.58H93.0419V86.58V82.58H84.6699V86.58ZM93.0419 86.58H89.0419V91.226H93.0419H97.0419V86.58H93.0419ZM93.0419 91.226V87.226H84.6699V91.226V95.226H93.0419V91.226ZM84.6699 91.226H80.6699V94.952H84.6699H88.6699V91.226H84.6699ZM84.6699 94.952V98.952H96.7219V94.952V90.952H84.6699V94.952ZM96.7219 94.952H100.722V90.72H96.7219H92.7219V94.952H96.7219ZM96.7219 90.72V94.72H101.414V90.72V86.72H96.7219V90.72ZM101.414 90.72H97.4139V95.366H101.414H105.414V90.72H101.414ZM101.414 95.366V91.366H97.1819V95.366V99.366H101.414V95.366ZM97.1819 95.366H93.1819V99.552H97.1819H101.182V95.366H97.1819ZM97.1819 99.552V95.552H84.2099V99.552V103.552H97.1819V99.552ZM113.923 99.552H109.923V103.552H113.923V99.552ZM113.923 95.412H117.923V91.412H113.923V95.412ZM109.737 95.412H105.737V99.412H109.737V95.412ZM109.737 82.486V78.486H105.737V82.486H109.737ZM113.923 82.486V86.486H117.923V82.486H113.923ZM113.923 78.3V74.3H109.923V78.3H113.923ZM126.481 78.3V82.3H130.481V78.3H126.481ZM126.481 69.974V65.974H122.481V69.974H126.481ZM131.127 69.974H135.127V65.974H131.127V69.974ZM131.127 95.412V99.412H135.127V95.412H131.127ZM126.895 95.412V91.412H122.895V95.412H126.895ZM126.895 99.552V103.552H130.895V99.552H126.895ZM114.383 94.952H110.383V98.952H114.383V94.952ZM126.435 94.952V98.952H130.435V94.952H126.435ZM126.435 82.9H130.435V78.9H126.435V82.9ZM114.383 82.9V78.9H110.383V82.9H114.383ZM113.923 99.552H117.923V95.412H113.923H109.923V99.552H113.923ZM113.923 95.412V91.412H109.737V95.412V99.412H113.923V95.412ZM109.737 95.412H113.737V82.486H109.737H105.737V95.412H109.737ZM109.737 82.486V86.486H113.923V82.486V78.486H109.737V82.486ZM113.923 82.486H117.923V78.3H113.923H109.923V82.486H113.923ZM113.923 78.3V82.3H126.481V78.3V74.3H113.923V78.3ZM126.481 78.3H130.481V69.974H126.481H122.481V78.3H126.481ZM126.481 69.974V73.974H131.127V69.974V65.974H126.481V69.974ZM131.127 69.974H127.127V95.412H131.127H135.127V69.974H131.127ZM131.127 95.412V91.412H126.895V95.412V99.412H131.127V95.412ZM126.895 95.412H122.895V99.552H126.895H130.895V95.412H126.895ZM126.895 99.552V95.552H113.923V99.552V103.552H126.895V99.552ZM114.383 94.952V98.952H126.435V94.952V90.952H114.383V94.952ZM126.435 94.952H130.435V82.9H126.435H122.435V94.952H126.435ZM126.435 82.9V78.9H114.383V82.9V86.9H126.435V82.9ZM114.383 82.9H110.383V94.952H114.383H118.383V82.9H114.383ZM138.552 99.552H134.552V103.552H138.552V99.552ZM138.552 69.974V65.974H134.552V69.974H138.552ZM143.198 69.974H147.198V65.974H143.198V69.974ZM143.198 82.486H139.198V86.486H143.198V82.486ZM146.878 82.486V86.486H150.878V82.486H146.878ZM146.878 78.3V74.3H142.878V78.3H146.878ZM155.71 78.3H159.71V74.3H155.71V78.3ZM155.71 82.486H151.71V86.486H155.71V82.486ZM159.942 82.486H163.942V78.486H159.942V82.486ZM159.942 99.552V103.552H163.942V99.552H159.942ZM155.25 99.552H151.25V103.552H155.25V99.552ZM155.25 82.9H159.25V78.9H155.25V82.9ZM147.338 82.9V78.9H143.338V82.9H147.338ZM147.338 87.04V91.04H151.338V87.04H147.338ZM143.198 87.04V83.04H139.198V87.04H143.198ZM143.198 99.552V103.552H147.198V99.552H143.198ZM138.552 99.552H142.552V69.974H138.552H134.552V99.552H138.552ZM138.552 69.974V73.974H143.198V69.974V65.974H138.552V69.974ZM143.198 69.974H139.198V82.486H143.198H147.198V69.974H143.198ZM143.198 82.486V86.486H146.878V82.486V78.486H143.198V82.486ZM146.878 82.486H150.878V78.3H146.878H142.878V82.486H146.878ZM146.878 78.3V82.3H155.71V78.3V74.3H146.878V78.3ZM155.71 78.3H151.71V82.486H155.71H159.71V78.3H155.71ZM155.71 82.486V86.486H159.942V82.486V78.486H155.71V82.486ZM159.942 82.486H155.942V99.552H159.942H163.942V82.486H159.942ZM159.942 99.552V95.552H155.25V99.552V103.552H159.942V99.552ZM155.25 99.552H159.25V82.9H155.25H151.25V99.552H155.25ZM155.25 82.9V78.9H147.338V82.9V86.9H155.25V82.9ZM147.338 82.9H143.338V87.04H147.338H151.338V82.9H147.338ZM147.338 87.04V83.04H143.198V87.04V91.04H147.338V87.04ZM143.198 87.04H139.198V99.552H143.198H147.198V87.04H143.198ZM143.198 99.552V95.552H138.552V99.552V103.552H143.198V99.552ZM171.552 99.552H167.552V103.552H171.552V99.552ZM171.552 95.412H175.552V91.412H171.552V95.412ZM167.366 95.412H163.366V99.412H167.366V95.412ZM167.366 78.3V74.3H163.366V78.3H167.366ZM172.012 78.3H176.012V74.3H172.012V78.3ZM172.012 94.952H168.012V98.952H172.012V94.952ZM184.064 94.952V98.952H188.064V94.952H184.064ZM184.064 78.3V74.3H180.064V78.3H184.064ZM188.756 78.3H192.756V74.3H188.756V78.3ZM188.756 95.412V99.412H192.756V95.412H188.756ZM184.524 95.412V91.412H180.524V95.412H184.524ZM184.524 99.552V103.552H188.524V99.552H184.524ZM171.552 99.552H175.552V95.412H171.552H167.552V99.552H171.552ZM171.552 95.412V91.412H167.366V95.412V99.412H171.552V95.412ZM167.366 95.412H171.366V78.3H167.366H163.366V95.412H167.366ZM167.366 78.3V82.3H172.012V78.3V74.3H167.366V78.3ZM172.012 78.3H168.012V94.952H172.012H176.012V78.3H172.012ZM172.012 94.952V98.952H184.064V94.952V90.952H172.012V94.952ZM184.064 94.952H188.064V78.3H184.064H180.064V94.952H184.064ZM184.064 78.3V82.3H188.756V78.3V74.3H184.064V78.3ZM188.756 78.3H184.756V95.412H188.756H192.756V78.3H188.756ZM188.756 95.412V91.412H184.524V95.412V99.412H188.756V95.412ZM184.524 95.412H180.524V99.552H184.524H188.524V95.412H184.524ZM184.524 99.552V95.552H171.552V99.552V103.552H184.524V99.552ZM201.266 99.552H197.266V103.552H201.266V99.552ZM201.266 95.412H205.266V91.412H201.266V95.412ZM197.08 95.412H193.08V99.412H197.08V95.412ZM197.08 69.974V65.974H193.08V69.974H197.08ZM201.726 69.974H205.726V65.974H201.726V69.974ZM201.726 78.3H197.726V82.3H201.726V78.3ZM214.238 78.3H218.238V74.3H214.238V78.3ZM214.238 82.486H210.238V86.486H214.238V82.486ZM218.47 82.486H222.47V78.486H218.47V82.486ZM218.47 95.412V99.412H222.47V95.412H218.47ZM214.238 95.412V91.412H210.238V95.412H214.238ZM214.238 99.552V103.552H218.238V99.552H214.238ZM201.726 94.952H197.726V98.952H201.726V94.952ZM213.778 94.952V98.952H217.778V94.952H213.778ZM213.778 82.9H217.778V78.9H213.778V82.9ZM201.726 82.9V78.9H197.726V82.9H201.726ZM201.266 99.552H205.266V95.412H201.266H197.266V99.552H201.266ZM201.266 95.412V91.412H197.08V95.412V99.412H201.266V95.412ZM197.08 95.412H201.08V69.974H197.08H193.08V95.412H197.08ZM197.08 69.974V73.974H201.726V69.974V65.974H197.08V69.974ZM201.726 69.974H197.726V78.3H201.726H205.726V69.974H201.726ZM201.726 78.3V82.3H214.238V78.3V74.3H201.726V78.3ZM214.238 78.3H210.238V82.486H214.238H218.238V78.3H214.238ZM214.238 82.486V86.486H218.47V82.486V78.486H214.238V82.486ZM218.47 82.486H214.47V95.412H218.47H222.47V82.486H218.47ZM218.47 95.412V91.412H214.238V95.412V99.412H218.47V95.412ZM214.238 95.412H210.238V99.552H214.238H218.238V95.412H214.238ZM214.238 99.552V95.552H201.266V99.552V103.552H214.238V99.552ZM201.726 94.952V98.952H213.778V94.952V90.952H201.726V94.952ZM213.778 94.952H217.778V82.9H213.778H209.778V94.952H213.778ZM213.778 82.9V78.9H201.726V82.9V86.9H213.778V82.9ZM201.726 82.9H197.726V94.952H201.726H205.726V82.9H201.726ZM226.793 99H222.793V103H226.793V99ZM226.793 94.354V90.354H222.793V94.354H226.793ZM231.439 94.354H235.439V90.354H231.439V94.354ZM231.439 99V103H235.439V99H231.439ZM226.793 99H230.793V94.354H226.793H222.793V99H226.793ZM226.793 94.354V98.354H231.439V94.354V90.354H226.793V94.354ZM231.439 94.354H227.439V99H231.439H235.439V94.354H231.439ZM231.439 99V95H226.793V99V103H231.439V99ZM239.75 99.552H235.75V103.552H239.75V99.552ZM239.75 78.3V74.3H235.75V78.3H239.75ZM243.936 78.3V82.3H247.936V78.3H243.936ZM243.936 74.16V70.16H239.936V74.16H243.936ZM248.076 74.16V78.16H252.076V74.16H248.076ZM248.076 69.974V65.974H244.076V69.974H248.076ZM252.768 69.974H256.768V65.974H252.768V69.974ZM252.768 74.16H248.768V78.16H252.768V74.16ZM256.908 74.16H260.908V70.16H256.908V74.16ZM256.908 78.3H252.908V82.3H256.908V78.3ZM261.14 78.3H265.14V74.3H261.14V78.3ZM261.14 99.552V103.552H265.14V99.552H261.14ZM256.448 99.552H252.448V103.552H256.448V99.552ZM256.448 91.226H260.448V87.226H256.448V91.226ZM244.396 91.226V87.226H240.396V91.226H244.396ZM244.396 99.552V103.552H248.396V99.552H244.396ZM244.396 86.58H240.396V90.58H244.396V86.58ZM256.448 86.58V90.58H260.448V86.58H256.448ZM256.448 78.76H260.448V74.76H256.448V78.76ZM252.308 78.76H248.308V82.76H252.308V78.76ZM252.308 74.62H256.308V70.62H252.308V74.62ZM248.536 74.62V70.62H244.536V74.62H248.536ZM248.536 78.76V82.76H252.536V78.76H248.536ZM244.396 78.76V74.76H240.396V78.76H244.396ZM239.75 99.552H243.75V78.3H239.75H235.75V99.552H239.75ZM239.75 78.3V82.3H243.936V78.3V74.3H239.75V78.3ZM243.936 78.3H247.936V74.16H243.936H239.936V78.3H243.936ZM243.936 74.16V78.16H248.076V74.16V70.16H243.936V74.16ZM248.076 74.16H252.076V69.974H248.076H244.076V74.16H248.076ZM248.076 69.974V73.974H252.768V69.974V65.974H248.076V69.974ZM252.768 69.974H248.768V74.16H252.768H256.768V69.974H252.768ZM252.768 74.16V78.16H256.908V74.16V70.16H252.768V74.16ZM256.908 74.16H252.908V78.3H256.908H260.908V74.16H256.908ZM256.908 78.3V82.3H261.14V78.3V74.3H256.908V78.3ZM261.14 78.3H257.14V99.552H261.14H265.14V78.3H261.14ZM261.14 99.552V95.552H256.448V99.552V103.552H261.14V99.552ZM256.448 99.552H260.448V91.226H256.448H252.448V99.552H256.448ZM256.448 91.226V87.226H244.396V91.226V95.226H256.448V91.226ZM244.396 91.226H240.396V99.552H244.396H248.396V91.226H244.396ZM244.396 99.552V95.552H239.75V99.552V103.552H244.396V99.552ZM244.396 86.58V90.58H256.448V86.58V82.58H244.396V86.58ZM256.448 86.58H260.448V78.76H256.448H252.448V86.58H256.448ZM256.448 78.76V74.76H252.308V78.76V82.76H256.448V78.76ZM252.308 78.76H256.308V74.62H252.308H248.308V78.76H252.308ZM252.308 74.62V70.62H248.536V74.62V78.62H252.308V74.62ZM248.536 74.62H244.536V78.76H248.536H252.536V74.62H248.536ZM248.536 78.76V74.76H244.396V78.76V82.76H248.536V78.76ZM244.396 78.76H240.396V86.58H244.396H248.396V78.76H244.396ZM269.463 99.552H265.463V103.552H269.463V99.552ZM269.463 94.952V90.952H265.463V94.952H269.463ZM273.649 94.952V98.952H277.649V94.952H273.649ZM273.649 74.62H277.649V70.62H273.649V74.62ZM269.463 74.62H265.463V78.62H269.463V74.62ZM269.463 69.974V65.974H265.463V69.974H269.463ZM282.481 69.974H286.481V65.974H282.481V69.974ZM282.481 74.62V78.62H286.481V74.62H282.481ZM278.249 74.62V70.62H274.249V74.62H278.249ZM278.249 94.952H274.249V98.952H278.249V94.952ZM282.481 94.952H286.481V90.952H282.481V94.952ZM282.481 99.552V103.552H286.481V99.552H282.481ZM269.463 99.552H273.463V94.952H269.463H265.463V99.552H269.463ZM269.463 94.952V98.952H273.649V94.952V90.952H269.463V94.952ZM273.649 94.952H277.649V74.62H273.649H269.649V94.952H273.649ZM273.649 74.62V70.62H269.463V74.62V78.62H273.649V74.62ZM269.463 74.62H273.463V69.974H269.463H265.463V74.62H269.463ZM269.463 69.974V73.974H282.481V69.974V65.974H269.463V69.974ZM282.481 69.974H278.481V74.62H282.481H286.481V69.974H282.481ZM282.481 74.62V70.62H278.249V74.62V78.62H282.481V74.62ZM278.249 74.62H274.249V94.952H278.249H282.249V74.62H278.249ZM278.249 94.952V98.952H282.481V94.952V90.952H278.249V94.952ZM282.481 94.952H278.481V99.552H282.481H286.481V94.952H282.481ZM282.481 99.552V95.552H269.463V99.552V103.552H282.481V99.552Z" fill="black" mask="url(#path-3-outside-2_538_144869)"/>
</svg>
