<svg width="539" height="64" viewBox="0 0 539 64" fill="none" xmlns="http://www.w3.org/2000/svg">
<mask id="path-1-outside-1_287_30377" maskUnits="userSpaceOnUse" x="-0.143555" y="-0.519531" width="540" height="64" fill="black">
<rect fill="white" x="-0.143555" y="-0.519531" width="540" height="64"/>
<path d="M6.0002 57.4405V20.4805H13.2802V13.2805H20.4802V6.00047H28.6402V13.2805H35.8402V20.4805H43.2002V57.4405H35.0402V42.9605H14.0802V57.4405H6.0002ZM14.0802 34.8805H35.0402V21.2805H27.8402V14.0805H21.2802V21.2805H14.0802V34.8805ZM60.9927 57.4405V50.2405H53.7127V20.4805H61.7927V49.4405H82.7527V20.4805H90.9127V50.2405H83.5527V57.4405H60.9927ZM114.265 57.4405V50.2405H107.065V28.4805H99.7846V20.4805H107.065V6.00047H115.065V20.4805H136.985V28.4805H115.065V49.4405H136.185V42.1605H144.265V50.2405H136.985V57.4405H114.265ZM161.183 57.4405V50.2405H153.903V27.7605H161.183V20.4805H183.743V27.7605H191.103V50.2405H183.743V57.4405H161.183ZM161.983 49.4405H182.943V28.4805H161.983V49.4405ZM210.458 57.4405V50.2405H203.178V27.7605H210.458V20.4805H233.018V27.7605H240.378V35.6805H232.218V28.4805H211.258V49.4405H232.218V42.1605H240.378V50.2405H233.018V57.4405H210.458ZM257.311 57.4405V50.2405H250.031V27.7605H257.311V20.4805H279.871V27.7605H287.231V49.4405H294.511V57.4405H286.431V50.2405H279.871V57.4405H257.311ZM258.111 49.4405H279.071V28.4805H258.111V49.4405ZM312.224 57.4405V50.2405H305.024V28.4805H297.744V20.4805H305.024V6.00047H313.024V20.4805H334.944V28.4805H313.024V49.4405H334.144V42.1605H342.224V50.2405H334.944V57.4405H312.224ZM352.722 57.4405V6.00047H360.802V27.7605H367.202V20.4805H382.562V27.7605H389.922V57.4405H381.762V28.4805H368.002V35.6805H360.802V57.4405H352.722ZM401.997 57.4405V6.00047H431.837V13.2805H439.197V21.2805H431.037V14.0805H410.077V27.7605H424.637V35.6805H410.077V57.4405H401.997ZM449.71 57.4405V6.00047H479.55V13.2805H486.91V21.2805H478.75V14.0805H457.79V27.7605H472.35V35.6805H457.79V57.4405H449.71ZM495.781 57.4405V13.2805H503.061V6.00047H525.621V13.2805H532.981V35.6805H525.621V42.9605H522.101V49.4405H529.301V57.4405H521.301V50.2405H513.941V42.9605H503.861V57.4405H495.781ZM503.861 34.8805H524.821V14.0805H503.861V34.8805Z"/>
</mask>
<path d="M6.0002 57.4405V20.4805H13.2802V13.2805H20.4802V6.00047H28.6402V13.2805H35.8402V20.4805H43.2002V57.4405H35.0402V42.9605H14.0802V57.4405H6.0002ZM14.0802 34.8805H35.0402V21.2805H27.8402V14.0805H21.2802V21.2805H14.0802V34.8805ZM60.9927 57.4405V50.2405H53.7127V20.4805H61.7927V49.4405H82.7527V20.4805H90.9127V50.2405H83.5527V57.4405H60.9927ZM114.265 57.4405V50.2405H107.065V28.4805H99.7846V20.4805H107.065V6.00047H115.065V20.4805H136.985V28.4805H115.065V49.4405H136.185V42.1605H144.265V50.2405H136.985V57.4405H114.265ZM161.183 57.4405V50.2405H153.903V27.7605H161.183V20.4805H183.743V27.7605H191.103V50.2405H183.743V57.4405H161.183ZM161.983 49.4405H182.943V28.4805H161.983V49.4405ZM210.458 57.4405V50.2405H203.178V27.7605H210.458V20.4805H233.018V27.7605H240.378V35.6805H232.218V28.4805H211.258V49.4405H232.218V42.1605H240.378V50.2405H233.018V57.4405H210.458ZM257.311 57.4405V50.2405H250.031V27.7605H257.311V20.4805H279.871V27.7605H287.231V49.4405H294.511V57.4405H286.431V50.2405H279.871V57.4405H257.311ZM258.111 49.4405H279.071V28.4805H258.111V49.4405ZM312.224 57.4405V50.2405H305.024V28.4805H297.744V20.4805H305.024V6.00047H313.024V20.4805H334.944V28.4805H313.024V49.4405H334.144V42.1605H342.224V50.2405H334.944V57.4405H312.224ZM352.722 57.4405V6.00047H360.802V27.7605H367.202V20.4805H382.562V27.7605H389.922V57.4405H381.762V28.4805H368.002V35.6805H360.802V57.4405H352.722ZM401.997 57.4405V6.00047H431.837V13.2805H439.197V21.2805H431.037V14.0805H410.077V27.7605H424.637V35.6805H410.077V57.4405H401.997ZM449.71 57.4405V6.00047H479.55V13.2805H486.91V21.2805H478.75V14.0805H457.79V27.7605H472.35V35.6805H457.79V57.4405H449.71ZM495.781 57.4405V13.2805H503.061V6.00047H525.621V13.2805H532.981V35.6805H525.621V42.9605H522.101V49.4405H529.301V57.4405H521.301V50.2405H513.941V42.9605H503.861V57.4405H495.781ZM503.861 34.8805H524.821V14.0805H503.861V34.8805Z" fill="#12F1C7"/>
<path d="M6.0002 57.4405H0.000195503V63.4405H6.0002V57.4405ZM6.0002 20.4805V14.4805H0.000195503V20.4805H6.0002ZM13.2802 20.4805V26.4805H19.2802V20.4805H13.2802ZM13.2802 13.2805V7.28047H7.2802V13.2805H13.2802ZM20.4802 13.2805V19.2805H26.4802V13.2805H20.4802ZM20.4802 6.00047V0.000465393H14.4802V6.00047H20.4802ZM28.6402 6.00047H34.6402V0.000465393H28.6402V6.00047ZM28.6402 13.2805H22.6402V19.2805H28.6402V13.2805ZM35.8402 13.2805H41.8402V7.28047H35.8402V13.2805ZM35.8402 20.4805H29.8402V26.4805H35.8402V20.4805ZM43.2002 20.4805H49.2002V14.4805H43.2002V20.4805ZM43.2002 57.4405V63.4405H49.2002V57.4405H43.2002ZM35.0402 57.4405H29.0402V63.4405H35.0402V57.4405ZM35.0402 42.9605H41.0402V36.9605H35.0402V42.9605ZM14.0802 42.9605V36.9605H8.0802V42.9605H14.0802ZM14.0802 57.4405V63.4405H20.0802V57.4405H14.0802ZM14.0802 34.8805H8.0802V40.8805H14.0802V34.8805ZM35.0402 34.8805V40.8805H41.0402V34.8805H35.0402ZM35.0402 21.2805H41.0402V15.2805H35.0402V21.2805ZM27.8402 21.2805H21.8402V27.2805H27.8402V21.2805ZM27.8402 14.0805H33.8402V8.08047H27.8402V14.0805ZM21.2802 14.0805V8.08047H15.2802V14.0805H21.2802ZM21.2802 21.2805V27.2805H27.2802V21.2805H21.2802ZM14.0802 21.2805V15.2805H8.0802V21.2805H14.0802ZM6.0002 57.4405H12.0002V20.4805H6.0002H0.000195503V57.4405H6.0002ZM6.0002 20.4805V26.4805H13.2802V20.4805V14.4805H6.0002V20.4805ZM13.2802 20.4805H19.2802V13.2805H13.2802H7.2802V20.4805H13.2802ZM13.2802 13.2805V19.2805H20.4802V13.2805V7.28047H13.2802V13.2805ZM20.4802 13.2805H26.4802V6.00047H20.4802H14.4802V13.2805H20.4802ZM20.4802 6.00047V12.0005H28.6402V6.00047V0.000465393H20.4802V6.00047ZM28.6402 6.00047H22.6402V13.2805H28.6402H34.6402V6.00047H28.6402ZM28.6402 13.2805V19.2805H35.8402V13.2805V7.28047H28.6402V13.2805ZM35.8402 13.2805H29.8402V20.4805H35.8402H41.8402V13.2805H35.8402ZM35.8402 20.4805V26.4805H43.2002V20.4805V14.4805H35.8402V20.4805ZM43.2002 20.4805H37.2002V57.4405H43.2002H49.2002V20.4805H43.2002ZM43.2002 57.4405V51.4405H35.0402V57.4405V63.4405H43.2002V57.4405ZM35.0402 57.4405H41.0402V42.9605H35.0402H29.0402V57.4405H35.0402ZM35.0402 42.9605V36.9605H14.0802V42.9605V48.9605H35.0402V42.9605ZM14.0802 42.9605H8.0802V57.4405H14.0802H20.0802V42.9605H14.0802ZM14.0802 57.4405V51.4405H6.0002V57.4405V63.4405H14.0802V57.4405ZM14.0802 34.8805V40.8805H35.0402V34.8805V28.8805H14.0802V34.8805ZM35.0402 34.8805H41.0402V21.2805H35.0402H29.0402V34.8805H35.0402ZM35.0402 21.2805V15.2805H27.8402V21.2805V27.2805H35.0402V21.2805ZM27.8402 21.2805H33.8402V14.0805H27.8402H21.8402V21.2805H27.8402ZM27.8402 14.0805V8.08047H21.2802V14.0805V20.0805H27.8402V14.0805ZM21.2802 14.0805H15.2802V21.2805H21.2802H27.2802V14.0805H21.2802ZM21.2802 21.2805V15.2805H14.0802V21.2805V27.2805H21.2802V21.2805ZM14.0802 21.2805H8.0802V34.8805H14.0802H20.0802V21.2805H14.0802ZM60.9927 57.4405H54.9927V63.4405H60.9927V57.4405ZM60.9927 50.2405H66.9927V44.2405H60.9927V50.2405ZM53.7127 50.2405H47.7127V56.2405H53.7127V50.2405ZM53.7127 20.4805V14.4805H47.7127V20.4805H53.7127ZM61.7927 20.4805H67.7927V14.4805H61.7927V20.4805ZM61.7927 49.4405H55.7927V55.4405H61.7927V49.4405ZM82.7527 49.4405V55.4405H88.7527V49.4405H82.7527ZM82.7527 20.4805V14.4805H76.7527V20.4805H82.7527ZM90.9127 20.4805H96.9127V14.4805H90.9127V20.4805ZM90.9127 50.2405V56.2405H96.9127V50.2405H90.9127ZM83.5527 50.2405V44.2405H77.5527V50.2405H83.5527ZM83.5527 57.4405V63.4405H89.5527V57.4405H83.5527ZM60.9927 57.4405H66.9927V50.2405H60.9927H54.9927V57.4405H60.9927ZM60.9927 50.2405V44.2405H53.7127V50.2405V56.2405H60.9927V50.2405ZM53.7127 50.2405H59.7127V20.4805H53.7127H47.7127V50.2405H53.7127ZM53.7127 20.4805V26.4805H61.7927V20.4805V14.4805H53.7127V20.4805ZM61.7927 20.4805H55.7927V49.4405H61.7927H67.7927V20.4805H61.7927ZM61.7927 49.4405V55.4405H82.7527V49.4405V43.4405H61.7927V49.4405ZM82.7527 49.4405H88.7527V20.4805H82.7527H76.7527V49.4405H82.7527ZM82.7527 20.4805V26.4805H90.9127V20.4805V14.4805H82.7527V20.4805ZM90.9127 20.4805H84.9127V50.2405H90.9127H96.9127V20.4805H90.9127ZM90.9127 50.2405V44.2405H83.5527V50.2405V56.2405H90.9127V50.2405ZM83.5527 50.2405H77.5527V57.4405H83.5527H89.5527V50.2405H83.5527ZM83.5527 57.4405V51.4405H60.9927V57.4405V63.4405H83.5527V57.4405ZM114.265 57.4405H108.265V63.4405H114.265V57.4405ZM114.265 50.2405H120.265V44.2405H114.265V50.2405ZM107.065 50.2405H101.065V56.2405H107.065V50.2405ZM107.065 28.4805H113.065V22.4805H107.065V28.4805ZM99.7846 28.4805H93.7846V34.4805H99.7846V28.4805ZM99.7846 20.4805V14.4805H93.7846V20.4805H99.7846ZM107.065 20.4805V26.4805H113.065V20.4805H107.065ZM107.065 6.00047V0.000465393H101.065V6.00047H107.065ZM115.065 6.00047H121.065V0.000465393H115.065V6.00047ZM115.065 20.4805H109.065V26.4805H115.065V20.4805ZM136.985 20.4805H142.985V14.4805H136.985V20.4805ZM136.985 28.4805V34.4805H142.985V28.4805H136.985ZM115.065 28.4805V22.4805H109.065V28.4805H115.065ZM115.065 49.4405H109.065V55.4405H115.065V49.4405ZM136.185 49.4405V55.4405H142.185V49.4405H136.185ZM136.185 42.1605V36.1605H130.185V42.1605H136.185ZM144.265 42.1605H150.265V36.1605H144.265V42.1605ZM144.265 50.2405V56.2405H150.265V50.2405H144.265ZM136.985 50.2405V44.2405H130.985V50.2405H136.985ZM136.985 57.4405V63.4405H142.985V57.4405H136.985ZM114.265 57.4405H120.265V50.2405H114.265H108.265V57.4405H114.265ZM114.265 50.2405V44.2405H107.065V50.2405V56.2405H114.265V50.2405ZM107.065 50.2405H113.065V28.4805H107.065H101.065V50.2405H107.065ZM107.065 28.4805V22.4805H99.7846V28.4805V34.4805H107.065V28.4805ZM99.7846 28.4805H105.785V20.4805H99.7846H93.7846V28.4805H99.7846ZM99.7846 20.4805V26.4805H107.065V20.4805V14.4805H99.7846V20.4805ZM107.065 20.4805H113.065V6.00047H107.065H101.065V20.4805H107.065ZM107.065 6.00047V12.0005H115.065V6.00047V0.000465393H107.065V6.00047ZM115.065 6.00047H109.065V20.4805H115.065H121.065V6.00047H115.065ZM115.065 20.4805V26.4805H136.985V20.4805V14.4805H115.065V20.4805ZM136.985 20.4805H130.985V28.4805H136.985H142.985V20.4805H136.985ZM136.985 28.4805V22.4805H115.065V28.4805V34.4805H136.985V28.4805ZM115.065 28.4805H109.065V49.4405H115.065H121.065V28.4805H115.065ZM115.065 49.4405V55.4405H136.185V49.4405V43.4405H115.065V49.4405ZM136.185 49.4405H142.185V42.1605H136.185H130.185V49.4405H136.185ZM136.185 42.1605V48.1605H144.265V42.1605V36.1605H136.185V42.1605ZM144.265 42.1605H138.265V50.2405H144.265H150.265V42.1605H144.265ZM144.265 50.2405V44.2405H136.985V50.2405V56.2405H144.265V50.2405ZM136.985 50.2405H130.985V57.4405H136.985H142.985V50.2405H136.985ZM136.985 57.4405V51.4405H114.265V57.4405V63.4405H136.985V57.4405ZM161.183 57.4405H155.183V63.4405H161.183V57.4405ZM161.183 50.2405H167.183V44.2405H161.183V50.2405ZM153.903 50.2405H147.903V56.2405H153.903V50.2405ZM153.903 27.7605V21.7605H147.903V27.7605H153.903ZM161.183 27.7605V33.7605H167.183V27.7605H161.183ZM161.183 20.4805V14.4805H155.183V20.4805H161.183ZM183.743 20.4805H189.743V14.4805H183.743V20.4805ZM183.743 27.7605H177.743V33.7605H183.743V27.7605ZM191.103 27.7605H197.103V21.7605H191.103V27.7605ZM191.103 50.2405V56.2405H197.103V50.2405H191.103ZM183.743 50.2405V44.2405H177.743V50.2405H183.743ZM183.743 57.4405V63.4405H189.743V57.4405H183.743ZM161.983 49.4405H155.983V55.4405H161.983V49.4405ZM182.943 49.4405V55.4405H188.943V49.4405H182.943ZM182.943 28.4805H188.943V22.4805H182.943V28.4805ZM161.983 28.4805V22.4805H155.983V28.4805H161.983ZM161.183 57.4405H167.183V50.2405H161.183H155.183V57.4405H161.183ZM161.183 50.2405V44.2405H153.903V50.2405V56.2405H161.183V50.2405ZM153.903 50.2405H159.903V27.7605H153.903H147.903V50.2405H153.903ZM153.903 27.7605V33.7605H161.183V27.7605V21.7605H153.903V27.7605ZM161.183 27.7605H167.183V20.4805H161.183H155.183V27.7605H161.183ZM161.183 20.4805V26.4805H183.743V20.4805V14.4805H161.183V20.4805ZM183.743 20.4805H177.743V27.7605H183.743H189.743V20.4805H183.743ZM183.743 27.7605V33.7605H191.103V27.7605V21.7605H183.743V27.7605ZM191.103 27.7605H185.103V50.2405H191.103H197.103V27.7605H191.103ZM191.103 50.2405V44.2405H183.743V50.2405V56.2405H191.103V50.2405ZM183.743 50.2405H177.743V57.4405H183.743H189.743V50.2405H183.743ZM183.743 57.4405V51.4405H161.183V57.4405V63.4405H183.743V57.4405ZM161.983 49.4405V55.4405H182.943V49.4405V43.4405H161.983V49.4405ZM182.943 49.4405H188.943V28.4805H182.943H176.943V49.4405H182.943ZM182.943 28.4805V22.4805H161.983V28.4805V34.4805H182.943V28.4805ZM161.983 28.4805H155.983V49.4405H161.983H167.983V28.4805H161.983ZM210.458 57.4405H204.458V63.4405H210.458V57.4405ZM210.458 50.2405H216.458V44.2405H210.458V50.2405ZM203.178 50.2405H197.178V56.2405H203.178V50.2405ZM203.178 27.7605V21.7605H197.178V27.7605H203.178ZM210.458 27.7605V33.7605H216.458V27.7605H210.458ZM210.458 20.4805V14.4805H204.458V20.4805H210.458ZM233.018 20.4805H239.018V14.4805H233.018V20.4805ZM233.018 27.7605H227.018V33.7605H233.018V27.7605ZM240.378 27.7605H246.378V21.7605H240.378V27.7605ZM240.378 35.6805V41.6805H246.378V35.6805H240.378ZM232.218 35.6805H226.218V41.6805H232.218V35.6805ZM232.218 28.4805H238.218V22.4805H232.218V28.4805ZM211.258 28.4805V22.4805H205.258V28.4805H211.258ZM211.258 49.4405H205.258V55.4405H211.258V49.4405ZM232.218 49.4405V55.4405H238.218V49.4405H232.218ZM232.218 42.1605V36.1605H226.218V42.1605H232.218ZM240.378 42.1605H246.378V36.1605H240.378V42.1605ZM240.378 50.2405V56.2405H246.378V50.2405H240.378ZM233.018 50.2405V44.2405H227.018V50.2405H233.018ZM233.018 57.4405V63.4405H239.018V57.4405H233.018ZM210.458 57.4405H216.458V50.2405H210.458H204.458V57.4405H210.458ZM210.458 50.2405V44.2405H203.178V50.2405V56.2405H210.458V50.2405ZM203.178 50.2405H209.178V27.7605H203.178H197.178V50.2405H203.178ZM203.178 27.7605V33.7605H210.458V27.7605V21.7605H203.178V27.7605ZM210.458 27.7605H216.458V20.4805H210.458H204.458V27.7605H210.458ZM210.458 20.4805V26.4805H233.018V20.4805V14.4805H210.458V20.4805ZM233.018 20.4805H227.018V27.7605H233.018H239.018V20.4805H233.018ZM233.018 27.7605V33.7605H240.378V27.7605V21.7605H233.018V27.7605ZM240.378 27.7605H234.378V35.6805H240.378H246.378V27.7605H240.378ZM240.378 35.6805V29.6805H232.218V35.6805V41.6805H240.378V35.6805ZM232.218 35.6805H238.218V28.4805H232.218H226.218V35.6805H232.218ZM232.218 28.4805V22.4805H211.258V28.4805V34.4805H232.218V28.4805ZM211.258 28.4805H205.258V49.4405H211.258H217.258V28.4805H211.258ZM211.258 49.4405V55.4405H232.218V49.4405V43.4405H211.258V49.4405ZM232.218 49.4405H238.218V42.1605H232.218H226.218V49.4405H232.218ZM232.218 42.1605V48.1605H240.378V42.1605V36.1605H232.218V42.1605ZM240.378 42.1605H234.378V50.2405H240.378H246.378V42.1605H240.378ZM240.378 50.2405V44.2405H233.018V50.2405V56.2405H240.378V50.2405ZM233.018 50.2405H227.018V57.4405H233.018H239.018V50.2405H233.018ZM233.018 57.4405V51.4405H210.458V57.4405V63.4405H233.018V57.4405ZM257.311 57.4405H251.311V63.4405H257.311V57.4405ZM257.311 50.2405H263.311V44.2405H257.311V50.2405ZM250.031 50.2405H244.031V56.2405H250.031V50.2405ZM250.031 27.7605V21.7605H244.031V27.7605H250.031ZM257.311 27.7605V33.7605H263.311V27.7605H257.311ZM257.311 20.4805V14.4805H251.311V20.4805H257.311ZM279.871 20.4805H285.871V14.4805H279.871V20.4805ZM279.871 27.7605H273.871V33.7605H279.871V27.7605ZM287.231 27.7605H293.231V21.7605H287.231V27.7605ZM287.231 49.4405H281.231V55.4405H287.231V49.4405ZM294.511 49.4405H300.511V43.4405H294.511V49.4405ZM294.511 57.4405V63.4405H300.511V57.4405H294.511ZM286.431 57.4405H280.431V63.4405H286.431V57.4405ZM286.431 50.2405H292.431V44.2405H286.431V50.2405ZM279.871 50.2405V44.2405H273.871V50.2405H279.871ZM279.871 57.4405V63.4405H285.871V57.4405H279.871ZM258.111 49.4405H252.111V55.4405H258.111V49.4405ZM279.071 49.4405V55.4405H285.071V49.4405H279.071ZM279.071 28.4805H285.071V22.4805H279.071V28.4805ZM258.111 28.4805V22.4805H252.111V28.4805H258.111ZM257.311 57.4405H263.311V50.2405H257.311H251.311V57.4405H257.311ZM257.311 50.2405V44.2405H250.031V50.2405V56.2405H257.311V50.2405ZM250.031 50.2405H256.031V27.7605H250.031H244.031V50.2405H250.031ZM250.031 27.7605V33.7605H257.311V27.7605V21.7605H250.031V27.7605ZM257.311 27.7605H263.311V20.4805H257.311H251.311V27.7605H257.311ZM257.311 20.4805V26.4805H279.871V20.4805V14.4805H257.311V20.4805ZM279.871 20.4805H273.871V27.7605H279.871H285.871V20.4805H279.871ZM279.871 27.7605V33.7605H287.231V27.7605V21.7605H279.871V27.7605ZM287.231 27.7605H281.231V49.4405H287.231H293.231V27.7605H287.231ZM287.231 49.4405V55.4405H294.511V49.4405V43.4405H287.231V49.4405ZM294.511 49.4405H288.511V57.4405H294.511H300.511V49.4405H294.511ZM294.511 57.4405V51.4405H286.431V57.4405V63.4405H294.511V57.4405ZM286.431 57.4405H292.431V50.2405H286.431H280.431V57.4405H286.431ZM286.431 50.2405V44.2405H279.871V50.2405V56.2405H286.431V50.2405ZM279.871 50.2405H273.871V57.4405H279.871H285.871V50.2405H279.871ZM279.871 57.4405V51.4405H257.311V57.4405V63.4405H279.871V57.4405ZM258.111 49.4405V55.4405H279.071V49.4405V43.4405H258.111V49.4405ZM279.071 49.4405H285.071V28.4805H279.071H273.071V49.4405H279.071ZM279.071 28.4805V22.4805H258.111V28.4805V34.4805H279.071V28.4805ZM258.111 28.4805H252.111V49.4405H258.111H264.111V28.4805H258.111ZM312.224 57.4405H306.224V63.4405H312.224V57.4405ZM312.224 50.2405H318.224V44.2405H312.224V50.2405ZM305.024 50.2405H299.024V56.2405H305.024V50.2405ZM305.024 28.4805H311.024V22.4805H305.024V28.4805ZM297.744 28.4805H291.744V34.4805H297.744V28.4805ZM297.744 20.4805V14.4805H291.744V20.4805H297.744ZM305.024 20.4805V26.4805H311.024V20.4805H305.024ZM305.024 6.00047V0.000465393H299.024V6.00047H305.024ZM313.024 6.00047H319.024V0.000465393H313.024V6.00047ZM313.024 20.4805H307.024V26.4805H313.024V20.4805ZM334.944 20.4805H340.944V14.4805H334.944V20.4805ZM334.944 28.4805V34.4805H340.944V28.4805H334.944ZM313.024 28.4805V22.4805H307.024V28.4805H313.024ZM313.024 49.4405H307.024V55.4405H313.024V49.4405ZM334.144 49.4405V55.4405H340.144V49.4405H334.144ZM334.144 42.1605V36.1605H328.144V42.1605H334.144ZM342.224 42.1605H348.224V36.1605H342.224V42.1605ZM342.224 50.2405V56.2405H348.224V50.2405H342.224ZM334.944 50.2405V44.2405H328.944V50.2405H334.944ZM334.944 57.4405V63.4405H340.944V57.4405H334.944ZM312.224 57.4405H318.224V50.2405H312.224H306.224V57.4405H312.224ZM312.224 50.2405V44.2405H305.024V50.2405V56.2405H312.224V50.2405ZM305.024 50.2405H311.024V28.4805H305.024H299.024V50.2405H305.024ZM305.024 28.4805V22.4805H297.744V28.4805V34.4805H305.024V28.4805ZM297.744 28.4805H303.744V20.4805H297.744H291.744V28.4805H297.744ZM297.744 20.4805V26.4805H305.024V20.4805V14.4805H297.744V20.4805ZM305.024 20.4805H311.024V6.00047H305.024H299.024V20.4805H305.024ZM305.024 6.00047V12.0005H313.024V6.00047V0.000465393H305.024V6.00047ZM313.024 6.00047H307.024V20.4805H313.024H319.024V6.00047H313.024ZM313.024 20.4805V26.4805H334.944V20.4805V14.4805H313.024V20.4805ZM334.944 20.4805H328.944V28.4805H334.944H340.944V20.4805H334.944ZM334.944 28.4805V22.4805H313.024V28.4805V34.4805H334.944V28.4805ZM313.024 28.4805H307.024V49.4405H313.024H319.024V28.4805H313.024ZM313.024 49.4405V55.4405H334.144V49.4405V43.4405H313.024V49.4405ZM334.144 49.4405H340.144V42.1605H334.144H328.144V49.4405H334.144ZM334.144 42.1605V48.1605H342.224V42.1605V36.1605H334.144V42.1605ZM342.224 42.1605H336.224V50.2405H342.224H348.224V42.1605H342.224ZM342.224 50.2405V44.2405H334.944V50.2405V56.2405H342.224V50.2405ZM334.944 50.2405H328.944V57.4405H334.944H340.944V50.2405H334.944ZM334.944 57.4405V51.4405H312.224V57.4405V63.4405H334.944V57.4405ZM352.722 57.4405H346.722V63.4405H352.722V57.4405ZM352.722 6.00047V0.000465393H346.722V6.00047H352.722ZM360.802 6.00047H366.802V0.000465393H360.802V6.00047ZM360.802 27.7605H354.802V33.7605H360.802V27.7605ZM367.202 27.7605V33.7605H373.202V27.7605H367.202ZM367.202 20.4805V14.4805H361.202V20.4805H367.202ZM382.562 20.4805H388.562V14.4805H382.562V20.4805ZM382.562 27.7605H376.562V33.7605H382.562V27.7605ZM389.922 27.7605H395.922V21.7605H389.922V27.7605ZM389.922 57.4405V63.4405H395.922V57.4405H389.922ZM381.762 57.4405H375.762V63.4405H381.762V57.4405ZM381.762 28.4805H387.762V22.4805H381.762V28.4805ZM368.002 28.4805V22.4805H362.002V28.4805H368.002ZM368.002 35.6805V41.6805H374.002V35.6805H368.002ZM360.802 35.6805V29.6805H354.802V35.6805H360.802ZM360.802 57.4405V63.4405H366.802V57.4405H360.802ZM352.722 57.4405H358.722V6.00047H352.722H346.722V57.4405H352.722ZM352.722 6.00047V12.0005H360.802V6.00047V0.000465393H352.722V6.00047ZM360.802 6.00047H354.802V27.7605H360.802H366.802V6.00047H360.802ZM360.802 27.7605V33.7605H367.202V27.7605V21.7605H360.802V27.7605ZM367.202 27.7605H373.202V20.4805H367.202H361.202V27.7605H367.202ZM367.202 20.4805V26.4805H382.562V20.4805V14.4805H367.202V20.4805ZM382.562 20.4805H376.562V27.7605H382.562H388.562V20.4805H382.562ZM382.562 27.7605V33.7605H389.922V27.7605V21.7605H382.562V27.7605ZM389.922 27.7605H383.922V57.4405H389.922H395.922V27.7605H389.922ZM389.922 57.4405V51.4405H381.762V57.4405V63.4405H389.922V57.4405ZM381.762 57.4405H387.762V28.4805H381.762H375.762V57.4405H381.762ZM381.762 28.4805V22.4805H368.002V28.4805V34.4805H381.762V28.4805ZM368.002 28.4805H362.002V35.6805H368.002H374.002V28.4805H368.002ZM368.002 35.6805V29.6805H360.802V35.6805V41.6805H368.002V35.6805ZM360.802 35.6805H354.802V57.4405H360.802H366.802V35.6805H360.802ZM360.802 57.4405V51.4405H352.722V57.4405V63.4405H360.802V57.4405ZM401.997 57.4405H395.997V63.4405H401.997V57.4405ZM401.997 6.00047V0.000465393H395.997V6.00047H401.997ZM431.837 6.00047H437.837V0.000465393H431.837V6.00047ZM431.837 13.2805H425.837V19.2805H431.837V13.2805ZM439.197 13.2805H445.197V7.28047H439.197V13.2805ZM439.197 21.2805V27.2805H445.197V21.2805H439.197ZM431.037 21.2805H425.037V27.2805H431.037V21.2805ZM431.037 14.0805H437.037V8.08047H431.037V14.0805ZM410.077 14.0805V8.08047H404.077V14.0805H410.077ZM410.077 27.7605H404.077V33.7605H410.077V27.7605ZM424.637 27.7605H430.637V21.7605H424.637V27.7605ZM424.637 35.6805V41.6805H430.637V35.6805H424.637ZM410.077 35.6805V29.6805H404.077V35.6805H410.077ZM410.077 57.4405V63.4405H416.077V57.4405H410.077ZM401.997 57.4405H407.997V6.00047H401.997H395.997V57.4405H401.997ZM401.997 6.00047V12.0005H431.837V6.00047V0.000465393H401.997V6.00047ZM431.837 6.00047H425.837V13.2805H431.837H437.837V6.00047H431.837ZM431.837 13.2805V19.2805H439.197V13.2805V7.28047H431.837V13.2805ZM439.197 13.2805H433.197V21.2805H439.197H445.197V13.2805H439.197ZM439.197 21.2805V15.2805H431.037V21.2805V27.2805H439.197V21.2805ZM431.037 21.2805H437.037V14.0805H431.037H425.037V21.2805H431.037ZM431.037 14.0805V8.08047H410.077V14.0805V20.0805H431.037V14.0805ZM410.077 14.0805H404.077V27.7605H410.077H416.077V14.0805H410.077ZM410.077 27.7605V33.7605H424.637V27.7605V21.7605H410.077V27.7605ZM424.637 27.7605H418.637V35.6805H424.637H430.637V27.7605H424.637ZM424.637 35.6805V29.6805H410.077V35.6805V41.6805H424.637V35.6805ZM410.077 35.6805H404.077V57.4405H410.077H416.077V35.6805H410.077ZM410.077 57.4405V51.4405H401.997V57.4405V63.4405H410.077V57.4405ZM449.71 57.4405H443.71V63.4405H449.71V57.4405ZM449.71 6.00047V0.000465393H443.71V6.00047H449.71ZM479.55 6.00047H485.55V0.000465393H479.55V6.00047ZM479.55 13.2805H473.55V19.2805H479.55V13.2805ZM486.91 13.2805H492.91V7.28047H486.91V13.2805ZM486.91 21.2805V27.2805H492.91V21.2805H486.91ZM478.75 21.2805H472.75V27.2805H478.75V21.2805ZM478.75 14.0805H484.75V8.08047H478.75V14.0805ZM457.79 14.0805V8.08047H451.79V14.0805H457.79ZM457.79 27.7605H451.79V33.7605H457.79V27.7605ZM472.35 27.7605H478.35V21.7605H472.35V27.7605ZM472.35 35.6805V41.6805H478.35V35.6805H472.35ZM457.79 35.6805V29.6805H451.79V35.6805H457.79ZM457.79 57.4405V63.4405H463.79V57.4405H457.79ZM449.71 57.4405H455.71V6.00047H449.71H443.71V57.4405H449.71ZM449.71 6.00047V12.0005H479.55V6.00047V0.000465393H449.71V6.00047ZM479.55 6.00047H473.55V13.2805H479.55H485.55V6.00047H479.55ZM479.55 13.2805V19.2805H486.91V13.2805V7.28047H479.55V13.2805ZM486.91 13.2805H480.91V21.2805H486.91H492.91V13.2805H486.91ZM486.91 21.2805V15.2805H478.75V21.2805V27.2805H486.91V21.2805ZM478.75 21.2805H484.75V14.0805H478.75H472.75V21.2805H478.75ZM478.75 14.0805V8.08047H457.79V14.0805V20.0805H478.75V14.0805ZM457.79 14.0805H451.79V27.7605H457.79H463.79V14.0805H457.79ZM457.79 27.7605V33.7605H472.35V27.7605V21.7605H457.79V27.7605ZM472.35 27.7605H466.35V35.6805H472.35H478.35V27.7605H472.35ZM472.35 35.6805V29.6805H457.79V35.6805V41.6805H472.35V35.6805ZM457.79 35.6805H451.79V57.4405H457.79H463.79V35.6805H457.79ZM457.79 57.4405V51.4405H449.71V57.4405V63.4405H457.79V57.4405ZM495.781 57.4405H489.781V63.4405H495.781V57.4405ZM495.781 13.2805V7.28047H489.781V13.2805H495.781ZM503.061 13.2805V19.2805H509.061V13.2805H503.061ZM503.061 6.00047V0.000465393H497.061V6.00047H503.061ZM525.621 6.00047H531.621V0.000465393H525.621V6.00047ZM525.621 13.2805H519.621V19.2805H525.621V13.2805ZM532.981 13.2805H538.981V7.28047H532.981V13.2805ZM532.981 35.6805V41.6805H538.981V35.6805H532.981ZM525.621 35.6805V29.6805H519.621V35.6805H525.621ZM525.621 42.9605V48.9605H531.621V42.9605H525.621ZM522.101 42.9605V36.9605H516.101V42.9605H522.101ZM522.101 49.4405H516.101V55.4405H522.101V49.4405ZM529.301 49.4405H535.301V43.4405H529.301V49.4405ZM529.301 57.4405V63.4405H535.301V57.4405H529.301ZM521.301 57.4405H515.301V63.4405H521.301V57.4405ZM521.301 50.2405H527.301V44.2405H521.301V50.2405ZM513.941 50.2405H507.941V56.2405H513.941V50.2405ZM513.941 42.9605H519.941V36.9605H513.941V42.9605ZM503.861 42.9605V36.9605H497.861V42.9605H503.861ZM503.861 57.4405V63.4405H509.861V57.4405H503.861ZM503.861 34.8805H497.861V40.8805H503.861V34.8805ZM524.821 34.8805V40.8805H530.821V34.8805H524.821ZM524.821 14.0805H530.821V8.08047H524.821V14.0805ZM503.861 14.0805V8.08047H497.861V14.0805H503.861ZM495.781 57.4405H501.781V13.2805H495.781H489.781V57.4405H495.781ZM495.781 13.2805V19.2805H503.061V13.2805V7.28047H495.781V13.2805ZM503.061 13.2805H509.061V6.00047H503.061H497.061V13.2805H503.061ZM503.061 6.00047V12.0005H525.621V6.00047V0.000465393H503.061V6.00047ZM525.621 6.00047H519.621V13.2805H525.621H531.621V6.00047H525.621ZM525.621 13.2805V19.2805H532.981V13.2805V7.28047H525.621V13.2805ZM532.981 13.2805H526.981V35.6805H532.981H538.981V13.2805H532.981ZM532.981 35.6805V29.6805H525.621V35.6805V41.6805H532.981V35.6805ZM525.621 35.6805H519.621V42.9605H525.621H531.621V35.6805H525.621ZM525.621 42.9605V36.9605H522.101V42.9605V48.9605H525.621V42.9605ZM522.101 42.9605H516.101V49.4405H522.101H528.101V42.9605H522.101ZM522.101 49.4405V55.4405H529.301V49.4405V43.4405H522.101V49.4405ZM529.301 49.4405H523.301V57.4405H529.301H535.301V49.4405H529.301ZM529.301 57.4405V51.4405H521.301V57.4405V63.4405H529.301V57.4405ZM521.301 57.4405H527.301V50.2405H521.301H515.301V57.4405H521.301ZM521.301 50.2405V44.2405H513.941V50.2405V56.2405H521.301V50.2405ZM513.941 50.2405H519.941V42.9605H513.941H507.941V50.2405H513.941ZM513.941 42.9605V36.9605H503.861V42.9605V48.9605H513.941V42.9605ZM503.861 42.9605H497.861V57.4405H503.861H509.861V42.9605H503.861ZM503.861 57.4405V51.4405H495.781V57.4405V63.4405H503.861V57.4405ZM503.861 34.8805V40.8805H524.821V34.8805V28.8805H503.861V34.8805ZM524.821 34.8805H530.821V14.0805H524.821H518.821V34.8805H524.821ZM524.821 14.0805V8.08047H503.861V14.0805V20.0805H524.821V14.0805ZM503.861 14.0805H497.861V34.8805H503.861H509.861V14.0805H503.861Z" fill="black" mask="url(#path-1-outside-1_287_30377)"/>
</svg>
