<svg width="325" height="112" viewBox="0 0 325 112" fill="none" xmlns="http://www.w3.org/2000/svg">
<mask id="path-1-outside-1_538_144834" maskUnits="userSpaceOnUse" x="-0.759766" y="1" width="320" height="39" fill="black">
<rect fill="white" x="-0.759766" y="1" width="320" height="39"/>
<path d="M4.00023 35.552V5.974H17.0182V10.16H21.1582V14.3H25.3902V27.226H21.1582V31.412H17.0182V35.552H4.00023ZM8.64623 30.952H16.5582V26.766H20.6982V14.76H16.5582V10.62H8.64623V30.952ZM37.8994 35.552V31.412H33.7134V18.486H37.8994V14.3H50.8714V18.486H55.1034V31.412H50.8714V35.552H37.8994ZM38.3594 30.952H50.4114V18.9H38.3594V30.952ZM67.6125 35.552V31.412H63.4265V18.486H67.6125V14.3H80.5845V18.486H84.8165V23.04H80.1245V18.9H68.0725V30.952H80.1245V26.766H84.8165V31.412H80.5845V35.552H67.6125ZM99.1746 35.552V31.412H95.0346V18.9H90.8486V14.3H95.0346V5.974H99.6346V14.3H112.239V18.9H99.6346V30.952H111.779V26.766H116.425V31.412H112.239V35.552H99.1746ZM127.533 35.552V31.412H123.347V18.486H127.533V14.3H140.505V18.486H144.737V31.412H140.505V35.552H127.533ZM127.993 30.952H140.045V18.9H127.993V30.952ZM153.06 35.552V18.486H157.246V14.3H170.218V18.486H174.45V23.04H169.758V18.9H157.706V35.552H153.06ZM194.742 35.552V14.3H211.9V18.486H216.132V35.552H211.44V18.9H199.388V35.552H194.742ZM227.249 35.552V31.412H223.063V18.486H227.249V14.3H240.221V18.486H244.453V30.952H248.639V35.552H243.993V31.412H240.221V35.552H227.249ZM227.709 30.952H239.761V18.9H227.709V30.952ZM255.561 35.552V14.3H268.579V18.486H272.259V14.3H281.137V18.486H285.277V35.552H280.677V18.9H272.719V35.552H268.119V18.9H260.207V35.552H255.561ZM297.321 35.552V31.412H293.135V18.486H297.321V14.3H310.293V18.486H314.525V23.04H309.833V18.9H297.781V22.58H306.153V27.226H297.781V30.952H309.833V26.72H314.525V31.366H310.293V35.552H297.321Z"/>
</mask>
<path d="M4.00023 35.552V5.974H17.0182V10.16H21.1582V14.3H25.3902V27.226H21.1582V31.412H17.0182V35.552H4.00023ZM8.64623 30.952H16.5582V26.766H20.6982V14.76H16.5582V10.62H8.64623V30.952ZM37.8994 35.552V31.412H33.7134V18.486H37.8994V14.3H50.8714V18.486H55.1034V31.412H50.8714V35.552H37.8994ZM38.3594 30.952H50.4114V18.9H38.3594V30.952ZM67.6125 35.552V31.412H63.4265V18.486H67.6125V14.3H80.5845V18.486H84.8165V23.04H80.1245V18.9H68.0725V30.952H80.1245V26.766H84.8165V31.412H80.5845V35.552H67.6125ZM99.1746 35.552V31.412H95.0346V18.9H90.8486V14.3H95.0346V5.974H99.6346V14.3H112.239V18.9H99.6346V30.952H111.779V26.766H116.425V31.412H112.239V35.552H99.1746ZM127.533 35.552V31.412H123.347V18.486H127.533V14.3H140.505V18.486H144.737V31.412H140.505V35.552H127.533ZM127.993 30.952H140.045V18.9H127.993V30.952ZM153.06 35.552V18.486H157.246V14.3H170.218V18.486H174.45V23.04H169.758V18.9H157.706V35.552H153.06ZM194.742 35.552V14.3H211.9V18.486H216.132V35.552H211.44V18.9H199.388V35.552H194.742ZM227.249 35.552V31.412H223.063V18.486H227.249V14.3H240.221V18.486H244.453V30.952H248.639V35.552H243.993V31.412H240.221V35.552H227.249ZM227.709 30.952H239.761V18.9H227.709V30.952ZM255.561 35.552V14.3H268.579V18.486H272.259V14.3H281.137V18.486H285.277V35.552H280.677V18.9H272.719V35.552H268.119V18.9H260.207V35.552H255.561ZM297.321 35.552V31.412H293.135V18.486H297.321V14.3H310.293V18.486H314.525V23.04H309.833V18.9H297.781V22.58H306.153V27.226H297.781V30.952H309.833V26.72H314.525V31.366H310.293V35.552H297.321Z" fill="#FEEF2C"/>
<path d="M4.00023 35.552H0.000234485V39.552H4.00023V35.552ZM4.00023 5.974V1.974H0.000234485V5.974H4.00023ZM17.0182 5.974H21.0182V1.974H17.0182V5.974ZM17.0182 10.16H13.0182V14.16H17.0182V10.16ZM21.1582 10.16H25.1582V6.16H21.1582V10.16ZM21.1582 14.3H17.1582V18.3H21.1582V14.3ZM25.3902 14.3H29.3902V10.3H25.3902V14.3ZM25.3902 27.226V31.226H29.3902V27.226H25.3902ZM21.1582 27.226V23.226H17.1582V27.226H21.1582ZM21.1582 31.412V35.412H25.1582V31.412H21.1582ZM17.0182 31.412V27.412H13.0182V31.412H17.0182ZM17.0182 35.552V39.552H21.0182V35.552H17.0182ZM8.64623 30.952H4.64623V34.952H8.64623V30.952ZM16.5582 30.952V34.952H20.5582V30.952H16.5582ZM16.5582 26.766V22.766H12.5582V26.766H16.5582ZM20.6982 26.766V30.766H24.6982V26.766H20.6982ZM20.6982 14.76H24.6982V10.76H20.6982V14.76ZM16.5582 14.76H12.5582V18.76H16.5582V14.76ZM16.5582 10.62H20.5582V6.62H16.5582V10.62ZM8.64623 10.62V6.62H4.64623V10.62H8.64623ZM4.00023 35.552H8.00023V5.974H4.00023H0.000234485V35.552H4.00023ZM4.00023 5.974V9.974H17.0182V5.974V1.974H4.00023V5.974ZM17.0182 5.974H13.0182V10.16H17.0182H21.0182V5.974H17.0182ZM17.0182 10.16V14.16H21.1582V10.16V6.16H17.0182V10.16ZM21.1582 10.16H17.1582V14.3H21.1582H25.1582V10.16H21.1582ZM21.1582 14.3V18.3H25.3902V14.3V10.3H21.1582V14.3ZM25.3902 14.3H21.3902V27.226H25.3902H29.3902V14.3H25.3902ZM25.3902 27.226V23.226H21.1582V27.226V31.226H25.3902V27.226ZM21.1582 27.226H17.1582V31.412H21.1582H25.1582V27.226H21.1582ZM21.1582 31.412V27.412H17.0182V31.412V35.412H21.1582V31.412ZM17.0182 31.412H13.0182V35.552H17.0182H21.0182V31.412H17.0182ZM17.0182 35.552V31.552H4.00023V35.552V39.552H17.0182V35.552ZM8.64623 30.952V34.952H16.5582V30.952V26.952H8.64623V30.952ZM16.5582 30.952H20.5582V26.766H16.5582H12.5582V30.952H16.5582ZM16.5582 26.766V30.766H20.6982V26.766V22.766H16.5582V26.766ZM20.6982 26.766H24.6982V14.76H20.6982H16.6982V26.766H20.6982ZM20.6982 14.76V10.76H16.5582V14.76V18.76H20.6982V14.76ZM16.5582 14.76H20.5582V10.62H16.5582H12.5582V14.76H16.5582ZM16.5582 10.62V6.62H8.64623V10.62V14.62H16.5582V10.62ZM8.64623 10.62H4.64623V30.952H8.64623H12.6462V10.62H8.64623ZM37.8994 35.552H33.8994V39.552H37.8994V35.552ZM37.8994 31.412H41.8994V27.412H37.8994V31.412ZM33.7134 31.412H29.7134V35.412H33.7134V31.412ZM33.7134 18.486V14.486H29.7134V18.486H33.7134ZM37.8994 18.486V22.486H41.8994V18.486H37.8994ZM37.8994 14.3V10.3H33.8994V14.3H37.8994ZM50.8714 14.3H54.8714V10.3H50.8714V14.3ZM50.8714 18.486H46.8714V22.486H50.8714V18.486ZM55.1034 18.486H59.1034V14.486H55.1034V18.486ZM55.1034 31.412V35.412H59.1034V31.412H55.1034ZM50.8714 31.412V27.412H46.8714V31.412H50.8714ZM50.8714 35.552V39.552H54.8714V35.552H50.8714ZM38.3594 30.952H34.3594V34.952H38.3594V30.952ZM50.4114 30.952V34.952H54.4114V30.952H50.4114ZM50.4114 18.9H54.4114V14.9H50.4114V18.9ZM38.3594 18.9V14.9H34.3594V18.9H38.3594ZM37.8994 35.552H41.8994V31.412H37.8994H33.8994V35.552H37.8994ZM37.8994 31.412V27.412H33.7134V31.412V35.412H37.8994V31.412ZM33.7134 31.412H37.7134V18.486H33.7134H29.7134V31.412H33.7134ZM33.7134 18.486V22.486H37.8994V18.486V14.486H33.7134V18.486ZM37.8994 18.486H41.8994V14.3H37.8994H33.8994V18.486H37.8994ZM37.8994 14.3V18.3H50.8714V14.3V10.3H37.8994V14.3ZM50.8714 14.3H46.8714V18.486H50.8714H54.8714V14.3H50.8714ZM50.8714 18.486V22.486H55.1034V18.486V14.486H50.8714V18.486ZM55.1034 18.486H51.1034V31.412H55.1034H59.1034V18.486H55.1034ZM55.1034 31.412V27.412H50.8714V31.412V35.412H55.1034V31.412ZM50.8714 31.412H46.8714V35.552H50.8714H54.8714V31.412H50.8714ZM50.8714 35.552V31.552H37.8994V35.552V39.552H50.8714V35.552ZM38.3594 30.952V34.952H50.4114V30.952V26.952H38.3594V30.952ZM50.4114 30.952H54.4114V18.9H50.4114H46.4114V30.952H50.4114ZM50.4114 18.9V14.9H38.3594V18.9V22.9H50.4114V18.9ZM38.3594 18.9H34.3594V30.952H38.3594H42.3594V18.9H38.3594ZM67.6125 35.552H63.6125V39.552H67.6125V35.552ZM67.6125 31.412H71.6125V27.412H67.6125V31.412ZM63.4265 31.412H59.4265V35.412H63.4265V31.412ZM63.4265 18.486V14.486H59.4265V18.486H63.4265ZM67.6125 18.486V22.486H71.6125V18.486H67.6125ZM67.6125 14.3V10.3H63.6125V14.3H67.6125ZM80.5845 14.3H84.5845V10.3H80.5845V14.3ZM80.5845 18.486H76.5845V22.486H80.5845V18.486ZM84.8165 18.486H88.8165V14.486H84.8165V18.486ZM84.8165 23.04V27.04H88.8165V23.04H84.8165ZM80.1245 23.04H76.1245V27.04H80.1245V23.04ZM80.1245 18.9H84.1245V14.9H80.1245V18.9ZM68.0725 18.9V14.9H64.0725V18.9H68.0725ZM68.0725 30.952H64.0725V34.952H68.0725V30.952ZM80.1245 30.952V34.952H84.1245V30.952H80.1245ZM80.1245 26.766V22.766H76.1245V26.766H80.1245ZM84.8165 26.766H88.8165V22.766H84.8165V26.766ZM84.8165 31.412V35.412H88.8165V31.412H84.8165ZM80.5845 31.412V27.412H76.5845V31.412H80.5845ZM80.5845 35.552V39.552H84.5845V35.552H80.5845ZM67.6125 35.552H71.6125V31.412H67.6125H63.6125V35.552H67.6125ZM67.6125 31.412V27.412H63.4265V31.412V35.412H67.6125V31.412ZM63.4265 31.412H67.4265V18.486H63.4265H59.4265V31.412H63.4265ZM63.4265 18.486V22.486H67.6125V18.486V14.486H63.4265V18.486ZM67.6125 18.486H71.6125V14.3H67.6125H63.6125V18.486H67.6125ZM67.6125 14.3V18.3H80.5845V14.3V10.3H67.6125V14.3ZM80.5845 14.3H76.5845V18.486H80.5845H84.5845V14.3H80.5845ZM80.5845 18.486V22.486H84.8165V18.486V14.486H80.5845V18.486ZM84.8165 18.486H80.8165V23.04H84.8165H88.8165V18.486H84.8165ZM84.8165 23.04V19.04H80.1245V23.04V27.04H84.8165V23.04ZM80.1245 23.04H84.1245V18.9H80.1245H76.1245V23.04H80.1245ZM80.1245 18.9V14.9H68.0725V18.9V22.9H80.1245V18.9ZM68.0725 18.9H64.0725V30.952H68.0725H72.0725V18.9H68.0725ZM68.0725 30.952V34.952H80.1245V30.952V26.952H68.0725V30.952ZM80.1245 30.952H84.1245V26.766H80.1245H76.1245V30.952H80.1245ZM80.1245 26.766V30.766H84.8165V26.766V22.766H80.1245V26.766ZM84.8165 26.766H80.8165V31.412H84.8165H88.8165V26.766H84.8165ZM84.8165 31.412V27.412H80.5845V31.412V35.412H84.8165V31.412ZM80.5845 31.412H76.5845V35.552H80.5845H84.5845V31.412H80.5845ZM80.5845 35.552V31.552H67.6125V35.552V39.552H80.5845V35.552ZM99.1746 35.552H95.1746V39.552H99.1746V35.552ZM99.1746 31.412H103.175V27.412H99.1746V31.412ZM95.0346 31.412H91.0346V35.412H95.0346V31.412ZM95.0346 18.9H99.0346V14.9H95.0346V18.9ZM90.8486 18.9H86.8486V22.9H90.8486V18.9ZM90.8486 14.3V10.3H86.8486V14.3H90.8486ZM95.0346 14.3V18.3H99.0346V14.3H95.0346ZM95.0346 5.974V1.974H91.0346V5.974H95.0346ZM99.6346 5.974H103.635V1.974H99.6346V5.974ZM99.6346 14.3H95.6346V18.3H99.6346V14.3ZM112.239 14.3H116.239V10.3H112.239V14.3ZM112.239 18.9V22.9H116.239V18.9H112.239ZM99.6346 18.9V14.9H95.6346V18.9H99.6346ZM99.6346 30.952H95.6346V34.952H99.6346V30.952ZM111.779 30.952V34.952H115.779V30.952H111.779ZM111.779 26.766V22.766H107.779V26.766H111.779ZM116.425 26.766H120.425V22.766H116.425V26.766ZM116.425 31.412V35.412H120.425V31.412H116.425ZM112.239 31.412V27.412H108.239V31.412H112.239ZM112.239 35.552V39.552H116.239V35.552H112.239ZM99.1746 35.552H103.175V31.412H99.1746H95.1746V35.552H99.1746ZM99.1746 31.412V27.412H95.0346V31.412V35.412H99.1746V31.412ZM95.0346 31.412H99.0346V18.9H95.0346H91.0346V31.412H95.0346ZM95.0346 18.9V14.9H90.8486V18.9V22.9H95.0346V18.9ZM90.8486 18.9H94.8486V14.3H90.8486H86.8486V18.9H90.8486ZM90.8486 14.3V18.3H95.0346V14.3V10.3H90.8486V14.3ZM95.0346 14.3H99.0346V5.974H95.0346H91.0346V14.3H95.0346ZM95.0346 5.974V9.974H99.6346V5.974V1.974H95.0346V5.974ZM99.6346 5.974H95.6346V14.3H99.6346H103.635V5.974H99.6346ZM99.6346 14.3V18.3H112.239V14.3V10.3H99.6346V14.3ZM112.239 14.3H108.239V18.9H112.239H116.239V14.3H112.239ZM112.239 18.9V14.9H99.6346V18.9V22.9H112.239V18.9ZM99.6346 18.9H95.6346V30.952H99.6346H103.635V18.9H99.6346ZM99.6346 30.952V34.952H111.779V30.952V26.952H99.6346V30.952ZM111.779 30.952H115.779V26.766H111.779H107.779V30.952H111.779ZM111.779 26.766V30.766H116.425V26.766V22.766H111.779V26.766ZM116.425 26.766H112.425V31.412H116.425H120.425V26.766H116.425ZM116.425 31.412V27.412H112.239V31.412V35.412H116.425V31.412ZM112.239 31.412H108.239V35.552H112.239H116.239V31.412H112.239ZM112.239 35.552V31.552H99.1746V35.552V39.552H112.239V35.552ZM127.533 35.552H123.533V39.552H127.533V35.552ZM127.533 31.412H131.533V27.412H127.533V31.412ZM123.347 31.412H119.347V35.412H123.347V31.412ZM123.347 18.486V14.486H119.347V18.486H123.347ZM127.533 18.486V22.486H131.533V18.486H127.533ZM127.533 14.3V10.3H123.533V14.3H127.533ZM140.505 14.3H144.505V10.3H140.505V14.3ZM140.505 18.486H136.505V22.486H140.505V18.486ZM144.737 18.486H148.737V14.486H144.737V18.486ZM144.737 31.412V35.412H148.737V31.412H144.737ZM140.505 31.412V27.412H136.505V31.412H140.505ZM140.505 35.552V39.552H144.505V35.552H140.505ZM127.993 30.952H123.993V34.952H127.993V30.952ZM140.045 30.952V34.952H144.045V30.952H140.045ZM140.045 18.9H144.045V14.9H140.045V18.9ZM127.993 18.9V14.9H123.993V18.9H127.993ZM127.533 35.552H131.533V31.412H127.533H123.533V35.552H127.533ZM127.533 31.412V27.412H123.347V31.412V35.412H127.533V31.412ZM123.347 31.412H127.347V18.486H123.347H119.347V31.412H123.347ZM123.347 18.486V22.486H127.533V18.486V14.486H123.347V18.486ZM127.533 18.486H131.533V14.3H127.533H123.533V18.486H127.533ZM127.533 14.3V18.3H140.505V14.3V10.3H127.533V14.3ZM140.505 14.3H136.505V18.486H140.505H144.505V14.3H140.505ZM140.505 18.486V22.486H144.737V18.486V14.486H140.505V18.486ZM144.737 18.486H140.737V31.412H144.737H148.737V18.486H144.737ZM144.737 31.412V27.412H140.505V31.412V35.412H144.737V31.412ZM140.505 31.412H136.505V35.552H140.505H144.505V31.412H140.505ZM140.505 35.552V31.552H127.533V35.552V39.552H140.505V35.552ZM127.993 30.952V34.952H140.045V30.952V26.952H127.993V30.952ZM140.045 30.952H144.045V18.9H140.045H136.045V30.952H140.045ZM140.045 18.9V14.9H127.993V18.9V22.9H140.045V18.9ZM127.993 18.9H123.993V30.952H127.993H131.993V18.9H127.993ZM153.06 35.552H149.06V39.552H153.06V35.552ZM153.06 18.486V14.486H149.06V18.486H153.06ZM157.246 18.486V22.486H161.246V18.486H157.246ZM157.246 14.3V10.3H153.246V14.3H157.246ZM170.218 14.3H174.218V10.3H170.218V14.3ZM170.218 18.486H166.218V22.486H170.218V18.486ZM174.45 18.486H178.45V14.486H174.45V18.486ZM174.45 23.04V27.04H178.45V23.04H174.45ZM169.758 23.04H165.758V27.04H169.758V23.04ZM169.758 18.9H173.758V14.9H169.758V18.9ZM157.706 18.9V14.9H153.706V18.9H157.706ZM157.706 35.552V39.552H161.706V35.552H157.706ZM153.06 35.552H157.06V18.486H153.06H149.06V35.552H153.06ZM153.06 18.486V22.486H157.246V18.486V14.486H153.06V18.486ZM157.246 18.486H161.246V14.3H157.246H153.246V18.486H157.246ZM157.246 14.3V18.3H170.218V14.3V10.3H157.246V14.3ZM170.218 14.3H166.218V18.486H170.218H174.218V14.3H170.218ZM170.218 18.486V22.486H174.45V18.486V14.486H170.218V18.486ZM174.45 18.486H170.45V23.04H174.45H178.45V18.486H174.45ZM174.45 23.04V19.04H169.758V23.04V27.04H174.45V23.04ZM169.758 23.04H173.758V18.9H169.758H165.758V23.04H169.758ZM169.758 18.9V14.9H157.706V18.9V22.9H169.758V18.9ZM157.706 18.9H153.706V35.552H157.706H161.706V18.9H157.706ZM157.706 35.552V31.552H153.06V35.552V39.552H157.706V35.552ZM194.742 35.552H190.742V39.552H194.742V35.552ZM194.742 14.3V10.3H190.742V14.3H194.742ZM211.9 14.3H215.9V10.3H211.9V14.3ZM211.9 18.486H207.9V22.486H211.9V18.486ZM216.132 18.486H220.132V14.486H216.132V18.486ZM216.132 35.552V39.552H220.132V35.552H216.132ZM211.44 35.552H207.44V39.552H211.44V35.552ZM211.44 18.9H215.44V14.9H211.44V18.9ZM199.388 18.9V14.9H195.388V18.9H199.388ZM199.388 35.552V39.552H203.388V35.552H199.388ZM194.742 35.552H198.742V14.3H194.742H190.742V35.552H194.742ZM194.742 14.3V18.3H211.9V14.3V10.3H194.742V14.3ZM211.9 14.3H207.9V18.486H211.9H215.9V14.3H211.9ZM211.9 18.486V22.486H216.132V18.486V14.486H211.9V18.486ZM216.132 18.486H212.132V35.552H216.132H220.132V18.486H216.132ZM216.132 35.552V31.552H211.44V35.552V39.552H216.132V35.552ZM211.44 35.552H215.44V18.9H211.44H207.44V35.552H211.44ZM211.44 18.9V14.9H199.388V18.9V22.9H211.44V18.9ZM199.388 18.9H195.388V35.552H199.388H203.388V18.9H199.388ZM199.388 35.552V31.552H194.742V35.552V39.552H199.388V35.552ZM227.249 35.552H223.249V39.552H227.249V35.552ZM227.249 31.412H231.249V27.412H227.249V31.412ZM223.063 31.412H219.063V35.412H223.063V31.412ZM223.063 18.486V14.486H219.063V18.486H223.063ZM227.249 18.486V22.486H231.249V18.486H227.249ZM227.249 14.3V10.3H223.249V14.3H227.249ZM240.221 14.3H244.221V10.3H240.221V14.3ZM240.221 18.486H236.221V22.486H240.221V18.486ZM244.453 18.486H248.453V14.486H244.453V18.486ZM244.453 30.952H240.453V34.952H244.453V30.952ZM248.639 30.952H252.639V26.952H248.639V30.952ZM248.639 35.552V39.552H252.639V35.552H248.639ZM243.993 35.552H239.993V39.552H243.993V35.552ZM243.993 31.412H247.993V27.412H243.993V31.412ZM240.221 31.412V27.412H236.221V31.412H240.221ZM240.221 35.552V39.552H244.221V35.552H240.221ZM227.709 30.952H223.709V34.952H227.709V30.952ZM239.761 30.952V34.952H243.761V30.952H239.761ZM239.761 18.9H243.761V14.9H239.761V18.9ZM227.709 18.9V14.9H223.709V18.9H227.709ZM227.249 35.552H231.249V31.412H227.249H223.249V35.552H227.249ZM227.249 31.412V27.412H223.063V31.412V35.412H227.249V31.412ZM223.063 31.412H227.063V18.486H223.063H219.063V31.412H223.063ZM223.063 18.486V22.486H227.249V18.486V14.486H223.063V18.486ZM227.249 18.486H231.249V14.3H227.249H223.249V18.486H227.249ZM227.249 14.3V18.3H240.221V14.3V10.3H227.249V14.3ZM240.221 14.3H236.221V18.486H240.221H244.221V14.3H240.221ZM240.221 18.486V22.486H244.453V18.486V14.486H240.221V18.486ZM244.453 18.486H240.453V30.952H244.453H248.453V18.486H244.453ZM244.453 30.952V34.952H248.639V30.952V26.952H244.453V30.952ZM248.639 30.952H244.639V35.552H248.639H252.639V30.952H248.639ZM248.639 35.552V31.552H243.993V35.552V39.552H248.639V35.552ZM243.993 35.552H247.993V31.412H243.993H239.993V35.552H243.993ZM243.993 31.412V27.412H240.221V31.412V35.412H243.993V31.412ZM240.221 31.412H236.221V35.552H240.221H244.221V31.412H240.221ZM240.221 35.552V31.552H227.249V35.552V39.552H240.221V35.552ZM227.709 30.952V34.952H239.761V30.952V26.952H227.709V30.952ZM239.761 30.952H243.761V18.9H239.761H235.761V30.952H239.761ZM239.761 18.9V14.9H227.709V18.9V22.9H239.761V18.9ZM227.709 18.9H223.709V30.952H227.709H231.709V18.9H227.709ZM255.561 35.552H251.561V39.552H255.561V35.552ZM255.561 14.3V10.3H251.561V14.3H255.561ZM268.579 14.3H272.579V10.3H268.579V14.3ZM268.579 18.486H264.579V22.486H268.579V18.486ZM272.259 18.486V22.486H276.259V18.486H272.259ZM272.259 14.3V10.3H268.259V14.3H272.259ZM281.137 14.3H285.137V10.3H281.137V14.3ZM281.137 18.486H277.137V22.486H281.137V18.486ZM285.277 18.486H289.277V14.486H285.277V18.486ZM285.277 35.552V39.552H289.277V35.552H285.277ZM280.677 35.552H276.677V39.552H280.677V35.552ZM280.677 18.9H284.677V14.9H280.677V18.9ZM272.719 18.9V14.9H268.719V18.9H272.719ZM272.719 35.552V39.552H276.719V35.552H272.719ZM268.119 35.552H264.119V39.552H268.119V35.552ZM268.119 18.9H272.119V14.9H268.119V18.9ZM260.207 18.9V14.9H256.207V18.9H260.207ZM260.207 35.552V39.552H264.207V35.552H260.207ZM255.561 35.552H259.561V14.3H255.561H251.561V35.552H255.561ZM255.561 14.3V18.3H268.579V14.3V10.3H255.561V14.3ZM268.579 14.3H264.579V18.486H268.579H272.579V14.3H268.579ZM268.579 18.486V22.486H272.259V18.486V14.486H268.579V18.486ZM272.259 18.486H276.259V14.3H272.259H268.259V18.486H272.259ZM272.259 14.3V18.3H281.137V14.3V10.3H272.259V14.3ZM281.137 14.3H277.137V18.486H281.137H285.137V14.3H281.137ZM281.137 18.486V22.486H285.277V18.486V14.486H281.137V18.486ZM285.277 18.486H281.277V35.552H285.277H289.277V18.486H285.277ZM285.277 35.552V31.552H280.677V35.552V39.552H285.277V35.552ZM280.677 35.552H284.677V18.9H280.677H276.677V35.552H280.677ZM280.677 18.9V14.9H272.719V18.9V22.9H280.677V18.9ZM272.719 18.9H268.719V35.552H272.719H276.719V18.9H272.719ZM272.719 35.552V31.552H268.119V35.552V39.552H272.719V35.552ZM268.119 35.552H272.119V18.9H268.119H264.119V35.552H268.119ZM268.119 18.9V14.9H260.207V18.9V22.9H268.119V18.9ZM260.207 18.9H256.207V35.552H260.207H264.207V18.9H260.207ZM260.207 35.552V31.552H255.561V35.552V39.552H260.207V35.552ZM297.321 35.552H293.321V39.552H297.321V35.552ZM297.321 31.412H301.321V27.412H297.321V31.412ZM293.135 31.412H289.135V35.412H293.135V31.412ZM293.135 18.486V14.486H289.135V18.486H293.135ZM297.321 18.486V22.486H301.321V18.486H297.321ZM297.321 14.3V10.3H293.321V14.3H297.321ZM310.293 14.3H314.293V10.3H310.293V14.3ZM310.293 18.486H306.293V22.486H310.293V18.486ZM314.525 18.486H318.525V14.486H314.525V18.486ZM314.525 23.04V27.04H318.525V23.04H314.525ZM309.833 23.04H305.833V27.04H309.833V23.04ZM309.833 18.9H313.833V14.9H309.833V18.9ZM297.781 18.9V14.9H293.781V18.9H297.781ZM297.781 22.58H293.781V26.58H297.781V22.58ZM306.153 22.58H310.153V18.58H306.153V22.58ZM306.153 27.226V31.226H310.153V27.226H306.153ZM297.781 27.226V23.226H293.781V27.226H297.781ZM297.781 30.952H293.781V34.952H297.781V30.952ZM309.833 30.952V34.952H313.833V30.952H309.833ZM309.833 26.72V22.72H305.833V26.72H309.833ZM314.525 26.72H318.525V22.72H314.525V26.72ZM314.525 31.366V35.366H318.525V31.366H314.525ZM310.293 31.366V27.366H306.293V31.366H310.293ZM310.293 35.552V39.552H314.293V35.552H310.293ZM297.321 35.552H301.321V31.412H297.321H293.321V35.552H297.321ZM297.321 31.412V27.412H293.135V31.412V35.412H297.321V31.412ZM293.135 31.412H297.135V18.486H293.135H289.135V31.412H293.135ZM293.135 18.486V22.486H297.321V18.486V14.486H293.135V18.486ZM297.321 18.486H301.321V14.3H297.321H293.321V18.486H297.321ZM297.321 14.3V18.3H310.293V14.3V10.3H297.321V14.3ZM310.293 14.3H306.293V18.486H310.293H314.293V14.3H310.293ZM310.293 18.486V22.486H314.525V18.486V14.486H310.293V18.486ZM314.525 18.486H310.525V23.04H314.525H318.525V18.486H314.525ZM314.525 23.04V19.04H309.833V23.04V27.04H314.525V23.04ZM309.833 23.04H313.833V18.9H309.833H305.833V23.04H309.833ZM309.833 18.9V14.9H297.781V18.9V22.9H309.833V18.9ZM297.781 18.9H293.781V22.58H297.781H301.781V18.9H297.781ZM297.781 22.58V26.58H306.153V22.58V18.58H297.781V22.58ZM306.153 22.58H302.153V27.226H306.153H310.153V22.58H306.153ZM306.153 27.226V23.226H297.781V27.226V31.226H306.153V27.226ZM297.781 27.226H293.781V30.952H297.781H301.781V27.226H297.781ZM297.781 30.952V34.952H309.833V30.952V26.952H297.781V30.952ZM309.833 30.952H313.833V26.72H309.833H305.833V30.952H309.833ZM309.833 26.72V30.72H314.525V26.72V22.72H309.833V26.72ZM314.525 26.72H310.525V31.366H314.525H318.525V26.72H314.525ZM314.525 31.366V27.366H310.293V31.366V35.366H314.525V31.366ZM310.293 31.366H306.293V35.552H310.293H314.293V31.366H310.293ZM310.293 35.552V31.552H297.321V35.552V39.552H310.293V35.552Z" fill="black" mask="url(#path-1-outside-1_538_144834)"/>
<mask id="path-3-outside-2_538_144834" maskUnits="userSpaceOnUse" x="-0.759766" y="65" width="326" height="47" fill="black">
<rect fill="white" x="-0.759766" y="65" width="326" height="47"/>
<path d="M8.18623 99.552V95.412H4.00023V74.16H8.18623V69.974H21.1582V74.16H25.3902V95.412H21.1582V99.552H8.18623ZM8.64623 94.952H20.6982V74.62H8.64623V94.952ZM33.7134 99.552V82.486H37.8994V78.3H50.8714V82.486H55.1034V87.04H50.4114V82.9H38.3594V99.552H33.7134ZM66.714 107.878V103.738H62.528V99.138H67.174V103.278H79.272V95.412H66.714V91.226H62.528V82.486H66.714V78.3H79.732V82.486H83.918V103.738H79.732V107.878H66.714ZM67.174 90.766H79.272V82.9H67.174V90.766ZM95.0346 99.552V95.412H90.8486V82.486H95.0346V78.3H108.007V82.486H112.239V94.952H116.425V99.552H111.779V95.412H108.007V99.552H95.0346ZM95.4946 94.952H107.547V82.9H95.4946V94.952ZM123.347 99.552V78.3H140.505V82.486H144.737V99.552H140.045V82.9H127.993V99.552H123.347ZM153.06 99.552V78.3H157.706V99.552H153.06ZM153.06 74.62V69.974H157.706V74.62H153.06ZM165.568 99.552V94.952H169.754V90.766H173.894V86.58H178.126V82.9H165.568V78.3H186.958V82.9H182.726V87.04H178.586V91.226H174.354V94.952H186.958V99.552H165.568ZM198.569 99.552V95.412H194.383V82.486H198.569V78.3H211.541V82.486H215.773V94.952H219.959V99.552H215.313V95.412H211.541V99.552H198.569ZM199.029 94.952H211.081V82.9H199.029V94.952ZM231.523 99.552V95.412H227.383V82.9H223.197V78.3H227.383V69.974H231.983V78.3H244.587V82.9H231.983V94.952H244.127V90.766H248.773V95.412H244.587V99.552H231.523ZM257.088 99.552V78.3H261.734V99.552H257.088ZM257.088 74.62V69.974H261.734V74.62H257.088ZM273.333 99.552V95.412H269.147V82.486H273.333V78.3H286.305V82.486H290.537V95.412H286.305V99.552H273.333ZM273.793 94.952H285.845V82.9H273.793V94.952ZM298.86 99.552V78.3H316.018V82.486H320.25V99.552H315.558V82.9H303.506V99.552H298.86Z"/>
</mask>
<path d="M8.18623 99.552V95.412H4.00023V74.16H8.18623V69.974H21.1582V74.16H25.3902V95.412H21.1582V99.552H8.18623ZM8.64623 94.952H20.6982V74.62H8.64623V94.952ZM33.7134 99.552V82.486H37.8994V78.3H50.8714V82.486H55.1034V87.04H50.4114V82.9H38.3594V99.552H33.7134ZM66.714 107.878V103.738H62.528V99.138H67.174V103.278H79.272V95.412H66.714V91.226H62.528V82.486H66.714V78.3H79.732V82.486H83.918V103.738H79.732V107.878H66.714ZM67.174 90.766H79.272V82.9H67.174V90.766ZM95.0346 99.552V95.412H90.8486V82.486H95.0346V78.3H108.007V82.486H112.239V94.952H116.425V99.552H111.779V95.412H108.007V99.552H95.0346ZM95.4946 94.952H107.547V82.9H95.4946V94.952ZM123.347 99.552V78.3H140.505V82.486H144.737V99.552H140.045V82.9H127.993V99.552H123.347ZM153.06 99.552V78.3H157.706V99.552H153.06ZM153.06 74.62V69.974H157.706V74.62H153.06ZM165.568 99.552V94.952H169.754V90.766H173.894V86.58H178.126V82.9H165.568V78.3H186.958V82.9H182.726V87.04H178.586V91.226H174.354V94.952H186.958V99.552H165.568ZM198.569 99.552V95.412H194.383V82.486H198.569V78.3H211.541V82.486H215.773V94.952H219.959V99.552H215.313V95.412H211.541V99.552H198.569ZM199.029 94.952H211.081V82.9H199.029V94.952ZM231.523 99.552V95.412H227.383V82.9H223.197V78.3H227.383V69.974H231.983V78.3H244.587V82.9H231.983V94.952H244.127V90.766H248.773V95.412H244.587V99.552H231.523ZM257.088 99.552V78.3H261.734V99.552H257.088ZM257.088 74.62V69.974H261.734V74.62H257.088ZM273.333 99.552V95.412H269.147V82.486H273.333V78.3H286.305V82.486H290.537V95.412H286.305V99.552H273.333ZM273.793 94.952H285.845V82.9H273.793V94.952ZM298.86 99.552V78.3H316.018V82.486H320.25V99.552H315.558V82.9H303.506V99.552H298.86Z" fill="#FEEF2C"/>
<path d="M8.18623 99.552H4.18623V103.552H8.18623V99.552ZM8.18623 95.412H12.1862V91.412H8.18623V95.412ZM4.00023 95.412H0.000234485V99.412H4.00023V95.412ZM4.00023 74.16V70.16H0.000234485V74.16H4.00023ZM8.18623 74.16V78.16H12.1862V74.16H8.18623ZM8.18623 69.974V65.974H4.18623V69.974H8.18623ZM21.1582 69.974H25.1582V65.974H21.1582V69.974ZM21.1582 74.16H17.1582V78.16H21.1582V74.16ZM25.3902 74.16H29.3902V70.16H25.3902V74.16ZM25.3902 95.412V99.412H29.3902V95.412H25.3902ZM21.1582 95.412V91.412H17.1582V95.412H21.1582ZM21.1582 99.552V103.552H25.1582V99.552H21.1582ZM8.64623 94.952H4.64623V98.952H8.64623V94.952ZM20.6982 94.952V98.952H24.6982V94.952H20.6982ZM20.6982 74.62H24.6982V70.62H20.6982V74.62ZM8.64623 74.62V70.62H4.64623V74.62H8.64623ZM8.18623 99.552H12.1862V95.412H8.18623H4.18623V99.552H8.18623ZM8.18623 95.412V91.412H4.00023V95.412V99.412H8.18623V95.412ZM4.00023 95.412H8.00023V74.16H4.00023H0.000234485V95.412H4.00023ZM4.00023 74.16V78.16H8.18623V74.16V70.16H4.00023V74.16ZM8.18623 74.16H12.1862V69.974H8.18623H4.18623V74.16H8.18623ZM8.18623 69.974V73.974H21.1582V69.974V65.974H8.18623V69.974ZM21.1582 69.974H17.1582V74.16H21.1582H25.1582V69.974H21.1582ZM21.1582 74.16V78.16H25.3902V74.16V70.16H21.1582V74.16ZM25.3902 74.16H21.3902V95.412H25.3902H29.3902V74.16H25.3902ZM25.3902 95.412V91.412H21.1582V95.412V99.412H25.3902V95.412ZM21.1582 95.412H17.1582V99.552H21.1582H25.1582V95.412H21.1582ZM21.1582 99.552V95.552H8.18623V99.552V103.552H21.1582V99.552ZM8.64623 94.952V98.952H20.6982V94.952V90.952H8.64623V94.952ZM20.6982 94.952H24.6982V74.62H20.6982H16.6982V94.952H20.6982ZM20.6982 74.62V70.62H8.64623V74.62V78.62H20.6982V74.62ZM8.64623 74.62H4.64623V94.952H8.64623H12.6462V74.62H8.64623ZM33.7134 99.552H29.7134V103.552H33.7134V99.552ZM33.7134 82.486V78.486H29.7134V82.486H33.7134ZM37.8994 82.486V86.486H41.8994V82.486H37.8994ZM37.8994 78.3V74.3H33.8994V78.3H37.8994ZM50.8714 78.3H54.8714V74.3H50.8714V78.3ZM50.8714 82.486H46.8714V86.486H50.8714V82.486ZM55.1034 82.486H59.1034V78.486H55.1034V82.486ZM55.1034 87.04V91.04H59.1034V87.04H55.1034ZM50.4114 87.04H46.4114V91.04H50.4114V87.04ZM50.4114 82.9H54.4114V78.9H50.4114V82.9ZM38.3594 82.9V78.9H34.3594V82.9H38.3594ZM38.3594 99.552V103.552H42.3594V99.552H38.3594ZM33.7134 99.552H37.7134V82.486H33.7134H29.7134V99.552H33.7134ZM33.7134 82.486V86.486H37.8994V82.486V78.486H33.7134V82.486ZM37.8994 82.486H41.8994V78.3H37.8994H33.8994V82.486H37.8994ZM37.8994 78.3V82.3H50.8714V78.3V74.3H37.8994V78.3ZM50.8714 78.3H46.8714V82.486H50.8714H54.8714V78.3H50.8714ZM50.8714 82.486V86.486H55.1034V82.486V78.486H50.8714V82.486ZM55.1034 82.486H51.1034V87.04H55.1034H59.1034V82.486H55.1034ZM55.1034 87.04V83.04H50.4114V87.04V91.04H55.1034V87.04ZM50.4114 87.04H54.4114V82.9H50.4114H46.4114V87.04H50.4114ZM50.4114 82.9V78.9H38.3594V82.9V86.9H50.4114V82.9ZM38.3594 82.9H34.3594V99.552H38.3594H42.3594V82.9H38.3594ZM38.3594 99.552V95.552H33.7134V99.552V103.552H38.3594V99.552ZM66.7141 107.878H62.714V111.878H66.7141V107.878ZM66.7141 103.738H70.7141V99.738H66.7141V103.738ZM62.528 103.738H58.528V107.738H62.528V103.738ZM62.528 99.138V95.138H58.528V99.138H62.528ZM67.174 99.138H71.174V95.138H67.174V99.138ZM67.174 103.278H63.174V107.278H67.174V103.278ZM79.272 103.278V107.278H83.272V103.278H79.272ZM79.272 95.412H83.272V91.412H79.272V95.412ZM66.7141 95.412H62.714V99.412H66.7141V95.412ZM66.7141 91.226H70.7141V87.226H66.7141V91.226ZM62.528 91.226H58.528V95.226H62.528V91.226ZM62.528 82.486V78.486H58.528V82.486H62.528ZM66.7141 82.486V86.486H70.7141V82.486H66.7141ZM66.7141 78.3V74.3H62.714V78.3H66.7141ZM79.732 78.3H83.732V74.3H79.732V78.3ZM79.732 82.486H75.732V86.486H79.732V82.486ZM83.918 82.486H87.918V78.486H83.918V82.486ZM83.918 103.738V107.738H87.918V103.738H83.918ZM79.732 103.738V99.738H75.732V103.738H79.732ZM79.732 107.878V111.878H83.732V107.878H79.732ZM67.174 90.766H63.174V94.766H67.174V90.766ZM79.272 90.766V94.766H83.272V90.766H79.272ZM79.272 82.9H83.272V78.9H79.272V82.9ZM67.174 82.9V78.9H63.174V82.9H67.174ZM66.7141 107.878H70.7141V103.738H66.7141H62.714V107.878H66.7141ZM66.7141 103.738V99.738H62.528V103.738V107.738H66.7141V103.738ZM62.528 103.738H66.528V99.138H62.528H58.528V103.738H62.528ZM62.528 99.138V103.138H67.174V99.138V95.138H62.528V99.138ZM67.174 99.138H63.174V103.278H67.174H71.174V99.138H67.174ZM67.174 103.278V107.278H79.272V103.278V99.278H67.174V103.278ZM79.272 103.278H83.272V95.412H79.272H75.272V103.278H79.272ZM79.272 95.412V91.412H66.7141V95.412V99.412H79.272V95.412ZM66.7141 95.412H70.7141V91.226H66.7141H62.714V95.412H66.7141ZM66.7141 91.226V87.226H62.528V91.226V95.226H66.7141V91.226ZM62.528 91.226H66.528V82.486H62.528H58.528V91.226H62.528ZM62.528 82.486V86.486H66.7141V82.486V78.486H62.528V82.486ZM66.7141 82.486H70.7141V78.3H66.7141H62.714V82.486H66.7141ZM66.7141 78.3V82.3H79.732V78.3V74.3H66.7141V78.3ZM79.732 78.3H75.732V82.486H79.732H83.732V78.3H79.732ZM79.732 82.486V86.486H83.918V82.486V78.486H79.732V82.486ZM83.918 82.486H79.918V103.738H83.918H87.918V82.486H83.918ZM83.918 103.738V99.738H79.732V103.738V107.738H83.918V103.738ZM79.732 103.738H75.732V107.878H79.732H83.732V103.738H79.732ZM79.732 107.878V103.878H66.7141V107.878V111.878H79.732V107.878ZM67.174 90.766V94.766H79.272V90.766V86.766H67.174V90.766ZM79.272 90.766H83.272V82.9H79.272H75.272V90.766H79.272ZM79.272 82.9V78.9H67.174V82.9V86.9H79.272V82.9ZM67.174 82.9H63.174V90.766H67.174H71.174V82.9H67.174ZM95.0346 99.552H91.0346V103.552H95.0346V99.552ZM95.0346 95.412H99.0346V91.412H95.0346V95.412ZM90.8486 95.412H86.8486V99.412H90.8486V95.412ZM90.8486 82.486V78.486H86.8486V82.486H90.8486ZM95.0346 82.486V86.486H99.0346V82.486H95.0346ZM95.0346 78.3V74.3H91.0346V78.3H95.0346ZM108.007 78.3H112.007V74.3H108.007V78.3ZM108.007 82.486H104.007V86.486H108.007V82.486ZM112.239 82.486H116.239V78.486H112.239V82.486ZM112.239 94.952H108.239V98.952H112.239V94.952ZM116.425 94.952H120.425V90.952H116.425V94.952ZM116.425 99.552V103.552H120.425V99.552H116.425ZM111.779 99.552H107.779V103.552H111.779V99.552ZM111.779 95.412H115.779V91.412H111.779V95.412ZM108.007 95.412V91.412H104.007V95.412H108.007ZM108.007 99.552V103.552H112.007V99.552H108.007ZM95.4946 94.952H91.4946V98.952H95.4946V94.952ZM107.547 94.952V98.952H111.547V94.952H107.547ZM107.547 82.9H111.547V78.9H107.547V82.9ZM95.4946 82.9V78.9H91.4946V82.9H95.4946ZM95.0346 99.552H99.0346V95.412H95.0346H91.0346V99.552H95.0346ZM95.0346 95.412V91.412H90.8486V95.412V99.412H95.0346V95.412ZM90.8486 95.412H94.8486V82.486H90.8486H86.8486V95.412H90.8486ZM90.8486 82.486V86.486H95.0346V82.486V78.486H90.8486V82.486ZM95.0346 82.486H99.0346V78.3H95.0346H91.0346V82.486H95.0346ZM95.0346 78.3V82.3H108.007V78.3V74.3H95.0346V78.3ZM108.007 78.3H104.007V82.486H108.007H112.007V78.3H108.007ZM108.007 82.486V86.486H112.239V82.486V78.486H108.007V82.486ZM112.239 82.486H108.239V94.952H112.239H116.239V82.486H112.239ZM112.239 94.952V98.952H116.425V94.952V90.952H112.239V94.952ZM116.425 94.952H112.425V99.552H116.425H120.425V94.952H116.425ZM116.425 99.552V95.552H111.779V99.552V103.552H116.425V99.552ZM111.779 99.552H115.779V95.412H111.779H107.779V99.552H111.779ZM111.779 95.412V91.412H108.007V95.412V99.412H111.779V95.412ZM108.007 95.412H104.007V99.552H108.007H112.007V95.412H108.007ZM108.007 99.552V95.552H95.0346V99.552V103.552H108.007V99.552ZM95.4946 94.952V98.952H107.547V94.952V90.952H95.4946V94.952ZM107.547 94.952H111.547V82.9H107.547H103.547V94.952H107.547ZM107.547 82.9V78.9H95.4946V82.9V86.9H107.547V82.9ZM95.4946 82.9H91.4946V94.952H95.4946H99.4946V82.9H95.4946ZM123.347 99.552H119.347V103.552H123.347V99.552ZM123.347 78.3V74.3H119.347V78.3H123.347ZM140.505 78.3H144.505V74.3H140.505V78.3ZM140.505 82.486H136.505V86.486H140.505V82.486ZM144.737 82.486H148.737V78.486H144.737V82.486ZM144.737 99.552V103.552H148.737V99.552H144.737ZM140.045 99.552H136.045V103.552H140.045V99.552ZM140.045 82.9H144.045V78.9H140.045V82.9ZM127.993 82.9V78.9H123.993V82.9H127.993ZM127.993 99.552V103.552H131.993V99.552H127.993ZM123.347 99.552H127.347V78.3H123.347H119.347V99.552H123.347ZM123.347 78.3V82.3H140.505V78.3V74.3H123.347V78.3ZM140.505 78.3H136.505V82.486H140.505H144.505V78.3H140.505ZM140.505 82.486V86.486H144.737V82.486V78.486H140.505V82.486ZM144.737 82.486H140.737V99.552H144.737H148.737V82.486H144.737ZM144.737 99.552V95.552H140.045V99.552V103.552H144.737V99.552ZM140.045 99.552H144.045V82.9H140.045H136.045V99.552H140.045ZM140.045 82.9V78.9H127.993V82.9V86.9H140.045V82.9ZM127.993 82.9H123.993V99.552H127.993H131.993V82.9H127.993ZM127.993 99.552V95.552H123.347V99.552V103.552H127.993V99.552ZM153.06 99.552H149.06V103.552H153.06V99.552ZM153.06 78.3V74.3H149.06V78.3H153.06ZM157.706 78.3H161.706V74.3H157.706V78.3ZM157.706 99.552V103.552H161.706V99.552H157.706ZM153.06 74.62H149.06V78.62H153.06V74.62ZM153.06 69.974V65.974H149.06V69.974H153.06ZM157.706 69.974H161.706V65.974H157.706V69.974ZM157.706 74.62V78.62H161.706V74.62H157.706ZM153.06 99.552H157.06V78.3H153.06H149.06V99.552H153.06ZM153.06 78.3V82.3H157.706V78.3V74.3H153.06V78.3ZM157.706 78.3H153.706V99.552H157.706H161.706V78.3H157.706ZM157.706 99.552V95.552H153.06V99.552V103.552H157.706V99.552ZM153.06 74.62H157.06V69.974H153.06H149.06V74.62H153.06ZM153.06 69.974V73.974H157.706V69.974V65.974H153.06V69.974ZM157.706 69.974H153.706V74.62H157.706H161.706V69.974H157.706ZM157.706 74.62V70.62H153.06V74.62V78.62H157.706V74.62ZM165.568 99.552H161.568V103.552H165.568V99.552ZM165.568 94.952V90.952H161.568V94.952H165.568ZM169.754 94.952V98.952H173.754V94.952H169.754ZM169.754 90.766V86.766H165.754V90.766H169.754ZM173.894 90.766V94.766H177.894V90.766H173.894ZM173.894 86.58V82.58H169.894V86.58H173.894ZM178.126 86.58V90.58H182.126V86.58H178.126ZM178.126 82.9H182.126V78.9H178.126V82.9ZM165.568 82.9H161.568V86.9H165.568V82.9ZM165.568 78.3V74.3H161.568V78.3H165.568ZM186.958 78.3H190.958V74.3H186.958V78.3ZM186.958 82.9V86.9H190.958V82.9H186.958ZM182.726 82.9V78.9H178.726V82.9H182.726ZM182.726 87.04V91.04H186.726V87.04H182.726ZM178.586 87.04V83.04H174.586V87.04H178.586ZM178.586 91.226V95.226H182.586V91.226H178.586ZM174.354 91.226V87.226H170.354V91.226H174.354ZM174.354 94.952H170.354V98.952H174.354V94.952ZM186.958 94.952H190.958V90.952H186.958V94.952ZM186.958 99.552V103.552H190.958V99.552H186.958ZM165.568 99.552H169.568V94.952H165.568H161.568V99.552H165.568ZM165.568 94.952V98.952H169.754V94.952V90.952H165.568V94.952ZM169.754 94.952H173.754V90.766H169.754H165.754V94.952H169.754ZM169.754 90.766V94.766H173.894V90.766V86.766H169.754V90.766ZM173.894 90.766H177.894V86.58H173.894H169.894V90.766H173.894ZM173.894 86.58V90.58H178.126V86.58V82.58H173.894V86.58ZM178.126 86.58H182.126V82.9H178.126H174.126V86.58H178.126ZM178.126 82.9V78.9H165.568V82.9V86.9H178.126V82.9ZM165.568 82.9H169.568V78.3H165.568H161.568V82.9H165.568ZM165.568 78.3V82.3H186.958V78.3V74.3H165.568V78.3ZM186.958 78.3H182.958V82.9H186.958H190.958V78.3H186.958ZM186.958 82.9V78.9H182.726V82.9V86.9H186.958V82.9ZM182.726 82.9H178.726V87.04H182.726H186.726V82.9H182.726ZM182.726 87.04V83.04H178.586V87.04V91.04H182.726V87.04ZM178.586 87.04H174.586V91.226H178.586H182.586V87.04H178.586ZM178.586 91.226V87.226H174.354V91.226V95.226H178.586V91.226ZM174.354 91.226H170.354V94.952H174.354H178.354V91.226H174.354ZM174.354 94.952V98.952H186.958V94.952V90.952H174.354V94.952ZM186.958 94.952H182.958V99.552H186.958H190.958V94.952H186.958ZM186.958 99.552V95.552H165.568V99.552V103.552H186.958V99.552ZM198.569 99.552H194.569V103.552H198.569V99.552ZM198.569 95.412H202.569V91.412H198.569V95.412ZM194.383 95.412H190.383V99.412H194.383V95.412ZM194.383 82.486V78.486H190.383V82.486H194.383ZM198.569 82.486V86.486H202.569V82.486H198.569ZM198.569 78.3V74.3H194.569V78.3H198.569ZM211.541 78.3H215.541V74.3H211.541V78.3ZM211.541 82.486H207.541V86.486H211.541V82.486ZM215.773 82.486H219.773V78.486H215.773V82.486ZM215.773 94.952H211.773V98.952H215.773V94.952ZM219.959 94.952H223.959V90.952H219.959V94.952ZM219.959 99.552V103.552H223.959V99.552H219.959ZM215.313 99.552H211.313V103.552H215.313V99.552ZM215.313 95.412H219.313V91.412H215.313V95.412ZM211.541 95.412V91.412H207.541V95.412H211.541ZM211.541 99.552V103.552H215.541V99.552H211.541ZM199.029 94.952H195.029V98.952H199.029V94.952ZM211.081 94.952V98.952H215.081V94.952H211.081ZM211.081 82.9H215.081V78.9H211.081V82.9ZM199.029 82.9V78.9H195.029V82.9H199.029ZM198.569 99.552H202.569V95.412H198.569H194.569V99.552H198.569ZM198.569 95.412V91.412H194.383V95.412V99.412H198.569V95.412ZM194.383 95.412H198.383V82.486H194.383H190.383V95.412H194.383ZM194.383 82.486V86.486H198.569V82.486V78.486H194.383V82.486ZM198.569 82.486H202.569V78.3H198.569H194.569V82.486H198.569ZM198.569 78.3V82.3H211.541V78.3V74.3H198.569V78.3ZM211.541 78.3H207.541V82.486H211.541H215.541V78.3H211.541ZM211.541 82.486V86.486H215.773V82.486V78.486H211.541V82.486ZM215.773 82.486H211.773V94.952H215.773H219.773V82.486H215.773ZM215.773 94.952V98.952H219.959V94.952V90.952H215.773V94.952ZM219.959 94.952H215.959V99.552H219.959H223.959V94.952H219.959ZM219.959 99.552V95.552H215.313V99.552V103.552H219.959V99.552ZM215.313 99.552H219.313V95.412H215.313H211.313V99.552H215.313ZM215.313 95.412V91.412H211.541V95.412V99.412H215.313V95.412ZM211.541 95.412H207.541V99.552H211.541H215.541V95.412H211.541ZM211.541 99.552V95.552H198.569V99.552V103.552H211.541V99.552ZM199.029 94.952V98.952H211.081V94.952V90.952H199.029V94.952ZM211.081 94.952H215.081V82.9H211.081H207.081V94.952H211.081ZM211.081 82.9V78.9H199.029V82.9V86.9H211.081V82.9ZM199.029 82.9H195.029V94.952H199.029H203.029V82.9H199.029ZM231.523 99.552H227.523V103.552H231.523V99.552ZM231.523 95.412H235.523V91.412H231.523V95.412ZM227.383 95.412H223.383V99.412H227.383V95.412ZM227.383 82.9H231.383V78.9H227.383V82.9ZM223.197 82.9H219.197V86.9H223.197V82.9ZM223.197 78.3V74.3H219.197V78.3H223.197ZM227.383 78.3V82.3H231.383V78.3H227.383ZM227.383 69.974V65.974H223.383V69.974H227.383ZM231.983 69.974H235.983V65.974H231.983V69.974ZM231.983 78.3H227.983V82.3H231.983V78.3ZM244.587 78.3H248.587V74.3H244.587V78.3ZM244.587 82.9V86.9H248.587V82.9H244.587ZM231.983 82.9V78.9H227.983V82.9H231.983ZM231.983 94.952H227.983V98.952H231.983V94.952ZM244.127 94.952V98.952H248.127V94.952H244.127ZM244.127 90.766V86.766H240.127V90.766H244.127ZM248.773 90.766H252.773V86.766H248.773V90.766ZM248.773 95.412V99.412H252.773V95.412H248.773ZM244.587 95.412V91.412H240.587V95.412H244.587ZM244.587 99.552V103.552H248.587V99.552H244.587ZM231.523 99.552H235.523V95.412H231.523H227.523V99.552H231.523ZM231.523 95.412V91.412H227.383V95.412V99.412H231.523V95.412ZM227.383 95.412H231.383V82.9H227.383H223.383V95.412H227.383ZM227.383 82.9V78.9H223.197V82.9V86.9H227.383V82.9ZM223.197 82.9H227.197V78.3H223.197H219.197V82.9H223.197ZM223.197 78.3V82.3H227.383V78.3V74.3H223.197V78.3ZM227.383 78.3H231.383V69.974H227.383H223.383V78.3H227.383ZM227.383 69.974V73.974H231.983V69.974V65.974H227.383V69.974ZM231.983 69.974H227.983V78.3H231.983H235.983V69.974H231.983ZM231.983 78.3V82.3H244.587V78.3V74.3H231.983V78.3ZM244.587 78.3H240.587V82.9H244.587H248.587V78.3H244.587ZM244.587 82.9V78.9H231.983V82.9V86.9H244.587V82.9ZM231.983 82.9H227.983V94.952H231.983H235.983V82.9H231.983ZM231.983 94.952V98.952H244.127V94.952V90.952H231.983V94.952ZM244.127 94.952H248.127V90.766H244.127H240.127V94.952H244.127ZM244.127 90.766V94.766H248.773V90.766V86.766H244.127V90.766ZM248.773 90.766H244.773V95.412H248.773H252.773V90.766H248.773ZM248.773 95.412V91.412H244.587V95.412V99.412H248.773V95.412ZM244.587 95.412H240.587V99.552H244.587H248.587V95.412H244.587ZM244.587 99.552V95.552H231.523V99.552V103.552H244.587V99.552ZM257.088 99.552H253.088V103.552H257.088V99.552ZM257.088 78.3V74.3H253.088V78.3H257.088ZM261.734 78.3H265.734V74.3H261.734V78.3ZM261.734 99.552V103.552H265.734V99.552H261.734ZM257.088 74.62H253.088V78.62H257.088V74.62ZM257.088 69.974V65.974H253.088V69.974H257.088ZM261.734 69.974H265.734V65.974H261.734V69.974ZM261.734 74.62V78.62H265.734V74.62H261.734ZM257.088 99.552H261.088V78.3H257.088H253.088V99.552H257.088ZM257.088 78.3V82.3H261.734V78.3V74.3H257.088V78.3ZM261.734 78.3H257.734V99.552H261.734H265.734V78.3H261.734ZM261.734 99.552V95.552H257.088V99.552V103.552H261.734V99.552ZM257.088 74.62H261.088V69.974H257.088H253.088V74.62H257.088ZM257.088 69.974V73.974H261.734V69.974V65.974H257.088V69.974ZM261.734 69.974H257.734V74.62H261.734H265.734V69.974H261.734ZM261.734 74.62V70.62H257.088V74.62V78.62H261.734V74.62ZM273.333 99.552H269.333V103.552H273.333V99.552ZM273.333 95.412H277.333V91.412H273.333V95.412ZM269.147 95.412H265.147V99.412H269.147V95.412ZM269.147 82.486V78.486H265.147V82.486H269.147ZM273.333 82.486V86.486H277.333V82.486H273.333ZM273.333 78.3V74.3H269.333V78.3H273.333ZM286.305 78.3H290.305V74.3H286.305V78.3ZM286.305 82.486H282.305V86.486H286.305V82.486ZM290.537 82.486H294.537V78.486H290.537V82.486ZM290.537 95.412V99.412H294.537V95.412H290.537ZM286.305 95.412V91.412H282.305V95.412H286.305ZM286.305 99.552V103.552H290.305V99.552H286.305ZM273.793 94.952H269.793V98.952H273.793V94.952ZM285.845 94.952V98.952H289.845V94.952H285.845ZM285.845 82.9H289.845V78.9H285.845V82.9ZM273.793 82.9V78.9H269.793V82.9H273.793ZM273.333 99.552H277.333V95.412H273.333H269.333V99.552H273.333ZM273.333 95.412V91.412H269.147V95.412V99.412H273.333V95.412ZM269.147 95.412H273.147V82.486H269.147H265.147V95.412H269.147ZM269.147 82.486V86.486H273.333V82.486V78.486H269.147V82.486ZM273.333 82.486H277.333V78.3H273.333H269.333V82.486H273.333ZM273.333 78.3V82.3H286.305V78.3V74.3H273.333V78.3ZM286.305 78.3H282.305V82.486H286.305H290.305V78.3H286.305ZM286.305 82.486V86.486H290.537V82.486V78.486H286.305V82.486ZM290.537 82.486H286.537V95.412H290.537H294.537V82.486H290.537ZM290.537 95.412V91.412H286.305V95.412V99.412H290.537V95.412ZM286.305 95.412H282.305V99.552H286.305H290.305V95.412H286.305ZM286.305 99.552V95.552H273.333V99.552V103.552H286.305V99.552ZM273.793 94.952V98.952H285.845V94.952V90.952H273.793V94.952ZM285.845 94.952H289.845V82.9H285.845H281.845V94.952H285.845ZM285.845 82.9V78.9H273.793V82.9V86.9H285.845V82.9ZM273.793 82.9H269.793V94.952H273.793H277.793V82.9H273.793ZM298.86 99.552H294.86V103.552H298.86V99.552ZM298.86 78.3V74.3H294.86V78.3H298.86ZM316.018 78.3H320.018V74.3H316.018V78.3ZM316.018 82.486H312.018V86.486H316.018V82.486ZM320.25 82.486H324.25V78.486H320.25V82.486ZM320.25 99.552V103.552H324.25V99.552H320.25ZM315.558 99.552H311.558V103.552H315.558V99.552ZM315.558 82.9H319.558V78.9H315.558V82.9ZM303.506 82.9V78.9H299.506V82.9H303.506ZM303.506 99.552V103.552H307.506V99.552H303.506ZM298.86 99.552H302.86V78.3H298.86H294.86V99.552H298.86ZM298.86 78.3V82.3H316.018V78.3V74.3H298.86V78.3ZM316.018 78.3H312.018V82.486H316.018H320.018V78.3H316.018ZM316.018 82.486V86.486H320.25V82.486V78.486H316.018V82.486ZM320.25 82.486H316.25V99.552H320.25H324.25V82.486H320.25ZM320.25 99.552V95.552H315.558V99.552V103.552H320.25V99.552ZM315.558 99.552H319.558V82.9H315.558H311.558V99.552H315.558ZM315.558 82.9V78.9H303.506V82.9V86.9H315.558V82.9ZM303.506 82.9H299.506V99.552H303.506H307.506V82.9H303.506ZM303.506 99.552V95.552H298.86V99.552V103.552H303.506V99.552Z" fill="black" mask="url(#path-3-outside-2_538_144834)"/>
</svg>
