<svg width="322" height="85" viewBox="0 0 322 85" fill="none" xmlns="http://www.w3.org/2000/svg">
<mask id="path-1-outside-1_538_144837" maskUnits="userSpaceOnUse" x="58.4785" y="23.1133" width="96" height="60" fill="black">
<rect fill="white" x="58.4785" y="23.1133" width="96" height="60"/>
<path d="M70.5585 79.0733V71.8733H63.2785V34.9133H70.5585V27.6333H93.1185V34.9133H100.479V42.9133H92.3185V35.7133H71.3585V49.3933H93.1185V56.5133H100.479V71.8733H93.1185V79.0733H70.5585ZM71.3585 71.0733H92.3185V57.3133H71.3585V71.0733ZM119.834 79.0733V71.8733H112.554V34.9133H119.834V27.6333H142.394V34.9133H149.754V71.8733H142.394V79.0733H119.834ZM120.634 71.0733H141.594V35.7133H120.634V71.0733Z"/>
</mask>
<path d="M70.5585 79.0733V71.8733H63.2785V34.9133H70.5585V27.6333H93.1185V34.9133H100.479V42.9133H92.3185V35.7133H71.3585V49.3933H93.1185V56.5133H100.479V71.8733H93.1185V79.0733H70.5585ZM71.3585 71.0733H92.3185V57.3133H71.3585V71.0733ZM119.834 79.0733V71.8733H112.554V34.9133H119.834V27.6333H142.394V34.9133H149.754V71.8733H142.394V79.0733H119.834ZM120.634 71.0733H141.594V35.7133H120.634V71.0733Z" fill="white"/>
<path d="M70.5585 79.0733H66.5585V83.0733H70.5585V79.0733ZM70.5585 71.8733H74.5585V67.8733H70.5585V71.8733ZM63.2785 71.8733H59.2785V75.8733H63.2785V71.8733ZM63.2785 34.9133V30.9133H59.2785V34.9133H63.2785ZM70.5585 34.9133V38.9133H74.5585V34.9133H70.5585ZM70.5585 27.6333V23.6333H66.5585V27.6333H70.5585ZM93.1185 27.6333H97.1185V23.6333H93.1185V27.6333ZM93.1185 34.9133H89.1185V38.9133H93.1185V34.9133ZM100.479 34.9133H104.479V30.9133H100.479V34.9133ZM100.479 42.9133V46.9133H104.479V42.9133H100.479ZM92.3185 42.9133H88.3185V46.9133H92.3185V42.9133ZM92.3185 35.7133H96.3185V31.7133H92.3185V35.7133ZM71.3585 35.7133V31.7133H67.3585V35.7133H71.3585ZM71.3585 49.3933H67.3585V53.3933H71.3585V49.3933ZM93.1185 49.3933H97.1185V45.3933H93.1185V49.3933ZM93.1185 56.5133H89.1185V60.5133H93.1185V56.5133ZM100.479 56.5133H104.479V52.5133H100.479V56.5133ZM100.479 71.8733V75.8733H104.479V71.8733H100.479ZM93.1185 71.8733V67.8733H89.1185V71.8733H93.1185ZM93.1185 79.0733V83.0733H97.1185V79.0733H93.1185ZM71.3585 71.0733H67.3585V75.0733H71.3585V71.0733ZM92.3185 71.0733V75.0733H96.3185V71.0733H92.3185ZM92.3185 57.3133H96.3185V53.3133H92.3185V57.3133ZM71.3585 57.3133V53.3133H67.3585V57.3133H71.3585ZM70.5585 79.0733H74.5585V71.8733H70.5585H66.5585V79.0733H70.5585ZM70.5585 71.8733V67.8733H63.2785V71.8733V75.8733H70.5585V71.8733ZM63.2785 71.8733H67.2785V34.9133H63.2785H59.2785V71.8733H63.2785ZM63.2785 34.9133V38.9133H70.5585V34.9133V30.9133H63.2785V34.9133ZM70.5585 34.9133H74.5585V27.6333H70.5585H66.5585V34.9133H70.5585ZM70.5585 27.6333V31.6333H93.1185V27.6333V23.6333H70.5585V27.6333ZM93.1185 27.6333H89.1185V34.9133H93.1185H97.1185V27.6333H93.1185ZM93.1185 34.9133V38.9133H100.479V34.9133V30.9133H93.1185V34.9133ZM100.479 34.9133H96.4785V42.9133H100.479H104.479V34.9133H100.479ZM100.479 42.9133V38.9133H92.3185V42.9133V46.9133H100.479V42.9133ZM92.3185 42.9133H96.3185V35.7133H92.3185H88.3185V42.9133H92.3185ZM92.3185 35.7133V31.7133H71.3585V35.7133V39.7133H92.3185V35.7133ZM71.3585 35.7133H67.3585V49.3933H71.3585H75.3585V35.7133H71.3585ZM71.3585 49.3933V53.3933H93.1185V49.3933V45.3933H71.3585V49.3933ZM93.1185 49.3933H89.1185V56.5133H93.1185H97.1185V49.3933H93.1185ZM93.1185 56.5133V60.5133H100.479V56.5133V52.5133H93.1185V56.5133ZM100.479 56.5133H96.4785V71.8733H100.479H104.479V56.5133H100.479ZM100.479 71.8733V67.8733H93.1185V71.8733V75.8733H100.479V71.8733ZM93.1185 71.8733H89.1185V79.0733H93.1185H97.1185V71.8733H93.1185ZM93.1185 79.0733V75.0733H70.5585V79.0733V83.0733H93.1185V79.0733ZM71.3585 71.0733V75.0733H92.3185V71.0733V67.0733H71.3585V71.0733ZM92.3185 71.0733H96.3185V57.3133H92.3185H88.3185V71.0733H92.3185ZM92.3185 57.3133V53.3133H71.3585V57.3133V61.3133H92.3185V57.3133ZM71.3585 57.3133H67.3585V71.0733H71.3585H75.3585V57.3133H71.3585ZM119.834 79.0733H115.834V83.0733H119.834V79.0733ZM119.834 71.8733H123.834V67.8733H119.834V71.8733ZM112.554 71.8733H108.554V75.8733H112.554V71.8733ZM112.554 34.9133V30.9133H108.554V34.9133H112.554ZM119.834 34.9133V38.9133H123.834V34.9133H119.834ZM119.834 27.6333V23.6333H115.834V27.6333H119.834ZM142.394 27.6333H146.394V23.6333H142.394V27.6333ZM142.394 34.9133H138.394V38.9133H142.394V34.9133ZM149.754 34.9133H153.754V30.9133H149.754V34.9133ZM149.754 71.8733V75.8733H153.754V71.8733H149.754ZM142.394 71.8733V67.8733H138.394V71.8733H142.394ZM142.394 79.0733V83.0733H146.394V79.0733H142.394ZM120.634 71.0733H116.634V75.0733H120.634V71.0733ZM141.594 71.0733V75.0733H145.594V71.0733H141.594ZM141.594 35.7133H145.594V31.7133H141.594V35.7133ZM120.634 35.7133V31.7133H116.634V35.7133H120.634ZM119.834 79.0733H123.834V71.8733H119.834H115.834V79.0733H119.834ZM119.834 71.8733V67.8733H112.554V71.8733V75.8733H119.834V71.8733ZM112.554 71.8733H116.554V34.9133H112.554H108.554V71.8733H112.554ZM112.554 34.9133V38.9133H119.834V34.9133V30.9133H112.554V34.9133ZM119.834 34.9133H123.834V27.6333H119.834H115.834V34.9133H119.834ZM119.834 27.6333V31.6333H142.394V27.6333V23.6333H119.834V27.6333ZM142.394 27.6333H138.394V34.9133H142.394H146.394V27.6333H142.394ZM142.394 34.9133V38.9133H149.754V34.9133V30.9133H142.394V34.9133ZM149.754 34.9133H145.754V71.8733H149.754H153.754V34.9133H149.754ZM149.754 71.8733V67.8733H142.394V71.8733V75.8733H149.754V71.8733ZM142.394 71.8733H138.394V79.0733H142.394H146.394V71.8733H142.394ZM142.394 79.0733V75.0733H119.834V79.0733V83.0733H142.394V79.0733ZM120.634 71.0733V75.0733H141.594V71.0733V67.0733H120.634V71.0733ZM141.594 71.0733H145.594V35.7133H141.594H137.594V71.0733H141.594ZM141.594 35.7133V31.7133H120.634V35.7133V39.7133H141.594V35.7133ZM120.634 35.7133H116.634V71.0733H120.634H124.634V35.7133H120.634Z" fill="black" mask="url(#path-1-outside-1_538_144837)"/>
<path d="M226.501 8.00336L221.597 3.44685L215.357 3.19922L211.593 6.96329L209.661 14.4914L205.006 18.8003L203.52 24.2978L182.174 26.5265L177.865 28.9534L174.844 34.8471L180.936 41.038L187.077 47.328L191.089 51.4387L192.624 59.6603L189.207 62.6814L187.473 80.957H199.162L202.331 77.4405L210.404 75.4594L213.673 71.002L222.439 69.5657L225.51 74.4689L232.84 75.4594L236.802 79.9664L249.333 80.957L249.085 63.5729L244.281 60.0069L243.538 54.2618L249.333 47.328L255.276 42.3753L259.535 36.7787L260.526 30.6868L256.366 26.8732L233.979 25.8332L231.206 18.8003L228.779 15.581L226.501 8.00336Z" fill="#FFEF2C"/>
<rect x="252.256" y="39.2305" width="5.50046" height="5.61921" fill="black"/>
<rect width="5.50046" height="5.61921" transform="matrix(-1 0 0 1 184.67 39.2305)" fill="black"/>
<rect x="246.609" y="44.8496" width="5.64612" height="5.76802" fill="black"/>
<rect width="5.64612" height="5.76802" transform="matrix(-1 0 0 1 190.316 44.8496)" fill="black"/>
<rect x="224.371" y="72.5771" width="11.0694" height="5.76802" fill="black"/>
<rect width="11.0694" height="5.76802" transform="matrix(-1 0 0 1 212.553 72.5771)" fill="black"/>
<rect x="235.441" y="78.3457" width="16.8145" height="5.76802" fill="black"/>
<rect width="16.8145" height="5.76802" transform="matrix(-1 0 0 1 201.484 78.3457)" fill="black"/>
<rect x="213.303" y="66.8096" width="11.0694" height="5.76802" fill="black"/>
<rect width="11.0694" height="5.76802" transform="matrix(-1 0 0 1 223.623 66.8096)" fill="black"/>
<rect x="246.609" y="50.5225" width="11.1645" height="5.8176" transform="rotate(90 246.609 50.5225)" fill="black"/>
<rect width="11.1645" height="5.8176" transform="matrix(4.37114e-08 1 1 -4.37114e-08 190.316 50.5225)" fill="black"/>
<rect x="252.377" y="61.6875" width="22.1425" height="5.76802" transform="rotate(90 252.377 61.6875)" fill="black"/>
<rect width="22.1425" height="5.76802" transform="matrix(4.37114e-08 1 1 -4.37114e-08 184.549 61.6875)" fill="black"/>
<rect x="263.523" y="28.1611" width="11.0694" height="5.76802" transform="rotate(90 263.523 28.1611)" fill="black"/>
<rect width="11.0694" height="5.76802" transform="matrix(4.37114e-08 1 1 -4.37114e-08 173.479 28.168)" fill="black"/>
<rect x="235.637" y="16.9678" width="11.2001" height="5.76802" transform="rotate(90 235.637 16.9678)" fill="black"/>
<rect width="11.2001" height="5.76802" transform="matrix(4.37114e-08 1 1 -4.37114e-08 201.287 16.9678)" fill="black"/>
<rect x="229.869" y="5.76758" width="11.2001" height="5.76802" transform="rotate(90 229.869 5.76758)" fill="black"/>
<rect width="11.2001" height="5.76802" transform="matrix(4.37114e-08 1 1 -4.37114e-08 207.057 5.76758)" fill="black"/>
<rect x="224.102" y="5.76758" width="11.2001" height="5.76802" transform="rotate(-180 224.102 5.76758)" fill="black"/>
<rect width="11.2001" height="5.76802" transform="matrix(1 -8.74228e-08 -8.74228e-08 -1 212.824 5.76758)" fill="black"/>
<rect x="257.756" y="28.1611" width="27.8867" height="5.76802" transform="rotate(-180 257.756 28.1611)" fill="black"/>
<rect width="27.8095" height="5.76802" transform="matrix(1 -8.74228e-08 -8.74228e-08 -1 179.246 28.1611)" fill="black"/>
<path d="M232.072 30.8507H227.429V26.708H218.423V31.1509H222.846V35.7738H227.429V40.697H232.072V30.8507Z" fill="white"/>
</svg>
