<svg width="130" height="99" viewBox="0 0 130 99" fill="none" xmlns="http://www.w3.org/2000/svg">
<path d="M12.2554 45.2724L19.3824 43.3271L20.5229 54.9104L25.2183 60.6578L29.9046 64.8137H34.3258L43.3448 71.6221L84.196 70.7379L98.8651 66.6263L104.215 59.9947L108.415 56.6346L110.457 45.2724L115.975 43.6366L124.95 52.3904L125.259 74.1864L114.613 84.4433L111.598 88.5107L102.941 90.1023L98.6088 95.0539L29.9046 94.435L27.4288 90.8981L19.7271 89.5718L3.23633 72.9485L3.94371 53.5399L12.2554 45.2724Z" fill="#778391"/>
<path d="M25.0779 60.2158L19.5957 54.2031L20.3473 19.0997L27.2 13.7059L30.7369 8.93114H36.5728L43.4697 2.91846H82.5524L98.1148 8.93114L103.73 13.7059L108.195 17.9502L109.123 54.2031L104.57 62.3822L93.6052 66.538L86.2662 71.5338L47.3603 72.6391L40.4192 69.2791L32.1959 67.0685L25.0779 60.2158Z" fill="#FFEF2C"/>
<rect width="5.65903" height="5.659" transform="matrix(1 -6.9252e-08 -1.10361e-07 -1 112.936 86.749)" fill="black"/>
<rect width="5.65903" height="5.659" transform="matrix(1 -6.9252e-08 -1.10361e-07 -1 118.238 81.0898)" fill="black"/>
<rect width="6.01272" height="5.659" transform="matrix(1 -6.9252e-08 -1.10361e-07 -1 112.58 46.1567)" fill="black"/>
<rect width="6.01272" height="5.659" transform="matrix(1 -6.9252e-08 -1.10361e-07 -1 118.594 51.8154)" fill="black"/>
<rect width="6.01272" height="5.659" transform="matrix(1 -6.9252e-08 -1.10361e-07 -1 100.908 16.9771)" fill="black"/>
<rect width="6.01272" height="5.659" transform="matrix(1 -6.9252e-08 -1.10361e-07 -1 22.9902 16.9771)" fill="black"/>
<rect width="11.2828" height="5.659" transform="matrix(1 -6.9252e-08 -1.10361e-07 -1 89.625 11.3184)" fill="black"/>
<rect width="11.2828" height="5.659" transform="matrix(1 -6.9252e-08 -1.10361e-07 -1 29.0039 11.3184)" fill="black"/>
<rect width="49.3397" height="5.659" transform="matrix(1 -6.9252e-08 -1.10361e-07 -1 40.2852 5.65918)" fill="black"/>
<rect width="49.3397" height="5.659" transform="matrix(1 -6.9252e-08 -1.10361e-07 -1 40.2852 74.9414)" fill="black"/>
<rect width="72.2943" height="5.659" transform="matrix(1 -6.9252e-08 -1.10361e-07 -1 28.6133 98.0669)" fill="black"/>
<rect width="6.09199" height="5.88351" transform="matrix(1 -6.9252e-08 -1.10361e-07 -1 101.262 63.6235)" fill="black"/>
<rect width="5.65903" height="5.659" transform="matrix(1 -6.9252e-08 -1.10361e-07 -1 22.9902 63.6235)" fill="black"/>
<rect width="6.01272" height="5.659" transform="matrix(1 -6.9252e-08 -1.10361e-07 -1 11.3184 46.1567)" fill="black"/>
<rect width="5.65903" height="5.659" transform="matrix(1 -6.9252e-08 -1.10361e-07 -1 11.3184 86.749)" fill="black"/>
<rect width="5.65903" height="5.659" transform="matrix(1 -6.9252e-08 -1.10361e-07 -1 5.6582 81.0898)" fill="black"/>
<rect width="5.65903" height="5.659" transform="matrix(1 -6.9252e-08 -1.10361e-07 -1 5.6582 51.8154)" fill="black"/>
<rect width="11.6365" height="5.659" transform="matrix(1 -6.9252e-08 -1.10361e-07 -1 28.6484 69.2822)" fill="black"/>
<rect width="11.6365" height="5.659" transform="matrix(1 -6.9252e-08 -1.10361e-07 -1 89.625 69.2822)" fill="black"/>
<rect width="11.6365" height="5.659" transform="matrix(1 -6.9252e-08 -1.10361e-07 -1 16.9766 92.4082)" fill="black"/>
<rect width="5.65903" height="23.6155" transform="matrix(1 -6.9252e-08 -1.10361e-07 -1 123.896 75.4312)" fill="black"/>
<rect width="5.65903" height="23.6155" transform="matrix(1 -6.9252e-08 -1.10361e-07 -1 0 75.4312)" fill="black"/>
<rect width="5.65903" height="40.7625" transform="matrix(1 -6.9252e-08 -1.10361e-07 -1 106.92 57.7397)" fill="black"/>
<rect width="5.65903" height="40.987" transform="matrix(1 -6.9252e-08 -1.10361e-07 -1 17.3301 57.9644)" fill="black"/>
<rect width="12.0254" height="5.659" transform="matrix(1 -6.9252e-08 -1.10361e-07 -1 100.908 92.4082)" fill="black"/>
<path d="M22.9902 45.8472H31.8674V51.5946H43.3623V57.6073H84.5671V51.5946H95.7083V45.8472H106.938V57.7706H101.277V63.62H89.7398V69.2824H40.2675V63.62H28.6399V57.9185H22.9902V45.8472Z" fill="#DC5907"/>
<path d="M84.5664 51.5946V57.6073H63.8053V63.62H52.6641V69.2824H89.7391V63.62H101.277V57.7706H106.937V45.8472H95.7076V51.5946H84.5664Z" fill="#D52304"/>
<rect x="22.9902" y="40.4976" width="8.80079" height="5.34952" fill="#FFEF2C"/>
<rect x="96.0859" y="40.4976" width="10.8518" height="5.34952" fill="#FFEF2C"/>
<rect x="31.791" y="45.8472" width="11.5009" height="5.96848" fill="#FFEF2C"/>
<rect x="84.5859" y="45.8032" width="11.5009" height="5.96848" fill="#FFEF2C"/>
<rect x="43.293" y="51.7715" width="41.2932" height="5.96848" fill="#FFEF2C"/>
<rect x="101.262" y="47.2178" width="3.85535" height="10.7467" fill="#F9A601"/>
<path d="M22.9902 45.8472H31.791V63.62H28.7023V57.9644H22.9902V45.8472Z" fill="#F9A601"/>
<path d="M40.2852 17.5961V5.74756H89.6248V11.3181H101.031V16.9771H106.956V40.5858H95.9912V45.8027H84.4963V51.7269H43.4684V45.2721H48.2432V42.8847H62.9213V36.8721H82.7279V22.7246H57.2622V17.5961H40.2852Z" fill="#F9BD06"/>
<rect x="5.6582" y="63.9478" width="5.6592" height="11.4834" fill="#404B5D"/>
<rect x="118.238" y="63.9478" width="5.6592" height="11.4834" fill="#404B5D"/>
<rect x="11.3184" y="69.689" width="5.6592" height="11.4834" fill="#404B5D"/>
<rect x="112.58" y="69.689" width="6.01272" height="11.4834" fill="#404B5D"/>
<rect x="16.9785" y="75.2656" width="11.6718" height="11.4834" fill="#404B5D"/>
<rect x="100.908" y="75.1831" width="12.0254" height="11.566" fill="#404B5D"/>
<rect x="28.6133" y="80.9243" width="72.2943" height="11.4834" fill="#404B5D"/>
<rect x="5.6582" y="58.1968" width="5.65903" height="5.659" fill="#8895A6"/>
<rect width="5.65903" height="5.659" transform="matrix(-1 0 0 1 123.861 58.3672)" fill="#8895A6"/>
<rect x="11.3184" y="64.0312" width="5.65903" height="5.659" fill="#8895A6"/>
<rect width="5.65903" height="5.659" transform="matrix(-1 0 0 1 118.203 64.2021)" fill="#8895A6"/>
<rect x="16.7656" y="69.5239" width="11.8486" height="5.659" fill="#8895A6"/>
<rect x="28.7207" y="75.3481" width="11.3183" height="11.7426" transform="rotate(90 28.7207 75.3481)" fill="#535F74"/>
<rect x="81.084" y="81.0898" width="11.3183" height="52.3635" transform="rotate(90 81.084 81.0898)" fill="#535F74"/>
<rect width="11.8486" height="5.659" transform="matrix(-1 0 0 1 112.758 69.6948)" fill="#8895A6"/>
<rect x="28.7207" y="75.3481" width="72.1884" height="5.659" fill="#8895A6"/>
<rect x="65.2207" y="76.4878" width="34.3583" height="3.37868" fill="#D2DDE3"/>
<rect x="47.7852" y="53.3081" width="34.3583" height="3.37868" fill="white"/>
<rect x="30.8242" y="20.3032" width="5.65903" height="5.659" fill="white"/>
<rect x="81.084" y="9.02002" width="5.65903" height="5.659" fill="white"/>
<rect x="86.5488" y="14.644" width="5.65903" height="5.659" fill="white"/>
<rect x="92.207" y="20.3032" width="5.65903" height="5.659" fill="white"/>
<rect x="17.4648" y="71.9209" width="10.353" height="1.43651" fill="#D2DDE3"/>
<rect x="102.395" y="70.835" width="7.83263" height="3.37868" fill="#D2DDE3"/>
<rect x="113.766" y="65.4424" width="3.35832" height="3.37868" fill="#D2DDE3"/>
</svg>
