<svg width="529" height="64" viewBox="0 0 529 64" fill="none" xmlns="http://www.w3.org/2000/svg">
<mask id="path-1-outside-1_287_30375" maskUnits="userSpaceOnUse" x="-0.800781" y="-0.519531" width="529" height="64" fill="black">
<rect fill="white" x="-0.800781" y="-0.519531" width="529" height="64"/>
<path d="M5.99922 57.4405V6.00047H28.6392V13.2805H35.8392V20.4805H43.1992V42.9605H35.8392V50.2405H28.6392V57.4405H5.99922ZM14.0792 49.4405H27.8392V42.1605H35.0392V21.2805H27.8392V14.0805H14.0792V49.4405ZM62.5542 57.4405V50.2405H55.2742V27.7605H62.5542V20.4805H85.1142V27.7605H92.4742V50.2405H85.1142V57.4405H62.5542ZM63.3542 49.4405H84.3142V28.4805H63.3542V49.4405ZM111.829 57.4405V50.2405H104.549V27.7605H111.829V20.4805H134.389V27.7605H141.749V35.6805H133.589V28.4805H112.629V49.4405H133.589V42.1605H141.749V50.2405H134.389V57.4405H111.829ZM164.32 57.4405V50.2405H157.12V28.4805H149.84V20.4805H157.12V6.00047H165.12V20.4805H187.04V28.4805H165.12V49.4405H186.24V42.1605H194.32V50.2405H187.04V57.4405H164.32ZM211.239 57.4405V50.2405H203.959V27.7605H211.239V20.4805H233.799V27.7605H241.159V50.2405H233.799V57.4405H211.239ZM212.039 49.4405H232.999V28.4805H212.039V49.4405ZM253.234 57.4405V27.7605H260.514V20.4805H283.074V27.7605H290.434V35.6805H282.274V28.4805H261.314V57.4405H253.234ZM320.924 57.4405V20.4805H350.764V27.7605H358.124V57.4405H349.964V28.4805H329.004V57.4405H320.924ZM375.057 57.4405V50.2405H367.777V27.7605H375.057V20.4805H397.617V27.7605H404.977V49.4405H412.257V57.4405H404.177V50.2405H397.617V57.4405H375.057ZM375.857 49.4405H396.817V28.4805H375.857V49.4405ZM421.896 57.4405V20.4805H444.536V27.7605H450.936V20.4805H466.376V27.7605H473.576V57.4405H465.576V28.4805H451.736V57.4405H443.736V28.4805H429.976V57.4405H421.896ZM492.123 57.4405V50.2405H484.843V27.7605H492.123V20.4805H514.683V27.7605H522.043V35.6805H513.883V28.4805H492.923V34.8805H507.483V42.9605H492.923V49.4405H513.883V42.0805H522.043V50.1605H514.683V57.4405H492.123Z"/>
</mask>
<path d="M5.99922 57.4405V6.00047H28.6392V13.2805H35.8392V20.4805H43.1992V42.9605H35.8392V50.2405H28.6392V57.4405H5.99922ZM14.0792 49.4405H27.8392V42.1605H35.0392V21.2805H27.8392V14.0805H14.0792V49.4405ZM62.5542 57.4405V50.2405H55.2742V27.7605H62.5542V20.4805H85.1142V27.7605H92.4742V50.2405H85.1142V57.4405H62.5542ZM63.3542 49.4405H84.3142V28.4805H63.3542V49.4405ZM111.829 57.4405V50.2405H104.549V27.7605H111.829V20.4805H134.389V27.7605H141.749V35.6805H133.589V28.4805H112.629V49.4405H133.589V42.1605H141.749V50.2405H134.389V57.4405H111.829ZM164.32 57.4405V50.2405H157.12V28.4805H149.84V20.4805H157.12V6.00047H165.12V20.4805H187.04V28.4805H165.12V49.4405H186.24V42.1605H194.32V50.2405H187.04V57.4405H164.32ZM211.239 57.4405V50.2405H203.959V27.7605H211.239V20.4805H233.799V27.7605H241.159V50.2405H233.799V57.4405H211.239ZM212.039 49.4405H232.999V28.4805H212.039V49.4405ZM253.234 57.4405V27.7605H260.514V20.4805H283.074V27.7605H290.434V35.6805H282.274V28.4805H261.314V57.4405H253.234ZM320.924 57.4405V20.4805H350.764V27.7605H358.124V57.4405H349.964V28.4805H329.004V57.4405H320.924ZM375.057 57.4405V50.2405H367.777V27.7605H375.057V20.4805H397.617V27.7605H404.977V49.4405H412.257V57.4405H404.177V50.2405H397.617V57.4405H375.057ZM375.857 49.4405H396.817V28.4805H375.857V49.4405ZM421.896 57.4405V20.4805H444.536V27.7605H450.936V20.4805H466.376V27.7605H473.576V57.4405H465.576V28.4805H451.736V57.4405H443.736V28.4805H429.976V57.4405H421.896ZM492.123 57.4405V50.2405H484.843V27.7605H492.123V20.4805H514.683V27.7605H522.043V35.6805H513.883V28.4805H492.923V34.8805H507.483V42.9605H492.923V49.4405H513.883V42.0805H522.043V50.1605H514.683V57.4405H492.123Z" fill="#FEEF2C"/>
<path d="M5.99922 57.4405H-0.000781059V63.4405H5.99922V57.4405ZM5.99922 6.00047V0.000465393H-0.000781059V6.00047H5.99922ZM28.6392 6.00047H34.6392V0.000465393H28.6392V6.00047ZM28.6392 13.2805H22.6392V19.2805H28.6392V13.2805ZM35.8392 13.2805H41.8392V7.28047H35.8392V13.2805ZM35.8392 20.4805H29.8392V26.4805H35.8392V20.4805ZM43.1992 20.4805H49.1992V14.4805H43.1992V20.4805ZM43.1992 42.9605V48.9605H49.1992V42.9605H43.1992ZM35.8392 42.9605V36.9605H29.8392V42.9605H35.8392ZM35.8392 50.2405V56.2405H41.8392V50.2405H35.8392ZM28.6392 50.2405V44.2405H22.6392V50.2405H28.6392ZM28.6392 57.4405V63.4405H34.6392V57.4405H28.6392ZM14.0792 49.4405H8.07922V55.4405H14.0792V49.4405ZM27.8392 49.4405V55.4405H33.8392V49.4405H27.8392ZM27.8392 42.1605V36.1605H21.8392V42.1605H27.8392ZM35.0392 42.1605V48.1605H41.0392V42.1605H35.0392ZM35.0392 21.2805H41.0392V15.2805H35.0392V21.2805ZM27.8392 21.2805H21.8392V27.2805H27.8392V21.2805ZM27.8392 14.0805H33.8392V8.08047H27.8392V14.0805ZM14.0792 14.0805V8.08047H8.07922V14.0805H14.0792ZM5.99922 57.4405H11.9992V6.00047H5.99922H-0.000781059V57.4405H5.99922ZM5.99922 6.00047V12.0005H28.6392V6.00047V0.000465393H5.99922V6.00047ZM28.6392 6.00047H22.6392V13.2805H28.6392H34.6392V6.00047H28.6392ZM28.6392 13.2805V19.2805H35.8392V13.2805V7.28047H28.6392V13.2805ZM35.8392 13.2805H29.8392V20.4805H35.8392H41.8392V13.2805H35.8392ZM35.8392 20.4805V26.4805H43.1992V20.4805V14.4805H35.8392V20.4805ZM43.1992 20.4805H37.1992V42.9605H43.1992H49.1992V20.4805H43.1992ZM43.1992 42.9605V36.9605H35.8392V42.9605V48.9605H43.1992V42.9605ZM35.8392 42.9605H29.8392V50.2405H35.8392H41.8392V42.9605H35.8392ZM35.8392 50.2405V44.2405H28.6392V50.2405V56.2405H35.8392V50.2405ZM28.6392 50.2405H22.6392V57.4405H28.6392H34.6392V50.2405H28.6392ZM28.6392 57.4405V51.4405H5.99922V57.4405V63.4405H28.6392V57.4405ZM14.0792 49.4405V55.4405H27.8392V49.4405V43.4405H14.0792V49.4405ZM27.8392 49.4405H33.8392V42.1605H27.8392H21.8392V49.4405H27.8392ZM27.8392 42.1605V48.1605H35.0392V42.1605V36.1605H27.8392V42.1605ZM35.0392 42.1605H41.0392V21.2805H35.0392H29.0392V42.1605H35.0392ZM35.0392 21.2805V15.2805H27.8392V21.2805V27.2805H35.0392V21.2805ZM27.8392 21.2805H33.8392V14.0805H27.8392H21.8392V21.2805H27.8392ZM27.8392 14.0805V8.08047H14.0792V14.0805V20.0805H27.8392V14.0805ZM14.0792 14.0805H8.07922V49.4405H14.0792H20.0792V14.0805H14.0792ZM62.5542 57.4405H56.5542V63.4405H62.5542V57.4405ZM62.5542 50.2405H68.5542V44.2405H62.5542V50.2405ZM55.2742 50.2405H49.2742V56.2405H55.2742V50.2405ZM55.2742 27.7605V21.7605H49.2742V27.7605H55.2742ZM62.5542 27.7605V33.7605H68.5542V27.7605H62.5542ZM62.5542 20.4805V14.4805H56.5542V20.4805H62.5542ZM85.1142 20.4805H91.1142V14.4805H85.1142V20.4805ZM85.1142 27.7605H79.1142V33.7605H85.1142V27.7605ZM92.4742 27.7605H98.4742V21.7605H92.4742V27.7605ZM92.4742 50.2405V56.2405H98.4742V50.2405H92.4742ZM85.1142 50.2405V44.2405H79.1142V50.2405H85.1142ZM85.1142 57.4405V63.4405H91.1142V57.4405H85.1142ZM63.3542 49.4405H57.3542V55.4405H63.3542V49.4405ZM84.3142 49.4405V55.4405H90.3142V49.4405H84.3142ZM84.3142 28.4805H90.3142V22.4805H84.3142V28.4805ZM63.3542 28.4805V22.4805H57.3542V28.4805H63.3542ZM62.5542 57.4405H68.5542V50.2405H62.5542H56.5542V57.4405H62.5542ZM62.5542 50.2405V44.2405H55.2742V50.2405V56.2405H62.5542V50.2405ZM55.2742 50.2405H61.2742V27.7605H55.2742H49.2742V50.2405H55.2742ZM55.2742 27.7605V33.7605H62.5542V27.7605V21.7605H55.2742V27.7605ZM62.5542 27.7605H68.5542V20.4805H62.5542H56.5542V27.7605H62.5542ZM62.5542 20.4805V26.4805H85.1142V20.4805V14.4805H62.5542V20.4805ZM85.1142 20.4805H79.1142V27.7605H85.1142H91.1142V20.4805H85.1142ZM85.1142 27.7605V33.7605H92.4742V27.7605V21.7605H85.1142V27.7605ZM92.4742 27.7605H86.4742V50.2405H92.4742H98.4742V27.7605H92.4742ZM92.4742 50.2405V44.2405H85.1142V50.2405V56.2405H92.4742V50.2405ZM85.1142 50.2405H79.1142V57.4405H85.1142H91.1142V50.2405H85.1142ZM85.1142 57.4405V51.4405H62.5542V57.4405V63.4405H85.1142V57.4405ZM63.3542 49.4405V55.4405H84.3142V49.4405V43.4405H63.3542V49.4405ZM84.3142 49.4405H90.3142V28.4805H84.3142H78.3142V49.4405H84.3142ZM84.3142 28.4805V22.4805H63.3542V28.4805V34.4805H84.3142V28.4805ZM63.3542 28.4805H57.3542V49.4405H63.3542H69.3542V28.4805H63.3542ZM111.829 57.4405H105.829V63.4405H111.829V57.4405ZM111.829 50.2405H117.829V44.2405H111.829V50.2405ZM104.549 50.2405H98.5492V56.2405H104.549V50.2405ZM104.549 27.7605V21.7605H98.5492V27.7605H104.549ZM111.829 27.7605V33.7605H117.829V27.7605H111.829ZM111.829 20.4805V14.4805H105.829V20.4805H111.829ZM134.389 20.4805H140.389V14.4805H134.389V20.4805ZM134.389 27.7605H128.389V33.7605H134.389V27.7605ZM141.749 27.7605H147.749V21.7605H141.749V27.7605ZM141.749 35.6805V41.6805H147.749V35.6805H141.749ZM133.589 35.6805H127.589V41.6805H133.589V35.6805ZM133.589 28.4805H139.589V22.4805H133.589V28.4805ZM112.629 28.4805V22.4805H106.629V28.4805H112.629ZM112.629 49.4405H106.629V55.4405H112.629V49.4405ZM133.589 49.4405V55.4405H139.589V49.4405H133.589ZM133.589 42.1605V36.1605H127.589V42.1605H133.589ZM141.749 42.1605H147.749V36.1605H141.749V42.1605ZM141.749 50.2405V56.2405H147.749V50.2405H141.749ZM134.389 50.2405V44.2405H128.389V50.2405H134.389ZM134.389 57.4405V63.4405H140.389V57.4405H134.389ZM111.829 57.4405H117.829V50.2405H111.829H105.829V57.4405H111.829ZM111.829 50.2405V44.2405H104.549V50.2405V56.2405H111.829V50.2405ZM104.549 50.2405H110.549V27.7605H104.549H98.5492V50.2405H104.549ZM104.549 27.7605V33.7605H111.829V27.7605V21.7605H104.549V27.7605ZM111.829 27.7605H117.829V20.4805H111.829H105.829V27.7605H111.829ZM111.829 20.4805V26.4805H134.389V20.4805V14.4805H111.829V20.4805ZM134.389 20.4805H128.389V27.7605H134.389H140.389V20.4805H134.389ZM134.389 27.7605V33.7605H141.749V27.7605V21.7605H134.389V27.7605ZM141.749 27.7605H135.749V35.6805H141.749H147.749V27.7605H141.749ZM141.749 35.6805V29.6805H133.589V35.6805V41.6805H141.749V35.6805ZM133.589 35.6805H139.589V28.4805H133.589H127.589V35.6805H133.589ZM133.589 28.4805V22.4805H112.629V28.4805V34.4805H133.589V28.4805ZM112.629 28.4805H106.629V49.4405H112.629H118.629V28.4805H112.629ZM112.629 49.4405V55.4405H133.589V49.4405V43.4405H112.629V49.4405ZM133.589 49.4405H139.589V42.1605H133.589H127.589V49.4405H133.589ZM133.589 42.1605V48.1605H141.749V42.1605V36.1605H133.589V42.1605ZM141.749 42.1605H135.749V50.2405H141.749H147.749V42.1605H141.749ZM141.749 50.2405V44.2405H134.389V50.2405V56.2405H141.749V50.2405ZM134.389 50.2405H128.389V57.4405H134.389H140.389V50.2405H134.389ZM134.389 57.4405V51.4405H111.829V57.4405V63.4405H134.389V57.4405ZM164.32 57.4405H158.32V63.4405H164.32V57.4405ZM164.32 50.2405H170.32V44.2405H164.32V50.2405ZM157.12 50.2405H151.12V56.2405H157.12V50.2405ZM157.12 28.4805H163.12V22.4805H157.12V28.4805ZM149.84 28.4805H143.84V34.4805H149.84V28.4805ZM149.84 20.4805V14.4805H143.84V20.4805H149.84ZM157.12 20.4805V26.4805H163.12V20.4805H157.12ZM157.12 6.00047V0.000465393H151.12V6.00047H157.12ZM165.12 6.00047H171.12V0.000465393H165.12V6.00047ZM165.12 20.4805H159.12V26.4805H165.12V20.4805ZM187.04 20.4805H193.04V14.4805H187.04V20.4805ZM187.04 28.4805V34.4805H193.04V28.4805H187.04ZM165.12 28.4805V22.4805H159.12V28.4805H165.12ZM165.12 49.4405H159.12V55.4405H165.12V49.4405ZM186.24 49.4405V55.4405H192.24V49.4405H186.24ZM186.24 42.1605V36.1605H180.24V42.1605H186.24ZM194.32 42.1605H200.32V36.1605H194.32V42.1605ZM194.32 50.2405V56.2405H200.32V50.2405H194.32ZM187.04 50.2405V44.2405H181.04V50.2405H187.04ZM187.04 57.4405V63.4405H193.04V57.4405H187.04ZM164.32 57.4405H170.32V50.2405H164.32H158.32V57.4405H164.32ZM164.32 50.2405V44.2405H157.12V50.2405V56.2405H164.32V50.2405ZM157.12 50.2405H163.12V28.4805H157.12H151.12V50.2405H157.12ZM157.12 28.4805V22.4805H149.84V28.4805V34.4805H157.12V28.4805ZM149.84 28.4805H155.84V20.4805H149.84H143.84V28.4805H149.84ZM149.84 20.4805V26.4805H157.12V20.4805V14.4805H149.84V20.4805ZM157.12 20.4805H163.12V6.00047H157.12H151.12V20.4805H157.12ZM157.12 6.00047V12.0005H165.12V6.00047V0.000465393H157.12V6.00047ZM165.12 6.00047H159.12V20.4805H165.12H171.12V6.00047H165.12ZM165.12 20.4805V26.4805H187.04V20.4805V14.4805H165.12V20.4805ZM187.04 20.4805H181.04V28.4805H187.04H193.04V20.4805H187.04ZM187.04 28.4805V22.4805H165.12V28.4805V34.4805H187.04V28.4805ZM165.12 28.4805H159.12V49.4405H165.12H171.12V28.4805H165.12ZM165.12 49.4405V55.4405H186.24V49.4405V43.4405H165.12V49.4405ZM186.24 49.4405H192.24V42.1605H186.24H180.24V49.4405H186.24ZM186.24 42.1605V48.1605H194.32V42.1605V36.1605H186.24V42.1605ZM194.32 42.1605H188.32V50.2405H194.32H200.32V42.1605H194.32ZM194.32 50.2405V44.2405H187.04V50.2405V56.2405H194.32V50.2405ZM187.04 50.2405H181.04V57.4405H187.04H193.04V50.2405H187.04ZM187.04 57.4405V51.4405H164.32V57.4405V63.4405H187.04V57.4405ZM211.239 57.4405H205.239V63.4405H211.239V57.4405ZM211.239 50.2405H217.239V44.2405H211.239V50.2405ZM203.959 50.2405H197.959V56.2405H203.959V50.2405ZM203.959 27.7605V21.7605H197.959V27.7605H203.959ZM211.239 27.7605V33.7605H217.239V27.7605H211.239ZM211.239 20.4805V14.4805H205.239V20.4805H211.239ZM233.799 20.4805H239.799V14.4805H233.799V20.4805ZM233.799 27.7605H227.799V33.7605H233.799V27.7605ZM241.159 27.7605H247.159V21.7605H241.159V27.7605ZM241.159 50.2405V56.2405H247.159V50.2405H241.159ZM233.799 50.2405V44.2405H227.799V50.2405H233.799ZM233.799 57.4405V63.4405H239.799V57.4405H233.799ZM212.039 49.4405H206.039V55.4405H212.039V49.4405ZM232.999 49.4405V55.4405H238.999V49.4405H232.999ZM232.999 28.4805H238.999V22.4805H232.999V28.4805ZM212.039 28.4805V22.4805H206.039V28.4805H212.039ZM211.239 57.4405H217.239V50.2405H211.239H205.239V57.4405H211.239ZM211.239 50.2405V44.2405H203.959V50.2405V56.2405H211.239V50.2405ZM203.959 50.2405H209.959V27.7605H203.959H197.959V50.2405H203.959ZM203.959 27.7605V33.7605H211.239V27.7605V21.7605H203.959V27.7605ZM211.239 27.7605H217.239V20.4805H211.239H205.239V27.7605H211.239ZM211.239 20.4805V26.4805H233.799V20.4805V14.4805H211.239V20.4805ZM233.799 20.4805H227.799V27.7605H233.799H239.799V20.4805H233.799ZM233.799 27.7605V33.7605H241.159V27.7605V21.7605H233.799V27.7605ZM241.159 27.7605H235.159V50.2405H241.159H247.159V27.7605H241.159ZM241.159 50.2405V44.2405H233.799V50.2405V56.2405H241.159V50.2405ZM233.799 50.2405H227.799V57.4405H233.799H239.799V50.2405H233.799ZM233.799 57.4405V51.4405H211.239V57.4405V63.4405H233.799V57.4405ZM212.039 49.4405V55.4405H232.999V49.4405V43.4405H212.039V49.4405ZM232.999 49.4405H238.999V28.4805H232.999H226.999V49.4405H232.999ZM232.999 28.4805V22.4805H212.039V28.4805V34.4805H232.999V28.4805ZM212.039 28.4805H206.039V49.4405H212.039H218.039V28.4805H212.039ZM253.234 57.4405H247.234V63.4405H253.234V57.4405ZM253.234 27.7605V21.7605H247.234V27.7605H253.234ZM260.514 27.7605V33.7605H266.514V27.7605H260.514ZM260.514 20.4805V14.4805H254.514V20.4805H260.514ZM283.074 20.4805H289.074V14.4805H283.074V20.4805ZM283.074 27.7605H277.074V33.7605H283.074V27.7605ZM290.434 27.7605H296.434V21.7605H290.434V27.7605ZM290.434 35.6805V41.6805H296.434V35.6805H290.434ZM282.274 35.6805H276.274V41.6805H282.274V35.6805ZM282.274 28.4805H288.274V22.4805H282.274V28.4805ZM261.314 28.4805V22.4805H255.314V28.4805H261.314ZM261.314 57.4405V63.4405H267.314V57.4405H261.314ZM253.234 57.4405H259.234V27.7605H253.234H247.234V57.4405H253.234ZM253.234 27.7605V33.7605H260.514V27.7605V21.7605H253.234V27.7605ZM260.514 27.7605H266.514V20.4805H260.514H254.514V27.7605H260.514ZM260.514 20.4805V26.4805H283.074V20.4805V14.4805H260.514V20.4805ZM283.074 20.4805H277.074V27.7605H283.074H289.074V20.4805H283.074ZM283.074 27.7605V33.7605H290.434V27.7605V21.7605H283.074V27.7605ZM290.434 27.7605H284.434V35.6805H290.434H296.434V27.7605H290.434ZM290.434 35.6805V29.6805H282.274V35.6805V41.6805H290.434V35.6805ZM282.274 35.6805H288.274V28.4805H282.274H276.274V35.6805H282.274ZM282.274 28.4805V22.4805H261.314V28.4805V34.4805H282.274V28.4805ZM261.314 28.4805H255.314V57.4405H261.314H267.314V28.4805H261.314ZM261.314 57.4405V51.4405H253.234V57.4405V63.4405H261.314V57.4405ZM320.924 57.4405H314.924V63.4405H320.924V57.4405ZM320.924 20.4805V14.4805H314.924V20.4805H320.924ZM350.764 20.4805H356.764V14.4805H350.764V20.4805ZM350.764 27.7605H344.764V33.7605H350.764V27.7605ZM358.124 27.7605H364.124V21.7605H358.124V27.7605ZM358.124 57.4405V63.4405H364.124V57.4405H358.124ZM349.964 57.4405H343.964V63.4405H349.964V57.4405ZM349.964 28.4805H355.964V22.4805H349.964V28.4805ZM329.004 28.4805V22.4805H323.004V28.4805H329.004ZM329.004 57.4405V63.4405H335.004V57.4405H329.004ZM320.924 57.4405H326.924V20.4805H320.924H314.924V57.4405H320.924ZM320.924 20.4805V26.4805H350.764V20.4805V14.4805H320.924V20.4805ZM350.764 20.4805H344.764V27.7605H350.764H356.764V20.4805H350.764ZM350.764 27.7605V33.7605H358.124V27.7605V21.7605H350.764V27.7605ZM358.124 27.7605H352.124V57.4405H358.124H364.124V27.7605H358.124ZM358.124 57.4405V51.4405H349.964V57.4405V63.4405H358.124V57.4405ZM349.964 57.4405H355.964V28.4805H349.964H343.964V57.4405H349.964ZM349.964 28.4805V22.4805H329.004V28.4805V34.4805H349.964V28.4805ZM329.004 28.4805H323.004V57.4405H329.004H335.004V28.4805H329.004ZM329.004 57.4405V51.4405H320.924V57.4405V63.4405H329.004V57.4405ZM375.057 57.4405H369.057V63.4405H375.057V57.4405ZM375.057 50.2405H381.057V44.2405H375.057V50.2405ZM367.777 50.2405H361.777V56.2405H367.777V50.2405ZM367.777 27.7605V21.7605H361.777V27.7605H367.777ZM375.057 27.7605V33.7605H381.057V27.7605H375.057ZM375.057 20.4805V14.4805H369.057V20.4805H375.057ZM397.617 20.4805H403.617V14.4805H397.617V20.4805ZM397.617 27.7605H391.617V33.7605H397.617V27.7605ZM404.977 27.7605H410.977V21.7605H404.977V27.7605ZM404.977 49.4405H398.977V55.4405H404.977V49.4405ZM412.257 49.4405H418.257V43.4405H412.257V49.4405ZM412.257 57.4405V63.4405H418.257V57.4405H412.257ZM404.177 57.4405H398.177V63.4405H404.177V57.4405ZM404.177 50.2405H410.177V44.2405H404.177V50.2405ZM397.617 50.2405V44.2405H391.617V50.2405H397.617ZM397.617 57.4405V63.4405H403.617V57.4405H397.617ZM375.857 49.4405H369.857V55.4405H375.857V49.4405ZM396.817 49.4405V55.4405H402.817V49.4405H396.817ZM396.817 28.4805H402.817V22.4805H396.817V28.4805ZM375.857 28.4805V22.4805H369.857V28.4805H375.857ZM375.057 57.4405H381.057V50.2405H375.057H369.057V57.4405H375.057ZM375.057 50.2405V44.2405H367.777V50.2405V56.2405H375.057V50.2405ZM367.777 50.2405H373.777V27.7605H367.777H361.777V50.2405H367.777ZM367.777 27.7605V33.7605H375.057V27.7605V21.7605H367.777V27.7605ZM375.057 27.7605H381.057V20.4805H375.057H369.057V27.7605H375.057ZM375.057 20.4805V26.4805H397.617V20.4805V14.4805H375.057V20.4805ZM397.617 20.4805H391.617V27.7605H397.617H403.617V20.4805H397.617ZM397.617 27.7605V33.7605H404.977V27.7605V21.7605H397.617V27.7605ZM404.977 27.7605H398.977V49.4405H404.977H410.977V27.7605H404.977ZM404.977 49.4405V55.4405H412.257V49.4405V43.4405H404.977V49.4405ZM412.257 49.4405H406.257V57.4405H412.257H418.257V49.4405H412.257ZM412.257 57.4405V51.4405H404.177V57.4405V63.4405H412.257V57.4405ZM404.177 57.4405H410.177V50.2405H404.177H398.177V57.4405H404.177ZM404.177 50.2405V44.2405H397.617V50.2405V56.2405H404.177V50.2405ZM397.617 50.2405H391.617V57.4405H397.617H403.617V50.2405H397.617ZM397.617 57.4405V51.4405H375.057V57.4405V63.4405H397.617V57.4405ZM375.857 49.4405V55.4405H396.817V49.4405V43.4405H375.857V49.4405ZM396.817 49.4405H402.817V28.4805H396.817H390.817V49.4405H396.817ZM396.817 28.4805V22.4805H375.857V28.4805V34.4805H396.817V28.4805ZM375.857 28.4805H369.857V49.4405H375.857H381.857V28.4805H375.857ZM421.896 57.4405H415.896V63.4405H421.896V57.4405ZM421.896 20.4805V14.4805H415.896V20.4805H421.896ZM444.536 20.4805H450.536V14.4805H444.536V20.4805ZM444.536 27.7605H438.536V33.7605H444.536V27.7605ZM450.936 27.7605V33.7605H456.936V27.7605H450.936ZM450.936 20.4805V14.4805H444.936V20.4805H450.936ZM466.376 20.4805H472.376V14.4805H466.376V20.4805ZM466.376 27.7605H460.376V33.7605H466.376V27.7605ZM473.576 27.7605H479.576V21.7605H473.576V27.7605ZM473.576 57.4405V63.4405H479.576V57.4405H473.576ZM465.576 57.4405H459.576V63.4405H465.576V57.4405ZM465.576 28.4805H471.576V22.4805H465.576V28.4805ZM451.736 28.4805V22.4805H445.736V28.4805H451.736ZM451.736 57.4405V63.4405H457.736V57.4405H451.736ZM443.736 57.4405H437.736V63.4405H443.736V57.4405ZM443.736 28.4805H449.736V22.4805H443.736V28.4805ZM429.976 28.4805V22.4805H423.976V28.4805H429.976ZM429.976 57.4405V63.4405H435.976V57.4405H429.976ZM421.896 57.4405H427.896V20.4805H421.896H415.896V57.4405H421.896ZM421.896 20.4805V26.4805H444.536V20.4805V14.4805H421.896V20.4805ZM444.536 20.4805H438.536V27.7605H444.536H450.536V20.4805H444.536ZM444.536 27.7605V33.7605H450.936V27.7605V21.7605H444.536V27.7605ZM450.936 27.7605H456.936V20.4805H450.936H444.936V27.7605H450.936ZM450.936 20.4805V26.4805H466.376V20.4805V14.4805H450.936V20.4805ZM466.376 20.4805H460.376V27.7605H466.376H472.376V20.4805H466.376ZM466.376 27.7605V33.7605H473.576V27.7605V21.7605H466.376V27.7605ZM473.576 27.7605H467.576V57.4405H473.576H479.576V27.7605H473.576ZM473.576 57.4405V51.4405H465.576V57.4405V63.4405H473.576V57.4405ZM465.576 57.4405H471.576V28.4805H465.576H459.576V57.4405H465.576ZM465.576 28.4805V22.4805H451.736V28.4805V34.4805H465.576V28.4805ZM451.736 28.4805H445.736V57.4405H451.736H457.736V28.4805H451.736ZM451.736 57.4405V51.4405H443.736V57.4405V63.4405H451.736V57.4405ZM443.736 57.4405H449.736V28.4805H443.736H437.736V57.4405H443.736ZM443.736 28.4805V22.4805H429.976V28.4805V34.4805H443.736V28.4805ZM429.976 28.4805H423.976V57.4405H429.976H435.976V28.4805H429.976ZM429.976 57.4405V51.4405H421.896V57.4405V63.4405H429.976V57.4405ZM492.123 57.4405H486.123V63.4405H492.123V57.4405ZM492.123 50.2405H498.123V44.2405H492.123V50.2405ZM484.843 50.2405H478.843V56.2405H484.843V50.2405ZM484.843 27.7605V21.7605H478.843V27.7605H484.843ZM492.123 27.7605V33.7605H498.123V27.7605H492.123ZM492.123 20.4805V14.4805H486.123V20.4805H492.123ZM514.683 20.4805H520.683V14.4805H514.683V20.4805ZM514.683 27.7605H508.683V33.7605H514.683V27.7605ZM522.043 27.7605H528.043V21.7605H522.043V27.7605ZM522.043 35.6805V41.6805H528.043V35.6805H522.043ZM513.883 35.6805H507.883V41.6805H513.883V35.6805ZM513.883 28.4805H519.883V22.4805H513.883V28.4805ZM492.923 28.4805V22.4805H486.923V28.4805H492.923ZM492.923 34.8805H486.923V40.8805H492.923V34.8805ZM507.483 34.8805H513.483V28.8805H507.483V34.8805ZM507.483 42.9605V48.9605H513.483V42.9605H507.483ZM492.923 42.9605V36.9605H486.923V42.9605H492.923ZM492.923 49.4405H486.923V55.4405H492.923V49.4405ZM513.883 49.4405V55.4405H519.883V49.4405H513.883ZM513.883 42.0805V36.0805H507.883V42.0805H513.883ZM522.043 42.0805H528.043V36.0805H522.043V42.0805ZM522.043 50.1605V56.1605H528.043V50.1605H522.043ZM514.683 50.1605V44.1605H508.683V50.1605H514.683ZM514.683 57.4405V63.4405H520.683V57.4405H514.683ZM492.123 57.4405H498.123V50.2405H492.123H486.123V57.4405H492.123ZM492.123 50.2405V44.2405H484.843V50.2405V56.2405H492.123V50.2405ZM484.843 50.2405H490.843V27.7605H484.843H478.843V50.2405H484.843ZM484.843 27.7605V33.7605H492.123V27.7605V21.7605H484.843V27.7605ZM492.123 27.7605H498.123V20.4805H492.123H486.123V27.7605H492.123ZM492.123 20.4805V26.4805H514.683V20.4805V14.4805H492.123V20.4805ZM514.683 20.4805H508.683V27.7605H514.683H520.683V20.4805H514.683ZM514.683 27.7605V33.7605H522.043V27.7605V21.7605H514.683V27.7605ZM522.043 27.7605H516.043V35.6805H522.043H528.043V27.7605H522.043ZM522.043 35.6805V29.6805H513.883V35.6805V41.6805H522.043V35.6805ZM513.883 35.6805H519.883V28.4805H513.883H507.883V35.6805H513.883ZM513.883 28.4805V22.4805H492.923V28.4805V34.4805H513.883V28.4805ZM492.923 28.4805H486.923V34.8805H492.923H498.923V28.4805H492.923ZM492.923 34.8805V40.8805H507.483V34.8805V28.8805H492.923V34.8805ZM507.483 34.8805H501.483V42.9605H507.483H513.483V34.8805H507.483ZM507.483 42.9605V36.9605H492.923V42.9605V48.9605H507.483V42.9605ZM492.923 42.9605H486.923V49.4405H492.923H498.923V42.9605H492.923ZM492.923 49.4405V55.4405H513.883V49.4405V43.4405H492.923V49.4405ZM513.883 49.4405H519.883V42.0805H513.883H507.883V49.4405H513.883ZM513.883 42.0805V48.0805H522.043V42.0805V36.0805H513.883V42.0805ZM522.043 42.0805H516.043V50.1605H522.043H528.043V42.0805H522.043ZM522.043 50.1605V44.1605H514.683V50.1605V56.1605H522.043V50.1605ZM514.683 50.1605H508.683V57.4405H514.683H520.683V50.1605H514.683ZM514.683 57.4405V51.4405H492.123V57.4405V63.4405H514.683V57.4405Z" fill="black" mask="url(#path-1-outside-1_287_30375)"/>
</svg>
