<svg width="331" height="99" viewBox="0 0 331 99" fill="none" xmlns="http://www.w3.org/2000/svg">
<path d="M21.8404 10.8745H309.442L321.019 23.0068V76.7568L309.442 88.6694L21.8404 87.9995L8.51953 75.2568V23.5068L21.8404 10.8745Z" fill="#5052DB"/>
<rect y="21.2046" width="10.854" height="55.7954" fill="#2629A0"/>
<rect width="10.854" height="55.7954" transform="matrix(-1 1.02679e-07 7.4433e-08 1 330.85 22)" fill="#2629A0"/>
<rect x="10.8535" y="77" width="10.854" height="11" fill="#2629A0"/>
<rect width="10.854" height="11" transform="matrix(-1 1.02679e-07 7.4433e-08 1 319.996 77.7954)" fill="#2629A0"/>
<rect x="10.8535" y="10.2046" width="10.854" height="11" fill="#2629A0"/>
<rect width="10.854" height="11" transform="matrix(-1 1.02679e-07 7.4433e-08 1 319.996 11)" fill="#2629A0"/>
<rect width="11" height="287.433" transform="matrix(1.17666e-08 -1 -1 -3.83163e-08 309.141 99.0005)" fill="#2629A0"/>
<rect width="11" height="287.433" transform="matrix(1.17666e-08 -1 -1 -3.83163e-08 309.141 11)" fill="#2629A0"/>
<mask id="path-10-outside-1_565_10853" maskUnits="userSpaceOnUse" x="34.1641" y="30.1021" width="265" height="39" fill="black">
<rect fill="white" x="34.1641" y="30.1021" width="265" height="39"/>
<path d="M38.9241 64.6541V34.9841H56.4041V39.078H60.5901V44.2301H55.4841V40.182H43.9841V47.266H52.2641V52.372H43.9841V64.6541H38.9241ZM68.0083 64.6541V34.9841H85.4883V39.078H89.6743V44.2301H84.5683V40.182H73.0683V47.266H81.3483V52.372H73.0683V64.6541H68.0083ZM96.1491 64.6541V39.078H100.289V34.9841H113.629V39.078H117.815V52.372H113.629V56.4661H111.605V59.5021H115.699V64.6541H110.685V60.5601H106.499V56.4661H101.209V64.6541H96.1491ZM101.209 51.2681H112.709V40.182H101.209V51.2681ZM138.101 64.6541V47.266H142.241V43.126H155.581V47.266H159.767V52.372H154.661V48.2781H143.161V64.6541H138.101ZM170.831 64.6541V60.5601H166.691V47.266H170.831V43.126H184.171V47.266H188.357V52.372H183.251V48.2781H171.751V51.2681H180.031V56.4661H171.751V59.5021H183.251V55.3161H188.357V60.5141H184.171V64.6541H170.831ZM196.674 64.6541V59.5021H213.234V56.4661H200.814V52.372H196.674V47.266H200.814V43.126H218.34V48.2781H201.734V51.2681H214.154V55.3621H218.34V60.5601H214.154V64.6541H196.674ZM230.796 64.6541V60.5601H226.656V43.126H231.716V59.5021H243.216V43.126H248.322V60.5601H244.136V64.6541H230.796ZM256.639 64.6541V34.9841H261.699V64.6541H256.639ZM276.933 64.6541V60.5601H272.793V48.2781H268.653V43.126H272.793V34.9841H277.807V43.126H290.319V48.2781H277.807V59.5021H289.399V55.3621H294.459V60.5601H290.319V64.6541H276.933Z"/>
</mask>
<path d="M38.9241 64.6541V34.9841H56.4041V39.078H60.5901V44.2301H55.4841V40.182H43.9841V47.266H52.2641V52.372H43.9841V64.6541H38.9241ZM68.0083 64.6541V34.9841H85.4883V39.078H89.6743V44.2301H84.5683V40.182H73.0683V47.266H81.3483V52.372H73.0683V64.6541H68.0083ZM96.1491 64.6541V39.078H100.289V34.9841H113.629V39.078H117.815V52.372H113.629V56.4661H111.605V59.5021H115.699V64.6541H110.685V60.5601H106.499V56.4661H101.209V64.6541H96.1491ZM101.209 51.2681H112.709V40.182H101.209V51.2681ZM138.101 64.6541V47.266H142.241V43.126H155.581V47.266H159.767V52.372H154.661V48.2781H143.161V64.6541H138.101ZM170.831 64.6541V60.5601H166.691V47.266H170.831V43.126H184.171V47.266H188.357V52.372H183.251V48.2781H171.751V51.2681H180.031V56.4661H171.751V59.5021H183.251V55.3161H188.357V60.5141H184.171V64.6541H170.831ZM196.674 64.6541V59.5021H213.234V56.4661H200.814V52.372H196.674V47.266H200.814V43.126H218.34V48.2781H201.734V51.2681H214.154V55.3621H218.34V60.5601H214.154V64.6541H196.674ZM230.796 64.6541V60.5601H226.656V43.126H231.716V59.5021H243.216V43.126H248.322V60.5601H244.136V64.6541H230.796ZM256.639 64.6541V34.9841H261.699V64.6541H256.639ZM276.933 64.6541V60.5601H272.793V48.2781H268.653V43.126H272.793V34.9841H277.807V43.126H290.319V48.2781H277.807V59.5021H289.399V55.3621H294.459V60.5601H290.319V64.6541H276.933Z" fill="white"/>
<path d="M38.9241 64.654H34.9241V68.6541H38.9241V64.654ZM38.9241 34.9841V30.9841H34.9241V34.9841H38.9241ZM56.4041 34.9841H60.4041V30.9841H56.4041V34.9841ZM56.4041 39.078H52.4041V43.078H56.4041V39.078ZM60.5901 39.078H64.5901V35.078H60.5901V39.078ZM60.5901 44.2301V48.23H64.5901V44.2301H60.5901ZM55.4841 44.2301H51.4841V48.23H55.4841V44.2301ZM55.4841 40.182H59.4841V36.182H55.4841V40.182ZM43.9841 40.182V36.182H39.9841V40.182H43.9841ZM43.9841 47.2661H39.9841V51.266H43.9841V47.2661ZM52.2641 47.2661H56.2641V43.2661H52.2641V47.2661ZM52.2641 52.372V56.3721H56.2641V52.372H52.2641ZM43.9841 52.372V48.372H39.9841V52.372H43.9841ZM43.9841 64.654V68.6541H47.9841V64.654H43.9841ZM38.9241 64.654H42.9241V34.9841H38.9241H34.9241V64.654H38.9241ZM38.9241 34.9841V38.9841H56.4041V34.9841V30.9841H38.9241V34.9841ZM56.4041 34.9841H52.4041V39.078H56.4041H60.4041V34.9841H56.4041ZM56.4041 39.078V43.078H60.5901V39.078V35.078H56.4041V39.078ZM60.5901 39.078H56.5901V44.2301H60.5901H64.5901V39.078H60.5901ZM60.5901 44.2301V40.2301H55.4841V44.2301V48.23H60.5901V44.2301ZM55.4841 44.2301H59.4841V40.182H55.4841H51.4841V44.2301H55.4841ZM55.4841 40.182V36.182H43.9841V40.182V44.182H55.4841V40.182ZM43.9841 40.182H39.9841V47.2661H43.9841H47.9841V40.182H43.9841ZM43.9841 47.2661V51.266H52.2641V47.2661V43.2661H43.9841V47.2661ZM52.2641 47.2661H48.2641V52.372H52.2641H56.2641V47.2661H52.2641ZM52.2641 52.372V48.372H43.9841V52.372V56.3721H52.2641V52.372ZM43.9841 52.372H39.9841V64.654H43.9841H47.9841V52.372H43.9841ZM43.9841 64.654V60.6541H38.9241V64.654V68.6541H43.9841V64.654ZM68.0083 64.654H64.0083V68.6541H68.0083V64.654ZM68.0083 34.9841V30.9841H64.0083V34.9841H68.0083ZM85.4883 34.9841H89.4883V30.9841H85.4883V34.9841ZM85.4883 39.078H81.4883V43.078H85.4883V39.078ZM89.6743 39.078H93.6743V35.078H89.6743V39.078ZM89.6743 44.2301V48.23H93.6743V44.2301H89.6743ZM84.5683 44.2301H80.5683V48.23H84.5683V44.2301ZM84.5683 40.182H88.5683V36.182H84.5683V40.182ZM73.0683 40.182V36.182H69.0683V40.182H73.0683ZM73.0683 47.2661H69.0683V51.266H73.0683V47.2661ZM81.3483 47.2661H85.3483V43.2661H81.3483V47.2661ZM81.3483 52.372V56.3721H85.3483V52.372H81.3483ZM73.0683 52.372V48.372H69.0683V52.372H73.0683ZM73.0683 64.654V68.6541H77.0683V64.654H73.0683ZM68.0083 64.654H72.0083V34.9841H68.0083H64.0083V64.654H68.0083ZM68.0083 34.9841V38.9841H85.4883V34.9841V30.9841H68.0083V34.9841ZM85.4883 34.9841H81.4883V39.078H85.4883H89.4883V34.9841H85.4883ZM85.4883 39.078V43.078H89.6743V39.078V35.078H85.4883V39.078ZM89.6743 39.078H85.6743V44.2301H89.6743H93.6743V39.078H89.6743ZM89.6743 44.2301V40.2301H84.5683V44.2301V48.23H89.6743V44.2301ZM84.5683 44.2301H88.5683V40.182H84.5683H80.5683V44.2301H84.5683ZM84.5683 40.182V36.182H73.0683V40.182V44.182H84.5683V40.182ZM73.0683 40.182H69.0683V47.2661H73.0683H77.0683V40.182H73.0683ZM73.0683 47.2661V51.266H81.3483V47.2661V43.2661H73.0683V47.2661ZM81.3483 47.2661H77.3483V52.372H81.3483H85.3483V47.2661H81.3483ZM81.3483 52.372V48.372H73.0683V52.372V56.3721H81.3483V52.372ZM73.0683 52.372H69.0683V64.654H73.0683H77.0683V52.372H73.0683ZM73.0683 64.654V60.6541H68.0083V64.654V68.6541H73.0683V64.654ZM96.1491 64.654H92.1491V68.6541H96.1491V64.654ZM96.1491 39.078V35.078H92.1491V39.078H96.1491ZM100.289 39.078V43.078H104.289V39.078H100.289ZM100.289 34.9841V30.9841H96.2891V34.9841H100.289ZM113.629 34.9841H117.629V30.9841H113.629V34.9841ZM113.629 39.078H109.629V43.078H113.629V39.078ZM117.815 39.078H121.815V35.078H117.815V39.078ZM117.815 52.372V56.3721H121.815V52.372H117.815ZM113.629 52.372V48.372H109.629V52.372H113.629ZM113.629 56.466V60.466H117.629V56.466H113.629ZM111.605 56.466V52.466H107.605V56.466H111.605ZM111.605 59.5021H107.605V63.5021H111.605V59.5021ZM115.699 59.5021H119.699V55.5021H115.699V59.5021ZM115.699 64.654V68.6541H119.699V64.654H115.699ZM110.685 64.654H106.685V68.6541H110.685V64.654ZM110.685 60.5601H114.685V56.5601H110.685V60.5601ZM106.499 60.5601H102.499V64.5601H106.499V60.5601ZM106.499 56.466H110.499V52.466H106.499V56.466ZM101.209 56.466V52.466H97.2091V56.466H101.209ZM101.209 64.654V68.6541H105.209V64.654H101.209ZM101.209 51.2681H97.2091V55.2681H101.209V51.2681ZM112.709 51.2681V55.2681H116.709V51.2681H112.709ZM112.709 40.182H116.709V36.182H112.709V40.182ZM101.209 40.182V36.182H97.2091V40.182H101.209ZM96.1491 64.654H100.149V39.078H96.1491H92.1491V64.654H96.1491ZM96.1491 39.078V43.078H100.289V39.078V35.078H96.1491V39.078ZM100.289 39.078H104.289V34.9841H100.289H96.2891V39.078H100.289ZM100.289 34.9841V38.9841H113.629V34.9841V30.9841H100.289V34.9841ZM113.629 34.9841H109.629V39.078H113.629H117.629V34.9841H113.629ZM113.629 39.078V43.078H117.815V39.078V35.078H113.629V39.078ZM117.815 39.078H113.815V52.372H117.815H121.815V39.078H117.815ZM117.815 52.372V48.372H113.629V52.372V56.3721H117.815V52.372ZM113.629 52.372H109.629V56.466H113.629H117.629V52.372H113.629ZM113.629 56.466V52.466H111.605V56.466V60.466H113.629V56.466ZM111.605 56.466H107.605V59.5021H111.605H115.605V56.466H111.605ZM111.605 59.5021V63.5021H115.699V59.5021V55.5021H111.605V59.5021ZM115.699 59.5021H111.699V64.654H115.699H119.699V59.5021H115.699ZM115.699 64.654V60.6541H110.685V64.654V68.6541H115.699V64.654ZM110.685 64.654H114.685V60.5601H110.685H106.685V64.654H110.685ZM110.685 60.5601V56.5601H106.499V60.5601V64.5601H110.685V60.5601ZM106.499 60.5601H110.499V56.466H106.499H102.499V60.5601H106.499ZM106.499 56.466V52.466H101.209V56.466V60.466H106.499V56.466ZM101.209 56.466H97.2091V64.654H101.209H105.209V56.466H101.209ZM101.209 64.654V60.6541H96.1491V64.654V68.6541H101.209V64.654ZM101.209 51.2681V55.2681H112.709V51.2681V47.268H101.209V51.2681ZM112.709 51.2681H116.709V40.182H112.709H108.709V51.2681H112.709ZM112.709 40.182V36.182H101.209V40.182V44.182H112.709V40.182ZM101.209 40.182H97.2091V51.2681H101.209H105.209V40.182H101.209ZM138.101 64.654H134.101V68.6541H138.101V64.654ZM138.101 47.2661V43.2661H134.101V47.2661H138.101ZM142.241 47.2661V51.266H146.241V47.2661H142.241ZM142.241 43.126V39.126H138.241V43.126H142.241ZM155.581 43.126H159.581V39.126H155.581V43.126ZM155.581 47.2661H151.581V51.266H155.581V47.2661ZM159.767 47.2661H163.767V43.2661H159.767V47.2661ZM159.767 52.372V56.3721H163.767V52.372H159.767ZM154.661 52.372H150.661V56.3721H154.661V52.372ZM154.661 48.278H158.661V44.278H154.661V48.278ZM143.161 48.278V44.278H139.161V48.278H143.161ZM143.161 64.654V68.6541H147.161V64.654H143.161ZM138.101 64.654H142.101V47.2661H138.101H134.101V64.654H138.101ZM138.101 47.2661V51.266H142.241V47.2661V43.2661H138.101V47.2661ZM142.241 47.2661H146.241V43.126H142.241H138.241V47.2661H142.241ZM142.241 43.126V47.126H155.581V43.126V39.126H142.241V43.126ZM155.581 43.126H151.581V47.2661H155.581H159.581V43.126H155.581ZM155.581 47.2661V51.266H159.767V47.2661V43.2661H155.581V47.2661ZM159.767 47.2661H155.767V52.372H159.767H163.767V47.2661H159.767ZM159.767 52.372V48.372H154.661V52.372V56.3721H159.767V52.372ZM154.661 52.372H158.661V48.278H154.661H150.661V52.372H154.661ZM154.661 48.278V44.278H143.161V48.278V52.278H154.661V48.278ZM143.161 48.278H139.161V64.654H143.161H147.161V48.278H143.161ZM143.161 64.654V60.6541H138.101V64.654V68.6541H143.161V64.654ZM170.831 64.654H166.831V68.6541H170.831V64.654ZM170.831 60.5601H174.831V56.5601H170.831V60.5601ZM166.691 60.5601H162.691V64.5601H166.691V60.5601ZM166.691 47.2661V43.2661H162.691V47.2661H166.691ZM170.831 47.2661V51.266H174.831V47.2661H170.831ZM170.831 43.126V39.126H166.831V43.126H170.831ZM184.171 43.126H188.171V39.126H184.171V43.126ZM184.171 47.2661H180.171V51.266H184.171V47.2661ZM188.357 47.2661H192.357V43.2661H188.357V47.2661ZM188.357 52.372V56.3721H192.357V52.372H188.357ZM183.251 52.372H179.251V56.3721H183.251V52.372ZM183.251 48.278H187.251V44.278H183.251V48.278ZM171.751 48.278V44.278H167.751V48.278H171.751ZM171.751 51.2681H167.751V55.2681H171.751V51.2681ZM180.031 51.2681H184.031V47.268H180.031V51.2681ZM180.031 56.466V60.466H184.031V56.466H180.031ZM171.751 56.466V52.466H167.751V56.466H171.751ZM171.751 59.5021H167.751V63.5021H171.751V59.5021ZM183.251 59.5021V63.5021H187.251V59.5021H183.251ZM183.251 55.3161V51.3161H179.251V55.3161H183.251ZM188.357 55.3161H192.357V51.3161H188.357V55.3161ZM188.357 60.514V64.514H192.357V60.514H188.357ZM184.171 60.514V56.514H180.171V60.514H184.171ZM184.171 64.654V68.6541H188.171V64.654H184.171ZM170.831 64.654H174.831V60.5601H170.831H166.831V64.654H170.831ZM170.831 60.5601V56.5601H166.691V60.5601V64.5601H170.831V60.5601ZM166.691 60.5601H170.691V47.2661H166.691H162.691V60.5601H166.691ZM166.691 47.2661V51.266H170.831V47.2661V43.2661H166.691V47.2661ZM170.831 47.2661H174.831V43.126H170.831H166.831V47.2661H170.831ZM170.831 43.126V47.126H184.171V43.126V39.126H170.831V43.126ZM184.171 43.126H180.171V47.2661H184.171H188.171V43.126H184.171ZM184.171 47.2661V51.266H188.357V47.2661V43.2661H184.171V47.2661ZM188.357 47.2661H184.357V52.372H188.357H192.357V47.2661H188.357ZM188.357 52.372V48.372H183.251V52.372V56.3721H188.357V52.372ZM183.251 52.372H187.251V48.278H183.251H179.251V52.372H183.251ZM183.251 48.278V44.278H171.751V48.278V52.278H183.251V48.278ZM171.751 48.278H167.751V51.2681H171.751H175.751V48.278H171.751ZM171.751 51.2681V55.2681H180.031V51.2681V47.268H171.751V51.2681ZM180.031 51.2681H176.031V56.466H180.031H184.031V51.2681H180.031ZM180.031 56.466V52.466H171.751V56.466V60.466H180.031V56.466ZM171.751 56.466H167.751V59.5021H171.751H175.751V56.466H171.751ZM171.751 59.5021V63.5021H183.251V59.5021V55.5021H171.751V59.5021ZM183.251 59.5021H187.251V55.3161H183.251H179.251V59.5021H183.251ZM183.251 55.3161V59.3161H188.357V55.3161V51.3161H183.251V55.3161ZM188.357 55.3161H184.357V60.514H188.357H192.357V55.3161H188.357ZM188.357 60.514V56.514H184.171V60.514V64.514H188.357V60.514ZM184.171 60.514H180.171V64.654H184.171H188.171V60.514H184.171ZM184.171 64.654V60.6541H170.831V64.654V68.6541H184.171V64.654ZM196.674 64.654H192.674V68.6541H196.674V64.654ZM196.674 59.5021V55.5021H192.674V59.5021H196.674ZM213.234 59.5021V63.5021H217.234V59.5021H213.234ZM213.234 56.466H217.234V52.466H213.234V56.466ZM200.814 56.466H196.814V60.466H200.814V56.466ZM200.814 52.372H204.814V48.372H200.814V52.372ZM196.674 52.372H192.674V56.3721H196.674V52.372ZM196.674 47.2661V43.2661H192.674V47.2661H196.674ZM200.814 47.2661V51.266H204.814V47.2661H200.814ZM200.814 43.126V39.126H196.814V43.126H200.814ZM218.34 43.126H222.34V39.126H218.34V43.126ZM218.34 48.278V52.278H222.34V48.278H218.34ZM201.734 48.278V44.278H197.734V48.278H201.734ZM201.734 51.2681H197.734V55.2681H201.734V51.2681ZM214.154 51.2681H218.154V47.268H214.154V51.2681ZM214.154 55.362H210.154V59.362H214.154V55.362ZM218.34 55.362H222.34V51.362H218.34V55.362ZM218.34 60.5601V64.5601H222.34V60.5601H218.34ZM214.154 60.5601V56.5601H210.154V60.5601H214.154ZM214.154 64.654V68.6541H218.154V64.654H214.154ZM196.674 64.654H200.674V59.5021H196.674H192.674V64.654H196.674ZM196.674 59.5021V63.5021H213.234V59.5021V55.5021H196.674V59.5021ZM213.234 59.5021H217.234V56.466H213.234H209.234V59.5021H213.234ZM213.234 56.466V52.466H200.814V56.466V60.466H213.234V56.466ZM200.814 56.466H204.814V52.372H200.814H196.814V56.466H200.814ZM200.814 52.372V48.372H196.674V52.372V56.3721H200.814V52.372ZM196.674 52.372H200.674V47.2661H196.674H192.674V52.372H196.674ZM196.674 47.2661V51.266H200.814V47.2661V43.2661H196.674V47.2661ZM200.814 47.2661H204.814V43.126H200.814H196.814V47.2661H200.814ZM200.814 43.126V47.126H218.34V43.126V39.126H200.814V43.126ZM218.34 43.126H214.34V48.278H218.34H222.34V43.126H218.34ZM218.34 48.278V44.278H201.734V48.278V52.278H218.34V48.278ZM201.734 48.278H197.734V51.2681H201.734H205.734V48.278H201.734ZM201.734 51.2681V55.2681H214.154V51.2681V47.268H201.734V51.2681ZM214.154 51.2681H210.154V55.362H214.154H218.154V51.2681H214.154ZM214.154 55.362V59.362H218.34V55.362V51.362H214.154V55.362ZM218.34 55.362H214.34V60.5601H218.34H222.34V55.362H218.34ZM218.34 60.5601V56.5601H214.154V60.5601V64.5601H218.34V60.5601ZM214.154 60.5601H210.154V64.654H214.154H218.154V60.5601H214.154ZM214.154 64.654V60.6541H196.674V64.654V68.6541H214.154V64.654ZM230.796 64.654H226.796V68.6541H230.796V64.654ZM230.796 60.5601H234.796V56.5601H230.796V60.5601ZM226.656 60.5601H222.656V64.5601H226.656V60.5601ZM226.656 43.126V39.126H222.656V43.126H226.656ZM231.716 43.126H235.716V39.126H231.716V43.126ZM231.716 59.5021H227.716V63.5021H231.716V59.5021ZM243.216 59.5021V63.5021H247.216V59.5021H243.216ZM243.216 43.126V39.126H239.216V43.126H243.216ZM248.322 43.126H252.322V39.126H248.322V43.126ZM248.322 60.5601V64.5601H252.322V60.5601H248.322ZM244.136 60.5601V56.5601H240.136V60.5601H244.136ZM244.136 64.654V68.6541H248.136V64.654H244.136ZM230.796 64.654H234.796V60.5601H230.796H226.796V64.654H230.796ZM230.796 60.5601V56.5601H226.656V60.5601V64.5601H230.796V60.5601ZM226.656 60.5601H230.656V43.126H226.656H222.656V60.5601H226.656ZM226.656 43.126V47.126H231.716V43.126V39.126H226.656V43.126ZM231.716 43.126H227.716V59.5021H231.716H235.716V43.126H231.716ZM231.716 59.5021V63.5021H243.216V59.5021V55.5021H231.716V59.5021ZM243.216 59.5021H247.216V43.126H243.216H239.216V59.5021H243.216ZM243.216 43.126V47.126H248.322V43.126V39.126H243.216V43.126ZM248.322 43.126H244.322V60.5601H248.322H252.322V43.126H248.322ZM248.322 60.5601V56.5601H244.136V60.5601V64.5601H248.322V60.5601ZM244.136 60.5601H240.136V64.654H244.136H248.136V60.5601H244.136ZM244.136 64.654V60.6541H230.796V64.654V68.6541H244.136V64.654ZM256.639 64.654H252.639V68.6541H256.639V64.654ZM256.639 34.9841V30.9841H252.639V34.9841H256.639ZM261.699 34.9841H265.699V30.9841H261.699V34.9841ZM261.699 64.654V68.6541H265.699V64.654H261.699ZM256.639 64.654H260.639V34.9841H256.639H252.639V64.654H256.639ZM256.639 34.9841V38.9841H261.699V34.9841V30.9841H256.639V34.9841ZM261.699 34.9841H257.699V64.654H261.699H265.699V34.9841H261.699ZM261.699 64.654V60.6541H256.639V64.654V68.6541H261.699V64.654ZM276.933 64.654H272.933V68.6541H276.933V64.654ZM276.933 60.5601H280.933V56.5601H276.933V60.5601ZM272.793 60.5601H268.793V64.5601H272.793V60.5601ZM272.793 48.278H276.793V44.278H272.793V48.278ZM268.653 48.278H264.653V52.278H268.653V48.278ZM268.653 43.126V39.126H264.653V43.126H268.653ZM272.793 43.126V47.126H276.793V43.126H272.793ZM272.793 34.9841V30.9841H268.793V34.9841H272.793ZM277.807 34.9841H281.807V30.9841H277.807V34.9841ZM277.807 43.126H273.807V47.126H277.807V43.126ZM290.319 43.126H294.319V39.126H290.319V43.126ZM290.319 48.278V52.278H294.319V48.278H290.319ZM277.807 48.278V44.278H273.807V48.278H277.807ZM277.807 59.5021H273.807V63.5021H277.807V59.5021ZM289.399 59.5021V63.5021H293.399V59.5021H289.399ZM289.399 55.362V51.362H285.399V55.362H289.399ZM294.459 55.362H298.459V51.362H294.459V55.362ZM294.459 60.5601V64.5601H298.459V60.5601H294.459ZM290.319 60.5601V56.5601H286.319V60.5601H290.319ZM290.319 64.654V68.6541H294.319V64.654H290.319ZM276.933 64.654H280.933V60.5601H276.933H272.933V64.654H276.933ZM276.933 60.5601V56.5601H272.793V60.5601V64.5601H276.933V60.5601ZM272.793 60.5601H276.793V48.278H272.793H268.793V60.5601H272.793ZM272.793 48.278V44.278H268.653V48.278V52.278H272.793V48.278ZM268.653 48.278H272.653V43.126H268.653H264.653V48.278H268.653ZM268.653 43.126V47.126H272.793V43.126V39.126H268.653V43.126ZM272.793 43.126H276.793V34.9841H272.793H268.793V43.126H272.793ZM272.793 34.9841V38.9841H277.807V34.9841V30.9841H272.793V34.9841ZM277.807 34.9841H273.807V43.126H277.807H281.807V34.9841H277.807ZM277.807 43.126V47.126H290.319V43.126V39.126H277.807V43.126ZM290.319 43.126H286.319V48.278H290.319H294.319V43.126H290.319ZM290.319 48.278V44.278H277.807V48.278V52.278H290.319V48.278ZM277.807 48.278H273.807V59.5021H277.807H281.807V48.278H277.807ZM277.807 59.5021V63.5021H289.399V59.5021V55.5021H277.807V59.5021ZM289.399 59.5021H293.399V55.362H289.399H285.399V59.5021H289.399ZM289.399 55.362V59.362H294.459V55.362V51.362H289.399V55.362ZM294.459 55.362H290.459V60.5601H294.459H298.459V55.362H294.459ZM294.459 60.5601V56.5601H290.319V60.5601V64.5601H294.459V60.5601ZM290.319 60.5601H286.319V64.654H290.319H294.319V60.5601H290.319ZM290.319 64.654V60.6541H276.933V64.654V68.6541H290.319V64.654Z" fill="black" mask="url(#path-10-outside-1_565_10853)"/>
</svg>
