<svg width="790" height="104" viewBox="0 0 790 104" fill="none" xmlns="http://www.w3.org/2000/svg">
<mask id="path-1-outside-1_287_30372" maskUnits="userSpaceOnUse" x="-0.279297" y="-0.460938" width="790" height="105" fill="black">
<rect fill="white" x="-0.279297" y="-0.460938" width="790" height="105"/>
<path d="M65.5238 17.6719H72.3598V31.3438H58.6879V24.5078H51.852V17.6719H24.5082V24.5078H17.6723V79.1953H24.5082V86.0312H51.852V79.1953H58.6879V58.6875H38.1801V45.0156H72.3598V86.0312H65.5238V92.8672H58.6879V99.7031H17.6723V92.8672H10.8363V86.0312H4.0004V17.6719H10.8363V10.8359H17.6723V4H58.6879V10.8359H65.5238V17.6719ZM96.9035 58.6875H137.919V38.1797H131.083V31.3438H124.247V24.5078H110.575V31.3438H103.739V38.1797H96.9035V58.6875ZM96.9035 99.7031H83.2316V31.3438H90.0676V24.5078H96.9035V17.6719H103.739V10.8359H110.575V4H124.247V10.8359H131.083V17.6719H137.919V24.5078H144.755V31.3438H151.591V99.7031H137.919V72.3594H96.9035V99.7031ZM176.135 99.7031H162.463V4H176.135V17.6719H182.971V24.5078H189.807V31.3438H203.479V24.5078H210.314V17.6719H217.15V4H230.822V99.7031H217.15V38.1797H210.314V45.0156H203.479V58.6875H189.807V45.0156H182.971V38.1797H176.135V99.7031ZM310.054 4V17.6719H255.366V45.0156H296.382V58.6875H255.366V86.0312H310.054V99.7031H241.694V4H310.054ZM461.68 17.6719H468.516V31.3438H454.844V24.5078H448.008V17.6719H420.664V24.5078H413.829V38.1797H420.664V45.0156H454.844V51.8516H461.68V58.6875H468.516V86.0312H461.68V92.8672H454.844V99.7031H413.829V92.8672H406.993V86.0312H400.157V72.3594H413.829V79.1953H420.664V86.0312H448.008V79.1953H454.844V65.5234H448.008V58.6875H413.829V51.8516H406.993V45.0156H400.157V17.6719H406.993V10.8359H413.829V4H454.844V10.8359H461.68V17.6719ZM499.896 86.0312H527.239V79.1953H534.075V72.3594H547.747V86.0312H540.911V92.8672H534.075V99.7031H493.06V92.8672H486.224V86.0312H479.388V17.6719H486.224V10.8359H493.06V4H534.075V10.8359H540.911V17.6719H547.747V31.3438H534.075V24.5078H527.239V17.6719H499.896V24.5078H493.06V79.1953H499.896V86.0312ZM606.471 17.6719H579.127V24.5078H572.291V79.1953H579.127V86.0312H606.471V79.1953H613.307V24.5078H606.471V17.6719ZM572.291 10.8359V4H613.307V10.8359H620.143V17.6719H626.979V86.0312H620.143V92.8672H613.307V99.7031H572.291V92.8672H565.455V86.0312H558.619V17.6719H565.455V10.8359H572.291ZM651.522 17.6719V45.0156H685.702V38.1797H692.538V24.5078H685.702V17.6719H651.522ZM658.358 58.6875H651.522V99.7031H637.85V4H692.538V10.8359H699.374V17.6719H706.21V45.0156H699.374V51.8516H692.538V58.6875H678.866V65.5234H685.702V72.3594H692.538V79.1953H699.374V86.0312H706.21V99.7031H692.538V92.8672H685.702V86.0312H678.866V79.1953H672.03V72.3594H665.194V65.5234H658.358V58.6875ZM785.441 4V17.6719H730.754V45.0156H771.769V58.6875H730.754V86.0312H785.441V99.7031H717.082V4H785.441Z"/>
</mask>
<path d="M65.5238 17.6719H72.3598V31.3438H58.6879V24.5078H51.852V17.6719H24.5082V24.5078H17.6723V79.1953H24.5082V86.0312H51.852V79.1953H58.6879V58.6875H38.1801V45.0156H72.3598V86.0312H65.5238V92.8672H58.6879V99.7031H17.6723V92.8672H10.8363V86.0312H4.0004V17.6719H10.8363V10.8359H17.6723V4H58.6879V10.8359H65.5238V17.6719ZM96.9035 58.6875H137.919V38.1797H131.083V31.3438H124.247V24.5078H110.575V31.3438H103.739V38.1797H96.9035V58.6875ZM96.9035 99.7031H83.2316V31.3438H90.0676V24.5078H96.9035V17.6719H103.739V10.8359H110.575V4H124.247V10.8359H131.083V17.6719H137.919V24.5078H144.755V31.3438H151.591V99.7031H137.919V72.3594H96.9035V99.7031ZM176.135 99.7031H162.463V4H176.135V17.6719H182.971V24.5078H189.807V31.3438H203.479V24.5078H210.314V17.6719H217.15V4H230.822V99.7031H217.15V38.1797H210.314V45.0156H203.479V58.6875H189.807V45.0156H182.971V38.1797H176.135V99.7031ZM310.054 4V17.6719H255.366V45.0156H296.382V58.6875H255.366V86.0312H310.054V99.7031H241.694V4H310.054ZM461.68 17.6719H468.516V31.3438H454.844V24.5078H448.008V17.6719H420.664V24.5078H413.829V38.1797H420.664V45.0156H454.844V51.8516H461.68V58.6875H468.516V86.0312H461.68V92.8672H454.844V99.7031H413.829V92.8672H406.993V86.0312H400.157V72.3594H413.829V79.1953H420.664V86.0312H448.008V79.1953H454.844V65.5234H448.008V58.6875H413.829V51.8516H406.993V45.0156H400.157V17.6719H406.993V10.8359H413.829V4H454.844V10.8359H461.68V17.6719ZM499.896 86.0312H527.239V79.1953H534.075V72.3594H547.747V86.0312H540.911V92.8672H534.075V99.7031H493.06V92.8672H486.224V86.0312H479.388V17.6719H486.224V10.8359H493.06V4H534.075V10.8359H540.911V17.6719H547.747V31.3438H534.075V24.5078H527.239V17.6719H499.896V24.5078H493.06V79.1953H499.896V86.0312ZM606.471 17.6719H579.127V24.5078H572.291V79.1953H579.127V86.0312H606.471V79.1953H613.307V24.5078H606.471V17.6719ZM572.291 10.8359V4H613.307V10.8359H620.143V17.6719H626.979V86.0312H620.143V92.8672H613.307V99.7031H572.291V92.8672H565.455V86.0312H558.619V17.6719H565.455V10.8359H572.291ZM651.522 17.6719V45.0156H685.702V38.1797H692.538V24.5078H685.702V17.6719H651.522ZM658.358 58.6875H651.522V99.7031H637.85V4H692.538V10.8359H699.374V17.6719H706.21V45.0156H699.374V51.8516H692.538V58.6875H678.866V65.5234H685.702V72.3594H692.538V79.1953H699.374V86.0312H706.21V99.7031H692.538V92.8672H685.702V86.0312H678.866V79.1953H672.03V72.3594H665.194V65.5234H658.358V58.6875ZM785.441 4V17.6719H730.754V45.0156H771.769V58.6875H730.754V86.0312H785.441V99.7031H717.082V4H785.441Z" fill="url(#paint0_linear_287_30372)"/>
<path d="M65.5238 17.6719H61.5238V21.6719H65.5238V17.6719ZM72.3598 17.6719H76.3598V13.6719H72.3598V17.6719ZM72.3598 31.3438V35.3438H76.3598V31.3438H72.3598ZM58.6879 31.3438H54.6879V35.3438H58.6879V31.3438ZM58.6879 24.5078H62.6879V20.5078H58.6879V24.5078ZM51.852 24.5078H47.852V28.5078H51.852V24.5078ZM51.852 17.6719H55.852V13.6719H51.852V17.6719ZM24.5082 17.6719V13.6719H20.5082V17.6719H24.5082ZM24.5082 24.5078V28.5078H28.5082V24.5078H24.5082ZM17.6723 24.5078V20.5078H13.6723V24.5078H17.6723ZM17.6723 79.1953H13.6723V83.1953H17.6723V79.1953ZM24.5082 79.1953H28.5082V75.1953H24.5082V79.1953ZM24.5082 86.0312H20.5082V90.0312H24.5082V86.0312ZM51.852 86.0312V90.0312H55.852V86.0312H51.852ZM51.852 79.1953V75.1953H47.852V79.1953H51.852ZM58.6879 79.1953V83.1953H62.6879V79.1953H58.6879ZM58.6879 58.6875H62.6879V54.6875H58.6879V58.6875ZM38.1801 58.6875H34.1801V62.6875H38.1801V58.6875ZM38.1801 45.0156V41.0156H34.1801V45.0156H38.1801ZM72.3598 45.0156H76.3598V41.0156H72.3598V45.0156ZM72.3598 86.0312V90.0312H76.3598V86.0312H72.3598ZM65.5238 86.0312V82.0312H61.5238V86.0312H65.5238ZM65.5238 92.8672V96.8672H69.5238V92.8672H65.5238ZM58.6879 92.8672V88.8672H54.6879V92.8672H58.6879ZM58.6879 99.7031V103.703H62.6879V99.7031H58.6879ZM17.6723 99.7031H13.6723V103.703H17.6723V99.7031ZM17.6723 92.8672H21.6723V88.8672H17.6723V92.8672ZM10.8363 92.8672H6.83633V96.8672H10.8363V92.8672ZM10.8363 86.0312H14.8363V82.0312H10.8363V86.0312ZM4.0004 86.0312H0.000396729V90.0312H4.0004V86.0312ZM4.0004 17.6719V13.6719H0.000396729V17.6719H4.0004ZM10.8363 17.6719V21.6719H14.8363V17.6719H10.8363ZM10.8363 10.8359V6.83594H6.83633V10.8359H10.8363ZM17.6723 10.8359V14.8359H21.6723V10.8359H17.6723ZM17.6723 4V0H13.6723V4H17.6723ZM58.6879 4H62.6879V0H58.6879V4ZM58.6879 10.8359H54.6879V14.8359H58.6879V10.8359ZM65.5238 10.8359H69.5238V6.83594H65.5238V10.8359ZM65.5238 17.6719V21.6719H72.3598V17.6719V13.6719H65.5238V17.6719ZM72.3598 17.6719H68.3598V31.3438H72.3598H76.3598V17.6719H72.3598ZM72.3598 31.3438V27.3438H58.6879V31.3438V35.3438H72.3598V31.3438ZM58.6879 31.3438H62.6879V24.5078H58.6879H54.6879V31.3438H58.6879ZM58.6879 24.5078V20.5078H51.852V24.5078V28.5078H58.6879V24.5078ZM51.852 24.5078H55.852V17.6719H51.852H47.852V24.5078H51.852ZM51.852 17.6719V13.6719H24.5082V17.6719V21.6719H51.852V17.6719ZM24.5082 17.6719H20.5082V24.5078H24.5082H28.5082V17.6719H24.5082ZM24.5082 24.5078V20.5078H17.6723V24.5078V28.5078H24.5082V24.5078ZM17.6723 24.5078H13.6723V79.1953H17.6723H21.6723V24.5078H17.6723ZM17.6723 79.1953V83.1953H24.5082V79.1953V75.1953H17.6723V79.1953ZM24.5082 79.1953H20.5082V86.0312H24.5082H28.5082V79.1953H24.5082ZM24.5082 86.0312V90.0312H51.852V86.0312V82.0312H24.5082V86.0312ZM51.852 86.0312H55.852V79.1953H51.852H47.852V86.0312H51.852ZM51.852 79.1953V83.1953H58.6879V79.1953V75.1953H51.852V79.1953ZM58.6879 79.1953H62.6879V58.6875H58.6879H54.6879V79.1953H58.6879ZM58.6879 58.6875V54.6875H38.1801V58.6875V62.6875H58.6879V58.6875ZM38.1801 58.6875H42.1801V45.0156H38.1801H34.1801V58.6875H38.1801ZM38.1801 45.0156V49.0156H72.3598V45.0156V41.0156H38.1801V45.0156ZM72.3598 45.0156H68.3598V86.0312H72.3598H76.3598V45.0156H72.3598ZM72.3598 86.0312V82.0312H65.5238V86.0312V90.0312H72.3598V86.0312ZM65.5238 86.0312H61.5238V92.8672H65.5238H69.5238V86.0312H65.5238ZM65.5238 92.8672V88.8672H58.6879V92.8672V96.8672H65.5238V92.8672ZM58.6879 92.8672H54.6879V99.7031H58.6879H62.6879V92.8672H58.6879ZM58.6879 99.7031V95.7031H17.6723V99.7031V103.703H58.6879V99.7031ZM17.6723 99.7031H21.6723V92.8672H17.6723H13.6723V99.7031H17.6723ZM17.6723 92.8672V88.8672H10.8363V92.8672V96.8672H17.6723V92.8672ZM10.8363 92.8672H14.8363V86.0312H10.8363H6.83633V92.8672H10.8363ZM10.8363 86.0312V82.0312H4.0004V86.0312V90.0312H10.8363V86.0312ZM4.0004 86.0312H8.0004V17.6719H4.0004H0.000396729V86.0312H4.0004ZM4.0004 17.6719V21.6719H10.8363V17.6719V13.6719H4.0004V17.6719ZM10.8363 17.6719H14.8363V10.8359H10.8363H6.83633V17.6719H10.8363ZM10.8363 10.8359V14.8359H17.6723V10.8359V6.83594H10.8363V10.8359ZM17.6723 10.8359H21.6723V4H17.6723H13.6723V10.8359H17.6723ZM17.6723 4V8H58.6879V4V0H17.6723V4ZM58.6879 4H54.6879V10.8359H58.6879H62.6879V4H58.6879ZM58.6879 10.8359V14.8359H65.5238V10.8359V6.83594H58.6879V10.8359ZM65.5238 10.8359H61.5238V17.6719H65.5238H69.5238V10.8359H65.5238ZM96.9035 58.6875H92.9035V62.6875H96.9035V58.6875ZM137.919 58.6875V62.6875H141.919V58.6875H137.919ZM137.919 38.1797H141.919V34.1797H137.919V38.1797ZM131.083 38.1797H127.083V42.1797H131.083V38.1797ZM131.083 31.3438H135.083V27.3438H131.083V31.3438ZM124.247 31.3438H120.247V35.3438H124.247V31.3438ZM124.247 24.5078H128.247V20.5078H124.247V24.5078ZM110.575 24.5078V20.5078H106.575V24.5078H110.575ZM110.575 31.3438V35.3438H114.575V31.3438H110.575ZM103.739 31.3438V27.3438H99.7395V31.3438H103.739ZM103.739 38.1797V42.1797H107.739V38.1797H103.739ZM96.9035 38.1797V34.1797H92.9035V38.1797H96.9035ZM96.9035 99.7031V103.703H100.904V99.7031H96.9035ZM83.2316 99.7031H79.2316V103.703H83.2316V99.7031ZM83.2316 31.3438V27.3438H79.2316V31.3438H83.2316ZM90.0676 31.3438V35.3438H94.0676V31.3438H90.0676ZM90.0676 24.5078V20.5078H86.0676V24.5078H90.0676ZM96.9035 24.5078V28.5078H100.904V24.5078H96.9035ZM96.9035 17.6719V13.6719H92.9035V17.6719H96.9035ZM103.739 17.6719V21.6719H107.739V17.6719H103.739ZM103.739 10.8359V6.83594H99.7395V10.8359H103.739ZM110.575 10.8359V14.8359H114.575V10.8359H110.575ZM110.575 4V0H106.575V4H110.575ZM124.247 4H128.247V0H124.247V4ZM124.247 10.8359H120.247V14.8359H124.247V10.8359ZM131.083 10.8359H135.083V6.83594H131.083V10.8359ZM131.083 17.6719H127.083V21.6719H131.083V17.6719ZM137.919 17.6719H141.919V13.6719H137.919V17.6719ZM137.919 24.5078H133.919V28.5078H137.919V24.5078ZM144.755 24.5078H148.755V20.5078H144.755V24.5078ZM144.755 31.3438H140.755V35.3438H144.755V31.3438ZM151.591 31.3438H155.591V27.3438H151.591V31.3438ZM151.591 99.7031V103.703H155.591V99.7031H151.591ZM137.919 99.7031H133.919V103.703H137.919V99.7031ZM137.919 72.3594H141.919V68.3594H137.919V72.3594ZM96.9035 72.3594V68.3594H92.9035V72.3594H96.9035ZM96.9035 58.6875V62.6875H137.919V58.6875V54.6875H96.9035V58.6875ZM137.919 58.6875H141.919V38.1797H137.919H133.919V58.6875H137.919ZM137.919 38.1797V34.1797H131.083V38.1797V42.1797H137.919V38.1797ZM131.083 38.1797H135.083V31.3438H131.083H127.083V38.1797H131.083ZM131.083 31.3438V27.3438H124.247V31.3438V35.3438H131.083V31.3438ZM124.247 31.3438H128.247V24.5078H124.247H120.247V31.3438H124.247ZM124.247 24.5078V20.5078H110.575V24.5078V28.5078H124.247V24.5078ZM110.575 24.5078H106.575V31.3438H110.575H114.575V24.5078H110.575ZM110.575 31.3438V27.3438H103.739V31.3438V35.3438H110.575V31.3438ZM103.739 31.3438H99.7395V38.1797H103.739H107.739V31.3438H103.739ZM103.739 38.1797V34.1797H96.9035V38.1797V42.1797H103.739V38.1797ZM96.9035 38.1797H92.9035V58.6875H96.9035H100.904V38.1797H96.9035ZM96.9035 99.7031V95.7031H83.2316V99.7031V103.703H96.9035V99.7031ZM83.2316 99.7031H87.2316V31.3438H83.2316H79.2316V99.7031H83.2316ZM83.2316 31.3438V35.3438H90.0676V31.3438V27.3438H83.2316V31.3438ZM90.0676 31.3438H94.0676V24.5078H90.0676H86.0676V31.3438H90.0676ZM90.0676 24.5078V28.5078H96.9035V24.5078V20.5078H90.0676V24.5078ZM96.9035 24.5078H100.904V17.6719H96.9035H92.9035V24.5078H96.9035ZM96.9035 17.6719V21.6719H103.739V17.6719V13.6719H96.9035V17.6719ZM103.739 17.6719H107.739V10.8359H103.739H99.7395V17.6719H103.739ZM103.739 10.8359V14.8359H110.575V10.8359V6.83594H103.739V10.8359ZM110.575 10.8359H114.575V4H110.575H106.575V10.8359H110.575ZM110.575 4V8H124.247V4V0H110.575V4ZM124.247 4H120.247V10.8359H124.247H128.247V4H124.247ZM124.247 10.8359V14.8359H131.083V10.8359V6.83594H124.247V10.8359ZM131.083 10.8359H127.083V17.6719H131.083H135.083V10.8359H131.083ZM131.083 17.6719V21.6719H137.919V17.6719V13.6719H131.083V17.6719ZM137.919 17.6719H133.919V24.5078H137.919H141.919V17.6719H137.919ZM137.919 24.5078V28.5078H144.755V24.5078V20.5078H137.919V24.5078ZM144.755 24.5078H140.755V31.3438H144.755H148.755V24.5078H144.755ZM144.755 31.3438V35.3438H151.591V31.3438V27.3438H144.755V31.3438ZM151.591 31.3438H147.591V99.7031H151.591H155.591V31.3438H151.591ZM151.591 99.7031V95.7031H137.919V99.7031V103.703H151.591V99.7031ZM137.919 99.7031H141.919V72.3594H137.919H133.919V99.7031H137.919ZM137.919 72.3594V68.3594H96.9035V72.3594V76.3594H137.919V72.3594ZM96.9035 72.3594H92.9035V99.7031H96.9035H100.904V72.3594H96.9035ZM176.135 99.7031V103.703H180.135V99.7031H176.135ZM162.463 99.7031H158.463V103.703H162.463V99.7031ZM162.463 4V0H158.463V4H162.463ZM176.135 4H180.135V0H176.135V4ZM176.135 17.6719H172.135V21.6719H176.135V17.6719ZM182.971 17.6719H186.971V13.6719H182.971V17.6719ZM182.971 24.5078H178.971V28.5078H182.971V24.5078ZM189.807 24.5078H193.807V20.5078H189.807V24.5078ZM189.807 31.3438H185.807V35.3438H189.807V31.3438ZM203.479 31.3438V35.3438H207.479V31.3438H203.479ZM203.479 24.5078V20.5078H199.479V24.5078H203.479ZM210.314 24.5078V28.5078H214.314V24.5078H210.314ZM210.314 17.6719V13.6719H206.314V17.6719H210.314ZM217.15 17.6719V21.6719H221.15V17.6719H217.15ZM217.15 4V0H213.15V4H217.15ZM230.822 4H234.822V0H230.822V4ZM230.822 99.7031V103.703H234.822V99.7031H230.822ZM217.15 99.7031H213.15V103.703H217.15V99.7031ZM217.15 38.1797H221.15V34.1797H217.15V38.1797ZM210.314 38.1797V34.1797H206.314V38.1797H210.314ZM210.314 45.0156V49.0156H214.314V45.0156H210.314ZM203.479 45.0156V41.0156H199.479V45.0156H203.479ZM203.479 58.6875V62.6875H207.479V58.6875H203.479ZM189.807 58.6875H185.807V62.6875H189.807V58.6875ZM189.807 45.0156H193.807V41.0156H189.807V45.0156ZM182.971 45.0156H178.971V49.0156H182.971V45.0156ZM182.971 38.1797H186.971V34.1797H182.971V38.1797ZM176.135 38.1797V34.1797H172.135V38.1797H176.135ZM176.135 99.7031V95.7031H162.463V99.7031V103.703H176.135V99.7031ZM162.463 99.7031H166.463V4H162.463H158.463V99.7031H162.463ZM162.463 4V8H176.135V4V0H162.463V4ZM176.135 4H172.135V17.6719H176.135H180.135V4H176.135ZM176.135 17.6719V21.6719H182.971V17.6719V13.6719H176.135V17.6719ZM182.971 17.6719H178.971V24.5078H182.971H186.971V17.6719H182.971ZM182.971 24.5078V28.5078H189.807V24.5078V20.5078H182.971V24.5078ZM189.807 24.5078H185.807V31.3438H189.807H193.807V24.5078H189.807ZM189.807 31.3438V35.3438H203.479V31.3438V27.3438H189.807V31.3438ZM203.479 31.3438H207.479V24.5078H203.479H199.479V31.3438H203.479ZM203.479 24.5078V28.5078H210.314V24.5078V20.5078H203.479V24.5078ZM210.314 24.5078H214.314V17.6719H210.314H206.314V24.5078H210.314ZM210.314 17.6719V21.6719H217.15V17.6719V13.6719H210.314V17.6719ZM217.15 17.6719H221.15V4H217.15H213.15V17.6719H217.15ZM217.15 4V8H230.822V4V0H217.15V4ZM230.822 4H226.822V99.7031H230.822H234.822V4H230.822ZM230.822 99.7031V95.7031H217.15V99.7031V103.703H230.822V99.7031ZM217.15 99.7031H221.15V38.1797H217.15H213.15V99.7031H217.15ZM217.15 38.1797V34.1797H210.314V38.1797V42.1797H217.15V38.1797ZM210.314 38.1797H206.314V45.0156H210.314H214.314V38.1797H210.314ZM210.314 45.0156V41.0156H203.479V45.0156V49.0156H210.314V45.0156ZM203.479 45.0156H199.479V58.6875H203.479H207.479V45.0156H203.479ZM203.479 58.6875V54.6875H189.807V58.6875V62.6875H203.479V58.6875ZM189.807 58.6875H193.807V45.0156H189.807H185.807V58.6875H189.807ZM189.807 45.0156V41.0156H182.971V45.0156V49.0156H189.807V45.0156ZM182.971 45.0156H186.971V38.1797H182.971H178.971V45.0156H182.971ZM182.971 38.1797V34.1797H176.135V38.1797V42.1797H182.971V38.1797ZM176.135 38.1797H172.135V99.7031H176.135H180.135V38.1797H176.135ZM310.054 4H314.054V0H310.054V4ZM310.054 17.6719V21.6719H314.054V17.6719H310.054ZM255.366 17.6719V13.6719H251.366V17.6719H255.366ZM255.366 45.0156H251.366V49.0156H255.366V45.0156ZM296.382 45.0156H300.382V41.0156H296.382V45.0156ZM296.382 58.6875V62.6875H300.382V58.6875H296.382ZM255.366 58.6875V54.6875H251.366V58.6875H255.366ZM255.366 86.0312H251.366V90.0312H255.366V86.0312ZM310.054 86.0312H314.054V82.0312H310.054V86.0312ZM310.054 99.7031V103.703H314.054V99.7031H310.054ZM241.694 99.7031H237.694V103.703H241.694V99.7031ZM241.694 4V0H237.694V4H241.694ZM310.054 4H306.054V17.6719H310.054H314.054V4H310.054ZM310.054 17.6719V13.6719H255.366V17.6719V21.6719H310.054V17.6719ZM255.366 17.6719H251.366V45.0156H255.366H259.366V17.6719H255.366ZM255.366 45.0156V49.0156H296.382V45.0156V41.0156H255.366V45.0156ZM296.382 45.0156H292.382V58.6875H296.382H300.382V45.0156H296.382ZM296.382 58.6875V54.6875H255.366V58.6875V62.6875H296.382V58.6875ZM255.366 58.6875H251.366V86.0312H255.366H259.366V58.6875H255.366ZM255.366 86.0312V90.0312H310.054V86.0312V82.0312H255.366V86.0312ZM310.054 86.0312H306.054V99.7031H310.054H314.054V86.0312H310.054ZM310.054 99.7031V95.7031H241.694V99.7031V103.703H310.054V99.7031ZM241.694 99.7031H245.694V4H241.694H237.694V99.7031H241.694ZM241.694 4V8H310.054V4V0H241.694V4ZM461.68 17.6719H457.68V21.6719H461.68V17.6719ZM468.516 17.6719H472.516V13.6719H468.516V17.6719ZM468.516 31.3438V35.3438H472.516V31.3438H468.516ZM454.844 31.3438H450.844V35.3438H454.844V31.3438ZM454.844 24.5078H458.844V20.5078H454.844V24.5078ZM448.008 24.5078H444.008V28.5078H448.008V24.5078ZM448.008 17.6719H452.008V13.6719H448.008V17.6719ZM420.664 17.6719V13.6719H416.664V17.6719H420.664ZM420.664 24.5078V28.5078H424.664V24.5078H420.664ZM413.829 24.5078V20.5078H409.829V24.5078H413.829ZM413.829 38.1797H409.829V42.1797H413.829V38.1797ZM420.664 38.1797H424.664V34.1797H420.664V38.1797ZM420.664 45.0156H416.664V49.0156H420.664V45.0156ZM454.844 45.0156H458.844V41.0156H454.844V45.0156ZM454.844 51.8516H450.844V55.8516H454.844V51.8516ZM461.68 51.8516H465.68V47.8516H461.68V51.8516ZM461.68 58.6875H457.68V62.6875H461.68V58.6875ZM468.516 58.6875H472.516V54.6875H468.516V58.6875ZM468.516 86.0312V90.0312H472.516V86.0312H468.516ZM461.68 86.0312V82.0312H457.68V86.0312H461.68ZM461.68 92.8672V96.8672H465.68V92.8672H461.68ZM454.844 92.8672V88.8672H450.844V92.8672H454.844ZM454.844 99.7031V103.703H458.844V99.7031H454.844ZM413.829 99.7031H409.829V103.703H413.829V99.7031ZM413.829 92.8672H417.829V88.8672H413.829V92.8672ZM406.993 92.8672H402.993V96.8672H406.993V92.8672ZM406.993 86.0312H410.993V82.0312H406.993V86.0312ZM400.157 86.0312H396.157V90.0312H400.157V86.0312ZM400.157 72.3594V68.3594H396.157V72.3594H400.157ZM413.829 72.3594H417.829V68.3594H413.829V72.3594ZM413.829 79.1953H409.829V83.1953H413.829V79.1953ZM420.664 79.1953H424.664V75.1953H420.664V79.1953ZM420.664 86.0312H416.664V90.0312H420.664V86.0312ZM448.008 86.0312V90.0312H452.008V86.0312H448.008ZM448.008 79.1953V75.1953H444.008V79.1953H448.008ZM454.844 79.1953V83.1953H458.844V79.1953H454.844ZM454.844 65.5234H458.844V61.5234H454.844V65.5234ZM448.008 65.5234H444.008V69.5234H448.008V65.5234ZM448.008 58.6875H452.008V54.6875H448.008V58.6875ZM413.829 58.6875H409.829V62.6875H413.829V58.6875ZM413.829 51.8516H417.829V47.8516H413.829V51.8516ZM406.993 51.8516H402.993V55.8516H406.993V51.8516ZM406.993 45.0156H410.993V41.0156H406.993V45.0156ZM400.157 45.0156H396.157V49.0156H400.157V45.0156ZM400.157 17.6719V13.6719H396.157V17.6719H400.157ZM406.993 17.6719V21.6719H410.993V17.6719H406.993ZM406.993 10.8359V6.83594H402.993V10.8359H406.993ZM413.829 10.8359V14.8359H417.829V10.8359H413.829ZM413.829 4V0H409.829V4H413.829ZM454.844 4H458.844V0H454.844V4ZM454.844 10.8359H450.844V14.8359H454.844V10.8359ZM461.68 10.8359H465.68V6.83594H461.68V10.8359ZM461.68 17.6719V21.6719H468.516V17.6719V13.6719H461.68V17.6719ZM468.516 17.6719H464.516V31.3438H468.516H472.516V17.6719H468.516ZM468.516 31.3438V27.3438H454.844V31.3438V35.3438H468.516V31.3438ZM454.844 31.3438H458.844V24.5078H454.844H450.844V31.3438H454.844ZM454.844 24.5078V20.5078H448.008V24.5078V28.5078H454.844V24.5078ZM448.008 24.5078H452.008V17.6719H448.008H444.008V24.5078H448.008ZM448.008 17.6719V13.6719H420.664V17.6719V21.6719H448.008V17.6719ZM420.664 17.6719H416.664V24.5078H420.664H424.664V17.6719H420.664ZM420.664 24.5078V20.5078H413.829V24.5078V28.5078H420.664V24.5078ZM413.829 24.5078H409.829V38.1797H413.829H417.829V24.5078H413.829ZM413.829 38.1797V42.1797H420.664V38.1797V34.1797H413.829V38.1797ZM420.664 38.1797H416.664V45.0156H420.664H424.664V38.1797H420.664ZM420.664 45.0156V49.0156H454.844V45.0156V41.0156H420.664V45.0156ZM454.844 45.0156H450.844V51.8516H454.844H458.844V45.0156H454.844ZM454.844 51.8516V55.8516H461.68V51.8516V47.8516H454.844V51.8516ZM461.68 51.8516H457.68V58.6875H461.68H465.68V51.8516H461.68ZM461.68 58.6875V62.6875H468.516V58.6875V54.6875H461.68V58.6875ZM468.516 58.6875H464.516V86.0312H468.516H472.516V58.6875H468.516ZM468.516 86.0312V82.0312H461.68V86.0312V90.0312H468.516V86.0312ZM461.68 86.0312H457.68V92.8672H461.68H465.68V86.0312H461.68ZM461.68 92.8672V88.8672H454.844V92.8672V96.8672H461.68V92.8672ZM454.844 92.8672H450.844V99.7031H454.844H458.844V92.8672H454.844ZM454.844 99.7031V95.7031H413.829V99.7031V103.703H454.844V99.7031ZM413.829 99.7031H417.829V92.8672H413.829H409.829V99.7031H413.829ZM413.829 92.8672V88.8672H406.993V92.8672V96.8672H413.829V92.8672ZM406.993 92.8672H410.993V86.0312H406.993H402.993V92.8672H406.993ZM406.993 86.0312V82.0312H400.157V86.0312V90.0312H406.993V86.0312ZM400.157 86.0312H404.157V72.3594H400.157H396.157V86.0312H400.157ZM400.157 72.3594V76.3594H413.829V72.3594V68.3594H400.157V72.3594ZM413.829 72.3594H409.829V79.1953H413.829H417.829V72.3594H413.829ZM413.829 79.1953V83.1953H420.664V79.1953V75.1953H413.829V79.1953ZM420.664 79.1953H416.664V86.0312H420.664H424.664V79.1953H420.664ZM420.664 86.0312V90.0312H448.008V86.0312V82.0312H420.664V86.0312ZM448.008 86.0312H452.008V79.1953H448.008H444.008V86.0312H448.008ZM448.008 79.1953V83.1953H454.844V79.1953V75.1953H448.008V79.1953ZM454.844 79.1953H458.844V65.5234H454.844H450.844V79.1953H454.844ZM454.844 65.5234V61.5234H448.008V65.5234V69.5234H454.844V65.5234ZM448.008 65.5234H452.008V58.6875H448.008H444.008V65.5234H448.008ZM448.008 58.6875V54.6875H413.829V58.6875V62.6875H448.008V58.6875ZM413.829 58.6875H417.829V51.8516H413.829H409.829V58.6875H413.829ZM413.829 51.8516V47.8516H406.993V51.8516V55.8516H413.829V51.8516ZM406.993 51.8516H410.993V45.0156H406.993H402.993V51.8516H406.993ZM406.993 45.0156V41.0156H400.157V45.0156V49.0156H406.993V45.0156ZM400.157 45.0156H404.157V17.6719H400.157H396.157V45.0156H400.157ZM400.157 17.6719V21.6719H406.993V17.6719V13.6719H400.157V17.6719ZM406.993 17.6719H410.993V10.8359H406.993H402.993V17.6719H406.993ZM406.993 10.8359V14.8359H413.829V10.8359V6.83594H406.993V10.8359ZM413.829 10.8359H417.829V4H413.829H409.829V10.8359H413.829ZM413.829 4V8H454.844V4V0H413.829V4ZM454.844 4H450.844V10.8359H454.844H458.844V4H454.844ZM454.844 10.8359V14.8359H461.68V10.8359V6.83594H454.844V10.8359ZM461.68 10.8359H457.68V17.6719H461.68H465.68V10.8359H461.68ZM499.896 86.0312H495.896V90.0312H499.896V86.0312ZM527.24 86.0312V90.0312H531.24V86.0312H527.24ZM527.24 79.1953V75.1953H523.24V79.1953H527.24ZM534.075 79.1953V83.1953H538.075V79.1953H534.075ZM534.075 72.3594V68.3594H530.075V72.3594H534.075ZM547.747 72.3594H551.747V68.3594H547.747V72.3594ZM547.747 86.0312V90.0312H551.747V86.0312H547.747ZM540.911 86.0312V82.0312H536.911V86.0312H540.911ZM540.911 92.8672V96.8672H544.911V92.8672H540.911ZM534.075 92.8672V88.8672H530.075V92.8672H534.075ZM534.075 99.7031V103.703H538.075V99.7031H534.075ZM493.06 99.7031H489.06V103.703H493.06V99.7031ZM493.06 92.8672H497.06V88.8672H493.06V92.8672ZM486.224 92.8672H482.224V96.8672H486.224V92.8672ZM486.224 86.0312H490.224V82.0312H486.224V86.0312ZM479.388 86.0312H475.388V90.0312H479.388V86.0312ZM479.388 17.6719V13.6719H475.388V17.6719H479.388ZM486.224 17.6719V21.6719H490.224V17.6719H486.224ZM486.224 10.8359V6.83594H482.224V10.8359H486.224ZM493.06 10.8359V14.8359H497.06V10.8359H493.06ZM493.06 4V0H489.06V4H493.06ZM534.075 4H538.075V0H534.075V4ZM534.075 10.8359H530.075V14.8359H534.075V10.8359ZM540.911 10.8359H544.911V6.83594H540.911V10.8359ZM540.911 17.6719H536.911V21.6719H540.911V17.6719ZM547.747 17.6719H551.747V13.6719H547.747V17.6719ZM547.747 31.3438V35.3438H551.747V31.3438H547.747ZM534.075 31.3438H530.075V35.3438H534.075V31.3438ZM534.075 24.5078H538.075V20.5078H534.075V24.5078ZM527.24 24.5078H523.24V28.5078H527.24V24.5078ZM527.24 17.6719H531.24V13.6719H527.24V17.6719ZM499.896 17.6719V13.6719H495.896V17.6719H499.896ZM499.896 24.5078V28.5078H503.896V24.5078H499.896ZM493.06 24.5078V20.5078H489.06V24.5078H493.06ZM493.06 79.1953H489.06V83.1953H493.06V79.1953ZM499.896 79.1953H503.896V75.1953H499.896V79.1953ZM499.896 86.0312V90.0312H527.24V86.0312V82.0312H499.896V86.0312ZM527.24 86.0312H531.24V79.1953H527.24H523.24V86.0312H527.24ZM527.24 79.1953V83.1953H534.075V79.1953V75.1953H527.24V79.1953ZM534.075 79.1953H538.075V72.3594H534.075H530.075V79.1953H534.075ZM534.075 72.3594V76.3594H547.747V72.3594V68.3594H534.075V72.3594ZM547.747 72.3594H543.747V86.0312H547.747H551.747V72.3594H547.747ZM547.747 86.0312V82.0312H540.911V86.0312V90.0312H547.747V86.0312ZM540.911 86.0312H536.911V92.8672H540.911H544.911V86.0312H540.911ZM540.911 92.8672V88.8672H534.075V92.8672V96.8672H540.911V92.8672ZM534.075 92.8672H530.075V99.7031H534.075H538.075V92.8672H534.075ZM534.075 99.7031V95.7031H493.06V99.7031V103.703H534.075V99.7031ZM493.06 99.7031H497.06V92.8672H493.06H489.06V99.7031H493.06ZM493.06 92.8672V88.8672H486.224V92.8672V96.8672H493.06V92.8672ZM486.224 92.8672H490.224V86.0312H486.224H482.224V92.8672H486.224ZM486.224 86.0312V82.0312H479.388V86.0312V90.0312H486.224V86.0312ZM479.388 86.0312H483.388V17.6719H479.388H475.388V86.0312H479.388ZM479.388 17.6719V21.6719H486.224V17.6719V13.6719H479.388V17.6719ZM486.224 17.6719H490.224V10.8359H486.224H482.224V17.6719H486.224ZM486.224 10.8359V14.8359H493.06V10.8359V6.83594H486.224V10.8359ZM493.06 10.8359H497.06V4H493.06H489.06V10.8359H493.06ZM493.06 4V8H534.075V4V0H493.06V4ZM534.075 4H530.075V10.8359H534.075H538.075V4H534.075ZM534.075 10.8359V14.8359H540.911V10.8359V6.83594H534.075V10.8359ZM540.911 10.8359H536.911V17.6719H540.911H544.911V10.8359H540.911ZM540.911 17.6719V21.6719H547.747V17.6719V13.6719H540.911V17.6719ZM547.747 17.6719H543.747V31.3438H547.747H551.747V17.6719H547.747ZM547.747 31.3438V27.3438H534.075V31.3438V35.3438H547.747V31.3438ZM534.075 31.3438H538.075V24.5078H534.075H530.075V31.3438H534.075ZM534.075 24.5078V20.5078H527.24V24.5078V28.5078H534.075V24.5078ZM527.24 24.5078H531.24V17.6719H527.24H523.24V24.5078H527.24ZM527.24 17.6719V13.6719H499.896V17.6719V21.6719H527.24V17.6719ZM499.896 17.6719H495.896V24.5078H499.896H503.896V17.6719H499.896ZM499.896 24.5078V20.5078H493.06V24.5078V28.5078H499.896V24.5078ZM493.06 24.5078H489.06V79.1953H493.06H497.06V24.5078H493.06ZM493.06 79.1953V83.1953H499.896V79.1953V75.1953H493.06V79.1953ZM499.896 79.1953H495.896V86.0312H499.896H503.896V79.1953H499.896ZM606.471 17.6719H610.471V13.6719H606.471V17.6719ZM579.127 17.6719V13.6719H575.127V17.6719H579.127ZM579.127 24.5078V28.5078H583.127V24.5078H579.127ZM572.291 24.5078V20.5078H568.291V24.5078H572.291ZM572.291 79.1953H568.291V83.1953H572.291V79.1953ZM579.127 79.1953H583.127V75.1953H579.127V79.1953ZM579.127 86.0312H575.127V90.0312H579.127V86.0312ZM606.471 86.0312V90.0312H610.471V86.0312H606.471ZM606.471 79.1953V75.1953H602.471V79.1953H606.471ZM613.307 79.1953V83.1953H617.307V79.1953H613.307ZM613.307 24.5078H617.307V20.5078H613.307V24.5078ZM606.471 24.5078H602.471V28.5078H606.471V24.5078ZM572.291 10.8359V14.8359H576.291V10.8359H572.291ZM572.291 4V0H568.291V4H572.291ZM613.307 4H617.307V0H613.307V4ZM613.307 10.8359H609.307V14.8359H613.307V10.8359ZM620.143 10.8359H624.143V6.83594H620.143V10.8359ZM620.143 17.6719H616.143V21.6719H620.143V17.6719ZM626.979 17.6719H630.979V13.6719H626.979V17.6719ZM626.979 86.0312V90.0312H630.979V86.0312H626.979ZM620.143 86.0312V82.0312H616.143V86.0312H620.143ZM620.143 92.8672V96.8672H624.143V92.8672H620.143ZM613.307 92.8672V88.8672H609.307V92.8672H613.307ZM613.307 99.7031V103.703H617.307V99.7031H613.307ZM572.291 99.7031H568.291V103.703H572.291V99.7031ZM572.291 92.8672H576.291V88.8672H572.291V92.8672ZM565.455 92.8672H561.455V96.8672H565.455V92.8672ZM565.455 86.0312H569.455V82.0312H565.455V86.0312ZM558.619 86.0312H554.619V90.0312H558.619V86.0312ZM558.619 17.6719V13.6719H554.619V17.6719H558.619ZM565.455 17.6719V21.6719H569.455V17.6719H565.455ZM565.455 10.8359V6.83594H561.455V10.8359H565.455ZM606.471 17.6719V13.6719H579.127V17.6719V21.6719H606.471V17.6719ZM579.127 17.6719H575.127V24.5078H579.127H583.127V17.6719H579.127ZM579.127 24.5078V20.5078H572.291V24.5078V28.5078H579.127V24.5078ZM572.291 24.5078H568.291V79.1953H572.291H576.291V24.5078H572.291ZM572.291 79.1953V83.1953H579.127V79.1953V75.1953H572.291V79.1953ZM579.127 79.1953H575.127V86.0312H579.127H583.127V79.1953H579.127ZM579.127 86.0312V90.0312H606.471V86.0312V82.0312H579.127V86.0312ZM606.471 86.0312H610.471V79.1953H606.471H602.471V86.0312H606.471ZM606.471 79.1953V83.1953H613.307V79.1953V75.1953H606.471V79.1953ZM613.307 79.1953H617.307V24.5078H613.307H609.307V79.1953H613.307ZM613.307 24.5078V20.5078H606.471V24.5078V28.5078H613.307V24.5078ZM606.471 24.5078H610.471V17.6719H606.471H602.471V24.5078H606.471ZM572.291 10.8359H576.291V4H572.291H568.291V10.8359H572.291ZM572.291 4V8H613.307V4V0H572.291V4ZM613.307 4H609.307V10.8359H613.307H617.307V4H613.307ZM613.307 10.8359V14.8359H620.143V10.8359V6.83594H613.307V10.8359ZM620.143 10.8359H616.143V17.6719H620.143H624.143V10.8359H620.143ZM620.143 17.6719V21.6719H626.979V17.6719V13.6719H620.143V17.6719ZM626.979 17.6719H622.979V86.0312H626.979H630.979V17.6719H626.979ZM626.979 86.0312V82.0312H620.143V86.0312V90.0312H626.979V86.0312ZM620.143 86.0312H616.143V92.8672H620.143H624.143V86.0312H620.143ZM620.143 92.8672V88.8672H613.307V92.8672V96.8672H620.143V92.8672ZM613.307 92.8672H609.307V99.7031H613.307H617.307V92.8672H613.307ZM613.307 99.7031V95.7031H572.291V99.7031V103.703H613.307V99.7031ZM572.291 99.7031H576.291V92.8672H572.291H568.291V99.7031H572.291ZM572.291 92.8672V88.8672H565.455V92.8672V96.8672H572.291V92.8672ZM565.455 92.8672H569.455V86.0312H565.455H561.455V92.8672H565.455ZM565.455 86.0312V82.0312H558.619V86.0312V90.0312H565.455V86.0312ZM558.619 86.0312H562.619V17.6719H558.619H554.619V86.0312H558.619ZM558.619 17.6719V21.6719H565.455V17.6719V13.6719H558.619V17.6719ZM565.455 17.6719H569.455V10.8359H565.455H561.455V17.6719H565.455ZM565.455 10.8359V14.8359H572.291V10.8359V6.83594H565.455V10.8359ZM651.522 17.6719V13.6719H647.522V17.6719H651.522ZM651.522 45.0156H647.522V49.0156H651.522V45.0156ZM685.702 45.0156V49.0156H689.702V45.0156H685.702ZM685.702 38.1797V34.1797H681.702V38.1797H685.702ZM692.538 38.1797V42.1797H696.538V38.1797H692.538ZM692.538 24.5078H696.538V20.5078H692.538V24.5078ZM685.702 24.5078H681.702V28.5078H685.702V24.5078ZM685.702 17.6719H689.702V13.6719H685.702V17.6719ZM658.358 58.6875H662.358V54.6875H658.358V58.6875ZM651.522 58.6875V54.6875H647.522V58.6875H651.522ZM651.522 99.7031V103.703H655.522V99.7031H651.522ZM637.85 99.7031H633.85V103.703H637.85V99.7031ZM637.85 4V0H633.85V4H637.85ZM692.538 4H696.538V0H692.538V4ZM692.538 10.8359H688.538V14.8359H692.538V10.8359ZM699.374 10.8359H703.374V6.83594H699.374V10.8359ZM699.374 17.6719H695.374V21.6719H699.374V17.6719ZM706.21 17.6719H710.21V13.6719H706.21V17.6719ZM706.21 45.0156V49.0156H710.21V45.0156H706.21ZM699.374 45.0156V41.0156H695.374V45.0156H699.374ZM699.374 51.8516V55.8516H703.374V51.8516H699.374ZM692.538 51.8516V47.8516H688.538V51.8516H692.538ZM692.538 58.6875V62.6875H696.538V58.6875H692.538ZM678.866 58.6875V54.6875H674.866V58.6875H678.866ZM678.866 65.5234H674.866V69.5234H678.866V65.5234ZM685.702 65.5234H689.702V61.5234H685.702V65.5234ZM685.702 72.3594H681.702V76.3594H685.702V72.3594ZM692.538 72.3594H696.538V68.3594H692.538V72.3594ZM692.538 79.1953H688.538V83.1953H692.538V79.1953ZM699.374 79.1953H703.374V75.1953H699.374V79.1953ZM699.374 86.0312H695.374V90.0312H699.374V86.0312ZM706.21 86.0312H710.21V82.0312H706.21V86.0312ZM706.21 99.7031V103.703H710.21V99.7031H706.21ZM692.538 99.7031H688.538V103.703H692.538V99.7031ZM692.538 92.8672H696.538V88.8672H692.538V92.8672ZM685.702 92.8672H681.702V96.8672H685.702V92.8672ZM685.702 86.0312H689.702V82.0312H685.702V86.0312ZM678.866 86.0312H674.866V90.0312H678.866V86.0312ZM678.866 79.1953H682.866V75.1953H678.866V79.1953ZM672.03 79.1953H668.03V83.1953H672.03V79.1953ZM672.03 72.3594H676.03V68.3594H672.03V72.3594ZM665.194 72.3594H661.194V76.3594H665.194V72.3594ZM665.194 65.5234H669.194V61.5234H665.194V65.5234ZM658.358 65.5234H654.358V69.5234H658.358V65.5234ZM651.522 17.6719H647.522V45.0156H651.522H655.522V17.6719H651.522ZM651.522 45.0156V49.0156H685.702V45.0156V41.0156H651.522V45.0156ZM685.702 45.0156H689.702V38.1797H685.702H681.702V45.0156H685.702ZM685.702 38.1797V42.1797H692.538V38.1797V34.1797H685.702V38.1797ZM692.538 38.1797H696.538V24.5078H692.538H688.538V38.1797H692.538ZM692.538 24.5078V20.5078H685.702V24.5078V28.5078H692.538V24.5078ZM685.702 24.5078H689.702V17.6719H685.702H681.702V24.5078H685.702ZM685.702 17.6719V13.6719H651.522V17.6719V21.6719H685.702V17.6719ZM658.358 58.6875V54.6875H651.522V58.6875V62.6875H658.358V58.6875ZM651.522 58.6875H647.522V99.7031H651.522H655.522V58.6875H651.522ZM651.522 99.7031V95.7031H637.85V99.7031V103.703H651.522V99.7031ZM637.85 99.7031H641.85V4H637.85H633.85V99.7031H637.85ZM637.85 4V8H692.538V4V0H637.85V4ZM692.538 4H688.538V10.8359H692.538H696.538V4H692.538ZM692.538 10.8359V14.8359H699.374V10.8359V6.83594H692.538V10.8359ZM699.374 10.8359H695.374V17.6719H699.374H703.374V10.8359H699.374ZM699.374 17.6719V21.6719H706.21V17.6719V13.6719H699.374V17.6719ZM706.21 17.6719H702.21V45.0156H706.21H710.21V17.6719H706.21ZM706.21 45.0156V41.0156H699.374V45.0156V49.0156H706.21V45.0156ZM699.374 45.0156H695.374V51.8516H699.374H703.374V45.0156H699.374ZM699.374 51.8516V47.8516H692.538V51.8516V55.8516H699.374V51.8516ZM692.538 51.8516H688.538V58.6875H692.538H696.538V51.8516H692.538ZM692.538 58.6875V54.6875H678.866V58.6875V62.6875H692.538V58.6875ZM678.866 58.6875H674.866V65.5234H678.866H682.866V58.6875H678.866ZM678.866 65.5234V69.5234H685.702V65.5234V61.5234H678.866V65.5234ZM685.702 65.5234H681.702V72.3594H685.702H689.702V65.5234H685.702ZM685.702 72.3594V76.3594H692.538V72.3594V68.3594H685.702V72.3594ZM692.538 72.3594H688.538V79.1953H692.538H696.538V72.3594H692.538ZM692.538 79.1953V83.1953H699.374V79.1953V75.1953H692.538V79.1953ZM699.374 79.1953H695.374V86.0312H699.374H703.374V79.1953H699.374ZM699.374 86.0312V90.0312H706.21V86.0312V82.0312H699.374V86.0312ZM706.21 86.0312H702.21V99.7031H706.21H710.21V86.0312H706.21ZM706.21 99.7031V95.7031H692.538V99.7031V103.703H706.21V99.7031ZM692.538 99.7031H696.538V92.8672H692.538H688.538V99.7031H692.538ZM692.538 92.8672V88.8672H685.702V92.8672V96.8672H692.538V92.8672ZM685.702 92.8672H689.702V86.0312H685.702H681.702V92.8672H685.702ZM685.702 86.0312V82.0312H678.866V86.0312V90.0312H685.702V86.0312ZM678.866 86.0312H682.866V79.1953H678.866H674.866V86.0312H678.866ZM678.866 79.1953V75.1953H672.03V79.1953V83.1953H678.866V79.1953ZM672.03 79.1953H676.03V72.3594H672.03H668.03V79.1953H672.03ZM672.03 72.3594V68.3594H665.194V72.3594V76.3594H672.03V72.3594ZM665.194 72.3594H669.194V65.5234H665.194H661.194V72.3594H665.194ZM665.194 65.5234V61.5234H658.358V65.5234V69.5234H665.194V65.5234ZM658.358 65.5234H662.358V58.6875H658.358H654.358V65.5234H658.358ZM785.441 4H789.441V0H785.441V4ZM785.441 17.6719V21.6719H789.441V17.6719H785.441ZM730.754 17.6719V13.6719H726.754V17.6719H730.754ZM730.754 45.0156H726.754V49.0156H730.754V45.0156ZM771.769 45.0156H775.769V41.0156H771.769V45.0156ZM771.769 58.6875V62.6875H775.769V58.6875H771.769ZM730.754 58.6875V54.6875H726.754V58.6875H730.754ZM730.754 86.0312H726.754V90.0312H730.754V86.0312ZM785.441 86.0312H789.441V82.0312H785.441V86.0312ZM785.441 99.7031V103.703H789.441V99.7031H785.441ZM717.082 99.7031H713.082V103.703H717.082V99.7031ZM717.082 4V0H713.082V4H717.082ZM785.441 4H781.441V17.6719H785.441H789.441V4H785.441ZM785.441 17.6719V13.6719H730.754V17.6719V21.6719H785.441V17.6719ZM730.754 17.6719H726.754V45.0156H730.754H734.754V17.6719H730.754ZM730.754 45.0156V49.0156H771.769V45.0156V41.0156H730.754V45.0156ZM771.769 45.0156H767.769V58.6875H771.769H775.769V45.0156H771.769ZM771.769 58.6875V54.6875H730.754V58.6875V62.6875H771.769V58.6875ZM730.754 58.6875H726.754V86.0312H730.754H734.754V58.6875H730.754ZM730.754 86.0312V90.0312H785.441V86.0312V82.0312H730.754V86.0312ZM785.441 86.0312H781.441V99.7031H785.441H789.441V86.0312H785.441ZM785.441 99.7031V95.7031H717.082V99.7031V103.703H785.441V99.7031ZM717.082 99.7031H721.082V4H717.082H713.082V99.7031H717.082ZM717.082 4V8H785.441V4V0H717.082V4Z" fill="black" mask="url(#path-1-outside-1_287_30372)"/>
<defs>
<linearGradient id="paint0_linear_287_30372" x1="394.721" y1="8.48145" x2="394.721" y2="106.539" gradientUnits="userSpaceOnUse">
<stop offset="0.297189" stop-color="#FFEF2C"/>
<stop offset="0.418169" stop-color="#F8D20B"/>
<stop offset="0.418269" stop-color="#EFAF00"/>
<stop offset="0.480769" stop-color="#FFA200"/>
<stop offset="0.538462" stop-color="#F6CA09"/>
<stop offset="0.655878" stop-color="#FF9A40"/>
<stop offset="0.655978" stop-color="#DE6006"/>
<stop offset="0.764423" stop-color="#D64105"/>
<stop offset="0.813219" stop-color="#F52903"/>
</linearGradient>
</defs>
</svg>
