<svg width="567" height="77" viewBox="0 0 567 77" fill="none" xmlns="http://www.w3.org/2000/svg">
<mask id="path-1-outside-1_538_144831" maskUnits="userSpaceOnUse" x="-0.414062" y="-0.757812" width="567" height="78" fill="black">
<rect fill="white" x="-0.414062" y="-0.757812" width="567" height="78"/>
<path d="M47.9453 13.7656H52.8281V23.5312H43.0625V18.6484H38.1797V13.7656H18.6484V18.6484H13.7656V57.7109H18.6484V62.5938H38.1797V57.7109H43.0625V43.0625H28.4141V33.2969H52.8281V62.5938H47.9453V67.4766H43.0625V72.3594H13.7656V67.4766H8.88281V62.5938H4V13.7656H8.88281V8.88281H13.7656V4H43.0625V8.88281H47.9453V13.7656ZM70.3594 43.0625H99.6562V28.4141H94.7734V23.5312H89.8906V18.6484H80.125V23.5312H75.2422V28.4141H70.3594V43.0625ZM70.3594 72.3594H60.5938V23.5312H65.4766V18.6484H70.3594V13.7656H75.2422V8.88281H80.125V4H89.8906V8.88281H94.7734V13.7656H99.6562V18.6484H104.539V23.5312H109.422V72.3594H99.6562V52.8281H70.3594V72.3594ZM126.953 72.3594H117.188V4H126.953V13.7656H131.836V18.6484H136.719V23.5312H146.484V18.6484H151.367V13.7656H156.25V4H166.016V72.3594H156.25V28.4141H151.367V33.2969H146.484V43.0625H136.719V33.2969H131.836V28.4141H126.953V72.3594ZM222.609 4V13.7656H183.547V33.2969H212.844V43.0625H183.547V62.5938H222.609V72.3594H173.781V4H222.609ZM330.914 13.7656H335.797V23.5312H326.031V18.6484H321.148V13.7656H301.617V18.6484H296.734V28.4141H301.617V33.2969H326.031V38.1797H330.914V43.0625H335.797V62.5938H330.914V67.4766H326.031V72.3594H296.734V67.4766H291.852V62.5938H286.969V52.8281H296.734V57.7109H301.617V62.5938H321.148V57.7109H326.031V47.9453H321.148V43.0625H296.734V38.1797H291.852V33.2969H286.969V13.7656H291.852V8.88281H296.734V4H326.031V8.88281H330.914V13.7656ZM358.211 62.5938H377.742V57.7109H382.625V52.8281H392.391V62.5938H387.508V67.4766H382.625V72.3594H353.328V67.4766H348.445V62.5938H343.562V13.7656H348.445V8.88281H353.328V4H382.625V8.88281H387.508V13.7656H392.391V23.5312H382.625V18.6484H377.742V13.7656H358.211V18.6484H353.328V57.7109H358.211V62.5938ZM434.336 13.7656H414.805V18.6484H409.922V57.7109H414.805V62.5938H434.336V57.7109H439.219V18.6484H434.336V13.7656ZM409.922 8.88281V4H439.219V8.88281H444.102V13.7656H448.984V62.5938H444.102V67.4766H439.219V72.3594H409.922V67.4766H405.039V62.5938H400.156V13.7656H405.039V8.88281H409.922ZM466.516 13.7656V33.2969H490.93V28.4141H495.812V18.6484H490.93V13.7656H466.516ZM471.398 43.0625H466.516V72.3594H456.75V4H495.812V8.88281H500.695V13.7656H505.578V33.2969H500.695V38.1797H495.812V43.0625H486.047V47.9453H490.93V52.8281H495.812V57.7109H500.695V62.5938H505.578V72.3594H495.812V67.4766H490.93V62.5938H486.047V57.7109H481.164V52.8281H476.281V47.9453H471.398V43.0625ZM562.172 4V13.7656H523.109V33.2969H552.406V43.0625H523.109V62.5938H562.172V72.3594H513.344V4H562.172Z"/>
</mask>
<path d="M47.9453 13.7656H52.8281V23.5312H43.0625V18.6484H38.1797V13.7656H18.6484V18.6484H13.7656V57.7109H18.6484V62.5938H38.1797V57.7109H43.0625V43.0625H28.4141V33.2969H52.8281V62.5938H47.9453V67.4766H43.0625V72.3594H13.7656V67.4766H8.88281V62.5938H4V13.7656H8.88281V8.88281H13.7656V4H43.0625V8.88281H47.9453V13.7656ZM70.3594 43.0625H99.6562V28.4141H94.7734V23.5312H89.8906V18.6484H80.125V23.5312H75.2422V28.4141H70.3594V43.0625ZM70.3594 72.3594H60.5938V23.5312H65.4766V18.6484H70.3594V13.7656H75.2422V8.88281H80.125V4H89.8906V8.88281H94.7734V13.7656H99.6562V18.6484H104.539V23.5312H109.422V72.3594H99.6562V52.8281H70.3594V72.3594ZM126.953 72.3594H117.188V4H126.953V13.7656H131.836V18.6484H136.719V23.5312H146.484V18.6484H151.367V13.7656H156.25V4H166.016V72.3594H156.25V28.4141H151.367V33.2969H146.484V43.0625H136.719V33.2969H131.836V28.4141H126.953V72.3594ZM222.609 4V13.7656H183.547V33.2969H212.844V43.0625H183.547V62.5938H222.609V72.3594H173.781V4H222.609ZM330.914 13.7656H335.797V23.5312H326.031V18.6484H321.148V13.7656H301.617V18.6484H296.734V28.4141H301.617V33.2969H326.031V38.1797H330.914V43.0625H335.797V62.5938H330.914V67.4766H326.031V72.3594H296.734V67.4766H291.852V62.5938H286.969V52.8281H296.734V57.7109H301.617V62.5938H321.148V57.7109H326.031V47.9453H321.148V43.0625H296.734V38.1797H291.852V33.2969H286.969V13.7656H291.852V8.88281H296.734V4H326.031V8.88281H330.914V13.7656ZM358.211 62.5938H377.742V57.7109H382.625V52.8281H392.391V62.5938H387.508V67.4766H382.625V72.3594H353.328V67.4766H348.445V62.5938H343.562V13.7656H348.445V8.88281H353.328V4H382.625V8.88281H387.508V13.7656H392.391V23.5312H382.625V18.6484H377.742V13.7656H358.211V18.6484H353.328V57.7109H358.211V62.5938ZM434.336 13.7656H414.805V18.6484H409.922V57.7109H414.805V62.5938H434.336V57.7109H439.219V18.6484H434.336V13.7656ZM409.922 8.88281V4H439.219V8.88281H444.102V13.7656H448.984V62.5938H444.102V67.4766H439.219V72.3594H409.922V67.4766H405.039V62.5938H400.156V13.7656H405.039V8.88281H409.922ZM466.516 13.7656V33.2969H490.93V28.4141H495.812V18.6484H490.93V13.7656H466.516ZM471.398 43.0625H466.516V72.3594H456.75V4H495.812V8.88281H500.695V13.7656H505.578V33.2969H500.695V38.1797H495.812V43.0625H486.047V47.9453H490.93V52.8281H495.812V57.7109H500.695V62.5938H505.578V72.3594H495.812V67.4766H490.93V62.5938H486.047V57.7109H481.164V52.8281H476.281V47.9453H471.398V43.0625ZM562.172 4V13.7656H523.109V33.2969H552.406V43.0625H523.109V62.5938H562.172V72.3594H513.344V4H562.172Z" fill="url(#paint0_linear_538_144831)"/>
<path d="M47.9453 13.7656H43.9453V17.7656H47.9453V13.7656ZM52.8281 13.7656H56.8281V9.76562H52.8281V13.7656ZM52.8281 23.5312V27.5312H56.8281V23.5312H52.8281ZM43.0625 23.5312H39.0625V27.5312H43.0625V23.5312ZM43.0625 18.6484H47.0625V14.6484H43.0625V18.6484ZM38.1797 18.6484H34.1797V22.6484H38.1797V18.6484ZM38.1797 13.7656H42.1797V9.76562H38.1797V13.7656ZM18.6484 13.7656V9.76562H14.6484V13.7656H18.6484ZM18.6484 18.6484V22.6484H22.6484V18.6484H18.6484ZM13.7656 18.6484V14.6484H9.76562V18.6484H13.7656ZM13.7656 57.7109H9.76562V61.7109H13.7656V57.7109ZM18.6484 57.7109H22.6484V53.7109H18.6484V57.7109ZM18.6484 62.5938H14.6484V66.5938H18.6484V62.5938ZM38.1797 62.5938V66.5938H42.1797V62.5938H38.1797ZM38.1797 57.7109V53.7109H34.1797V57.7109H38.1797ZM43.0625 57.7109V61.7109H47.0625V57.7109H43.0625ZM43.0625 43.0625H47.0625V39.0625H43.0625V43.0625ZM28.4141 43.0625H24.4141V47.0625H28.4141V43.0625ZM28.4141 33.2969V29.2969H24.4141V33.2969H28.4141ZM52.8281 33.2969H56.8281V29.2969H52.8281V33.2969ZM52.8281 62.5938V66.5938H56.8281V62.5938H52.8281ZM47.9453 62.5938V58.5938H43.9453V62.5938H47.9453ZM47.9453 67.4766V71.4766H51.9453V67.4766H47.9453ZM43.0625 67.4766V63.4766H39.0625V67.4766H43.0625ZM43.0625 72.3594V76.3594H47.0625V72.3594H43.0625ZM13.7656 72.3594H9.76562V76.3594H13.7656V72.3594ZM13.7656 67.4766H17.7656V63.4766H13.7656V67.4766ZM8.88281 67.4766H4.88281V71.4766H8.88281V67.4766ZM8.88281 62.5938H12.8828V58.5938H8.88281V62.5938ZM4 62.5938H0V66.5938H4V62.5938ZM4 13.7656V9.76562H0V13.7656H4ZM8.88281 13.7656V17.7656H12.8828V13.7656H8.88281ZM8.88281 8.88281V4.88281H4.88281V8.88281H8.88281ZM13.7656 8.88281V12.8828H17.7656V8.88281H13.7656ZM13.7656 4V0H9.76562V4H13.7656ZM43.0625 4H47.0625V0H43.0625V4ZM43.0625 8.88281H39.0625V12.8828H43.0625V8.88281ZM47.9453 8.88281H51.9453V4.88281H47.9453V8.88281ZM47.9453 13.7656V17.7656H52.8281V13.7656V9.76562H47.9453V13.7656ZM52.8281 13.7656H48.8281V23.5312H52.8281H56.8281V13.7656H52.8281ZM52.8281 23.5312V19.5312H43.0625V23.5312V27.5312H52.8281V23.5312ZM43.0625 23.5312H47.0625V18.6484H43.0625H39.0625V23.5312H43.0625ZM43.0625 18.6484V14.6484H38.1797V18.6484V22.6484H43.0625V18.6484ZM38.1797 18.6484H42.1797V13.7656H38.1797H34.1797V18.6484H38.1797ZM38.1797 13.7656V9.76562H18.6484V13.7656V17.7656H38.1797V13.7656ZM18.6484 13.7656H14.6484V18.6484H18.6484H22.6484V13.7656H18.6484ZM18.6484 18.6484V14.6484H13.7656V18.6484V22.6484H18.6484V18.6484ZM13.7656 18.6484H9.76562V57.7109H13.7656H17.7656V18.6484H13.7656ZM13.7656 57.7109V61.7109H18.6484V57.7109V53.7109H13.7656V57.7109ZM18.6484 57.7109H14.6484V62.5938H18.6484H22.6484V57.7109H18.6484ZM18.6484 62.5938V66.5938H38.1797V62.5938V58.5938H18.6484V62.5938ZM38.1797 62.5938H42.1797V57.7109H38.1797H34.1797V62.5938H38.1797ZM38.1797 57.7109V61.7109H43.0625V57.7109V53.7109H38.1797V57.7109ZM43.0625 57.7109H47.0625V43.0625H43.0625H39.0625V57.7109H43.0625ZM43.0625 43.0625V39.0625H28.4141V43.0625V47.0625H43.0625V43.0625ZM28.4141 43.0625H32.4141V33.2969H28.4141H24.4141V43.0625H28.4141ZM28.4141 33.2969V37.2969H52.8281V33.2969V29.2969H28.4141V33.2969ZM52.8281 33.2969H48.8281V62.5938H52.8281H56.8281V33.2969H52.8281ZM52.8281 62.5938V58.5938H47.9453V62.5938V66.5938H52.8281V62.5938ZM47.9453 62.5938H43.9453V67.4766H47.9453H51.9453V62.5938H47.9453ZM47.9453 67.4766V63.4766H43.0625V67.4766V71.4766H47.9453V67.4766ZM43.0625 67.4766H39.0625V72.3594H43.0625H47.0625V67.4766H43.0625ZM43.0625 72.3594V68.3594H13.7656V72.3594V76.3594H43.0625V72.3594ZM13.7656 72.3594H17.7656V67.4766H13.7656H9.76562V72.3594H13.7656ZM13.7656 67.4766V63.4766H8.88281V67.4766V71.4766H13.7656V67.4766ZM8.88281 67.4766H12.8828V62.5938H8.88281H4.88281V67.4766H8.88281ZM8.88281 62.5938V58.5938H4V62.5938V66.5938H8.88281V62.5938ZM4 62.5938H8V13.7656H4H0V62.5938H4ZM4 13.7656V17.7656H8.88281V13.7656V9.76562H4V13.7656ZM8.88281 13.7656H12.8828V8.88281H8.88281H4.88281V13.7656H8.88281ZM8.88281 8.88281V12.8828H13.7656V8.88281V4.88281H8.88281V8.88281ZM13.7656 8.88281H17.7656V4H13.7656H9.76562V8.88281H13.7656ZM13.7656 4V8H43.0625V4V0H13.7656V4ZM43.0625 4H39.0625V8.88281H43.0625H47.0625V4H43.0625ZM43.0625 8.88281V12.8828H47.9453V8.88281V4.88281H43.0625V8.88281ZM47.9453 8.88281H43.9453V13.7656H47.9453H51.9453V8.88281H47.9453ZM70.3594 43.0625H66.3594V47.0625H70.3594V43.0625ZM99.6562 43.0625V47.0625H103.656V43.0625H99.6562ZM99.6562 28.4141H103.656V24.4141H99.6562V28.4141ZM94.7734 28.4141H90.7734V32.4141H94.7734V28.4141ZM94.7734 23.5312H98.7734V19.5312H94.7734V23.5312ZM89.8906 23.5312H85.8906V27.5312H89.8906V23.5312ZM89.8906 18.6484H93.8906V14.6484H89.8906V18.6484ZM80.125 18.6484V14.6484H76.125V18.6484H80.125ZM80.125 23.5312V27.5312H84.125V23.5312H80.125ZM75.2422 23.5312V19.5312H71.2422V23.5312H75.2422ZM75.2422 28.4141V32.4141H79.2422V28.4141H75.2422ZM70.3594 28.4141V24.4141H66.3594V28.4141H70.3594ZM70.3594 72.3594V76.3594H74.3594V72.3594H70.3594ZM60.5938 72.3594H56.5938V76.3594H60.5938V72.3594ZM60.5938 23.5312V19.5312H56.5938V23.5312H60.5938ZM65.4766 23.5312V27.5312H69.4766V23.5312H65.4766ZM65.4766 18.6484V14.6484H61.4766V18.6484H65.4766ZM70.3594 18.6484V22.6484H74.3594V18.6484H70.3594ZM70.3594 13.7656V9.76562H66.3594V13.7656H70.3594ZM75.2422 13.7656V17.7656H79.2422V13.7656H75.2422ZM75.2422 8.88281V4.88281H71.2422V8.88281H75.2422ZM80.125 8.88281V12.8828H84.125V8.88281H80.125ZM80.125 4V0H76.125V4H80.125ZM89.8906 4H93.8906V0H89.8906V4ZM89.8906 8.88281H85.8906V12.8828H89.8906V8.88281ZM94.7734 8.88281H98.7734V4.88281H94.7734V8.88281ZM94.7734 13.7656H90.7734V17.7656H94.7734V13.7656ZM99.6562 13.7656H103.656V9.76562H99.6562V13.7656ZM99.6562 18.6484H95.6562V22.6484H99.6562V18.6484ZM104.539 18.6484H108.539V14.6484H104.539V18.6484ZM104.539 23.5312H100.539V27.5312H104.539V23.5312ZM109.422 23.5312H113.422V19.5312H109.422V23.5312ZM109.422 72.3594V76.3594H113.422V72.3594H109.422ZM99.6562 72.3594H95.6562V76.3594H99.6562V72.3594ZM99.6562 52.8281H103.656V48.8281H99.6562V52.8281ZM70.3594 52.8281V48.8281H66.3594V52.8281H70.3594ZM70.3594 43.0625V47.0625H99.6562V43.0625V39.0625H70.3594V43.0625ZM99.6562 43.0625H103.656V28.4141H99.6562H95.6562V43.0625H99.6562ZM99.6562 28.4141V24.4141H94.7734V28.4141V32.4141H99.6562V28.4141ZM94.7734 28.4141H98.7734V23.5312H94.7734H90.7734V28.4141H94.7734ZM94.7734 23.5312V19.5312H89.8906V23.5312V27.5312H94.7734V23.5312ZM89.8906 23.5312H93.8906V18.6484H89.8906H85.8906V23.5312H89.8906ZM89.8906 18.6484V14.6484H80.125V18.6484V22.6484H89.8906V18.6484ZM80.125 18.6484H76.125V23.5312H80.125H84.125V18.6484H80.125ZM80.125 23.5312V19.5312H75.2422V23.5312V27.5312H80.125V23.5312ZM75.2422 23.5312H71.2422V28.4141H75.2422H79.2422V23.5312H75.2422ZM75.2422 28.4141V24.4141H70.3594V28.4141V32.4141H75.2422V28.4141ZM70.3594 28.4141H66.3594V43.0625H70.3594H74.3594V28.4141H70.3594ZM70.3594 72.3594V68.3594H60.5938V72.3594V76.3594H70.3594V72.3594ZM60.5938 72.3594H64.5938V23.5312H60.5938H56.5938V72.3594H60.5938ZM60.5938 23.5312V27.5312H65.4766V23.5312V19.5312H60.5938V23.5312ZM65.4766 23.5312H69.4766V18.6484H65.4766H61.4766V23.5312H65.4766ZM65.4766 18.6484V22.6484H70.3594V18.6484V14.6484H65.4766V18.6484ZM70.3594 18.6484H74.3594V13.7656H70.3594H66.3594V18.6484H70.3594ZM70.3594 13.7656V17.7656H75.2422V13.7656V9.76562H70.3594V13.7656ZM75.2422 13.7656H79.2422V8.88281H75.2422H71.2422V13.7656H75.2422ZM75.2422 8.88281V12.8828H80.125V8.88281V4.88281H75.2422V8.88281ZM80.125 8.88281H84.125V4H80.125H76.125V8.88281H80.125ZM80.125 4V8H89.8906V4V0H80.125V4ZM89.8906 4H85.8906V8.88281H89.8906H93.8906V4H89.8906ZM89.8906 8.88281V12.8828H94.7734V8.88281V4.88281H89.8906V8.88281ZM94.7734 8.88281H90.7734V13.7656H94.7734H98.7734V8.88281H94.7734ZM94.7734 13.7656V17.7656H99.6562V13.7656V9.76562H94.7734V13.7656ZM99.6562 13.7656H95.6562V18.6484H99.6562H103.656V13.7656H99.6562ZM99.6562 18.6484V22.6484H104.539V18.6484V14.6484H99.6562V18.6484ZM104.539 18.6484H100.539V23.5312H104.539H108.539V18.6484H104.539ZM104.539 23.5312V27.5312H109.422V23.5312V19.5312H104.539V23.5312ZM109.422 23.5312H105.422V72.3594H109.422H113.422V23.5312H109.422ZM109.422 72.3594V68.3594H99.6562V72.3594V76.3594H109.422V72.3594ZM99.6562 72.3594H103.656V52.8281H99.6562H95.6562V72.3594H99.6562ZM99.6562 52.8281V48.8281H70.3594V52.8281V56.8281H99.6562V52.8281ZM70.3594 52.8281H66.3594V72.3594H70.3594H74.3594V52.8281H70.3594ZM126.953 72.3594V76.3594H130.953V72.3594H126.953ZM117.188 72.3594H113.188V76.3594H117.188V72.3594ZM117.188 4V0H113.188V4H117.188ZM126.953 4H130.953V0H126.953V4ZM126.953 13.7656H122.953V17.7656H126.953V13.7656ZM131.836 13.7656H135.836V9.76562H131.836V13.7656ZM131.836 18.6484H127.836V22.6484H131.836V18.6484ZM136.719 18.6484H140.719V14.6484H136.719V18.6484ZM136.719 23.5312H132.719V27.5312H136.719V23.5312ZM146.484 23.5312V27.5312H150.484V23.5312H146.484ZM146.484 18.6484V14.6484H142.484V18.6484H146.484ZM151.367 18.6484V22.6484H155.367V18.6484H151.367ZM151.367 13.7656V9.76562H147.367V13.7656H151.367ZM156.25 13.7656V17.7656H160.25V13.7656H156.25ZM156.25 4V0H152.25V4H156.25ZM166.016 4H170.016V0H166.016V4ZM166.016 72.3594V76.3594H170.016V72.3594H166.016ZM156.25 72.3594H152.25V76.3594H156.25V72.3594ZM156.25 28.4141H160.25V24.4141H156.25V28.4141ZM151.367 28.4141V24.4141H147.367V28.4141H151.367ZM151.367 33.2969V37.2969H155.367V33.2969H151.367ZM146.484 33.2969V29.2969H142.484V33.2969H146.484ZM146.484 43.0625V47.0625H150.484V43.0625H146.484ZM136.719 43.0625H132.719V47.0625H136.719V43.0625ZM136.719 33.2969H140.719V29.2969H136.719V33.2969ZM131.836 33.2969H127.836V37.2969H131.836V33.2969ZM131.836 28.4141H135.836V24.4141H131.836V28.4141ZM126.953 28.4141V24.4141H122.953V28.4141H126.953ZM126.953 72.3594V68.3594H117.188V72.3594V76.3594H126.953V72.3594ZM117.188 72.3594H121.188V4H117.188H113.188V72.3594H117.188ZM117.188 4V8H126.953V4V0H117.188V4ZM126.953 4H122.953V13.7656H126.953H130.953V4H126.953ZM126.953 13.7656V17.7656H131.836V13.7656V9.76562H126.953V13.7656ZM131.836 13.7656H127.836V18.6484H131.836H135.836V13.7656H131.836ZM131.836 18.6484V22.6484H136.719V18.6484V14.6484H131.836V18.6484ZM136.719 18.6484H132.719V23.5312H136.719H140.719V18.6484H136.719ZM136.719 23.5312V27.5312H146.484V23.5312V19.5312H136.719V23.5312ZM146.484 23.5312H150.484V18.6484H146.484H142.484V23.5312H146.484ZM146.484 18.6484V22.6484H151.367V18.6484V14.6484H146.484V18.6484ZM151.367 18.6484H155.367V13.7656H151.367H147.367V18.6484H151.367ZM151.367 13.7656V17.7656H156.25V13.7656V9.76562H151.367V13.7656ZM156.25 13.7656H160.25V4H156.25H152.25V13.7656H156.25ZM156.25 4V8H166.016V4V0H156.25V4ZM166.016 4H162.016V72.3594H166.016H170.016V4H166.016ZM166.016 72.3594V68.3594H156.25V72.3594V76.3594H166.016V72.3594ZM156.25 72.3594H160.25V28.4141H156.25H152.25V72.3594H156.25ZM156.25 28.4141V24.4141H151.367V28.4141V32.4141H156.25V28.4141ZM151.367 28.4141H147.367V33.2969H151.367H155.367V28.4141H151.367ZM151.367 33.2969V29.2969H146.484V33.2969V37.2969H151.367V33.2969ZM146.484 33.2969H142.484V43.0625H146.484H150.484V33.2969H146.484ZM146.484 43.0625V39.0625H136.719V43.0625V47.0625H146.484V43.0625ZM136.719 43.0625H140.719V33.2969H136.719H132.719V43.0625H136.719ZM136.719 33.2969V29.2969H131.836V33.2969V37.2969H136.719V33.2969ZM131.836 33.2969H135.836V28.4141H131.836H127.836V33.2969H131.836ZM131.836 28.4141V24.4141H126.953V28.4141V32.4141H131.836V28.4141ZM126.953 28.4141H122.953V72.3594H126.953H130.953V28.4141H126.953ZM222.609 4H226.609V0H222.609V4ZM222.609 13.7656V17.7656H226.609V13.7656H222.609ZM183.547 13.7656V9.76562H179.547V13.7656H183.547ZM183.547 33.2969H179.547V37.2969H183.547V33.2969ZM212.844 33.2969H216.844V29.2969H212.844V33.2969ZM212.844 43.0625V47.0625H216.844V43.0625H212.844ZM183.547 43.0625V39.0625H179.547V43.0625H183.547ZM183.547 62.5938H179.547V66.5938H183.547V62.5938ZM222.609 62.5938H226.609V58.5938H222.609V62.5938ZM222.609 72.3594V76.3594H226.609V72.3594H222.609ZM173.781 72.3594H169.781V76.3594H173.781V72.3594ZM173.781 4V0H169.781V4H173.781ZM222.609 4H218.609V13.7656H222.609H226.609V4H222.609ZM222.609 13.7656V9.76562H183.547V13.7656V17.7656H222.609V13.7656ZM183.547 13.7656H179.547V33.2969H183.547H187.547V13.7656H183.547ZM183.547 33.2969V37.2969H212.844V33.2969V29.2969H183.547V33.2969ZM212.844 33.2969H208.844V43.0625H212.844H216.844V33.2969H212.844ZM212.844 43.0625V39.0625H183.547V43.0625V47.0625H212.844V43.0625ZM183.547 43.0625H179.547V62.5938H183.547H187.547V43.0625H183.547ZM183.547 62.5938V66.5938H222.609V62.5938V58.5938H183.547V62.5938ZM222.609 62.5938H218.609V72.3594H222.609H226.609V62.5938H222.609ZM222.609 72.3594V68.3594H173.781V72.3594V76.3594H222.609V72.3594ZM173.781 72.3594H177.781V4H173.781H169.781V72.3594H173.781ZM173.781 4V8H222.609V4V0H173.781V4ZM330.914 13.7656H326.914V17.7656H330.914V13.7656ZM335.797 13.7656H339.797V9.76562H335.797V13.7656ZM335.797 23.5312V27.5312H339.797V23.5312H335.797ZM326.031 23.5312H322.031V27.5312H326.031V23.5312ZM326.031 18.6484H330.031V14.6484H326.031V18.6484ZM321.148 18.6484H317.148V22.6484H321.148V18.6484ZM321.148 13.7656H325.148V9.76562H321.148V13.7656ZM301.617 13.7656V9.76562H297.617V13.7656H301.617ZM301.617 18.6484V22.6484H305.617V18.6484H301.617ZM296.734 18.6484V14.6484H292.734V18.6484H296.734ZM296.734 28.4141H292.734V32.4141H296.734V28.4141ZM301.617 28.4141H305.617V24.4141H301.617V28.4141ZM301.617 33.2969H297.617V37.2969H301.617V33.2969ZM326.031 33.2969H330.031V29.2969H326.031V33.2969ZM326.031 38.1797H322.031V42.1797H326.031V38.1797ZM330.914 38.1797H334.914V34.1797H330.914V38.1797ZM330.914 43.0625H326.914V47.0625H330.914V43.0625ZM335.797 43.0625H339.797V39.0625H335.797V43.0625ZM335.797 62.5938V66.5938H339.797V62.5938H335.797ZM330.914 62.5938V58.5938H326.914V62.5938H330.914ZM330.914 67.4766V71.4766H334.914V67.4766H330.914ZM326.031 67.4766V63.4766H322.031V67.4766H326.031ZM326.031 72.3594V76.3594H330.031V72.3594H326.031ZM296.734 72.3594H292.734V76.3594H296.734V72.3594ZM296.734 67.4766H300.734V63.4766H296.734V67.4766ZM291.852 67.4766H287.852V71.4766H291.852V67.4766ZM291.852 62.5938H295.852V58.5938H291.852V62.5938ZM286.969 62.5938H282.969V66.5938H286.969V62.5938ZM286.969 52.8281V48.8281H282.969V52.8281H286.969ZM296.734 52.8281H300.734V48.8281H296.734V52.8281ZM296.734 57.7109H292.734V61.7109H296.734V57.7109ZM301.617 57.7109H305.617V53.7109H301.617V57.7109ZM301.617 62.5938H297.617V66.5938H301.617V62.5938ZM321.148 62.5938V66.5938H325.148V62.5938H321.148ZM321.148 57.7109V53.7109H317.148V57.7109H321.148ZM326.031 57.7109V61.7109H330.031V57.7109H326.031ZM326.031 47.9453H330.031V43.9453H326.031V47.9453ZM321.148 47.9453H317.148V51.9453H321.148V47.9453ZM321.148 43.0625H325.148V39.0625H321.148V43.0625ZM296.734 43.0625H292.734V47.0625H296.734V43.0625ZM296.734 38.1797H300.734V34.1797H296.734V38.1797ZM291.852 38.1797H287.852V42.1797H291.852V38.1797ZM291.852 33.2969H295.852V29.2969H291.852V33.2969ZM286.969 33.2969H282.969V37.2969H286.969V33.2969ZM286.969 13.7656V9.76562H282.969V13.7656H286.969ZM291.852 13.7656V17.7656H295.852V13.7656H291.852ZM291.852 8.88281V4.88281H287.852V8.88281H291.852ZM296.734 8.88281V12.8828H300.734V8.88281H296.734ZM296.734 4V0H292.734V4H296.734ZM326.031 4H330.031V0H326.031V4ZM326.031 8.88281H322.031V12.8828H326.031V8.88281ZM330.914 8.88281H334.914V4.88281H330.914V8.88281ZM330.914 13.7656V17.7656H335.797V13.7656V9.76562H330.914V13.7656ZM335.797 13.7656H331.797V23.5312H335.797H339.797V13.7656H335.797ZM335.797 23.5312V19.5312H326.031V23.5312V27.5312H335.797V23.5312ZM326.031 23.5312H330.031V18.6484H326.031H322.031V23.5312H326.031ZM326.031 18.6484V14.6484H321.148V18.6484V22.6484H326.031V18.6484ZM321.148 18.6484H325.148V13.7656H321.148H317.148V18.6484H321.148ZM321.148 13.7656V9.76562H301.617V13.7656V17.7656H321.148V13.7656ZM301.617 13.7656H297.617V18.6484H301.617H305.617V13.7656H301.617ZM301.617 18.6484V14.6484H296.734V18.6484V22.6484H301.617V18.6484ZM296.734 18.6484H292.734V28.4141H296.734H300.734V18.6484H296.734ZM296.734 28.4141V32.4141H301.617V28.4141V24.4141H296.734V28.4141ZM301.617 28.4141H297.617V33.2969H301.617H305.617V28.4141H301.617ZM301.617 33.2969V37.2969H326.031V33.2969V29.2969H301.617V33.2969ZM326.031 33.2969H322.031V38.1797H326.031H330.031V33.2969H326.031ZM326.031 38.1797V42.1797H330.914V38.1797V34.1797H326.031V38.1797ZM330.914 38.1797H326.914V43.0625H330.914H334.914V38.1797H330.914ZM330.914 43.0625V47.0625H335.797V43.0625V39.0625H330.914V43.0625ZM335.797 43.0625H331.797V62.5938H335.797H339.797V43.0625H335.797ZM335.797 62.5938V58.5938H330.914V62.5938V66.5938H335.797V62.5938ZM330.914 62.5938H326.914V67.4766H330.914H334.914V62.5938H330.914ZM330.914 67.4766V63.4766H326.031V67.4766V71.4766H330.914V67.4766ZM326.031 67.4766H322.031V72.3594H326.031H330.031V67.4766H326.031ZM326.031 72.3594V68.3594H296.734V72.3594V76.3594H326.031V72.3594ZM296.734 72.3594H300.734V67.4766H296.734H292.734V72.3594H296.734ZM296.734 67.4766V63.4766H291.852V67.4766V71.4766H296.734V67.4766ZM291.852 67.4766H295.852V62.5938H291.852H287.852V67.4766H291.852ZM291.852 62.5938V58.5938H286.969V62.5938V66.5938H291.852V62.5938ZM286.969 62.5938H290.969V52.8281H286.969H282.969V62.5938H286.969ZM286.969 52.8281V56.8281H296.734V52.8281V48.8281H286.969V52.8281ZM296.734 52.8281H292.734V57.7109H296.734H300.734V52.8281H296.734ZM296.734 57.7109V61.7109H301.617V57.7109V53.7109H296.734V57.7109ZM301.617 57.7109H297.617V62.5938H301.617H305.617V57.7109H301.617ZM301.617 62.5938V66.5938H321.148V62.5938V58.5938H301.617V62.5938ZM321.148 62.5938H325.148V57.7109H321.148H317.148V62.5938H321.148ZM321.148 57.7109V61.7109H326.031V57.7109V53.7109H321.148V57.7109ZM326.031 57.7109H330.031V47.9453H326.031H322.031V57.7109H326.031ZM326.031 47.9453V43.9453H321.148V47.9453V51.9453H326.031V47.9453ZM321.148 47.9453H325.148V43.0625H321.148H317.148V47.9453H321.148ZM321.148 43.0625V39.0625H296.734V43.0625V47.0625H321.148V43.0625ZM296.734 43.0625H300.734V38.1797H296.734H292.734V43.0625H296.734ZM296.734 38.1797V34.1797H291.852V38.1797V42.1797H296.734V38.1797ZM291.852 38.1797H295.852V33.2969H291.852H287.852V38.1797H291.852ZM291.852 33.2969V29.2969H286.969V33.2969V37.2969H291.852V33.2969ZM286.969 33.2969H290.969V13.7656H286.969H282.969V33.2969H286.969ZM286.969 13.7656V17.7656H291.852V13.7656V9.76562H286.969V13.7656ZM291.852 13.7656H295.852V8.88281H291.852H287.852V13.7656H291.852ZM291.852 8.88281V12.8828H296.734V8.88281V4.88281H291.852V8.88281ZM296.734 8.88281H300.734V4H296.734H292.734V8.88281H296.734ZM296.734 4V8H326.031V4V0H296.734V4ZM326.031 4H322.031V8.88281H326.031H330.031V4H326.031ZM326.031 8.88281V12.8828H330.914V8.88281V4.88281H326.031V8.88281ZM330.914 8.88281H326.914V13.7656H330.914H334.914V8.88281H330.914ZM358.211 62.5938H354.211V66.5938H358.211V62.5938ZM377.742 62.5938V66.5938H381.742V62.5938H377.742ZM377.742 57.7109V53.7109H373.742V57.7109H377.742ZM382.625 57.7109V61.7109H386.625V57.7109H382.625ZM382.625 52.8281V48.8281H378.625V52.8281H382.625ZM392.391 52.8281H396.391V48.8281H392.391V52.8281ZM392.391 62.5938V66.5938H396.391V62.5938H392.391ZM387.508 62.5938V58.5938H383.508V62.5938H387.508ZM387.508 67.4766V71.4766H391.508V67.4766H387.508ZM382.625 67.4766V63.4766H378.625V67.4766H382.625ZM382.625 72.3594V76.3594H386.625V72.3594H382.625ZM353.328 72.3594H349.328V76.3594H353.328V72.3594ZM353.328 67.4766H357.328V63.4766H353.328V67.4766ZM348.445 67.4766H344.445V71.4766H348.445V67.4766ZM348.445 62.5938H352.445V58.5938H348.445V62.5938ZM343.562 62.5938H339.562V66.5938H343.562V62.5938ZM343.562 13.7656V9.76562H339.562V13.7656H343.562ZM348.445 13.7656V17.7656H352.445V13.7656H348.445ZM348.445 8.88281V4.88281H344.445V8.88281H348.445ZM353.328 8.88281V12.8828H357.328V8.88281H353.328ZM353.328 4V0H349.328V4H353.328ZM382.625 4H386.625V0H382.625V4ZM382.625 8.88281H378.625V12.8828H382.625V8.88281ZM387.508 8.88281H391.508V4.88281H387.508V8.88281ZM387.508 13.7656H383.508V17.7656H387.508V13.7656ZM392.391 13.7656H396.391V9.76562H392.391V13.7656ZM392.391 23.5312V27.5312H396.391V23.5312H392.391ZM382.625 23.5312H378.625V27.5312H382.625V23.5312ZM382.625 18.6484H386.625V14.6484H382.625V18.6484ZM377.742 18.6484H373.742V22.6484H377.742V18.6484ZM377.742 13.7656H381.742V9.76562H377.742V13.7656ZM358.211 13.7656V9.76562H354.211V13.7656H358.211ZM358.211 18.6484V22.6484H362.211V18.6484H358.211ZM353.328 18.6484V14.6484H349.328V18.6484H353.328ZM353.328 57.7109H349.328V61.7109H353.328V57.7109ZM358.211 57.7109H362.211V53.7109H358.211V57.7109ZM358.211 62.5938V66.5938H377.742V62.5938V58.5938H358.211V62.5938ZM377.742 62.5938H381.742V57.7109H377.742H373.742V62.5938H377.742ZM377.742 57.7109V61.7109H382.625V57.7109V53.7109H377.742V57.7109ZM382.625 57.7109H386.625V52.8281H382.625H378.625V57.7109H382.625ZM382.625 52.8281V56.8281H392.391V52.8281V48.8281H382.625V52.8281ZM392.391 52.8281H388.391V62.5938H392.391H396.391V52.8281H392.391ZM392.391 62.5938V58.5938H387.508V62.5938V66.5938H392.391V62.5938ZM387.508 62.5938H383.508V67.4766H387.508H391.508V62.5938H387.508ZM387.508 67.4766V63.4766H382.625V67.4766V71.4766H387.508V67.4766ZM382.625 67.4766H378.625V72.3594H382.625H386.625V67.4766H382.625ZM382.625 72.3594V68.3594H353.328V72.3594V76.3594H382.625V72.3594ZM353.328 72.3594H357.328V67.4766H353.328H349.328V72.3594H353.328ZM353.328 67.4766V63.4766H348.445V67.4766V71.4766H353.328V67.4766ZM348.445 67.4766H352.445V62.5938H348.445H344.445V67.4766H348.445ZM348.445 62.5938V58.5938H343.562V62.5938V66.5938H348.445V62.5938ZM343.562 62.5938H347.562V13.7656H343.562H339.562V62.5938H343.562ZM343.562 13.7656V17.7656H348.445V13.7656V9.76562H343.562V13.7656ZM348.445 13.7656H352.445V8.88281H348.445H344.445V13.7656H348.445ZM348.445 8.88281V12.8828H353.328V8.88281V4.88281H348.445V8.88281ZM353.328 8.88281H357.328V4H353.328H349.328V8.88281H353.328ZM353.328 4V8H382.625V4V0H353.328V4ZM382.625 4H378.625V8.88281H382.625H386.625V4H382.625ZM382.625 8.88281V12.8828H387.508V8.88281V4.88281H382.625V8.88281ZM387.508 8.88281H383.508V13.7656H387.508H391.508V8.88281H387.508ZM387.508 13.7656V17.7656H392.391V13.7656V9.76562H387.508V13.7656ZM392.391 13.7656H388.391V23.5312H392.391H396.391V13.7656H392.391ZM392.391 23.5312V19.5312H382.625V23.5312V27.5312H392.391V23.5312ZM382.625 23.5312H386.625V18.6484H382.625H378.625V23.5312H382.625ZM382.625 18.6484V14.6484H377.742V18.6484V22.6484H382.625V18.6484ZM377.742 18.6484H381.742V13.7656H377.742H373.742V18.6484H377.742ZM377.742 13.7656V9.76562H358.211V13.7656V17.7656H377.742V13.7656ZM358.211 13.7656H354.211V18.6484H358.211H362.211V13.7656H358.211ZM358.211 18.6484V14.6484H353.328V18.6484V22.6484H358.211V18.6484ZM353.328 18.6484H349.328V57.7109H353.328H357.328V18.6484H353.328ZM353.328 57.7109V61.7109H358.211V57.7109V53.7109H353.328V57.7109ZM358.211 57.7109H354.211V62.5938H358.211H362.211V57.7109H358.211ZM434.336 13.7656H438.336V9.76562H434.336V13.7656ZM414.805 13.7656V9.76562H410.805V13.7656H414.805ZM414.805 18.6484V22.6484H418.805V18.6484H414.805ZM409.922 18.6484V14.6484H405.922V18.6484H409.922ZM409.922 57.7109H405.922V61.7109H409.922V57.7109ZM414.805 57.7109H418.805V53.7109H414.805V57.7109ZM414.805 62.5938H410.805V66.5938H414.805V62.5938ZM434.336 62.5938V66.5938H438.336V62.5938H434.336ZM434.336 57.7109V53.7109H430.336V57.7109H434.336ZM439.219 57.7109V61.7109H443.219V57.7109H439.219ZM439.219 18.6484H443.219V14.6484H439.219V18.6484ZM434.336 18.6484H430.336V22.6484H434.336V18.6484ZM409.922 8.88281V12.8828H413.922V8.88281H409.922ZM409.922 4V0H405.922V4H409.922ZM439.219 4H443.219V0H439.219V4ZM439.219 8.88281H435.219V12.8828H439.219V8.88281ZM444.102 8.88281H448.102V4.88281H444.102V8.88281ZM444.102 13.7656H440.102V17.7656H444.102V13.7656ZM448.984 13.7656H452.984V9.76562H448.984V13.7656ZM448.984 62.5938V66.5938H452.984V62.5938H448.984ZM444.102 62.5938V58.5938H440.102V62.5938H444.102ZM444.102 67.4766V71.4766H448.102V67.4766H444.102ZM439.219 67.4766V63.4766H435.219V67.4766H439.219ZM439.219 72.3594V76.3594H443.219V72.3594H439.219ZM409.922 72.3594H405.922V76.3594H409.922V72.3594ZM409.922 67.4766H413.922V63.4766H409.922V67.4766ZM405.039 67.4766H401.039V71.4766H405.039V67.4766ZM405.039 62.5938H409.039V58.5938H405.039V62.5938ZM400.156 62.5938H396.156V66.5938H400.156V62.5938ZM400.156 13.7656V9.76562H396.156V13.7656H400.156ZM405.039 13.7656V17.7656H409.039V13.7656H405.039ZM405.039 8.88281V4.88281H401.039V8.88281H405.039ZM434.336 13.7656V9.76562H414.805V13.7656V17.7656H434.336V13.7656ZM414.805 13.7656H410.805V18.6484H414.805H418.805V13.7656H414.805ZM414.805 18.6484V14.6484H409.922V18.6484V22.6484H414.805V18.6484ZM409.922 18.6484H405.922V57.7109H409.922H413.922V18.6484H409.922ZM409.922 57.7109V61.7109H414.805V57.7109V53.7109H409.922V57.7109ZM414.805 57.7109H410.805V62.5938H414.805H418.805V57.7109H414.805ZM414.805 62.5938V66.5938H434.336V62.5938V58.5938H414.805V62.5938ZM434.336 62.5938H438.336V57.7109H434.336H430.336V62.5938H434.336ZM434.336 57.7109V61.7109H439.219V57.7109V53.7109H434.336V57.7109ZM439.219 57.7109H443.219V18.6484H439.219H435.219V57.7109H439.219ZM439.219 18.6484V14.6484H434.336V18.6484V22.6484H439.219V18.6484ZM434.336 18.6484H438.336V13.7656H434.336H430.336V18.6484H434.336ZM409.922 8.88281H413.922V4H409.922H405.922V8.88281H409.922ZM409.922 4V8H439.219V4V0H409.922V4ZM439.219 4H435.219V8.88281H439.219H443.219V4H439.219ZM439.219 8.88281V12.8828H444.102V8.88281V4.88281H439.219V8.88281ZM444.102 8.88281H440.102V13.7656H444.102H448.102V8.88281H444.102ZM444.102 13.7656V17.7656H448.984V13.7656V9.76562H444.102V13.7656ZM448.984 13.7656H444.984V62.5938H448.984H452.984V13.7656H448.984ZM448.984 62.5938V58.5938H444.102V62.5938V66.5938H448.984V62.5938ZM444.102 62.5938H440.102V67.4766H444.102H448.102V62.5938H444.102ZM444.102 67.4766V63.4766H439.219V67.4766V71.4766H444.102V67.4766ZM439.219 67.4766H435.219V72.3594H439.219H443.219V67.4766H439.219ZM439.219 72.3594V68.3594H409.922V72.3594V76.3594H439.219V72.3594ZM409.922 72.3594H413.922V67.4766H409.922H405.922V72.3594H409.922ZM409.922 67.4766V63.4766H405.039V67.4766V71.4766H409.922V67.4766ZM405.039 67.4766H409.039V62.5938H405.039H401.039V67.4766H405.039ZM405.039 62.5938V58.5938H400.156V62.5938V66.5938H405.039V62.5938ZM400.156 62.5938H404.156V13.7656H400.156H396.156V62.5938H400.156ZM400.156 13.7656V17.7656H405.039V13.7656V9.76562H400.156V13.7656ZM405.039 13.7656H409.039V8.88281H405.039H401.039V13.7656H405.039ZM405.039 8.88281V12.8828H409.922V8.88281V4.88281H405.039V8.88281ZM466.516 13.7656V9.76562H462.516V13.7656H466.516ZM466.516 33.2969H462.516V37.2969H466.516V33.2969ZM490.93 33.2969V37.2969H494.93V33.2969H490.93ZM490.93 28.4141V24.4141H486.93V28.4141H490.93ZM495.812 28.4141V32.4141H499.812V28.4141H495.812ZM495.812 18.6484H499.812V14.6484H495.812V18.6484ZM490.93 18.6484H486.93V22.6484H490.93V18.6484ZM490.93 13.7656H494.93V9.76562H490.93V13.7656ZM471.398 43.0625H475.398V39.0625H471.398V43.0625ZM466.516 43.0625V39.0625H462.516V43.0625H466.516ZM466.516 72.3594V76.3594H470.516V72.3594H466.516ZM456.75 72.3594H452.75V76.3594H456.75V72.3594ZM456.75 4V0H452.75V4H456.75ZM495.812 4H499.812V0H495.812V4ZM495.812 8.88281H491.812V12.8828H495.812V8.88281ZM500.695 8.88281H504.695V4.88281H500.695V8.88281ZM500.695 13.7656H496.695V17.7656H500.695V13.7656ZM505.578 13.7656H509.578V9.76562H505.578V13.7656ZM505.578 33.2969V37.2969H509.578V33.2969H505.578ZM500.695 33.2969V29.2969H496.695V33.2969H500.695ZM500.695 38.1797V42.1797H504.695V38.1797H500.695ZM495.812 38.1797V34.1797H491.812V38.1797H495.812ZM495.812 43.0625V47.0625H499.812V43.0625H495.812ZM486.047 43.0625V39.0625H482.047V43.0625H486.047ZM486.047 47.9453H482.047V51.9453H486.047V47.9453ZM490.93 47.9453H494.93V43.9453H490.93V47.9453ZM490.93 52.8281H486.93V56.8281H490.93V52.8281ZM495.812 52.8281H499.812V48.8281H495.812V52.8281ZM495.812 57.7109H491.812V61.7109H495.812V57.7109ZM500.695 57.7109H504.695V53.7109H500.695V57.7109ZM500.695 62.5938H496.695V66.5938H500.695V62.5938ZM505.578 62.5938H509.578V58.5938H505.578V62.5938ZM505.578 72.3594V76.3594H509.578V72.3594H505.578ZM495.812 72.3594H491.812V76.3594H495.812V72.3594ZM495.812 67.4766H499.812V63.4766H495.812V67.4766ZM490.93 67.4766H486.93V71.4766H490.93V67.4766ZM490.93 62.5938H494.93V58.5938H490.93V62.5938ZM486.047 62.5938H482.047V66.5938H486.047V62.5938ZM486.047 57.7109H490.047V53.7109H486.047V57.7109ZM481.164 57.7109H477.164V61.7109H481.164V57.7109ZM481.164 52.8281H485.164V48.8281H481.164V52.8281ZM476.281 52.8281H472.281V56.8281H476.281V52.8281ZM476.281 47.9453H480.281V43.9453H476.281V47.9453ZM471.398 47.9453H467.398V51.9453H471.398V47.9453ZM466.516 13.7656H462.516V33.2969H466.516H470.516V13.7656H466.516ZM466.516 33.2969V37.2969H490.93V33.2969V29.2969H466.516V33.2969ZM490.93 33.2969H494.93V28.4141H490.93H486.93V33.2969H490.93ZM490.93 28.4141V32.4141H495.812V28.4141V24.4141H490.93V28.4141ZM495.812 28.4141H499.812V18.6484H495.812H491.812V28.4141H495.812ZM495.812 18.6484V14.6484H490.93V18.6484V22.6484H495.812V18.6484ZM490.93 18.6484H494.93V13.7656H490.93H486.93V18.6484H490.93ZM490.93 13.7656V9.76562H466.516V13.7656V17.7656H490.93V13.7656ZM471.398 43.0625V39.0625H466.516V43.0625V47.0625H471.398V43.0625ZM466.516 43.0625H462.516V72.3594H466.516H470.516V43.0625H466.516ZM466.516 72.3594V68.3594H456.75V72.3594V76.3594H466.516V72.3594ZM456.75 72.3594H460.75V4H456.75H452.75V72.3594H456.75ZM456.75 4V8H495.812V4V0H456.75V4ZM495.812 4H491.812V8.88281H495.812H499.812V4H495.812ZM495.812 8.88281V12.8828H500.695V8.88281V4.88281H495.812V8.88281ZM500.695 8.88281H496.695V13.7656H500.695H504.695V8.88281H500.695ZM500.695 13.7656V17.7656H505.578V13.7656V9.76562H500.695V13.7656ZM505.578 13.7656H501.578V33.2969H505.578H509.578V13.7656H505.578ZM505.578 33.2969V29.2969H500.695V33.2969V37.2969H505.578V33.2969ZM500.695 33.2969H496.695V38.1797H500.695H504.695V33.2969H500.695ZM500.695 38.1797V34.1797H495.812V38.1797V42.1797H500.695V38.1797ZM495.812 38.1797H491.812V43.0625H495.812H499.812V38.1797H495.812ZM495.812 43.0625V39.0625H486.047V43.0625V47.0625H495.812V43.0625ZM486.047 43.0625H482.047V47.9453H486.047H490.047V43.0625H486.047ZM486.047 47.9453V51.9453H490.93V47.9453V43.9453H486.047V47.9453ZM490.93 47.9453H486.93V52.8281H490.93H494.93V47.9453H490.93ZM490.93 52.8281V56.8281H495.812V52.8281V48.8281H490.93V52.8281ZM495.812 52.8281H491.812V57.7109H495.812H499.812V52.8281H495.812ZM495.812 57.7109V61.7109H500.695V57.7109V53.7109H495.812V57.7109ZM500.695 57.7109H496.695V62.5938H500.695H504.695V57.7109H500.695ZM500.695 62.5938V66.5938H505.578V62.5938V58.5938H500.695V62.5938ZM505.578 62.5938H501.578V72.3594H505.578H509.578V62.5938H505.578ZM505.578 72.3594V68.3594H495.812V72.3594V76.3594H505.578V72.3594ZM495.812 72.3594H499.812V67.4766H495.812H491.812V72.3594H495.812ZM495.812 67.4766V63.4766H490.93V67.4766V71.4766H495.812V67.4766ZM490.93 67.4766H494.93V62.5938H490.93H486.93V67.4766H490.93ZM490.93 62.5938V58.5938H486.047V62.5938V66.5938H490.93V62.5938ZM486.047 62.5938H490.047V57.7109H486.047H482.047V62.5938H486.047ZM486.047 57.7109V53.7109H481.164V57.7109V61.7109H486.047V57.7109ZM481.164 57.7109H485.164V52.8281H481.164H477.164V57.7109H481.164ZM481.164 52.8281V48.8281H476.281V52.8281V56.8281H481.164V52.8281ZM476.281 52.8281H480.281V47.9453H476.281H472.281V52.8281H476.281ZM476.281 47.9453V43.9453H471.398V47.9453V51.9453H476.281V47.9453ZM471.398 47.9453H475.398V43.0625H471.398H467.398V47.9453H471.398ZM562.172 4H566.172V0H562.172V4ZM562.172 13.7656V17.7656H566.172V13.7656H562.172ZM523.109 13.7656V9.76562H519.109V13.7656H523.109ZM523.109 33.2969H519.109V37.2969H523.109V33.2969ZM552.406 33.2969H556.406V29.2969H552.406V33.2969ZM552.406 43.0625V47.0625H556.406V43.0625H552.406ZM523.109 43.0625V39.0625H519.109V43.0625H523.109ZM523.109 62.5938H519.109V66.5938H523.109V62.5938ZM562.172 62.5938H566.172V58.5938H562.172V62.5938ZM562.172 72.3594V76.3594H566.172V72.3594H562.172ZM513.344 72.3594H509.344V76.3594H513.344V72.3594ZM513.344 4V0H509.344V4H513.344ZM562.172 4H558.172V13.7656H562.172H566.172V4H562.172ZM562.172 13.7656V9.76562H523.109V13.7656V17.7656H562.172V13.7656ZM523.109 13.7656H519.109V33.2969H523.109H527.109V13.7656H523.109ZM523.109 33.2969V37.2969H552.406V33.2969V29.2969H523.109V33.2969ZM552.406 33.2969H548.406V43.0625H552.406H556.406V33.2969H552.406ZM552.406 43.0625V39.0625H523.109V43.0625V47.0625H552.406V43.0625ZM523.109 43.0625H519.109V62.5938H523.109H527.109V43.0625H523.109ZM523.109 62.5938V66.5938H562.172V62.5938V58.5938H523.109V62.5938ZM562.172 62.5938H558.172V72.3594H562.172H566.172V62.5938H562.172ZM562.172 72.3594V68.3594H513.344V72.3594V76.3594H562.172V72.3594ZM513.344 72.3594H517.344V4H513.344H509.344V72.3594H513.344ZM513.344 4V8H562.172V4V0H513.344V4Z" fill="black" mask="url(#path-1-outside-1_538_144831)"/>
<defs>
<linearGradient id="paint0_linear_538_144831" x1="283.086" y1="1.14648" x2="283.086" y2="75.7715" gradientUnits="userSpaceOnUse">
<stop offset="0.297189" stop-color="#FFEF2C"/>
<stop offset="0.418169" stop-color="#F8D20B"/>
<stop offset="0.418269" stop-color="#EFAF00"/>
<stop offset="0.480769" stop-color="#FFA200"/>
<stop offset="0.538462" stop-color="#F6CA09"/>
<stop offset="0.655878" stop-color="#FF9A40"/>
<stop offset="0.655978" stop-color="#DE6006"/>
<stop offset="0.764423" stop-color="#D64105"/>
<stop offset="0.813219" stop-color="#F52903"/>
</linearGradient>
</defs>
</svg>
