<svg width="367" height="278" viewBox="0 0 367 278" fill="none" xmlns="http://www.w3.org/2000/svg">
<path d="M34.6504 128L54.8008 122.5L58.0254 155.25L71.3008 171.5L84.5508 183.25H97.0508L122.551 202.5L238.051 200L279.525 188.375L294.65 169.625L306.525 160.125L312.301 128L327.9 123.375L353.275 148.125L354.15 209.75L324.051 238.75L315.525 250.25L291.051 254.75L278.801 268.75L84.5508 267L77.5508 257L55.7754 253.25L9.15039 206.25L11.1504 151.375L34.6504 128Z" fill="#778391"/>
<path d="M70.9004 170.25L55.4004 153.25L57.5254 54L76.9004 38.75L86.9004 25.25H103.4L122.9 8.25H233.4L277.4 25.25L293.275 38.75L305.9 50.75L308.525 153.25L295.65 176.375L264.65 188.125L243.9 202.25L133.9 205.375L114.275 195.875L91.0254 189.625L70.9004 170.25Z" fill="#12F1C7"/>
<rect width="16" height="16" transform="matrix(1 -6.92524e-08 -1.10361e-07 -1 319.301 245.27)" fill="black"/>
<rect width="16" height="16" transform="matrix(1 -6.92524e-08 -1.10361e-07 -1 334.301 229.27)" fill="black"/>
<rect width="17" height="16" transform="matrix(1 -6.92524e-08 -1.10361e-07 -1 318.301 130.5)" fill="black"/>
<rect width="17" height="16" transform="matrix(1 -6.92524e-08 -1.10361e-07 -1 335.301 146.5)" fill="black"/>
<rect width="17" height="16" transform="matrix(1 -6.92524e-08 -1.10361e-07 -1 285.301 48.0002)" fill="black"/>
<rect width="17" height="16" transform="matrix(1 -6.92524e-08 -1.10361e-07 -1 65 48.0002)" fill="black"/>
<rect width="31.9004" height="16" transform="matrix(1 -6.92524e-08 -1.10361e-07 -1 253.4 32.0002)" fill="black"/>
<rect width="31.9004" height="16" transform="matrix(1 -6.92524e-08 -1.10361e-07 -1 82 32.0002)" fill="black"/>
<rect width="139.5" height="16" transform="matrix(1 -6.92524e-08 -1.10361e-07 -1 113.9 16.0002)" fill="black"/>
<rect width="139.5" height="16" transform="matrix(1 -6.92524e-08 -1.10361e-07 -1 113.9 211.885)" fill="black"/>
<rect width="204.4" height="16" transform="matrix(1 -6.92524e-08 -1.10361e-07 -1 80.9004 277.27)" fill="black"/>
<rect width="17.2241" height="16.6348" transform="matrix(1 -6.92524e-08 -1.10361e-07 -1 286.302 179.885)" fill="black"/>
<rect width="16" height="16" transform="matrix(1 -6.92524e-08 -1.10361e-07 -1 65 179.885)" fill="black"/>
<rect width="17" height="16" transform="matrix(1 -6.92524e-08 -1.10361e-07 -1 32 130.5)" fill="black"/>
<rect width="16" height="16" transform="matrix(1 -6.92524e-08 -1.10361e-07 -1 32.001 245.27)" fill="black"/>
<rect width="16" height="16" transform="matrix(1 -6.92524e-08 -1.10361e-07 -1 16 229.27)" fill="black"/>
<rect width="16" height="16" transform="matrix(1 -6.92524e-08 -1.10361e-07 -1 16 146.5)" fill="black"/>
<rect width="32.9004" height="16" transform="matrix(1 -6.92524e-08 -1.10361e-07 -1 81 195.885)" fill="black"/>
<rect width="32.9004" height="16" transform="matrix(1 -6.92524e-08 -1.10361e-07 -1 253.4 195.885)" fill="black"/>
<rect width="32.9004" height="16" transform="matrix(1 -6.92524e-08 -1.10361e-07 -1 48 261.27)" fill="black"/>
<rect width="16" height="66.7695" transform="matrix(1 -6.92524e-08 -1.10361e-07 -1 350.301 213.27)" fill="black"/>
<rect width="16" height="66.7695" transform="matrix(1 -6.92524e-08 -1.10361e-07 -1 0 213.27)" fill="black"/>
<rect width="16" height="115.25" transform="matrix(1 -6.92524e-08 -1.10361e-07 -1 302.301 163.25)" fill="black"/>
<rect width="16" height="115.885" transform="matrix(1 -6.92524e-08 -1.10361e-07 -1 49 163.885)" fill="black"/>
<rect width="34" height="16" transform="matrix(1 -6.92524e-08 -1.10361e-07 -1 285.301 261.27)" fill="black"/>
<path d="M65.001 129.625H90.0996V145.875H122.6V162.875H239.1V145.875H270.6V129.625H302.35V163.337H286.345V179.875H253.725V195.885H113.85V179.875H80.9746V163.755H65.001V129.625Z" fill="#00B290"/>
<path d="M239.099 145.875V162.875H180.4V179.875H148.9V195.885H253.724V179.875H286.344V163.337H302.349V129.625H270.599V145.875H239.099Z" fill="#00876D"/>
<rect x="65.001" y="114.5" width="24.8828" height="15.125" fill="#9BFFDC"/>
<rect x="271.667" y="114.5" width="30.6816" height="15.125" fill="#9BFFDC"/>
<rect x="89.8838" y="129.625" width="32.5171" height="16.875" fill="#9BFFDC"/>
<rect x="239.15" y="129.5" width="32.5171" height="16.875" fill="#9BFFDC"/>
<rect x="122.4" y="146.375" width="116.75" height="16.875" fill="#9BFFDC"/>
<rect x="286.302" y="133.5" width="10.9004" height="30.3848" fill="#00B290"/>
<path d="M65.001 129.625H89.8838V179.875H81.1509V163.885H65.001V129.625Z" fill="#00CFA8"/>
<path d="M113.9 49.75V16.25H253.4V32H285.65V48H302.4V114.75H271.4V129.5H238.9V146.25H122.9V128H136.4V121.25H177.9V104.25H233.9V64.25H161.9V49.75H113.9Z" fill="#00E4B9"/>
<rect x="16" y="180.802" width="16.0005" height="32.4678" fill="#404B5D"/>
<rect x="334.3" y="180.802" width="16.0005" height="32.4678" fill="#404B5D"/>
<rect x="32" y="197.035" width="16.0005" height="32.4678" fill="#404B5D"/>
<rect x="318.301" y="197.035" width="17" height="32.4678" fill="#404B5D"/>
<rect x="48.001" y="212.802" width="33" height="32.4678" fill="#404B5D"/>
<rect x="285.301" y="212.568" width="34" height="32.7012" fill="#404B5D"/>
<rect x="80.9004" y="228.802" width="204.4" height="32.4678" fill="#404B5D"/>
<rect x="16" y="164.541" width="16" height="16" fill="#8895A6"/>
<rect width="16" height="16" transform="matrix(-1 0 0 1 350.201 165.024)" fill="#8895A6"/>
<rect x="32" y="181.038" width="16" height="16" fill="#8895A6"/>
<rect width="16" height="16" transform="matrix(-1 0 0 1 334.201 181.521)" fill="#8895A6"/>
<rect x="47.4004" y="196.568" width="33.5" height="16" fill="#8895A6"/>
<rect x="81.2002" y="213.035" width="32.001" height="33.2002" transform="rotate(90 81.2002 213.035)" fill="#535F74"/>
<rect x="229.249" y="229.27" width="32.001" height="148.049" transform="rotate(90 229.249 229.27)" fill="#535F74"/>
<rect width="33.5" height="16" transform="matrix(-1 0 0 1 318.801 197.052)" fill="#8895A6"/>
<rect x="81.2002" y="213.035" width="204.101" height="16" fill="#8895A6"/>
<rect x="184.4" y="216.259" width="97.1426" height="9.55273" fill="#D2DDE3"/>
<rect x="135.104" y="150.721" width="97.1426" height="9.55273" fill="white"/>
<rect x="87.1504" y="57.4033" width="16" height="16" fill="white"/>
<rect x="229.249" y="25.502" width="16" height="16" fill="white"/>
<rect x="244.699" y="41.4033" width="16" height="16" fill="white"/>
<rect x="260.7" y="57.4033" width="16" height="16" fill="white"/>
<rect x="49.3789" y="203.344" width="29.2715" height="4.06152" fill="#D2DDE3"/>
<rect x="289.505" y="200.275" width="22.1455" height="9.55273" fill="#D2DDE3"/>
<rect x="321.655" y="185.028" width="9.49512" height="9.55273" fill="#D2DDE3"/>
</svg>
