<svg width="894" height="279" viewBox="0 0 894 279" fill="none" xmlns="http://www.w3.org/2000/svg">
<path d="M675.383 271.684V244.809H717.633V236.059H747.008V224.559H756.508L756.195 163.059V153.809H777.133V147.021H784.883V131.997H795.695V126.112H816.258V119.747H844.258V150.684H830.383V157.809H820.633V175.872H830.383V185.309L855.883 185.309V195.184H882.258V209.309H876.008V215.372H868.383V225.059L842.863 225.059V234.122H811.383V243.434L803.82 243.443V252.318L766.008 252.318V261.309H716.133V271.684H675.383Z" fill="url(#paint0_linear_259_39127)"/>
<path d="M218.145 271.65V244.775H175.895V236.025H146.52V224.525H137.02L137.332 163.025V153.775H116.395V146.986H108.645V131.963H97.832V126.078H77.2695V119.713H49.2695V150.65H63.1445V157.775H72.8945V175.838H62.3945V185.275L37.6445 185.275V195.15H10.5195V209.275H16.8945V215.338H24.5195V225.025L49.2695 225.025V234.088H81.2695L81.2695 243.4L88.8317 243.408V252.283L126.77 252.284V261.275H177.395L177.395 271.65H218.145Z" fill="url(#paint1_linear_259_39127)"/>
<path d="M688.258 129.559L147.508 128.934L144.258 129.934L143.133 163.122H136.695V194.059H145.82V225.184H175.57V236.059L587.202 236.638H717.57V225.059H747.258V194.184H756.445V162.934H749.508V129.559L688.258 129.559Z" fill="#5F62FF"/>
<rect x="145.875" y="122.682" width="602.123" height="7.18794" fill="black"/>
<rect x="756.262" y="129.25" width="33.762" height="9.07726" transform="rotate(90 756.262 129.25)" fill="black"/>
<rect x="765.859" y="163.012" width="30.8001" height="9.59715" transform="rotate(90 765.859 163.012)" fill="black"/>
<rect x="675.916" y="245.41" width="26.2816" height="8.45956" transform="rotate(90 675.916 245.41)" fill="black"/>
<rect x="715.643" y="278.778" width="40.6195" height="7.08695" transform="rotate(-180 715.643 278.778)" fill="black"/>
<rect x="766.976" y="271.691" width="51.3324" height="10.4782" transform="rotate(-180 766.976 271.691)" fill="black"/>
<rect x="803.801" y="261.213" width="37.9422" height="8.92811" transform="rotate(-180 803.801 261.213)" fill="black"/>
<rect x="842.97" y="243.504" width="31.5814" height="9.61105" transform="rotate(-180 842.97 243.504)" fill="black"/>
<rect x="875.933" y="225.113" width="7.63214" height="9.8233" transform="rotate(-180 875.933 225.113)" fill="black"/>
<rect x="882.138" y="215.291" width="6.2056" height="6.07958" transform="rotate(-180 882.138 215.291)" fill="black"/>
<rect x="830.359" y="176.017" width="9.94182" height="18.3618" transform="rotate(-180 830.359 176.017)" fill="black"/>
<rect x="784.982" y="147.389" width="7.74114" height="15.1767" transform="rotate(-180 784.982 147.389)" fill="black"/>
<rect x="844.197" y="157.655" width="13.8377" height="7.6247" transform="rotate(-180 844.197 157.655)" fill="black"/>
<rect x="859.396" y="119.714" width="7.6777" height="13.8377" transform="rotate(-180 859.396 119.714)" fill="black"/>
<rect x="844.42" y="119.714" width="27.8984" height="8.662" transform="rotate(-180 844.42 119.714)" fill="black"/>
<rect x="816.521" y="126.112" width="20.3185" height="6.39846" transform="rotate(-180 816.521 126.112)" fill="black"/>
<rect x="796.204" y="132.212" width="11.3745" height="6.39846" transform="rotate(-180 796.204 132.212)" fill="black"/>
<rect x="777.241" y="154.165" width="20.98" height="8.11517" transform="rotate(-180 777.241 154.165)" fill="black"/>
<rect x="851.719" y="150.031" width="7.52198" height="30.3173" transform="rotate(-180 851.719 150.031)" fill="black"/>
<rect x="811.389" y="252.285" width="7.58859" height="8.78052" transform="rotate(-180 811.389 252.285)" fill="black"/>
<rect x="868.301" y="233.894" width="25.3316" height="8.78052" transform="rotate(-180 868.301 233.894)" fill="black"/>
<rect x="855.579" y="185.33" width="25.2204" height="9.31402" transform="rotate(-180 855.579 185.33)" fill="black"/>
<rect x="882.138" y="195.374" width="26.5595" height="10.0433" transform="rotate(-180 882.138 195.374)" fill="black"/>
<rect x="893.06" y="209.211" width="10.9216" height="13.8377" transform="rotate(-180 893.06 209.211)" fill="black"/>
<rect x="756.263" y="193.811" width="30.8001" height="9.07726" transform="rotate(90 756.263 193.811)" fill="black"/>
<rect x="747.186" y="235.993" width="29.758" height="11.3825" transform="rotate(-180 747.186 235.993)" fill="black"/>
<rect width="34.1846" height="9.07726" transform="matrix(4.37114e-08 1 1 -4.37114e-08 136.798 129.25)" fill="black"/>
<rect width="30.8001" height="9.59715" transform="matrix(4.37114e-08 1 1 -4.37114e-08 127.201 163.011)" fill="black"/>
<rect width="26.2816" height="8.45956" transform="matrix(4.37114e-08 1 1 -4.37114e-08 217.145 245.41)" fill="black"/>
<rect width="40.6195" height="7.08695" transform="matrix(1 -8.74228e-08 -8.74228e-08 -1 177.417 278.778)" fill="black"/>
<rect width="51.3324" height="10.4782" transform="matrix(1 -8.74228e-08 -8.74228e-08 -1 126.085 271.69)" fill="black"/>
<rect width="37.9422" height="8.92811" transform="matrix(1 -8.74228e-08 -8.74228e-08 -1 89.2598 261.212)" fill="black"/>
<rect width="31.5814" height="9.61105" transform="matrix(1 -8.74228e-08 -8.74228e-08 -1 50.0908 243.504)" fill="black"/>
<rect width="7.63214" height="9.8233" transform="matrix(1 -8.74228e-08 -8.74228e-08 -1 17.127 225.113)" fill="black"/>
<rect width="6.2056" height="6.07958" transform="matrix(1 -8.74228e-08 -8.74228e-08 -1 10.9219 215.29)" fill="black"/>
<rect width="9.94182" height="18.3618" transform="matrix(1 -8.74228e-08 -8.74228e-08 -1 62.7012 176.016)" fill="black"/>
<rect width="7.74114" height="15.1767" transform="matrix(1 -8.74228e-08 -8.74228e-08 -1 108.077 147.388)" fill="black"/>
<rect width="13.8377" height="7.6247" transform="matrix(1 -8.74228e-08 -8.74228e-08 -1 48.8633 157.655)" fill="black"/>
<rect width="7.6777" height="13.8377" transform="matrix(1 -8.74228e-08 -8.74228e-08 -1 33.6641 119.713)" fill="black"/>
<rect width="27.2291" height="8.662" transform="matrix(1 -8.74228e-08 -8.74228e-08 -1 48.6396 119.713)" fill="black"/>
<rect width="20.9879" height="6.39846" transform="matrix(1 -8.74228e-08 -8.74228e-08 -1 75.8691 126.112)" fill="black"/>
<rect width="11.3745" height="6.39846" transform="matrix(1 -8.74228e-08 -8.74228e-08 -1 96.8564 132.212)" fill="black"/>
<rect width="20.98" height="8.11517" transform="matrix(1 -8.74228e-08 -8.74228e-08 -1 115.818 154.165)" fill="black"/>
<rect width="7.52198" height="30.3173" transform="matrix(1 -8.74228e-08 -8.74228e-08 -1 41.3418 150.03)" fill="black"/>
<rect width="7.58859" height="8.78052" transform="matrix(1 -8.74228e-08 -8.74228e-08 -1 81.6709 252.284)" fill="black"/>
<rect width="25.3316" height="8.78052" transform="matrix(1 -8.74228e-08 -8.74228e-08 -1 24.7598 233.893)" fill="black"/>
<rect width="25.2204" height="9.31402" transform="matrix(1 -8.74228e-08 -8.74228e-08 -1 37.4805 185.33)" fill="black"/>
<rect width="26.5595" height="10.0433" transform="matrix(1 -8.74228e-08 -8.74228e-08 -1 10.9219 195.373)" fill="black"/>
<rect width="10.9216" height="13.8377" transform="matrix(1 -8.74228e-08 -8.74228e-08 -1 0 209.21)" fill="black"/>
<rect width="30.8001" height="9.07726" transform="matrix(4.37114e-08 1 1 -4.37114e-08 136.798 193.811)" fill="black"/>
<rect width="29.758" height="11.3825" transform="matrix(1 -8.74228e-08 -8.74228e-08 -1 145.875 235.993)" fill="black"/>
<rect width="110.252" height="9.41699" transform="matrix(1 -8.74228e-08 -8.74228e-08 -1 175.633 245.41)" fill="black"/>
<path d="M273.143 245.41L717.8 245.41L717.8 235.993L273.143 235.993L273.143 245.41Z" fill="black"/>
<mask id="path-57-outside-1_259_39127" maskUnits="userSpaceOnUse" x="182.524" y="147.151" width="533" height="64" fill="black">
<rect fill="white" x="182.524" y="147.151" width="533" height="64"/>
<path d="M187.431 206.245V151.557H195.243V198.432H226.493V206.245H187.431ZM274.968 151.557V159.37H243.718V174.995H267.156V182.807H243.718V198.432H274.968V206.245H235.906V151.557H274.968ZM292.193 182.807H315.631V171.089H311.724V167.182H307.818V163.276H300.006V167.182H296.099V171.089H292.193V182.807ZM292.193 206.245H284.381V167.182H288.287V163.276H292.193V159.37H296.099V155.464H300.006V151.557H307.818V155.464H311.724V159.37H315.631V163.276H319.537V167.182H323.443V206.245H315.631V190.62H292.193V206.245ZM340.668 159.37V198.432H360.199V194.526H364.106V163.276H360.199V159.37H340.668ZM332.856 206.245V151.557H364.106V155.464H368.012V159.37H371.918V198.432H368.012V202.339H364.106V206.245H332.856ZM420.393 151.557V159.37H389.143V174.995H412.581V182.807H389.143V198.432H420.393V206.245H381.331V151.557H420.393ZM437.618 159.37V174.995H457.149V171.089H461.056V163.276H457.149V159.37H437.618ZM441.524 182.807H437.618V206.245H429.806V151.557H461.056V155.464H464.962V159.37H468.868V174.995H464.962V178.901H461.056V182.807H453.243V186.714H457.149V190.62H461.056V194.526H464.962V198.432H468.868V206.245H461.056V202.339H457.149V198.432H453.243V194.526H449.337V190.62H445.431V186.714H441.524V182.807ZM486.093 174.995H505.624V171.089H509.531V163.276H505.624V159.37H486.093V174.995ZM478.281 206.245V151.557H509.531V155.464H513.437V159.37H517.343V174.995H513.437V182.807H517.343V198.432H513.437V202.339H509.531V206.245H478.281ZM486.093 198.432H505.624V194.526H509.531V186.714H505.624V182.807H486.093V198.432ZM554.099 159.37H538.474V163.276H534.568V194.526H538.474V198.432H554.099V194.526H558.006V163.276H554.099V159.37ZM534.568 155.464V151.557H558.006V155.464H561.912V159.37H565.818V198.432H561.912V202.339H558.006V206.245H534.568V202.339H530.662V198.432H526.756V159.37H530.662V155.464H534.568ZM583.043 182.807H606.481V171.089H602.574V167.182H598.668V163.276H590.856V167.182H586.949V171.089H583.043V182.807ZM583.043 206.245H575.231V167.182H579.137V163.276H583.043V159.37H586.949V155.464H590.856V151.557H598.668V155.464H602.574V159.37H606.481V163.276H610.387V167.182H614.293V206.245H606.481V190.62H583.043V206.245ZM631.518 159.37V174.995H651.049V171.089H654.956V163.276H651.049V159.37H631.518ZM635.424 182.807H631.518V206.245H623.706V151.557H654.956V155.464H658.862V159.37H662.768V174.995H658.862V178.901H654.956V182.807H647.143V186.714H651.049V190.62H654.956V194.526H658.862V198.432H662.768V206.245H654.956V202.339H651.049V198.432H647.143V194.526H643.237V190.62H639.331V186.714H635.424V182.807ZM679.993 159.37V198.432H699.524V194.526H703.431V163.276H699.524V159.37H679.993ZM672.181 206.245V151.557H703.431V155.464H707.337V159.37H711.243V198.432H707.337V202.339H703.431V206.245H672.181Z"/>
</mask>
<path d="M187.431 206.245V151.557H195.243V198.432H226.493V206.245H187.431ZM274.968 151.557V159.37H243.718V174.995H267.156V182.807H243.718V198.432H274.968V206.245H235.906V151.557H274.968ZM292.193 182.807H315.631V171.089H311.724V167.182H307.818V163.276H300.006V167.182H296.099V171.089H292.193V182.807ZM292.193 206.245H284.381V167.182H288.287V163.276H292.193V159.37H296.099V155.464H300.006V151.557H307.818V155.464H311.724V159.37H315.631V163.276H319.537V167.182H323.443V206.245H315.631V190.62H292.193V206.245ZM340.668 159.37V198.432H360.199V194.526H364.106V163.276H360.199V159.37H340.668ZM332.856 206.245V151.557H364.106V155.464H368.012V159.37H371.918V198.432H368.012V202.339H364.106V206.245H332.856ZM420.393 151.557V159.37H389.143V174.995H412.581V182.807H389.143V198.432H420.393V206.245H381.331V151.557H420.393ZM437.618 159.37V174.995H457.149V171.089H461.056V163.276H457.149V159.37H437.618ZM441.524 182.807H437.618V206.245H429.806V151.557H461.056V155.464H464.962V159.37H468.868V174.995H464.962V178.901H461.056V182.807H453.243V186.714H457.149V190.62H461.056V194.526H464.962V198.432H468.868V206.245H461.056V202.339H457.149V198.432H453.243V194.526H449.337V190.62H445.431V186.714H441.524V182.807ZM486.093 174.995H505.624V171.089H509.531V163.276H505.624V159.37H486.093V174.995ZM478.281 206.245V151.557H509.531V155.464H513.437V159.37H517.343V174.995H513.437V182.807H517.343V198.432H513.437V202.339H509.531V206.245H478.281ZM486.093 198.432H505.624V194.526H509.531V186.714H505.624V182.807H486.093V198.432ZM554.099 159.37H538.474V163.276H534.568V194.526H538.474V198.432H554.099V194.526H558.006V163.276H554.099V159.37ZM534.568 155.464V151.557H558.006V155.464H561.912V159.37H565.818V198.432H561.912V202.339H558.006V206.245H534.568V202.339H530.662V198.432H526.756V159.37H530.662V155.464H534.568ZM583.043 182.807H606.481V171.089H602.574V167.182H598.668V163.276H590.856V167.182H586.949V171.089H583.043V182.807ZM583.043 206.245H575.231V167.182H579.137V163.276H583.043V159.37H586.949V155.464H590.856V151.557H598.668V155.464H602.574V159.37H606.481V163.276H610.387V167.182H614.293V206.245H606.481V190.62H583.043V206.245ZM631.518 159.37V174.995H651.049V171.089H654.956V163.276H651.049V159.37H631.518ZM635.424 182.807H631.518V206.245H623.706V151.557H654.956V155.464H658.862V159.37H662.768V174.995H658.862V178.901H654.956V182.807H647.143V186.714H651.049V190.62H654.956V194.526H658.862V198.432H662.768V206.245H654.956V202.339H651.049V198.432H647.143V194.526H643.237V190.62H639.331V186.714H635.424V182.807ZM679.993 159.37V198.432H699.524V194.526H703.431V163.276H699.524V159.37H679.993ZM672.181 206.245V151.557H703.431V155.464H707.337V159.37H711.243V198.432H707.337V202.339H703.431V206.245H672.181Z" fill="url(#paint2_linear_259_39127)"/>
<path d="M187.431 206.245H183.431V210.245H187.431V206.245ZM187.431 151.557V147.557H183.431V151.557H187.431ZM195.243 151.557H199.243V147.557H195.243V151.557ZM195.243 198.432H191.243V202.432H195.243V198.432ZM226.493 198.432H230.493V194.432H226.493V198.432ZM226.493 206.245V210.245H230.493V206.245H226.493ZM187.431 206.245H191.431V151.557H187.431H183.431V206.245H187.431ZM187.431 151.557V155.557H195.243V151.557V147.557H187.431V151.557ZM195.243 151.557H191.243V198.432H195.243H199.243V151.557H195.243ZM195.243 198.432V202.432H226.493V198.432V194.432H195.243V198.432ZM226.493 198.432H222.493V206.245H226.493H230.493V198.432H226.493ZM226.493 206.245V202.245H187.431V206.245V210.245H226.493V206.245ZM274.968 151.557H278.968V147.557H274.968V151.557ZM274.968 159.37V163.37H278.968V159.37H274.968ZM243.718 159.37V155.37H239.718V159.37H243.718ZM243.718 174.995H239.718V178.995H243.718V174.995ZM267.156 174.995H271.156V170.995H267.156V174.995ZM267.156 182.807V186.807H271.156V182.807H267.156ZM243.718 182.807V178.807H239.718V182.807H243.718ZM243.718 198.432H239.718V202.432H243.718V198.432ZM274.968 198.432H278.968V194.432H274.968V198.432ZM274.968 206.245V210.245H278.968V206.245H274.968ZM235.906 206.245H231.906V210.245H235.906V206.245ZM235.906 151.557V147.557H231.906V151.557H235.906ZM274.968 151.557H270.968V159.37H274.968H278.968V151.557H274.968ZM274.968 159.37V155.37H243.718V159.37V163.37H274.968V159.37ZM243.718 159.37H239.718V174.995H243.718H247.718V159.37H243.718ZM243.718 174.995V178.995H267.156V174.995V170.995H243.718V174.995ZM267.156 174.995H263.156V182.807H267.156H271.156V174.995H267.156ZM267.156 182.807V178.807H243.718V182.807V186.807H267.156V182.807ZM243.718 182.807H239.718V198.432H243.718H247.718V182.807H243.718ZM243.718 198.432V202.432H274.968V198.432V194.432H243.718V198.432ZM274.968 198.432H270.968V206.245H274.968H278.968V198.432H274.968ZM274.968 206.245V202.245H235.906V206.245V210.245H274.968V206.245ZM235.906 206.245H239.906V151.557H235.906H231.906V206.245H235.906ZM235.906 151.557V155.557H274.968V151.557V147.557H235.906V151.557ZM292.193 182.807H288.193V186.807H292.193V182.807ZM315.631 182.807V186.807H319.631V182.807H315.631ZM315.631 171.089H319.631V167.089H315.631V171.089ZM311.724 171.089H307.724V175.089H311.724V171.089ZM311.724 167.182H315.724V163.182H311.724V167.182ZM307.818 167.182H303.818V171.182H307.818V167.182ZM307.818 163.276H311.818V159.276H307.818V163.276ZM300.006 163.276V159.276H296.006V163.276H300.006ZM300.006 167.182V171.182H304.006V167.182H300.006ZM296.099 167.182V163.182H292.099V167.182H296.099ZM296.099 171.089V175.089H300.099V171.089H296.099ZM292.193 171.089V167.089H288.193V171.089H292.193ZM292.193 206.245V210.245H296.193V206.245H292.193ZM284.381 206.245H280.381V210.245H284.381V206.245ZM284.381 167.182V163.182H280.381V167.182H284.381ZM288.287 167.182V171.182H292.287V167.182H288.287ZM288.287 163.276V159.276H284.287V163.276H288.287ZM292.193 163.276V167.276H296.193V163.276H292.193ZM292.193 159.37V155.37H288.193V159.37H292.193ZM296.099 159.37V163.37H300.099V159.37H296.099ZM296.099 155.464V151.464H292.099V155.464H296.099ZM300.006 155.464V159.464H304.006V155.464H300.006ZM300.006 151.557V147.557H296.006V151.557H300.006ZM307.818 151.557H311.818V147.557H307.818V151.557ZM307.818 155.464H303.818V159.464H307.818V155.464ZM311.724 155.464H315.724V151.464H311.724V155.464ZM311.724 159.37H307.724V163.37H311.724V159.37ZM315.631 159.37H319.631V155.37H315.631V159.37ZM315.631 163.276H311.631V167.276H315.631V163.276ZM319.537 163.276H323.537V159.276H319.537V163.276ZM319.537 167.182H315.537V171.182H319.537V167.182ZM323.443 167.182H327.443V163.182H323.443V167.182ZM323.443 206.245V210.245H327.443V206.245H323.443ZM315.631 206.245H311.631V210.245H315.631V206.245ZM315.631 190.62H319.631V186.62H315.631V190.62ZM292.193 190.62V186.62H288.193V190.62H292.193ZM292.193 182.807V186.807H315.631V182.807V178.807H292.193V182.807ZM315.631 182.807H319.631V171.089H315.631H311.631V182.807H315.631ZM315.631 171.089V167.089H311.724V171.089V175.089H315.631V171.089ZM311.724 171.089H315.724V167.182H311.724H307.724V171.089H311.724ZM311.724 167.182V163.182H307.818V167.182V171.182H311.724V167.182ZM307.818 167.182H311.818V163.276H307.818H303.818V167.182H307.818ZM307.818 163.276V159.276H300.006V163.276V167.276H307.818V163.276ZM300.006 163.276H296.006V167.182H300.006H304.006V163.276H300.006ZM300.006 167.182V163.182H296.099V167.182V171.182H300.006V167.182ZM296.099 167.182H292.099V171.089H296.099H300.099V167.182H296.099ZM296.099 171.089V167.089H292.193V171.089V175.089H296.099V171.089ZM292.193 171.089H288.193V182.807H292.193H296.193V171.089H292.193ZM292.193 206.245V202.245H284.381V206.245V210.245H292.193V206.245ZM284.381 206.245H288.381V167.182H284.381H280.381V206.245H284.381ZM284.381 167.182V171.182H288.287V167.182V163.182H284.381V167.182ZM288.287 167.182H292.287V163.276H288.287H284.287V167.182H288.287ZM288.287 163.276V167.276H292.193V163.276V159.276H288.287V163.276ZM292.193 163.276H296.193V159.37H292.193H288.193V163.276H292.193ZM292.193 159.37V163.37H296.099V159.37V155.37H292.193V159.37ZM296.099 159.37H300.099V155.464H296.099H292.099V159.37H296.099ZM296.099 155.464V159.464H300.006V155.464V151.464H296.099V155.464ZM300.006 155.464H304.006V151.557H300.006H296.006V155.464H300.006ZM300.006 151.557V155.557H307.818V151.557V147.557H300.006V151.557ZM307.818 151.557H303.818V155.464H307.818H311.818V151.557H307.818ZM307.818 155.464V159.464H311.724V155.464V151.464H307.818V155.464ZM311.724 155.464H307.724V159.37H311.724H315.724V155.464H311.724ZM311.724 159.37V163.37H315.631V159.37V155.37H311.724V159.37ZM315.631 159.37H311.631V163.276H315.631H319.631V159.37H315.631ZM315.631 163.276V167.276H319.537V163.276V159.276H315.631V163.276ZM319.537 163.276H315.537V167.182H319.537H323.537V163.276H319.537ZM319.537 167.182V171.182H323.443V167.182V163.182H319.537V167.182ZM323.443 167.182H319.443V206.245H323.443H327.443V167.182H323.443ZM323.443 206.245V202.245H315.631V206.245V210.245H323.443V206.245ZM315.631 206.245H319.631V190.62H315.631H311.631V206.245H315.631ZM315.631 190.62V186.62H292.193V190.62V194.62H315.631V190.62ZM292.193 190.62H288.193V206.245H292.193H296.193V190.62H292.193ZM340.668 159.37V155.37H336.668V159.37H340.668ZM340.668 198.432H336.668V202.432H340.668V198.432ZM360.199 198.432V202.432H364.199V198.432H360.199ZM360.199 194.526V190.526H356.199V194.526H360.199ZM364.106 194.526V198.526H368.106V194.526H364.106ZM364.106 163.276H368.106V159.276H364.106V163.276ZM360.199 163.276H356.199V167.276H360.199V163.276ZM360.199 159.37H364.199V155.37H360.199V159.37ZM332.856 206.245H328.856V210.245H332.856V206.245ZM332.856 151.557V147.557H328.856V151.557H332.856ZM364.106 151.557H368.106V147.557H364.106V151.557ZM364.106 155.464H360.106V159.464H364.106V155.464ZM368.012 155.464H372.012V151.464H368.012V155.464ZM368.012 159.37H364.012V163.37H368.012V159.37ZM371.918 159.37H375.918V155.37H371.918V159.37ZM371.918 198.432V202.432H375.918V198.432H371.918ZM368.012 198.432V194.432H364.012V198.432H368.012ZM368.012 202.339V206.339H372.012V202.339H368.012ZM364.106 202.339V198.339H360.106V202.339H364.106ZM364.106 206.245V210.245H368.106V206.245H364.106ZM340.668 159.37H336.668V198.432H340.668H344.668V159.37H340.668ZM340.668 198.432V202.432H360.199V198.432V194.432H340.668V198.432ZM360.199 198.432H364.199V194.526H360.199H356.199V198.432H360.199ZM360.199 194.526V198.526H364.106V194.526V190.526H360.199V194.526ZM364.106 194.526H368.106V163.276H364.106H360.106V194.526H364.106ZM364.106 163.276V159.276H360.199V163.276V167.276H364.106V163.276ZM360.199 163.276H364.199V159.37H360.199H356.199V163.276H360.199ZM360.199 159.37V155.37H340.668V159.37V163.37H360.199V159.37ZM332.856 206.245H336.856V151.557H332.856H328.856V206.245H332.856ZM332.856 151.557V155.557H364.106V151.557V147.557H332.856V151.557ZM364.106 151.557H360.106V155.464H364.106H368.106V151.557H364.106ZM364.106 155.464V159.464H368.012V155.464V151.464H364.106V155.464ZM368.012 155.464H364.012V159.37H368.012H372.012V155.464H368.012ZM368.012 159.37V163.37H371.918V159.37V155.37H368.012V159.37ZM371.918 159.37H367.918V198.432H371.918H375.918V159.37H371.918ZM371.918 198.432V194.432H368.012V198.432V202.432H371.918V198.432ZM368.012 198.432H364.012V202.339H368.012H372.012V198.432H368.012ZM368.012 202.339V198.339H364.106V202.339V206.339H368.012V202.339ZM364.106 202.339H360.106V206.245H364.106H368.106V202.339H364.106ZM364.106 206.245V202.245H332.856V206.245V210.245H364.106V206.245ZM420.393 151.557H424.393V147.557H420.393V151.557ZM420.393 159.37V163.37H424.393V159.37H420.393ZM389.143 159.37V155.37H385.143V159.37H389.143ZM389.143 174.995H385.143V178.995H389.143V174.995ZM412.581 174.995H416.581V170.995H412.581V174.995ZM412.581 182.807V186.807H416.581V182.807H412.581ZM389.143 182.807V178.807H385.143V182.807H389.143ZM389.143 198.432H385.143V202.432H389.143V198.432ZM420.393 198.432H424.393V194.432H420.393V198.432ZM420.393 206.245V210.245H424.393V206.245H420.393ZM381.331 206.245H377.331V210.245H381.331V206.245ZM381.331 151.557V147.557H377.331V151.557H381.331ZM420.393 151.557H416.393V159.37H420.393H424.393V151.557H420.393ZM420.393 159.37V155.37H389.143V159.37V163.37H420.393V159.37ZM389.143 159.37H385.143V174.995H389.143H393.143V159.37H389.143ZM389.143 174.995V178.995H412.581V174.995V170.995H389.143V174.995ZM412.581 174.995H408.581V182.807H412.581H416.581V174.995H412.581ZM412.581 182.807V178.807H389.143V182.807V186.807H412.581V182.807ZM389.143 182.807H385.143V198.432H389.143H393.143V182.807H389.143ZM389.143 198.432V202.432H420.393V198.432V194.432H389.143V198.432ZM420.393 198.432H416.393V206.245H420.393H424.393V198.432H420.393ZM420.393 206.245V202.245H381.331V206.245V210.245H420.393V206.245ZM381.331 206.245H385.331V151.557H381.331H377.331V206.245H381.331ZM381.331 151.557V155.557H420.393V151.557V147.557H381.331V151.557ZM437.618 159.37V155.37H433.618V159.37H437.618ZM437.618 174.995H433.618V178.995H437.618V174.995ZM457.149 174.995V178.995H461.149V174.995H457.149ZM457.149 171.089V167.089H453.149V171.089H457.149ZM461.056 171.089V175.089H465.056V171.089H461.056ZM461.056 163.276H465.056V159.276H461.056V163.276ZM457.149 163.276H453.149V167.276H457.149V163.276ZM457.149 159.37H461.149V155.37H457.149V159.37ZM441.524 182.807H445.524V178.807H441.524V182.807ZM437.618 182.807V178.807H433.618V182.807H437.618ZM437.618 206.245V210.245H441.618V206.245H437.618ZM429.806 206.245H425.806V210.245H429.806V206.245ZM429.806 151.557V147.557H425.806V151.557H429.806ZM461.056 151.557H465.056V147.557H461.056V151.557ZM461.056 155.464H457.056V159.464H461.056V155.464ZM464.962 155.464H468.962V151.464H464.962V155.464ZM464.962 159.37H460.962V163.37H464.962V159.37ZM468.868 159.37H472.868V155.37H468.868V159.37ZM468.868 174.995V178.995H472.868V174.995H468.868ZM464.962 174.995V170.995H460.962V174.995H464.962ZM464.962 178.901V182.901H468.962V178.901H464.962ZM461.056 178.901V174.901H457.056V178.901H461.056ZM461.056 182.807V186.807H465.056V182.807H461.056ZM453.243 182.807V178.807H449.243V182.807H453.243ZM453.243 186.714H449.243V190.714H453.243V186.714ZM457.149 186.714H461.149V182.714H457.149V186.714ZM457.149 190.62H453.149V194.62H457.149V190.62ZM461.056 190.62H465.056V186.62H461.056V190.62ZM461.056 194.526H457.056V198.526H461.056V194.526ZM464.962 194.526H468.962V190.526H464.962V194.526ZM464.962 198.432H460.962V202.432H464.962V198.432ZM468.868 198.432H472.868V194.432H468.868V198.432ZM468.868 206.245V210.245H472.868V206.245H468.868ZM461.056 206.245H457.056V210.245H461.056V206.245ZM461.056 202.339H465.056V198.339H461.056V202.339ZM457.149 202.339H453.149V206.339H457.149V202.339ZM457.149 198.432H461.149V194.432H457.149V198.432ZM453.243 198.432H449.243V202.432H453.243V198.432ZM453.243 194.526H457.243V190.526H453.243V194.526ZM449.337 194.526H445.337V198.526H449.337V194.526ZM449.337 190.62H453.337V186.62H449.337V190.62ZM445.431 190.62H441.431V194.62H445.431V190.62ZM445.431 186.714H449.431V182.714H445.431V186.714ZM441.524 186.714H437.524V190.714H441.524V186.714ZM437.618 159.37H433.618V174.995H437.618H441.618V159.37H437.618ZM437.618 174.995V178.995H457.149V174.995V170.995H437.618V174.995ZM457.149 174.995H461.149V171.089H457.149H453.149V174.995H457.149ZM457.149 171.089V175.089H461.056V171.089V167.089H457.149V171.089ZM461.056 171.089H465.056V163.276H461.056H457.056V171.089H461.056ZM461.056 163.276V159.276H457.149V163.276V167.276H461.056V163.276ZM457.149 163.276H461.149V159.37H457.149H453.149V163.276H457.149ZM457.149 159.37V155.37H437.618V159.37V163.37H457.149V159.37ZM441.524 182.807V178.807H437.618V182.807V186.807H441.524V182.807ZM437.618 182.807H433.618V206.245H437.618H441.618V182.807H437.618ZM437.618 206.245V202.245H429.806V206.245V210.245H437.618V206.245ZM429.806 206.245H433.806V151.557H429.806H425.806V206.245H429.806ZM429.806 151.557V155.557H461.056V151.557V147.557H429.806V151.557ZM461.056 151.557H457.056V155.464H461.056H465.056V151.557H461.056ZM461.056 155.464V159.464H464.962V155.464V151.464H461.056V155.464ZM464.962 155.464H460.962V159.37H464.962H468.962V155.464H464.962ZM464.962 159.37V163.37H468.868V159.37V155.37H464.962V159.37ZM468.868 159.37H464.868V174.995H468.868H472.868V159.37H468.868ZM468.868 174.995V170.995H464.962V174.995V178.995H468.868V174.995ZM464.962 174.995H460.962V178.901H464.962H468.962V174.995H464.962ZM464.962 178.901V174.901H461.056V178.901V182.901H464.962V178.901ZM461.056 178.901H457.056V182.807H461.056H465.056V178.901H461.056ZM461.056 182.807V178.807H453.243V182.807V186.807H461.056V182.807ZM453.243 182.807H449.243V186.714H453.243H457.243V182.807H453.243ZM453.243 186.714V190.714H457.149V186.714V182.714H453.243V186.714ZM457.149 186.714H453.149V190.62H457.149H461.149V186.714H457.149ZM457.149 190.62V194.62H461.056V190.62V186.62H457.149V190.62ZM461.056 190.62H457.056V194.526H461.056H465.056V190.62H461.056ZM461.056 194.526V198.526H464.962V194.526V190.526H461.056V194.526ZM464.962 194.526H460.962V198.432H464.962H468.962V194.526H464.962ZM464.962 198.432V202.432H468.868V198.432V194.432H464.962V198.432ZM468.868 198.432H464.868V206.245H468.868H472.868V198.432H468.868ZM468.868 206.245V202.245H461.056V206.245V210.245H468.868V206.245ZM461.056 206.245H465.056V202.339H461.056H457.056V206.245H461.056ZM461.056 202.339V198.339H457.149V202.339V206.339H461.056V202.339ZM457.149 202.339H461.149V198.432H457.149H453.149V202.339H457.149ZM457.149 198.432V194.432H453.243V198.432V202.432H457.149V198.432ZM453.243 198.432H457.243V194.526H453.243H449.243V198.432H453.243ZM453.243 194.526V190.526H449.337V194.526V198.526H453.243V194.526ZM449.337 194.526H453.337V190.62H449.337H445.337V194.526H449.337ZM449.337 190.62V186.62H445.431V190.62V194.62H449.337V190.62ZM445.431 190.62H449.431V186.714H445.431H441.431V190.62H445.431ZM445.431 186.714V182.714H441.524V186.714V190.714H445.431V186.714ZM441.524 186.714H445.524V182.807H441.524H437.524V186.714H441.524ZM486.093 174.995H482.093V178.995H486.093V174.995ZM505.624 174.995V178.995H509.624V174.995H505.624ZM505.624 171.089V167.089H501.624V171.089H505.624ZM509.531 171.089V175.089H513.531V171.089H509.531ZM509.531 163.276H513.531V159.276H509.531V163.276ZM505.624 163.276H501.624V167.276H505.624V163.276ZM505.624 159.37H509.624V155.37H505.624V159.37ZM486.093 159.37V155.37H482.093V159.37H486.093ZM478.281 206.245H474.281V210.245H478.281V206.245ZM478.281 151.557V147.557H474.281V151.557H478.281ZM509.531 151.557H513.531V147.557H509.531V151.557ZM509.531 155.464H505.531V159.464H509.531V155.464ZM513.437 155.464H517.437V151.464H513.437V155.464ZM513.437 159.37H509.437V163.37H513.437V159.37ZM517.343 159.37H521.343V155.37H517.343V159.37ZM517.343 174.995V178.995H521.343V174.995H517.343ZM513.437 174.995V170.995H509.437V174.995H513.437ZM513.437 182.807H509.437V186.807H513.437V182.807ZM517.343 182.807H521.343V178.807H517.343V182.807ZM517.343 198.432V202.432H521.343V198.432H517.343ZM513.437 198.432V194.432H509.437V198.432H513.437ZM513.437 202.339V206.339H517.437V202.339H513.437ZM509.531 202.339V198.339H505.531V202.339H509.531ZM509.531 206.245V210.245H513.531V206.245H509.531ZM486.093 198.432H482.093V202.432H486.093V198.432ZM505.624 198.432V202.432H509.624V198.432H505.624ZM505.624 194.526V190.526H501.624V194.526H505.624ZM509.531 194.526V198.526H513.531V194.526H509.531ZM509.531 186.714H513.531V182.714H509.531V186.714ZM505.624 186.714H501.624V190.714H505.624V186.714ZM505.624 182.807H509.624V178.807H505.624V182.807ZM486.093 182.807V178.807H482.093V182.807H486.093ZM486.093 174.995V178.995H505.624V174.995V170.995H486.093V174.995ZM505.624 174.995H509.624V171.089H505.624H501.624V174.995H505.624ZM505.624 171.089V175.089H509.531V171.089V167.089H505.624V171.089ZM509.531 171.089H513.531V163.276H509.531H505.531V171.089H509.531ZM509.531 163.276V159.276H505.624V163.276V167.276H509.531V163.276ZM505.624 163.276H509.624V159.37H505.624H501.624V163.276H505.624ZM505.624 159.37V155.37H486.093V159.37V163.37H505.624V159.37ZM486.093 159.37H482.093V174.995H486.093H490.093V159.37H486.093ZM478.281 206.245H482.281V151.557H478.281H474.281V206.245H478.281ZM478.281 151.557V155.557H509.531V151.557V147.557H478.281V151.557ZM509.531 151.557H505.531V155.464H509.531H513.531V151.557H509.531ZM509.531 155.464V159.464H513.437V155.464V151.464H509.531V155.464ZM513.437 155.464H509.437V159.37H513.437H517.437V155.464H513.437ZM513.437 159.37V163.37H517.343V159.37V155.37H513.437V159.37ZM517.343 159.37H513.343V174.995H517.343H521.343V159.37H517.343ZM517.343 174.995V170.995H513.437V174.995V178.995H517.343V174.995ZM513.437 174.995H509.437V182.807H513.437H517.437V174.995H513.437ZM513.437 182.807V186.807H517.343V182.807V178.807H513.437V182.807ZM517.343 182.807H513.343V198.432H517.343H521.343V182.807H517.343ZM517.343 198.432V194.432H513.437V198.432V202.432H517.343V198.432ZM513.437 198.432H509.437V202.339H513.437H517.437V198.432H513.437ZM513.437 202.339V198.339H509.531V202.339V206.339H513.437V202.339ZM509.531 202.339H505.531V206.245H509.531H513.531V202.339H509.531ZM509.531 206.245V202.245H478.281V206.245V210.245H509.531V206.245ZM486.093 198.432V202.432H505.624V198.432V194.432H486.093V198.432ZM505.624 198.432H509.624V194.526H505.624H501.624V198.432H505.624ZM505.624 194.526V198.526H509.531V194.526V190.526H505.624V194.526ZM509.531 194.526H513.531V186.714H509.531H505.531V194.526H509.531ZM509.531 186.714V182.714H505.624V186.714V190.714H509.531V186.714ZM505.624 186.714H509.624V182.807H505.624H501.624V186.714H505.624ZM505.624 182.807V178.807H486.093V182.807V186.807H505.624V182.807ZM486.093 182.807H482.093V198.432H486.093H490.093V182.807H486.093ZM554.099 159.37H558.099V155.37H554.099V159.37ZM538.474 159.37V155.37H534.474V159.37H538.474ZM538.474 163.276V167.276H542.474V163.276H538.474ZM534.568 163.276V159.276H530.568V163.276H534.568ZM534.568 194.526H530.568V198.526H534.568V194.526ZM538.474 194.526H542.474V190.526H538.474V194.526ZM538.474 198.432H534.474V202.432H538.474V198.432ZM554.099 198.432V202.432H558.099V198.432H554.099ZM554.099 194.526V190.526H550.099V194.526H554.099ZM558.006 194.526V198.526H562.006V194.526H558.006ZM558.006 163.276H562.006V159.276H558.006V163.276ZM554.099 163.276H550.099V167.276H554.099V163.276ZM534.568 155.464V159.464H538.568V155.464H534.568ZM534.568 151.557V147.557H530.568V151.557H534.568ZM558.006 151.557H562.006V147.557H558.006V151.557ZM558.006 155.464H554.006V159.464H558.006V155.464ZM561.912 155.464H565.912V151.464H561.912V155.464ZM561.912 159.37H557.912V163.37H561.912V159.37ZM565.818 159.37H569.818V155.37H565.818V159.37ZM565.818 198.432V202.432H569.818V198.432H565.818ZM561.912 198.432V194.432H557.912V198.432H561.912ZM561.912 202.339V206.339H565.912V202.339H561.912ZM558.006 202.339V198.339H554.006V202.339H558.006ZM558.006 206.245V210.245H562.006V206.245H558.006ZM534.568 206.245H530.568V210.245H534.568V206.245ZM534.568 202.339H538.568V198.339H534.568V202.339ZM530.662 202.339H526.662V206.339H530.662V202.339ZM530.662 198.432H534.662V194.432H530.662V198.432ZM526.756 198.432H522.756V202.432H526.756V198.432ZM526.756 159.37V155.37H522.756V159.37H526.756ZM530.662 159.37V163.37H534.662V159.37H530.662ZM530.662 155.464V151.464H526.662V155.464H530.662ZM554.099 159.37V155.37H538.474V159.37V163.37H554.099V159.37ZM538.474 159.37H534.474V163.276H538.474H542.474V159.37H538.474ZM538.474 163.276V159.276H534.568V163.276V167.276H538.474V163.276ZM534.568 163.276H530.568V194.526H534.568H538.568V163.276H534.568ZM534.568 194.526V198.526H538.474V194.526V190.526H534.568V194.526ZM538.474 194.526H534.474V198.432H538.474H542.474V194.526H538.474ZM538.474 198.432V202.432H554.099V198.432V194.432H538.474V198.432ZM554.099 198.432H558.099V194.526H554.099H550.099V198.432H554.099ZM554.099 194.526V198.526H558.006V194.526V190.526H554.099V194.526ZM558.006 194.526H562.006V163.276H558.006H554.006V194.526H558.006ZM558.006 163.276V159.276H554.099V163.276V167.276H558.006V163.276ZM554.099 163.276H558.099V159.37H554.099H550.099V163.276H554.099ZM534.568 155.464H538.568V151.557H534.568H530.568V155.464H534.568ZM534.568 151.557V155.557H558.006V151.557V147.557H534.568V151.557ZM558.006 151.557H554.006V155.464H558.006H562.006V151.557H558.006ZM558.006 155.464V159.464H561.912V155.464V151.464H558.006V155.464ZM561.912 155.464H557.912V159.37H561.912H565.912V155.464H561.912ZM561.912 159.37V163.37H565.818V159.37V155.37H561.912V159.37ZM565.818 159.37H561.818V198.432H565.818H569.818V159.37H565.818ZM565.818 198.432V194.432H561.912V198.432V202.432H565.818V198.432ZM561.912 198.432H557.912V202.339H561.912H565.912V198.432H561.912ZM561.912 202.339V198.339H558.006V202.339V206.339H561.912V202.339ZM558.006 202.339H554.006V206.245H558.006H562.006V202.339H558.006ZM558.006 206.245V202.245H534.568V206.245V210.245H558.006V206.245ZM534.568 206.245H538.568V202.339H534.568H530.568V206.245H534.568ZM534.568 202.339V198.339H530.662V202.339V206.339H534.568V202.339ZM530.662 202.339H534.662V198.432H530.662H526.662V202.339H530.662ZM530.662 198.432V194.432H526.756V198.432V202.432H530.662V198.432ZM526.756 198.432H530.756V159.37H526.756H522.756V198.432H526.756ZM526.756 159.37V163.37H530.662V159.37V155.37H526.756V159.37ZM530.662 159.37H534.662V155.464H530.662H526.662V159.37H530.662ZM530.662 155.464V159.464H534.568V155.464V151.464H530.662V155.464ZM583.043 182.807H579.043V186.807H583.043V182.807ZM606.481 182.807V186.807H610.481V182.807H606.481ZM606.481 171.089H610.481V167.089H606.481V171.089ZM602.574 171.089H598.574V175.089H602.574V171.089ZM602.574 167.182H606.574V163.182H602.574V167.182ZM598.668 167.182H594.668V171.182H598.668V167.182ZM598.668 163.276H602.668V159.276H598.668V163.276ZM590.856 163.276V159.276H586.856V163.276H590.856ZM590.856 167.182V171.182H594.856V167.182H590.856ZM586.949 167.182V163.182H582.949V167.182H586.949ZM586.949 171.089V175.089H590.949V171.089H586.949ZM583.043 171.089V167.089H579.043V171.089H583.043ZM583.043 206.245V210.245H587.043V206.245H583.043ZM575.231 206.245H571.231V210.245H575.231V206.245ZM575.231 167.182V163.182H571.231V167.182H575.231ZM579.137 167.182V171.182H583.137V167.182H579.137ZM579.137 163.276V159.276H575.137V163.276H579.137ZM583.043 163.276V167.276H587.043V163.276H583.043ZM583.043 159.37V155.37H579.043V159.37H583.043ZM586.949 159.37V163.37H590.949V159.37H586.949ZM586.949 155.464V151.464H582.949V155.464H586.949ZM590.856 155.464V159.464H594.856V155.464H590.856ZM590.856 151.557V147.557H586.856V151.557H590.856ZM598.668 151.557H602.668V147.557H598.668V151.557ZM598.668 155.464H594.668V159.464H598.668V155.464ZM602.574 155.464H606.574V151.464H602.574V155.464ZM602.574 159.37H598.574V163.37H602.574V159.37ZM606.481 159.37H610.481V155.37H606.481V159.37ZM606.481 163.276H602.481V167.276H606.481V163.276ZM610.387 163.276H614.387V159.276H610.387V163.276ZM610.387 167.182H606.387V171.182H610.387V167.182ZM614.293 167.182H618.293V163.182H614.293V167.182ZM614.293 206.245V210.245H618.293V206.245H614.293ZM606.481 206.245H602.481V210.245H606.481V206.245ZM606.481 190.62H610.481V186.62H606.481V190.62ZM583.043 190.62V186.62H579.043V190.62H583.043ZM583.043 182.807V186.807H606.481V182.807V178.807H583.043V182.807ZM606.481 182.807H610.481V171.089H606.481H602.481V182.807H606.481ZM606.481 171.089V167.089H602.574V171.089V175.089H606.481V171.089ZM602.574 171.089H606.574V167.182H602.574H598.574V171.089H602.574ZM602.574 167.182V163.182H598.668V167.182V171.182H602.574V167.182ZM598.668 167.182H602.668V163.276H598.668H594.668V167.182H598.668ZM598.668 163.276V159.276H590.856V163.276V167.276H598.668V163.276ZM590.856 163.276H586.856V167.182H590.856H594.856V163.276H590.856ZM590.856 167.182V163.182H586.949V167.182V171.182H590.856V167.182ZM586.949 167.182H582.949V171.089H586.949H590.949V167.182H586.949ZM586.949 171.089V167.089H583.043V171.089V175.089H586.949V171.089ZM583.043 171.089H579.043V182.807H583.043H587.043V171.089H583.043ZM583.043 206.245V202.245H575.231V206.245V210.245H583.043V206.245ZM575.231 206.245H579.231V167.182H575.231H571.231V206.245H575.231ZM575.231 167.182V171.182H579.137V167.182V163.182H575.231V167.182ZM579.137 167.182H583.137V163.276H579.137H575.137V167.182H579.137ZM579.137 163.276V167.276H583.043V163.276V159.276H579.137V163.276ZM583.043 163.276H587.043V159.37H583.043H579.043V163.276H583.043ZM583.043 159.37V163.37H586.949V159.37V155.37H583.043V159.37ZM586.949 159.37H590.949V155.464H586.949H582.949V159.37H586.949ZM586.949 155.464V159.464H590.856V155.464V151.464H586.949V155.464ZM590.856 155.464H594.856V151.557H590.856H586.856V155.464H590.856ZM590.856 151.557V155.557H598.668V151.557V147.557H590.856V151.557ZM598.668 151.557H594.668V155.464H598.668H602.668V151.557H598.668ZM598.668 155.464V159.464H602.574V155.464V151.464H598.668V155.464ZM602.574 155.464H598.574V159.37H602.574H606.574V155.464H602.574ZM602.574 159.37V163.37H606.481V159.37V155.37H602.574V159.37ZM606.481 159.37H602.481V163.276H606.481H610.481V159.37H606.481ZM606.481 163.276V167.276H610.387V163.276V159.276H606.481V163.276ZM610.387 163.276H606.387V167.182H610.387H614.387V163.276H610.387ZM610.387 167.182V171.182H614.293V167.182V163.182H610.387V167.182ZM614.293 167.182H610.293V206.245H614.293H618.293V167.182H614.293ZM614.293 206.245V202.245H606.481V206.245V210.245H614.293V206.245ZM606.481 206.245H610.481V190.62H606.481H602.481V206.245H606.481ZM606.481 190.62V186.62H583.043V190.62V194.62H606.481V190.62ZM583.043 190.62H579.043V206.245H583.043H587.043V190.62H583.043ZM631.518 159.37V155.37H627.518V159.37H631.518ZM631.518 174.995H627.518V178.995H631.518V174.995ZM651.049 174.995V178.995H655.049V174.995H651.049ZM651.049 171.089V167.089H647.049V171.089H651.049ZM654.956 171.089V175.089H658.956V171.089H654.956ZM654.956 163.276H658.956V159.276H654.956V163.276ZM651.049 163.276H647.049V167.276H651.049V163.276ZM651.049 159.37H655.049V155.37H651.049V159.37ZM635.424 182.807H639.424V178.807H635.424V182.807ZM631.518 182.807V178.807H627.518V182.807H631.518ZM631.518 206.245V210.245H635.518V206.245H631.518ZM623.706 206.245H619.706V210.245H623.706V206.245ZM623.706 151.557V147.557H619.706V151.557H623.706ZM654.956 151.557H658.956V147.557H654.956V151.557ZM654.956 155.464H650.956V159.464H654.956V155.464ZM658.862 155.464H662.862V151.464H658.862V155.464ZM658.862 159.37H654.862V163.37H658.862V159.37ZM662.768 159.37H666.768V155.37H662.768V159.37ZM662.768 174.995V178.995H666.768V174.995H662.768ZM658.862 174.995V170.995H654.862V174.995H658.862ZM658.862 178.901V182.901H662.862V178.901H658.862ZM654.956 178.901V174.901H650.956V178.901H654.956ZM654.956 182.807V186.807H658.956V182.807H654.956ZM647.143 182.807V178.807H643.143V182.807H647.143ZM647.143 186.714H643.143V190.714H647.143V186.714ZM651.049 186.714H655.049V182.714H651.049V186.714ZM651.049 190.62H647.049V194.62H651.049V190.62ZM654.956 190.62H658.956V186.62H654.956V190.62ZM654.956 194.526H650.956V198.526H654.956V194.526ZM658.862 194.526H662.862V190.526H658.862V194.526ZM658.862 198.432H654.862V202.432H658.862V198.432ZM662.768 198.432H666.768V194.432H662.768V198.432ZM662.768 206.245V210.245H666.768V206.245H662.768ZM654.956 206.245H650.956V210.245H654.956V206.245ZM654.956 202.339H658.956V198.339H654.956V202.339ZM651.049 202.339H647.049V206.339H651.049V202.339ZM651.049 198.432H655.049V194.432H651.049V198.432ZM647.143 198.432H643.143V202.432H647.143V198.432ZM647.143 194.526H651.143V190.526H647.143V194.526ZM643.237 194.526H639.237V198.526H643.237V194.526ZM643.237 190.62H647.237V186.62H643.237V190.62ZM639.331 190.62H635.331V194.62H639.331V190.62ZM639.331 186.714H643.331V182.714H639.331V186.714ZM635.424 186.714H631.424V190.714H635.424V186.714ZM631.518 159.37H627.518V174.995H631.518H635.518V159.37H631.518ZM631.518 174.995V178.995H651.049V174.995V170.995H631.518V174.995ZM651.049 174.995H655.049V171.089H651.049H647.049V174.995H651.049ZM651.049 171.089V175.089H654.956V171.089V167.089H651.049V171.089ZM654.956 171.089H658.956V163.276H654.956H650.956V171.089H654.956ZM654.956 163.276V159.276H651.049V163.276V167.276H654.956V163.276ZM651.049 163.276H655.049V159.37H651.049H647.049V163.276H651.049ZM651.049 159.37V155.37H631.518V159.37V163.37H651.049V159.37ZM635.424 182.807V178.807H631.518V182.807V186.807H635.424V182.807ZM631.518 182.807H627.518V206.245H631.518H635.518V182.807H631.518ZM631.518 206.245V202.245H623.706V206.245V210.245H631.518V206.245ZM623.706 206.245H627.706V151.557H623.706H619.706V206.245H623.706ZM623.706 151.557V155.557H654.956V151.557V147.557H623.706V151.557ZM654.956 151.557H650.956V155.464H654.956H658.956V151.557H654.956ZM654.956 155.464V159.464H658.862V155.464V151.464H654.956V155.464ZM658.862 155.464H654.862V159.37H658.862H662.862V155.464H658.862ZM658.862 159.37V163.37H662.768V159.37V155.37H658.862V159.37ZM662.768 159.37H658.768V174.995H662.768H666.768V159.37H662.768ZM662.768 174.995V170.995H658.862V174.995V178.995H662.768V174.995ZM658.862 174.995H654.862V178.901H658.862H662.862V174.995H658.862ZM658.862 178.901V174.901H654.956V178.901V182.901H658.862V178.901ZM654.956 178.901H650.956V182.807H654.956H658.956V178.901H654.956ZM654.956 182.807V178.807H647.143V182.807V186.807H654.956V182.807ZM647.143 182.807H643.143V186.714H647.143H651.143V182.807H647.143ZM647.143 186.714V190.714H651.049V186.714V182.714H647.143V186.714ZM651.049 186.714H647.049V190.62H651.049H655.049V186.714H651.049ZM651.049 190.62V194.62H654.956V190.62V186.62H651.049V190.62ZM654.956 190.62H650.956V194.526H654.956H658.956V190.62H654.956ZM654.956 194.526V198.526H658.862V194.526V190.526H654.956V194.526ZM658.862 194.526H654.862V198.432H658.862H662.862V194.526H658.862ZM658.862 198.432V202.432H662.768V198.432V194.432H658.862V198.432ZM662.768 198.432H658.768V206.245H662.768H666.768V198.432H662.768ZM662.768 206.245V202.245H654.956V206.245V210.245H662.768V206.245ZM654.956 206.245H658.956V202.339H654.956H650.956V206.245H654.956ZM654.956 202.339V198.339H651.049V202.339V206.339H654.956V202.339ZM651.049 202.339H655.049V198.432H651.049H647.049V202.339H651.049ZM651.049 198.432V194.432H647.143V198.432V202.432H651.049V198.432ZM647.143 198.432H651.143V194.526H647.143H643.143V198.432H647.143ZM647.143 194.526V190.526H643.237V194.526V198.526H647.143V194.526ZM643.237 194.526H647.237V190.62H643.237H639.237V194.526H643.237ZM643.237 190.62V186.62H639.331V190.62V194.62H643.237V190.62ZM639.331 190.62H643.331V186.714H639.331H635.331V190.62H639.331ZM639.331 186.714V182.714H635.424V186.714V190.714H639.331V186.714ZM635.424 186.714H639.424V182.807H635.424H631.424V186.714H635.424ZM679.993 159.37V155.37H675.993V159.37H679.993ZM679.993 198.432H675.993V202.432H679.993V198.432ZM699.524 198.432V202.432H703.524V198.432H699.524ZM699.524 194.526V190.526H695.524V194.526H699.524ZM703.431 194.526V198.526H707.431V194.526H703.431ZM703.431 163.276H707.431V159.276H703.431V163.276ZM699.524 163.276H695.524V167.276H699.524V163.276ZM699.524 159.37H703.524V155.37H699.524V159.37ZM672.181 206.245H668.181V210.245H672.181V206.245ZM672.181 151.557V147.557H668.181V151.557H672.181ZM703.431 151.557H707.431V147.557H703.431V151.557ZM703.431 155.464H699.431V159.464H703.431V155.464ZM707.337 155.464H711.337V151.464H707.337V155.464ZM707.337 159.37H703.337V163.37H707.337V159.37ZM711.243 159.37H715.243V155.37H711.243V159.37ZM711.243 198.432V202.432H715.243V198.432H711.243ZM707.337 198.432V194.432H703.337V198.432H707.337ZM707.337 202.339V206.339H711.337V202.339H707.337ZM703.431 202.339V198.339H699.431V202.339H703.431ZM703.431 206.245V210.245H707.431V206.245H703.431ZM679.993 159.37H675.993V198.432H679.993H683.993V159.37H679.993ZM679.993 198.432V202.432H699.524V198.432V194.432H679.993V198.432ZM699.524 198.432H703.524V194.526H699.524H695.524V198.432H699.524ZM699.524 194.526V198.526H703.431V194.526V190.526H699.524V194.526ZM703.431 194.526H707.431V163.276H703.431H699.431V194.526H703.431ZM703.431 163.276V159.276H699.524V163.276V167.276H703.431V163.276ZM699.524 163.276H703.524V159.37H699.524H695.524V163.276H699.524ZM699.524 159.37V155.37H679.993V159.37V163.37H699.524V159.37ZM672.181 206.245H676.181V151.557H672.181H668.181V206.245H672.181ZM672.181 151.557V155.557H703.431V151.557V147.557H672.181V151.557ZM703.431 151.557H699.431V155.464H703.431H707.431V151.557H703.431ZM703.431 155.464V159.464H707.337V155.464V151.464H703.431V155.464ZM707.337 155.464H703.337V159.37H707.337H711.337V155.464H707.337ZM707.337 159.37V163.37H711.243V159.37V155.37H707.337V159.37ZM711.243 159.37H707.243V198.432H711.243H715.243V159.37H711.243ZM711.243 198.432V194.432H707.337V198.432V202.432H711.243V198.432ZM707.337 198.432H703.337V202.339H707.337H711.337V198.432H707.337ZM707.337 202.339V198.339H703.431V202.339V206.339H707.337V202.339ZM703.431 202.339H699.431V206.245H703.431H707.431V202.339H703.431ZM703.431 206.245V202.245H672.181V206.245V210.245H703.431V206.245Z" fill="black" mask="url(#path-57-outside-1_259_39127)"/>
<path d="M464.425 9.67816L458.496 4.16811L450.949 3.86865L446.398 8.42043L444.062 17.524L438.432 22.7346L436.635 29.3826L410.822 32.0777L405.611 35.0124L401.958 42.1395L409.325 49.626L416.751 57.2322L421.603 62.2033L423.459 72.1453L419.327 75.7987L417.23 97.8988H431.365L435.198 93.6464L444.96 91.2508L448.913 85.8605L459.514 84.1236L463.227 90.0529L472.091 91.2508L476.883 96.7009L492.035 97.8988L491.736 76.8767L485.926 72.5645L485.028 65.6171L492.035 57.2322L499.222 51.2431L504.373 44.4753L505.571 37.1086L500.54 32.4969L473.469 31.2392L470.115 22.7346L467.18 18.8416L464.425 9.67816Z" fill="#FFEF2C"/>
<rect width="6.65155" height="6.79514" transform="matrix(-1 0 0 1 413.84 47.4402)" fill="black"/>
<rect width="6.82769" height="6.97509" transform="matrix(-1 0 0 1 420.667 54.2354)" fill="black"/>
<rect x="461.85" y="87.7659" width="13.3858" height="6.97509" fill="black"/>
<rect x="448.464" y="80.791" width="13.3858" height="6.97509" fill="black"/>
<rect x="488.741" y="61.0952" width="13.5009" height="7.03505" transform="rotate(90 488.741 61.0952)" fill="black"/>
<rect x="495.717" y="74.5969" width="26.7763" height="6.97509" transform="rotate(90 495.717 74.5969)" fill="black"/>
<rect width="13.3858" height="6.97509" transform="matrix(4.37114e-08 1 1 -4.37114e-08 400.307 34.0627)" fill="black"/>
<rect x="475.473" y="20.5193" width="13.544" height="6.97509" transform="rotate(90 475.473 20.5193)" fill="black"/>
<rect width="13.544" height="6.97509" transform="matrix(4.37114e-08 1 1 -4.37114e-08 433.936 20.5193)" fill="black"/>
<rect x="468.498" y="6.9751" width="13.544" height="6.97509" transform="rotate(90 468.498 6.9751)" fill="black"/>
<rect width="13.544" height="6.97509" transform="matrix(4.37114e-08 1 1 -4.37114e-08 440.911 6.9751)" fill="black"/>
<rect x="461.523" y="6.9751" width="13.544" height="6.97509" transform="rotate(-180 461.523 6.9751)" fill="black"/>
<rect width="13.544" height="6.97509" transform="matrix(1 -8.74228e-08 -8.74228e-08 -1 447.886 6.9751)" fill="black"/>
<rect width="33.6292" height="6.97509" transform="matrix(1 -8.74228e-08 -8.74228e-08 -1 407.282 34.0547)" fill="black"/>
<path d="M447.559 80.7908L461.446 80.7908L461.446 87.8956L475.204 87.8956L475.204 95.0481L488.741 95.0481L488.741 80.7908L488.741 74.5969L482.133 74.5969L482.133 61.0465L464.197 61.0465L464.197 74.5969L447.559 74.5969L447.559 80.7908Z" fill="#F7C50F"/>
<path d="M424.185 40.1351L438.072 40.1351L438.072 47.2398L451.83 47.2398L451.83 54.3923L465.367 54.3923L465.367 40.1351L465.367 33.9412L458.759 33.9412L458.759 20.3908L440.823 20.3908L440.823 33.9412L424.185 33.9412L424.185 40.1351Z" fill="#FFF9B1"/>
<path d="M481.892 95.0481L488.912 95.0481L488.912 74.6417L481.892 74.6417L481.892 87.8957L475.036 87.8957L475.036 95.0481L481.892 95.0481Z" fill="#FEA201"/>
<path d="M471.163 37.3067H465.548V32.2971H454.658V37.6697H460.006V43.2602H465.548V49.2136H471.163V37.3067Z" fill="white"/>
<rect x="475.036" y="94.7412" width="20.5331" height="6.97509" fill="black"/>
<path d="M484.334 34.0547H509.067V47.2918H501.995V54.1692H495.447V61.2103H475.39V54.1692H484.334V34.0547Z" fill="#F7C50F"/>
<path d="M447.559 94.495H420.667V87.7857H434.113L434.113 81.2578H447.559V94.495Z" fill="#F7C50F"/>
<rect x="495.569" y="47.4402" width="6.65155" height="6.79514" fill="black"/>
<rect x="488.741" y="54.2354" width="6.82769" height="6.97509" fill="black"/>
<rect x="509.195" y="34.0547" width="13.3858" height="6.97509" transform="rotate(90 509.195 34.0547)" fill="black"/>
<rect x="502.221" y="34.0547" width="33.7226" height="6.97509" transform="rotate(-180 502.221 34.0547)" fill="black"/>
<rect x="482.81" y="84.8447" width="4.82832" height="6.72733" fill="white"/>
<rect x="494.066" y="37.3916" width="4.82832" height="6.72733" fill="white"/>
<rect width="13.3858" height="6.97509" transform="matrix(-1 0 0 1 447.559 87.7659)" fill="black"/>
<rect width="20.3333" height="6.97509" transform="matrix(-1 0 0 1 434.173 94.7412)" fill="black"/>
<rect width="26.7763" height="6.97509" transform="matrix(4.37114e-08 1 1 -4.37114e-08 413.692 74.5969)" fill="black"/>
<rect width="13.5009" height="7.03505" transform="matrix(4.37114e-08 1 1 -4.37114e-08 420.667 61.0952)" fill="black"/>
<rect width="14.2911" height="6.97509" transform="matrix(-1 0 0 1 461.85 80.791)" fill="black"/>
<path d="M564.989 37.5742L560.599 33.4949L555.012 33.2732L551.642 36.643L549.913 43.3827L545.745 47.2403L544.415 52.162L525.305 54.1573L521.447 56.33L518.742 61.6065L524.196 67.149L529.694 72.7801L533.286 76.4604L534.66 83.8208L531.601 86.5255L530.049 102.887H540.513L543.351 99.7389L550.578 97.9653L553.505 93.9747L561.353 92.6888L564.102 97.0785L570.664 97.9653L574.212 102L585.43 102.887L585.208 87.3237L580.907 84.1312L580.242 78.9877L585.43 72.7801L590.75 68.3461L594.564 63.3357L595.45 57.8819L591.726 54.4677L571.684 53.5366L569.201 47.2403L567.028 44.3582L564.989 37.5742Z" fill="#FFEF2C"/>
<rect width="4.92437" height="5.03068" transform="matrix(-1 0 0 1 527.538 65.531)" fill="black"/>
<rect width="5.05478" height="5.1639" transform="matrix(-1 0 0 1 532.594 70.5618)" fill="black"/>
<rect x="563.082" y="95.3857" width="9.91001" height="5.1639" fill="black"/>
<rect x="553.172" y="90.2219" width="9.91001" height="5.1639" fill="black"/>
<rect x="582.991" y="75.6401" width="9.99521" height="5.2083" transform="rotate(90 582.991 75.6401)" fill="black"/>
<rect x="588.155" y="85.6362" width="19.8234" height="5.1639" transform="rotate(90 588.155 85.6362)" fill="black"/>
<rect width="9.91001" height="5.1639" transform="matrix(4.37114e-08 1 1 -4.37114e-08 517.52 55.6274)" fill="black"/>
<rect x="573.168" y="45.6003" width="10.0271" height="5.1639" transform="rotate(90 573.168 45.6003)" fill="black"/>
<rect width="10.0271" height="5.1639" transform="matrix(4.37114e-08 1 1 -4.37114e-08 542.417 45.6006)" fill="black"/>
<rect x="568.004" y="35.573" width="10.0271" height="5.1639" transform="rotate(90 568.004 35.573)" fill="black"/>
<rect width="10.0271" height="5.1639" transform="matrix(4.37114e-08 1 1 -4.37114e-08 547.58 35.573)" fill="black"/>
<rect x="562.841" y="35.573" width="10.0271" height="5.1639" transform="rotate(-180 562.841 35.573)" fill="black"/>
<rect width="10.0271" height="5.1639" transform="matrix(1 -8.74228e-08 -8.74228e-08 -1 552.744 35.573)" fill="black"/>
<rect width="24.8969" height="5.1639" transform="matrix(1 -8.74228e-08 -8.74228e-08 -1 522.684 55.6213)" fill="black"/>
<path d="M552.502 90.222L562.783 90.2219L562.783 95.4819L572.969 95.4819L572.969 100.777L582.991 100.777L582.991 90.2219L582.991 85.6364L578.099 85.6364L578.099 75.6045L564.82 75.6045L564.82 85.6364L552.502 85.6364L552.502 90.222Z" fill="#F7C50F"/>
<path d="M535.197 60.1226L545.479 60.1226L545.479 65.3825L555.664 65.3825L555.664 70.6777L565.686 70.6777L565.686 60.1226L565.686 55.537L560.794 55.537L560.794 45.5052L547.515 45.5052L547.515 55.537L535.197 55.537L535.197 60.1226Z" fill="#FFF9B1"/>
<path d="M577.921 100.777L583.118 100.777L583.118 85.6695L577.921 85.6696L577.921 95.4819L572.845 95.4819V100.777L577.921 100.777Z" fill="#FEA201"/>
<path d="M569.978 58.0286H565.821V54.3198H557.758V58.2974H561.718V62.4362H565.821V66.8437H569.978V58.0286Z" fill="white"/>
<rect x="572.845" y="100.55" width="15.2014" height="5.1639" fill="black"/>
<path d="M579.728 55.6211H598.039V65.421H592.803V70.5126H587.956V75.7254H573.106V70.5126H579.728V55.6211Z" fill="#F7C50F"/>
<path d="M552.502 100.367H532.593V95.4002H542.548L542.548 90.5674H552.502V100.367Z" fill="#F7C50F"/>
<rect x="588.047" y="65.531" width="4.92437" height="5.03068" fill="black"/>
<rect x="582.991" y="70.5618" width="5.05478" height="5.1639" fill="black"/>
<rect x="598.135" y="55.6211" width="9.91001" height="5.1639" transform="rotate(90 598.135 55.6211)" fill="black"/>
<rect x="592.971" y="55.6211" width="24.966" height="5.1639" transform="rotate(-180 592.971 55.6211)" fill="black"/>
<rect x="578.6" y="93.2231" width="3.57458" height="4.98048" fill="white"/>
<rect x="586.934" y="58.0916" width="3.57458" height="4.98048" fill="white"/>
<rect width="9.91001" height="5.1639" transform="matrix(-1 0 0 1 552.502 95.3855)" fill="black"/>
<rect width="15.0534" height="5.1639" transform="matrix(-1 0 0 1 542.592 100.55)" fill="black"/>
<rect width="19.8234" height="5.1639" transform="matrix(4.37114e-08 1 1 -4.37114e-08 527.43 85.6362)" fill="black"/>
<rect width="9.99521" height="5.2083" transform="matrix(4.37114e-08 1 1 -4.37114e-08 532.594 75.6404)" fill="black"/>
<rect width="10.5802" height="5.1639" transform="matrix(-1 0 0 1 563.082 90.2219)" fill="black"/>
<path d="M358.838 40.5014L354.449 36.4221L348.862 36.2004L345.492 39.5703L343.763 46.31L339.595 50.1675L338.265 55.0893L319.154 57.0846L315.297 59.2572L312.592 64.5337L318.046 70.0762L323.544 75.7074L327.135 79.3876L328.51 86.7481L325.45 89.4528L323.898 105.814H334.363L337.201 102.666L344.428 100.893L347.354 96.9019L355.203 95.6161L357.952 100.006L364.514 100.893L368.061 104.927L379.279 105.814L379.057 90.2509L374.756 87.0584L374.091 81.915L379.279 75.7074L384.6 71.2734L388.413 66.263L389.3 60.8091L385.575 57.395L365.534 56.4638L363.051 50.1675L360.878 47.2854L358.838 40.5014Z" fill="#FFEF2C"/>
<rect width="4.92437" height="5.03068" transform="matrix(-1 0 0 1 321.388 68.4583)" fill="black"/>
<rect width="5.05478" height="5.1639" transform="matrix(-1 0 0 1 326.443 73.489)" fill="black"/>
<rect x="356.932" y="98.313" width="9.91001" height="5.1639" fill="black"/>
<rect x="347.021" y="93.1492" width="9.91001" height="5.1639" fill="black"/>
<rect x="376.841" y="78.5674" width="9.99521" height="5.2083" transform="rotate(90 376.841 78.5674)" fill="black"/>
<rect x="382.005" y="88.5635" width="19.8234" height="5.1639" transform="rotate(90 382.005 88.5635)" fill="black"/>
<rect width="9.91001" height="5.1639" transform="matrix(4.37114e-08 1 1 -4.37114e-08 311.369 58.5547)" fill="black"/>
<rect x="367.018" y="48.5276" width="10.0271" height="5.1639" transform="rotate(90 367.018 48.5276)" fill="black"/>
<rect width="10.0271" height="5.1639" transform="matrix(4.37114e-08 1 1 -4.37114e-08 336.267 48.5278)" fill="black"/>
<rect x="361.854" y="38.5002" width="10.0271" height="5.1639" transform="rotate(90 361.854 38.5002)" fill="black"/>
<rect width="10.0271" height="5.1639" transform="matrix(4.37114e-08 1 1 -4.37114e-08 341.43 38.5002)" fill="black"/>
<rect x="356.69" y="38.5002" width="10.0271" height="5.1639" transform="rotate(-180 356.69 38.5002)" fill="black"/>
<rect width="10.0271" height="5.1639" transform="matrix(1 -8.74228e-08 -8.74228e-08 -1 346.594 38.5002)" fill="black"/>
<rect width="24.8969" height="5.1639" transform="matrix(1 -8.74228e-08 -8.74228e-08 -1 316.533 58.5486)" fill="black"/>
<path d="M346.352 93.1492L356.633 93.1492L356.633 98.4091L366.818 98.4091L366.818 103.704L376.841 103.704L376.841 93.1492L376.841 88.5636L371.948 88.5636L371.948 78.5318L358.67 78.5318L358.67 88.5636L346.352 88.5636L346.352 93.1492Z" fill="#F7C50F"/>
<path d="M329.047 63.0498L339.328 63.0498L339.328 68.3097L349.514 68.3097L349.514 73.605L359.536 73.605L359.536 63.0498L359.536 58.4643L354.644 58.4643L354.644 48.4324L341.365 48.4324L341.365 58.4643L329.047 58.4643L329.047 63.0498Z" fill="#FFF9B1"/>
<path d="M371.77 103.704L376.967 103.704L376.967 88.5968L371.77 88.5968L371.77 98.4091L366.694 98.4091V103.704L371.77 103.704Z" fill="#FEA201"/>
<path d="M363.827 60.9559H359.67V57.2471H351.608V61.2246H355.567V65.3634H359.67V69.7709H363.827V60.9559Z" fill="white"/>
<rect x="366.694" y="103.477" width="15.2014" height="5.1639" fill="black"/>
<path d="M373.578 58.5483H391.889V68.3483H386.653V73.4398H381.806V78.6526H366.956V73.4398H373.578V58.5483Z" fill="#F7C50F"/>
<path d="M346.352 103.295H326.443V98.3275H336.397L336.397 93.4946H346.352V103.295Z" fill="#F7C50F"/>
<rect x="381.896" y="68.4583" width="4.92437" height="5.03068" fill="black"/>
<rect x="376.841" y="73.489" width="5.05478" height="5.1639" fill="black"/>
<rect x="391.984" y="58.5483" width="9.91001" height="5.1639" transform="rotate(90 391.984 58.5483)" fill="black"/>
<rect x="386.82" y="58.5483" width="24.966" height="5.1639" transform="rotate(-180 386.82 58.5483)" fill="black"/>
<rect x="372.449" y="96.1504" width="3.57458" height="4.98048" fill="white"/>
<rect x="380.783" y="61.0188" width="3.57458" height="4.98048" fill="white"/>
<rect width="9.91001" height="5.1639" transform="matrix(-1 0 0 1 346.352 98.3127)" fill="black"/>
<rect width="15.0534" height="5.1639" transform="matrix(-1 0 0 1 336.441 103.477)" fill="black"/>
<rect width="19.8234" height="5.1639" transform="matrix(4.37114e-08 1 1 -4.37114e-08 321.279 88.5635)" fill="black"/>
<rect width="9.99521" height="5.2083" transform="matrix(4.37114e-08 1 1 -4.37114e-08 326.443 78.5676)" fill="black"/>
<rect width="10.5802" height="5.1639" transform="matrix(-1 0 0 1 356.932 93.1492)" fill="black"/>
<path d="M269.448 53.8931L265.828 50.5295L261.222 50.3467L258.443 53.1253L257.017 58.6826L253.58 61.8635L252.483 65.9218L236.726 67.567L233.545 69.3585L231.314 73.7093L235.811 78.2795L240.345 82.9228L243.307 85.9574L244.44 92.0265L241.917 94.2568L240.638 107.748H249.266L251.606 105.152L257.565 103.69L259.978 100.399L266.45 99.3388L268.717 102.958L274.128 103.69L277.053 107.017L286.303 107.748L286.12 94.9149L282.573 92.2825L282.025 88.0413L286.303 82.9228L290.69 79.2666L293.834 75.1352L294.565 70.6382L291.494 67.823L274.969 67.0552L272.921 61.8635L271.13 59.487L269.448 53.8931Z" fill="#FFEF2C"/>
<rect width="4.06047" height="4.14813" transform="matrix(-1 0 0 1 238.567 76.9453)" fill="black"/>
<rect width="4.168" height="4.25798" transform="matrix(-1 0 0 1 242.736 81.0935)" fill="black"/>
<rect x="267.876" y="101.562" width="8.17146" height="4.25798" fill="black"/>
<rect x="259.704" y="97.3044" width="8.17146" height="4.25798" fill="black"/>
<rect x="284.293" y="85.281" width="8.24171" height="4.29459" transform="rotate(90 284.293 85.281)" fill="black"/>
<rect x="288.551" y="93.5234" width="16.3457" height="4.25798" transform="rotate(90 288.551 93.5234)" fill="black"/>
<rect width="8.17146" height="4.25798" transform="matrix(4.37114e-08 1 1 -4.37114e-08 230.307 68.7788)" fill="black"/>
<rect x="276.192" y="60.511" width="8.268" height="4.25798" transform="rotate(90 276.192 60.511)" fill="black"/>
<rect width="8.268" height="4.25798" transform="matrix(4.37114e-08 1 1 -4.37114e-08 250.836 60.511)" fill="black"/>
<rect x="271.935" y="52.2429" width="8.268" height="4.25798" transform="rotate(90 271.935 52.2429)" fill="black"/>
<rect width="8.268" height="4.25798" transform="matrix(4.37114e-08 1 1 -4.37114e-08 255.094 52.2429)" fill="black"/>
<rect x="267.677" y="52.2429" width="8.268" height="4.25798" transform="rotate(-180 267.677 52.2429)" fill="black"/>
<rect width="8.268" height="4.25798" transform="matrix(1 -8.74228e-08 -8.74228e-08 -1 259.352 52.2429)" fill="black"/>
<rect width="20.5292" height="4.25798" transform="matrix(1 -8.74228e-08 -8.74228e-08 -1 234.564 68.7742)" fill="black"/>
<path d="M259.152 97.3046L267.63 97.3046L267.63 101.642L276.029 101.642L276.029 106.008L284.293 106.008L284.293 97.3046L284.293 93.5235L280.259 93.5235L280.259 85.2516L269.309 85.2516L269.309 93.5235L259.152 93.5235L259.152 97.3046Z" fill="#F7C50F"/>
<path d="M244.884 72.4858L253.362 72.4858L253.362 76.8229L261.76 76.8229L261.76 81.1892L270.024 81.1892L270.024 72.4858L270.024 68.7047L265.99 68.7047L265.99 60.4328L255.041 60.4328L255.041 68.7047L244.884 68.7047L244.884 72.4858Z" fill="#FFF9B1"/>
<path d="M280.111 106.008L284.397 106.008L284.397 93.5509L280.111 93.5509L280.111 101.642L275.926 101.642V106.008L280.111 106.008Z" fill="#FEA201"/>
<path d="M273.562 70.7593H270.134V67.7012H263.486V70.9809H266.751V74.3936H270.134V78.0279H273.562V70.7593Z" fill="white"/>
<rect x="275.926" y="105.82" width="12.5346" height="4.25798" fill="black"/>
<path d="M281.602 68.7742H296.7V76.8549H292.383V81.0532H288.386V85.3515H276.142V81.0532H281.602V68.7742Z" fill="#F7C50F"/>
<path d="M259.152 105.67H242.736V101.575H250.944V97.5896H259.152V105.67Z" fill="#F7C50F"/>
<rect x="288.461" y="76.9453" width="4.06047" height="4.14813" fill="black"/>
<rect x="284.293" y="81.0935" width="4.168" height="4.25798" fill="black"/>
<rect x="296.779" y="68.7742" width="8.17146" height="4.25798" transform="rotate(90 296.779 68.7742)" fill="black"/>
<rect x="292.521" y="68.7742" width="20.5861" height="4.25798" transform="rotate(-180 292.521 68.7742)" fill="black"/>
<rect x="280.672" y="99.7791" width="2.94748" height="4.10673" fill="white"/>
<rect x="287.543" y="70.811" width="2.94748" height="4.10673" fill="white"/>
<rect width="8.17146" height="4.25798" transform="matrix(-1 0 0 1 259.152 101.562)" fill="black"/>
<rect width="12.4126" height="4.25798" transform="matrix(-1 0 0 1 250.98 105.82)" fill="black"/>
<rect width="16.3457" height="4.25798" transform="matrix(4.37114e-08 1 1 -4.37114e-08 238.479 93.5234)" fill="black"/>
<rect width="8.24171" height="4.29459" transform="matrix(4.37114e-08 1 1 -4.37114e-08 242.736 85.281)" fill="black"/>
<rect width="8.72406" height="4.25798" transform="matrix(-1 0 0 1 267.876 97.3044)" fill="black"/>
<path d="M652.545 54.19L648.925 50.8264L644.318 50.6436L641.54 53.4222L640.114 58.9795L636.677 62.1604L635.58 66.2187L619.822 67.8639L616.641 69.6554L614.411 74.0062L618.908 78.5764L623.442 83.2196L626.403 86.2542L627.537 92.3234L625.014 94.5536L623.734 108.045H632.363L634.703 105.449L640.662 103.986L643.075 100.696L649.547 99.6357L651.813 103.255L657.224 103.986L660.149 107.314L669.399 108.045L669.216 95.2117L665.67 92.5793L665.122 88.3382L669.399 83.2196L673.787 79.5635L676.931 75.4321L677.662 70.9351L674.591 68.1198L658.065 67.3521L656.018 62.1604L654.226 59.7839L652.545 54.19Z" fill="#FFEF2C"/>
<rect width="4.06047" height="4.14813" transform="matrix(-1 0 0 1 621.664 77.2422)" fill="black"/>
<rect width="4.168" height="4.25798" transform="matrix(-1 0 0 1 625.833 81.3904)" fill="black"/>
<rect x="650.973" y="101.859" width="8.17146" height="4.25798" fill="black"/>
<rect x="642.801" y="97.6013" width="8.17146" height="4.25798" fill="black"/>
<rect x="667.39" y="85.5779" width="8.24171" height="4.29459" transform="rotate(90 667.39 85.5779)" fill="black"/>
<rect x="671.647" y="93.8203" width="16.3457" height="4.25798" transform="rotate(90 671.647 93.8203)" fill="black"/>
<rect width="8.17146" height="4.25798" transform="matrix(4.37114e-08 1 1 -4.37114e-08 613.403 69.0757)" fill="black"/>
<rect x="659.289" y="60.8079" width="8.268" height="4.25798" transform="rotate(90 659.289 60.8079)" fill="black"/>
<rect width="8.268" height="4.25798" transform="matrix(4.37114e-08 1 1 -4.37114e-08 633.933 60.8079)" fill="black"/>
<rect x="655.031" y="52.5398" width="8.268" height="4.25798" transform="rotate(90 655.031 52.5398)" fill="black"/>
<rect width="8.268" height="4.25798" transform="matrix(4.37114e-08 1 1 -4.37114e-08 638.19 52.5398)" fill="black"/>
<rect x="650.773" y="52.5398" width="8.268" height="4.25798" transform="rotate(-180 650.773 52.5398)" fill="black"/>
<rect width="8.268" height="4.25798" transform="matrix(1 -8.74228e-08 -8.74228e-08 -1 642.448 52.5398)" fill="black"/>
<rect width="20.5292" height="4.25798" transform="matrix(1 -8.74228e-08 -8.74228e-08 -1 617.661 69.071)" fill="black"/>
<path d="M642.249 97.6015L650.727 97.6015L650.727 101.939L659.125 101.939L659.125 106.305L667.389 106.305L667.389 97.6015L667.389 93.8204L663.355 93.8204L663.355 85.5485L652.406 85.5485L652.406 93.8204L642.249 93.8204L642.249 97.6015Z" fill="#F7C50F"/>
<path d="M627.98 72.7827L636.458 72.7827L636.458 77.1198L644.857 77.1198L644.857 81.4861L653.121 81.4861L653.121 72.7827L653.121 69.0016L649.087 69.0016L649.087 60.7296L638.137 60.7296L638.137 69.0016L627.98 69.0016L627.98 72.7827Z" fill="#FFF9B1"/>
<path d="M663.208 106.305L667.493 106.305L667.493 93.8478L663.208 93.8478L663.208 101.939L659.022 101.939V106.305L663.208 106.305Z" fill="#FEA201"/>
<path d="M656.658 71.0562H653.231V67.998H646.583V71.2778H649.848V74.6905H653.231V78.3248H656.658V71.0562Z" fill="white"/>
<rect x="659.022" y="106.117" width="12.5346" height="4.25798" fill="black"/>
<path d="M664.698 69.071H679.797V77.1517H675.479V81.3501H671.483V85.6483H659.238V81.3501H664.698V69.071Z" fill="#F7C50F"/>
<path d="M642.249 105.967H625.833V101.871H634.041V97.8865H642.249V105.967Z" fill="#F7C50F"/>
<rect x="671.558" y="77.2422" width="4.06047" height="4.14813" fill="black"/>
<rect x="667.39" y="81.3904" width="4.168" height="4.25798" fill="black"/>
<rect x="679.876" y="69.071" width="8.17146" height="4.25798" transform="rotate(90 679.876 69.071)" fill="black"/>
<rect x="675.617" y="69.071" width="20.5861" height="4.25798" transform="rotate(-180 675.617 69.071)" fill="black"/>
<rect x="663.769" y="100.076" width="2.94748" height="4.10673" fill="white"/>
<rect x="670.64" y="71.1079" width="2.94748" height="4.10673" fill="white"/>
<rect width="8.17146" height="4.25798" transform="matrix(-1 0 0 1 642.249 101.859)" fill="black"/>
<rect width="12.4126" height="4.25798" transform="matrix(-1 0 0 1 634.077 106.117)" fill="black"/>
<rect width="16.3457" height="4.25798" transform="matrix(4.37114e-08 1 1 -4.37114e-08 621.575 93.8203)" fill="black"/>
<rect width="8.24171" height="4.29459" transform="matrix(4.37114e-08 1 1 -4.37114e-08 625.833 85.5779)" fill="black"/>
<rect width="8.72406" height="4.25798" transform="matrix(-1 0 0 1 650.973 97.6013)" fill="black"/>
<defs>
<linearGradient id="paint0_linear_259_39127" x1="845.508" y1="210.184" x2="696.933" y2="236.256" gradientUnits="userSpaceOnUse">
<stop stop-color="#5F62FF"/>
<stop offset="1" stop-color="#393CC8"/>
</linearGradient>
<linearGradient id="paint1_linear_259_39127" x1="48.0195" y1="210.15" x2="196.594" y2="236.222" gradientUnits="userSpaceOnUse">
<stop stop-color="#5F62FF"/>
<stop offset="1" stop-color="#393CC8"/>
</linearGradient>
<linearGradient id="paint2_linear_259_39127" x1="449.524" y1="151.25" x2="449.524" y2="210.151" gradientUnits="userSpaceOnUse">
<stop offset="0.155014" stop-color="#FFEF2C"/>
<stop offset="0.347607" stop-color="#EFAF00"/>
<stop offset="0.350425" stop-color="#F8D20B"/>
<stop offset="0.505439" stop-color="#FFA200"/>
<stop offset="0.506378" stop-color="#F6CA09"/>
<stop offset="0.655878" stop-color="#FF9A40"/>
<stop offset="0.657634" stop-color="#DE6006"/>
<stop offset="0.764423" stop-color="#D64105"/>
<stop offset="0.813219" stop-color="#D02404"/>
<stop offset="0.904254" stop-color="#FC1A00"/>
<stop offset="1" stop-color="#CA0C03"/>
</linearGradient>
</defs>
</svg>
