<svg width="581" height="112" viewBox="0 0 581 112" fill="none" xmlns="http://www.w3.org/2000/svg">
<mask id="path-1-outside-1_359_20323" maskUnits="userSpaceOnUse" x="0" y="7.06934" width="100" height="96" fill="black">
<rect fill="white" y="7.06934" width="100" height="96"/>
<path d="M8.83786 98.7555H4.60473H4V90.4506H6.41893V85.4514H7.82735V83.7986H9.44259V81.2183H11.2568V77.1465H13.071V74.8788H14.4492V71.2806H16.0946V67.9142H17.5938V64.689H19.3173V61.6351H20.9325V58.2385H22.9759V54.0053H24.9413V50.3769H26.6648V47.3533H28.358V42.707H29.8094V40.0965H31.213V37.3249H32.4224V33.4444H34.8414V29.816H36.6556V26.1876H39.2734V22.1763H41.3295V20.5436H49.3549V22.5593H51.1691V45.5391H49.9597V47.3533H52.0333V45.7609H53.5881V42.707H56.6117V40.53H59.0307V38.887H60.2401V36.4681H62.659V34.6539H64.2489V32.235H66.2874V30.4208H68.7064V28.6066H70.5206V26.7924H71.9592V24.9782H73.8944V22.8113H76.2226V20.5436H78.9868V18.3261H80.801V15.5545H83.3887V13.1053H87.4531V11.0693H93.5004V12.8835H95.9193V18.9309H94.3041V26.1876H92.2909V29.2113H90.4767V32.608H88.0578V35.8634H86.2436V38.7158H84.4294V43.3722H82.9049V45.5391H81.4057V51.8385H78.702V55.8195H77.7774V58.8432H75.9632V62.7539H74.7537V67.501H72.9395V72.5506H70.8405V78.1946H69.9158V80.0088H69.3111V81.2183H68.2704V82.7705H66.6981V86.2175H65.6827V87.0944H63.2638V86.0562H61.6183V85.2802H60.0762V83.6372H58.4259V68.5189H59.8948V63.3586H61.4496V58.2385H62.659V53.1386H61.1648V55.4971H59.8948V56.767H58.4259V58.2385H56.9619V59.7H55.6315V61.0606H54.1928V62.4716H52.9833V64.0843H51.3681V65.6868H50.2191V67.501H49.0096V69.1237H47.5407V71.9761H46.5605V73.0948H45.5324V78.7994H44.5171V81.2183H42.7029V86.9432H38.064V85.2802H35.7055V83.7986H34.5868V68.0755H35.4461V65.6868H34.5868V64.0843H32.8028V67.3095H30.8374V69.7284H29.5675V71.9761H28.1893V73.5484H27.2997V75.7757H26.3751V78.1946H25.1656V81.823H23.1573V85.4514H21.5372V87.2656H20.9325V89.6846H19.1183V92.7082H17.3041V95.1272H15.1658L15.4899 96.3366H8.83786V98.7555Z"/>
</mask>
<path d="M8.83786 98.7555H4.60473H4V90.4506H6.41893V85.4514H7.82735V83.7986H9.44259V81.2183H11.2568V77.1465H13.071V74.8788H14.4492V71.2806H16.0946V67.9142H17.5938V64.689H19.3173V61.6351H20.9325V58.2385H22.9759V54.0053H24.9413V50.3769H26.6648V47.3533H28.358V42.707H29.8094V40.0965H31.213V37.3249H32.4224V33.4444H34.8414V29.816H36.6556V26.1876H39.2734V22.1763H41.3295V20.5436H49.3549V22.5593H51.1691V45.5391H49.9597V47.3533H52.0333V45.7609H53.5881V42.707H56.6117V40.53H59.0307V38.887H60.2401V36.4681H62.659V34.6539H64.2489V32.235H66.2874V30.4208H68.7064V28.6066H70.5206V26.7924H71.9592V24.9782H73.8944V22.8113H76.2226V20.5436H78.9868V18.3261H80.801V15.5545H83.3887V13.1053H87.4531V11.0693H93.5004V12.8835H95.9193V18.9309H94.3041V26.1876H92.2909V29.2113H90.4767V32.608H88.0578V35.8634H86.2436V38.7158H84.4294V43.3722H82.9049V45.5391H81.4057V51.8385H78.702V55.8195H77.7774V58.8432H75.9632V62.7539H74.7537V67.501H72.9395V72.5506H70.8405V78.1946H69.9158V80.0088H69.3111V81.2183H68.2704V82.7705H66.6981V86.2175H65.6827V87.0944H63.2638V86.0562H61.6183V85.2802H60.0762V83.6372H58.4259V68.5189H59.8948V63.3586H61.4496V58.2385H62.659V53.1386H61.1648V55.4971H59.8948V56.767H58.4259V58.2385H56.9619V59.7H55.6315V61.0606H54.1928V62.4716H52.9833V64.0843H51.3681V65.6868H50.2191V67.501H49.0096V69.1237H47.5407V71.9761H46.5605V73.0948H45.5324V78.7994H44.5171V81.2183H42.7029V86.9432H38.064V85.2802H35.7055V83.7986H34.5868V68.0755H35.4461V65.6868H34.5868V64.0843H32.8028V67.3095H30.8374V69.7284H29.5675V71.9761H28.1893V73.5484H27.2997V75.7757H26.3751V78.1946H25.1656V81.823H23.1573V85.4514H21.5372V87.2656H20.9325V89.6846H19.1183V92.7082H17.3041V95.1272H15.1658L15.4899 96.3366H8.83786V98.7555Z" fill="url(#paint0_linear_359_20323)"/>
<path d="M8.83786 98.7555H4.60473H4V90.4506H6.41893V85.4514H7.82735V83.7986H9.44259V81.2183H11.2568V77.1465H13.071V74.8788H14.4492V71.2806H16.0946V67.9142H17.5938V64.689H19.3173V61.6351H20.9325V58.2385H22.9759V54.0053H24.9413V50.3769H26.6648V47.3533H28.358V42.707H29.8094V40.0965H31.213V37.3249H32.4224V33.4444H34.8414V29.816H36.6556V26.1876H39.2734V22.1763H41.3295V20.5436H49.3549V22.5593H51.1691V45.5391H49.9597V47.3533H52.0333V45.7609H53.5881V42.707H56.6117V40.53H59.0307V38.887H60.2401V36.4681H62.659V34.6539H64.2489V32.235H66.2874V30.4208H68.7064V28.6066H70.5206V26.7924H71.9592V24.9782H73.8944V22.8113H76.2226V20.5436H78.9868V18.3261H80.801V15.5545H83.3887V13.1053H87.4531V11.0693H93.5004V12.8835H95.9193V18.9309H94.3041V26.1876H92.2909V29.2113H90.4767V32.608H88.0578V35.8634H86.2436V38.7158H84.4294V43.3722H82.9049V45.5391H81.4057V51.8385H78.702V55.8195H77.7774V58.8432H75.9632V62.7539H74.7537V67.501H72.9395V72.5506H70.8405V78.1946H69.9158V80.0088H69.3111V81.2183H68.2704V82.7705H66.6981V86.2175H65.6827V87.0944H63.2638V86.0562H61.6183V85.2802H60.0762V83.6372H58.4259V68.5189H59.8948V63.3586H61.4496V58.2385H62.659V53.1386H61.1648V55.4971H59.8948V56.767H58.4259V58.2385H56.9619V59.7H55.6315V61.0606H54.1928V62.4716H52.9833V64.0843H51.3681V65.6868H50.2191V67.501H49.0096V69.1237H47.5407V71.9761H46.5605V73.0948H45.5324V78.7994H44.5171V81.2183H42.7029V86.9432H38.064V85.2802H35.7055V83.7986H34.5868V68.0755H35.4461V65.6868H34.5868V64.0843H32.8028V67.3095H30.8374V69.7284H29.5675V71.9761H28.1893V73.5484H27.2997V75.7757H26.3751V78.1946H25.1656V81.823H23.1573V85.4514H21.5372V87.2656H20.9325V89.6846H19.1183V92.7082H17.3041V95.1272H15.1658L15.4899 96.3366H8.83786V98.7555Z" stroke="black" stroke-width="8" mask="url(#path-1-outside-1_359_20323)"/>
<mask id="path-2-outside-2_359_20323" maskUnits="userSpaceOnUse" x="116.713" y="4.2334" width="62" height="102" fill="black">
<rect fill="white" x="116.713" y="4.2334" width="62" height="102"/>
<path d="M137.041 62.6593H135.226V66.8924H133.412V73.5445H131.598V78.3824H130.389V81.406H129.179V86.8486H127.365V91.0817H124.341V89.8723H122.527V84.4297H120.713V75.3587H122.527V70.2402L121.318 69.9161V56.612H123.132V55.4025H124.946V52.3789H126.155V45.7268H127.97V37.2606H129.179V32.4227H130.389V28.1896H132.203V23.3517H134.017V19.7233H135.226V17.3044H137.645V16.0949H142.483V28.7943H141.274V36.0511H143.088V44.5173H145.507V54.7978H147.926V69.3114H150.345V62.0546H151.554V55.4025H152.764V49.9599H154.578V40.2842H155.787V34.8416H156.997V29.399H158.811V25.1659H160.02V20.9328H161.835V17.3044H163.044V13.676H164.858V10.0476H166.673V8.2334H170.301V10.0476H172.115V11.8618H174.534V22.1422H173.325V28.1896H172.115V33.6322H170.906V37.2606H169.696V41.4937H168.487V45.7268H167.277V51.7741H166.068V56.0073H164.858V60.8451H163.649V63.8688H161.835V69.3114H160.625V74.1492H158.811V79.5918H157.602V85.0344H155.183V92.2912H153.368V97.7338H150.95V101.967H146.112V99.548H144.297V88.6628H141.879V78.9871H140.669V71.4986H140.064V69.9161H138.25V64.786H137.041V62.6593Z"/>
</mask>
<path d="M137.041 62.6593H135.226V66.8924H133.412V73.5445H131.598V78.3824H130.389V81.406H129.179V86.8486H127.365V91.0817H124.341V89.8723H122.527V84.4297H120.713V75.3587H122.527V70.2402L121.318 69.9161V56.612H123.132V55.4025H124.946V52.3789H126.155V45.7268H127.97V37.2606H129.179V32.4227H130.389V28.1896H132.203V23.3517H134.017V19.7233H135.226V17.3044H137.645V16.0949H142.483V28.7943H141.274V36.0511H143.088V44.5173H145.507V54.7978H147.926V69.3114H150.345V62.0546H151.554V55.4025H152.764V49.9599H154.578V40.2842H155.787V34.8416H156.997V29.399H158.811V25.1659H160.02V20.9328H161.835V17.3044H163.044V13.676H164.858V10.0476H166.673V8.2334H170.301V10.0476H172.115V11.8618H174.534V22.1422H173.325V28.1896H172.115V33.6322H170.906V37.2606H169.696V41.4937H168.487V45.7268H167.277V51.7741H166.068V56.0073H164.858V60.8451H163.649V63.8688H161.835V69.3114H160.625V74.1492H158.811V79.5918H157.602V85.0344H155.183V92.2912H153.368V97.7338H150.95V101.967H146.112V99.548H144.297V88.6628H141.879V78.9871H140.669V71.4986H140.064V69.9161H138.25V64.786H137.041V62.6593Z" fill="url(#paint1_linear_359_20323)"/>
<path d="M137.041 62.6593H135.226V66.8924H133.412V73.5445H131.598V78.3824H130.389V81.406H129.179V86.8486H127.365V91.0817H124.341V89.8723H122.527V84.4297H120.713V75.3587H122.527V70.2402L121.318 69.9161V56.612H123.132V55.4025H124.946V52.3789H126.155V45.7268H127.97V37.2606H129.179V32.4227H130.389V28.1896H132.203V23.3517H134.017V19.7233H135.226V17.3044H137.645V16.0949H142.483V28.7943H141.274V36.0511H143.088V44.5173H145.507V54.7978H147.926V69.3114H150.345V62.0546H151.554V55.4025H152.764V49.9599H154.578V40.2842H155.787V34.8416H156.997V29.399H158.811V25.1659H160.02V20.9328H161.835V17.3044H163.044V13.676H164.858V10.0476H166.673V8.2334H170.301V10.0476H172.115V11.8618H174.534V22.1422H173.325V28.1896H172.115V33.6322H170.906V37.2606H169.696V41.4937H168.487V45.7268H167.277V51.7741H166.068V56.0073H164.858V60.8451H163.649V63.8688H161.835V69.3114H160.625V74.1492H158.811V79.5918H157.602V85.0344H155.183V92.2912H153.368V97.7338H150.95V101.967H146.112V99.548H144.297V88.6628H141.879V78.9871H140.669V71.4986H140.064V69.9161H138.25V64.786H137.041V62.6593Z" stroke="black" stroke-width="8" mask="url(#path-2-outside-2_359_20323)"/>
<mask id="path-3-outside-3_359_20323" maskUnits="userSpaceOnUse" x="68.9375" y="0" width="61" height="112" fill="black">
<rect fill="white" x="68.9375" width="61" height="112"/>
<path d="M72.9375 101.362V90.4767H75.3564V83.8247H76.5659V77.7774H77.7754V70.5206H79.5896V65.078H81.4038V60.2401H82.6132V54.1928H84.4274V49.3549H86.2416V46.3313H88.0558V42.0981H90.4747V39.6792H92.2889V36.0508H94.1031V31.213H97.1268V28.794H98.941V26.3751H100.755V25.1656H102.569V23.3514H103.779V21.5372H104.988V19.723H106.803V14.8852H108.617V13.6757H110.431V10.6521H114.059V7.02366H115.874V5.20946H119.502V4H124.944V8.23313H123.13V13.6757H120.711V17.9088H119.502V20.9325H117.688V25.7704H115.874V30.6082H114.664V32.4224H113.455V39.6792H111.64V47.7028L111.036 47.5407V49.9597H109.826V55.4023H111.036V54.1928H117.688V51.7739H119.502V63.8685H117.083V65.6827H110.431V66.8922H108.617V83.2199H109.826V84.4294H111.036V101.362H106.803V98.3383H104.988V95.9193H102.569V94.1051H100.755V91.0815H98.941V86.5243L97.7315 86.8483V68.7064H95.9173V71.1253H92.2889V75.3584H90.4747V79.5916H89.2653V85.0341H86.8463V92.8957H85.0321V97.7335H83.8227V100.757H82.0085V105.595H80.1943V107.409H76.5659V106.2H74.7517V101.362H72.9375Z"/>
</mask>
<path d="M72.9375 101.362V90.4767H75.3564V83.8247H76.5659V77.7774H77.7754V70.5206H79.5896V65.078H81.4038V60.2401H82.6132V54.1928H84.4274V49.3549H86.2416V46.3313H88.0558V42.0981H90.4747V39.6792H92.2889V36.0508H94.1031V31.213H97.1268V28.794H98.941V26.3751H100.755V25.1656H102.569V23.3514H103.779V21.5372H104.988V19.723H106.803V14.8852H108.617V13.6757H110.431V10.6521H114.059V7.02366H115.874V5.20946H119.502V4H124.944V8.23313H123.13V13.6757H120.711V17.9088H119.502V20.9325H117.688V25.7704H115.874V30.6082H114.664V32.4224H113.455V39.6792H111.64V47.7028L111.036 47.5407V49.9597H109.826V55.4023H111.036V54.1928H117.688V51.7739H119.502V63.8685H117.083V65.6827H110.431V66.8922H108.617V83.2199H109.826V84.4294H111.036V101.362H106.803V98.3383H104.988V95.9193H102.569V94.1051H100.755V91.0815H98.941V86.5243L97.7315 86.8483V68.7064H95.9173V71.1253H92.2889V75.3584H90.4747V79.5916H89.2653V85.0341H86.8463V92.8957H85.0321V97.7335H83.8227V100.757H82.0085V105.595H80.1943V107.409H76.5659V106.2H74.7517V101.362H72.9375Z" fill="url(#paint2_linear_359_20323)"/>
<path d="M72.9375 101.362V90.4767H75.3564V83.8247H76.5659V77.7774H77.7754V70.5206H79.5896V65.078H81.4038V60.2401H82.6132V54.1928H84.4274V49.3549H86.2416V46.3313H88.0558V42.0981H90.4747V39.6792H92.2889V36.0508H94.1031V31.213H97.1268V28.794H98.941V26.3751H100.755V25.1656H102.569V23.3514H103.779V21.5372H104.988V19.723H106.803V14.8852H108.617V13.6757H110.431V10.6521H114.059V7.02366H115.874V5.20946H119.502V4H124.944V8.23313H123.13V13.6757H120.711V17.9088H119.502V20.9325H117.688V25.7704H115.874V30.6082H114.664V32.4224H113.455V39.6792H111.64V47.7028L111.036 47.5407V49.9597H109.826V55.4023H111.036V54.1928H117.688V51.7739H119.502V63.8685H117.083V65.6827H110.431V66.8922H108.617V83.2199H109.826V84.4294H111.036V101.362H106.803V98.3383H104.988V95.9193H102.569V94.1051H100.755V91.0815H98.941V86.5243L97.7315 86.8483V68.7064H95.9173V71.1253H92.2889V75.3584H90.4747V79.5916H89.2653V85.0341H86.8463V92.8957H85.0321V97.7335H83.8227V100.757H82.0085V105.595H80.1943V107.409H76.5659V106.2H74.7517V101.362H72.9375Z" stroke="black" stroke-width="8" mask="url(#path-3-outside-3_359_20323)"/>
<path d="M218.17 26.9209V35.6221H217.359V38.0732H216.144V41.167H214.292V45.2188H212.497V48.8662H211.281V52.3984H210.065V54.8096H208.85V58.1865H207.443V62.0029H206.418V65.6094H204.688V68.3184H203.006V73.1807H201.283V78.0439H198.508V80.4756H196.461V83.7168H186.613V81.6904H185.398V77.6387H184.183V70.3438H183.372V61.4287H182.562V56.5654H181.346V49.6768H179.725V32.3037H186.562V32.8174H191.424V36.7617H192.64V49.7295H194.09V54.5918H195.257V52.9707H196.979V49.5742H198.499V45.6768H200.392V41.7324H202.013V38.7881H204.039V36.3564H205.66V33.3643H207.819V31.4932H209.197V26.9209H218.17Z" fill="url(#paint3_linear_359_20323)" stroke="black" stroke-width="4"/>
<mask id="path-5-outside-4_359_20323" maskUnits="userSpaceOnUse" x="196.363" y="19.207" width="50" height="73" fill="black">
<rect fill="white" x="196.363" y="19.207" width="50" height="73"/>
<path d="M200.363 83.7419V88.1994H201.984V86.9837H208.873V85.768H211.71V84.5523H214.952V83.7419H216.978V82.5262H219.004V81.3105H221.435V79.6896H222.246V78.4739H223.462V76.8529H224.677V75.6372H225.893V74.4215H227.109V73.2058H228.518V71.9902H229.945V70.7745H230.909V69.5588H232.377V67.9378H233.187V66.1616H234.403V65.1012H235.213V63.4803H236.024V61.4541H236.834V59.8332H237.645V57.4018H238.86V53.1614L239.671 52.9442V46.4605H238.455V45.2448H236.704V43.6239H233.705V42.4082H227.514V43.9144H222.845V42.4082H224.272V41.7261H225.236V40.9765H227.109V39.9768H228.518V38.7611H229.39V37.9507H230.605V37.1402H232.377V35.6882H233.592V34.7088H235.367V33.6215H236.704V32.5679H238.86V31.3319H240.29V29.6907H241.587V24.4633H239.824V23.207H234.808V24.1728H233.187V25.6587H231.566V27.0094H229.025V28.7587H226.573V29.6907H225.337V30.6565H223.867V31.8722H222.541V32.9529H221.265V34.0672H220.09V35.5193H218.712V36.5594H217.638V38.3559H216.706V39.9768H215.976V41.5978H214.031V43.9144H212.329V46.8658H210.668V50.1076H212.329V52.3432H214.68V54.1599H221.841V52.9442H225.082V52.1338H226.999V50.9181H232.377V53.4981H231.566V55.3756H230.909V57.2263H230.079V58.7661H229.329V59.8332H228.214V61.0489H227.109V62.474H226.168V63.4803H225.378V64.696H224.405V66.1616H222.845V67.5326H221.435V68.7483H220.22V70.3692H217.788V71.9902H216.573V73.2058H214.952V75.232H212.52V77.6634H209.684V79.2843H206.442V80.9053H205.226V82.5262H204.01V83.7419H200.363Z"/>
</mask>
<path d="M200.363 83.7419V88.1994H201.984V86.9837H208.873V85.768H211.71V84.5523H214.952V83.7419H216.978V82.5262H219.004V81.3105H221.435V79.6896H222.246V78.4739H223.462V76.8529H224.677V75.6372H225.893V74.4215H227.109V73.2058H228.518V71.9902H229.945V70.7745H230.909V69.5588H232.377V67.9378H233.187V66.1616H234.403V65.1012H235.213V63.4803H236.024V61.4541H236.834V59.8332H237.645V57.4018H238.86V53.1614L239.671 52.9442V46.4605H238.455V45.2448H236.704V43.6239H233.705V42.4082H227.514V43.9144H222.845V42.4082H224.272V41.7261H225.236V40.9765H227.109V39.9768H228.518V38.7611H229.39V37.9507H230.605V37.1402H232.377V35.6882H233.592V34.7088H235.367V33.6215H236.704V32.5679H238.86V31.3319H240.29V29.6907H241.587V24.4633H239.824V23.207H234.808V24.1728H233.187V25.6587H231.566V27.0094H229.025V28.7587H226.573V29.6907H225.337V30.6565H223.867V31.8722H222.541V32.9529H221.265V34.0672H220.09V35.5193H218.712V36.5594H217.638V38.3559H216.706V39.9768H215.976V41.5978H214.031V43.9144H212.329V46.8658H210.668V50.1076H212.329V52.3432H214.68V54.1599H221.841V52.9442H225.082V52.1338H226.999V50.9181H232.377V53.4981H231.566V55.3756H230.909V57.2263H230.079V58.7661H229.329V59.8332H228.214V61.0489H227.109V62.474H226.168V63.4803H225.378V64.696H224.405V66.1616H222.845V67.5326H221.435V68.7483H220.22V70.3692H217.788V71.9902H216.573V73.2058H214.952V75.232H212.52V77.6634H209.684V79.2843H206.442V80.9053H205.226V82.5262H204.01V83.7419H200.363Z" fill="url(#paint4_linear_359_20323)"/>
<path d="M200.363 83.7419V88.1994H201.984V86.9837H208.873V85.768H211.71V84.5523H214.952V83.7419H216.978V82.5262H219.004V81.3105H221.435V79.6896H222.246V78.4739H223.462V76.8529H224.677V75.6372H225.893V74.4215H227.109V73.2058H228.518V71.9902H229.945V70.7745H230.909V69.5588H232.377V67.9378H233.187V66.1616H234.403V65.1012H235.213V63.4803H236.024V61.4541H236.834V59.8332H237.645V57.4018H238.86V53.1614L239.671 52.9442V46.4605H238.455V45.2448H236.704V43.6239H233.705V42.4082H227.514V43.9144H222.845V42.4082H224.272V41.7261H225.236V40.9765H227.109V39.9768H228.518V38.7611H229.39V37.9507H230.605V37.1402H232.377V35.6882H233.592V34.7088H235.367V33.6215H236.704V32.5679H238.86V31.3319H240.29V29.6907H241.587V24.4633H239.824V23.207H234.808V24.1728H233.187V25.6587H231.566V27.0094H229.025V28.7587H226.573V29.6907H225.337V30.6565H223.867V31.8722H222.541V32.9529H221.265V34.0672H220.09V35.5193H218.712V36.5594H217.638V38.3559H216.706V39.9768H215.976V41.5978H214.031V43.9144H212.329V46.8658H210.668V50.1076H212.329V52.3432H214.68V54.1599H221.841V52.9442H225.082V52.1338H226.999V50.9181H232.377V53.4981H231.566V55.3756H230.909V57.2263H230.079V58.7661H229.329V59.8332H228.214V61.0489H227.109V62.474H226.168V63.4803H225.378V64.696H224.405V66.1616H222.845V67.5326H221.435V68.7483H220.22V70.3692H217.788V71.9902H216.573V73.2058H214.952V75.232H212.52V77.6634H209.684V79.2843H206.442V80.9053H205.226V82.5262H204.01V83.7419H200.363Z" stroke="black" stroke-width="8" mask="url(#path-5-outside-4_359_20323)"/>
<mask id="path-6-outside-5_359_20323" maskUnits="userSpaceOnUse" x="358.865" y="12.7485" width="57" height="84" fill="black">
<rect fill="white" x="358.865" y="12.7485" width="57" height="84"/>
<path d="M404.287 50.4779H397.778L397.499 44.8367H398.962V42.1935H401.02V37.4596H402.512V32.4397H401.612V30.9504H400.145V29.3626H398.742V27.9917H391.7V29.5401H390.31V31.8479H388.902V34.2149H387.127V37.8837H386.138V40.7537H385.014V42.7853H383.741V47.1445H381.611V50.695H380.368V54.9555H378.842V61.1293H376.877V67.2934H373.517V76.1104H375.102V78.5365H380.026V74.3943H386.535V71.1889H389.836V68.2302H392.452V65.8633H395.411V63.3287H397.381V61.4943H400.145V63.3287H402.512V66.672H403.92V73.5559H402.512V76.5146H400.145V78.2899H397.778V81.2486H395.411V83.6156H392.452V85.9825H387.718V87.7578H385.351V89.533H381.209V91.9H369.374V88.3495H367.599V85.9825H365.232V83.6156H362.865V58.1706H365.824V52.8449H367.599V48.1109H369.374V43.9687H371.15V36.8678H372.925V33.3174H375.292V29.1752H378.251V25.6247H382.393V22.666H385.351V19.7073H388.902V16.7485H402.512V20.299H405.471V22.666H407.838V25.6247H409.613V29.7669H411.388V40.4183H409.613V46.3357H406.654V48.1109H404.287V50.4779Z"/>
</mask>
<path d="M404.287 50.4779H397.778L397.499 44.8367H398.962V42.1935H401.02V37.4596H402.512V32.4397H401.612V30.9504H400.145V29.3626H398.742V27.9917H391.7V29.5401H390.31V31.8479H388.902V34.2149H387.127V37.8837H386.138V40.7537H385.014V42.7853H383.741V47.1445H381.611V50.695H380.368V54.9555H378.842V61.1293H376.877V67.2934H373.517V76.1104H375.102V78.5365H380.026V74.3943H386.535V71.1889H389.836V68.2302H392.452V65.8633H395.411V63.3287H397.381V61.4943H400.145V63.3287H402.512V66.672H403.92V73.5559H402.512V76.5146H400.145V78.2899H397.778V81.2486H395.411V83.6156H392.452V85.9825H387.718V87.7578H385.351V89.533H381.209V91.9H369.374V88.3495H367.599V85.9825H365.232V83.6156H362.865V58.1706H365.824V52.8449H367.599V48.1109H369.374V43.9687H371.15V36.8678H372.925V33.3174H375.292V29.1752H378.251V25.6247H382.393V22.666H385.351V19.7073H388.902V16.7485H402.512V20.299H405.471V22.666H407.838V25.6247H409.613V29.7669H411.388V40.4183H409.613V46.3357H406.654V48.1109H404.287V50.4779Z" fill="url(#paint5_linear_359_20323)"/>
<path d="M404.287 50.4779H397.778L397.499 44.8367H398.962V42.1935H401.02V37.4596H402.512V32.4397H401.612V30.9504H400.145V29.3626H398.742V27.9917H391.7V29.5401H390.31V31.8479H388.902V34.2149H387.127V37.8837H386.138V40.7537H385.014V42.7853H383.741V47.1445H381.611V50.695H380.368V54.9555H378.842V61.1293H376.877V67.2934H373.517V76.1104H375.102V78.5365H380.026V74.3943H386.535V71.1889H389.836V68.2302H392.452V65.8633H395.411V63.3287H397.381V61.4943H400.145V63.3287H402.512V66.672H403.92V73.5559H402.512V76.5146H400.145V78.2899H397.778V81.2486H395.411V83.6156H392.452V85.9825H387.718V87.7578H385.351V89.533H381.209V91.9H369.374V88.3495H367.599V85.9825H365.232V83.6156H362.865V58.1706H365.824V52.8449H367.599V48.1109H369.374V43.9687H371.15V36.8678H372.925V33.3174H375.292V29.1752H378.251V25.6247H382.393V22.666H385.351V19.7073H388.902V16.7485H402.512V20.299H405.471V22.666H407.838V25.6247H409.613V29.7669H411.388V40.4183H409.613V46.3357H406.654V48.1109H404.287V50.4779Z" stroke="black" stroke-width="8" mask="url(#path-6-outside-5_359_20323)"/>
<mask id="path-7-outside-6_359_20323" maskUnits="userSpaceOnUse" x="244.777" y="8.39258" width="98" height="94" fill="black">
<rect fill="white" x="244.777" y="8.39258" width="98" height="94"/>
<path d="M253.511 98.1954H249.369H248.777V90.0689H251.144V85.177H252.522V83.5597H254.103V81.0348H255.878V77.0505H257.653V74.8315H259.002V71.3106H260.612V68.0165H262.079V64.8606H263.766V61.8723H265.346V58.5486H267.346V54.4064H269.269V50.8559H270.955V47.8972H272.612V43.3507H274.032V40.7963H275.406V38.0842H276.589V34.2871H278.956V30.7366H280.732V27.1862H283.293V23.261H285.305V21.6633H293.158V23.6357H294.933V46.122H293.75V47.8972H295.779V46.339H297.3V43.3507H300.259V41.2204H302.626V39.6128H303.81V37.2458H306.176V35.4706H307.732V33.1036H309.727V31.3284H312.094V29.5531H313.869V27.7779H315.277V26.0027H317.17V23.8823H319.449V21.6633H322.154V19.4935H323.929V16.7814H326.461V14.3849H330.438V12.3926H336.355V14.1678H338.722V20.0852H337.142V27.1862H335.172V30.1449H333.397V33.4686H331.03V36.6541H329.254V39.4452H327.479V44.0016H325.987V46.122H324.521V52.286H321.875V56.1816H320.97V59.1403H319.195V62.967H318.011V67.6122H316.236V72.5532H314.182V78.0761H313.277V79.8513H312.686V81.0348H311.667V82.5537H310.129V85.9267H309.135V86.7847H306.768V85.7688H305.158V85.0094H303.649V83.4018H302.034V68.6082H303.472V63.5587H304.993V58.5486H306.176V53.5583H304.714V55.8661H303.472V57.1087H302.034V58.5486H300.602V59.9787H299.3V61.3101H297.892V62.6908H296.709V64.2688H295.128V65.837H294.004V67.6122H292.82V69.2H291.383V71.9911H290.424V73.0858H289.418V78.6679H288.424V81.0348H286.649V86.6367H282.11V85.0094H279.802V83.5597H278.707V68.1743H279.548V65.837H278.707V64.2688H276.962V67.4247H275.038V69.7917H273.796V71.9911H272.447V73.5296H271.577V75.7091H270.672V78.0761H269.488V81.6266H267.523V85.177H265.938V86.9523H265.346V89.3192H263.571V92.278H261.796V94.6449H259.703L260.02 95.8284H253.511V98.1954Z"/>
</mask>
<path d="M253.511 98.1954H249.369H248.777V90.0689H251.144V85.177H252.522V83.5597H254.103V81.0348H255.878V77.0505H257.653V74.8315H259.002V71.3106H260.612V68.0165H262.079V64.8606H263.766V61.8723H265.346V58.5486H267.346V54.4064H269.269V50.8559H270.955V47.8972H272.612V43.3507H274.032V40.7963H275.406V38.0842H276.589V34.2871H278.956V30.7366H280.732V27.1862H283.293V23.261H285.305V21.6633H293.158V23.6357H294.933V46.122H293.75V47.8972H295.779V46.339H297.3V43.3507H300.259V41.2204H302.626V39.6128H303.81V37.2458H306.176V35.4706H307.732V33.1036H309.727V31.3284H312.094V29.5531H313.869V27.7779H315.277V26.0027H317.17V23.8823H319.449V21.6633H322.154V19.4935H323.929V16.7814H326.461V14.3849H330.438V12.3926H336.355V14.1678H338.722V20.0852H337.142V27.1862H335.172V30.1449H333.397V33.4686H331.03V36.6541H329.254V39.4452H327.479V44.0016H325.987V46.122H324.521V52.286H321.875V56.1816H320.97V59.1403H319.195V62.967H318.011V67.6122H316.236V72.5532H314.182V78.0761H313.277V79.8513H312.686V81.0348H311.667V82.5537H310.129V85.9267H309.135V86.7847H306.768V85.7688H305.158V85.0094H303.649V83.4018H302.034V68.6082H303.472V63.5587H304.993V58.5486H306.176V53.5583H304.714V55.8661H303.472V57.1087H302.034V58.5486H300.602V59.9787H299.3V61.3101H297.892V62.6908H296.709V64.2688H295.128V65.837H294.004V67.6122H292.82V69.2H291.383V71.9911H290.424V73.0858H289.418V78.6679H288.424V81.0348H286.649V86.6367H282.11V85.0094H279.802V83.5597H278.707V68.1743H279.548V65.837H278.707V64.2688H276.962V67.4247H275.038V69.7917H273.796V71.9911H272.447V73.5296H271.577V75.7091H270.672V78.0761H269.488V81.6266H267.523V85.177H265.938V86.9523H265.346V89.3192H263.571V92.278H261.796V94.6449H259.703L260.02 95.8284H253.511V98.1954Z" fill="url(#paint6_linear_359_20323)"/>
<path d="M253.511 98.1954H249.369H248.777V90.0689H251.144V85.177H252.522V83.5597H254.103V81.0348H255.878V77.0505H257.653V74.8315H259.002V71.3106H260.612V68.0165H262.079V64.8606H263.766V61.8723H265.346V58.5486H267.346V54.4064H269.269V50.8559H270.955V47.8972H272.612V43.3507H274.032V40.7963H275.406V38.0842H276.589V34.2871H278.956V30.7366H280.732V27.1862H283.293V23.261H285.305V21.6633H293.158V23.6357H294.933V46.122H293.75V47.8972H295.779V46.339H297.3V43.3507H300.259V41.2204H302.626V39.6128H303.81V37.2458H306.176V35.4706H307.732V33.1036H309.727V31.3284H312.094V29.5531H313.869V27.7779H315.277V26.0027H317.17V23.8823H319.449V21.6633H322.154V19.4935H323.929V16.7814H326.461V14.3849H330.438V12.3926H336.355V14.1678H338.722V20.0852H337.142V27.1862H335.172V30.1449H333.397V33.4686H331.03V36.6541H329.254V39.4452H327.479V44.0016H325.987V46.122H324.521V52.286H321.875V56.1816H320.97V59.1403H319.195V62.967H318.011V67.6122H316.236V72.5532H314.182V78.0761H313.277V79.8513H312.686V81.0348H311.667V82.5537H310.129V85.9267H309.135V86.7847H306.768V85.7688H305.158V85.0094H303.649V83.4018H302.034V68.6082H303.472V63.5587H304.993V58.5486H306.176V53.5583H304.714V55.8661H303.472V57.1087H302.034V58.5486H300.602V59.9787H299.3V61.3101H297.892V62.6908H296.709V64.2688H295.128V65.837H294.004V67.6122H292.82V69.2H291.383V71.9911H290.424V73.0858H289.418V78.6679H288.424V81.0348H286.649V86.6367H282.11V85.0094H279.802V83.5597H278.707V68.1743H279.548V65.837H278.707V64.2688H276.962V67.4247H275.038V69.7917H273.796V71.9911H272.447V73.5296H271.577V75.7091H270.672V78.0761H269.488V81.6266H267.523V85.177H265.938V86.9523H265.346V89.3192H263.571V92.278H261.796V94.6449H259.703L260.02 95.8284H253.511V98.1954Z" stroke="black" stroke-width="8" mask="url(#path-7-outside-6_359_20323)"/>
<mask id="path-8-outside-7_359_20323" maskUnits="userSpaceOnUse" x="470.504" y="2.88477" width="61" height="100" fill="black">
<rect fill="white" x="470.504" y="2.88477" width="61" height="100"/>
<path d="M490.481 60.1417H488.706V64.2839H486.931V70.7931H485.155V75.527H483.972V78.4857H482.788V83.8114H481.013V87.9536H478.054V86.7702H476.279V81.4445H474.504V72.5683H476.279V67.5597L475.096 67.2426V54.2243H476.871V53.0408H478.646V50.0821H479.83V43.5729H481.605V35.2885H482.788V30.5545H483.972V26.4123H485.747V21.6784H487.522V18.1279H488.706V15.7609H491.073V14.5774H495.807V27.004H494.623V34.105H496.398V42.3894H498.765V52.449H501.132V66.6509H503.499V59.55H504.683V53.0408H505.866V47.7151H507.642V38.2472H508.825V32.9215H510.009V27.5958H511.784V23.4536H512.967V19.3114H514.742V15.7609H515.926V12.2105H517.701V8.66H519.476V6.88477H523.027V8.66H524.802V10.4352H527.169V20.4949H525.986V26.4123H524.802V31.738H523.619V35.2885H522.435V39.4307H521.252V43.5729H520.068V49.4903H518.885V53.6325H517.701V58.3665H516.518V61.3252H514.742V66.6509H513.559V71.3848H511.784V76.7105H510.6V82.0362H508.233V89.1371H506.458V94.4628H504.091V98.605H499.357V96.2381H497.582V85.5867H495.215V76.1188H494.031V68.7911H493.44V67.2426H491.664V62.2227H490.481V60.1417Z"/>
</mask>
<path d="M490.481 60.1417H488.706V64.2839H486.931V70.7931H485.155V75.527H483.972V78.4857H482.788V83.8114H481.013V87.9536H478.054V86.7702H476.279V81.4445H474.504V72.5683H476.279V67.5597L475.096 67.2426V54.2243H476.871V53.0408H478.646V50.0821H479.83V43.5729H481.605V35.2885H482.788V30.5545H483.972V26.4123H485.747V21.6784H487.522V18.1279H488.706V15.7609H491.073V14.5774H495.807V27.004H494.623V34.105H496.398V42.3894H498.765V52.449H501.132V66.6509H503.499V59.55H504.683V53.0408H505.866V47.7151H507.642V38.2472H508.825V32.9215H510.009V27.5958H511.784V23.4536H512.967V19.3114H514.742V15.7609H515.926V12.2105H517.701V8.66H519.476V6.88477H523.027V8.66H524.802V10.4352H527.169V20.4949H525.986V26.4123H524.802V31.738H523.619V35.2885H522.435V39.4307H521.252V43.5729H520.068V49.4903H518.885V53.6325H517.701V58.3665H516.518V61.3252H514.742V66.6509H513.559V71.3848H511.784V76.7105H510.6V82.0362H508.233V89.1371H506.458V94.4628H504.091V98.605H499.357V96.2381H497.582V85.5867H495.215V76.1188H494.031V68.7911H493.44V67.2426H491.664V62.2227H490.481V60.1417Z" fill="url(#paint7_linear_359_20323)"/>
<path d="M490.481 60.1417H488.706V64.2839H486.931V70.7931H485.155V75.527H483.972V78.4857H482.788V83.8114H481.013V87.9536H478.054V86.7702H476.279V81.4445H474.504V72.5683H476.279V67.5597L475.096 67.2426V54.2243H476.871V53.0408H478.646V50.0821H479.83V43.5729H481.605V35.2885H482.788V30.5545H483.972V26.4123H485.747V21.6784H487.522V18.1279H488.706V15.7609H491.073V14.5774H495.807V27.004H494.623V34.105H496.398V42.3894H498.765V52.449H501.132V66.6509H503.499V59.55H504.683V53.0408H505.866V47.7151H507.642V38.2472H508.825V32.9215H510.009V27.5958H511.784V23.4536H512.967V19.3114H514.742V15.7609H515.926V12.2105H517.701V8.66H519.476V6.88477H523.027V8.66H524.802V10.4352H527.169V20.4949H525.986V26.4123H524.802V31.738H523.619V35.2885H522.435V39.4307H521.252V43.5729H520.068V49.4903H518.885V53.6325H517.701V58.3665H516.518V61.3252H514.742V66.6509H513.559V71.3848H511.784V76.7105H510.6V82.0362H508.233V89.1371H506.458V94.4628H504.091V98.605H499.357V96.2381H497.582V85.5867H495.215V76.1188H494.031V68.7911H493.44V67.2426H491.664V62.2227H490.481V60.1417Z" stroke="black" stroke-width="8" mask="url(#path-8-outside-7_359_20323)"/>
<mask id="path-9-outside-8_359_20323" maskUnits="userSpaceOnUse" x="511.984" y="11.7627" width="69" height="81" fill="black">
<rect fill="white" x="511.984" y="11.7627" width="69" height="81"/>
<path d="M518.351 62.5104H518.943V58.3682H520.127V54.226H521.902V49.4921H523.677V44.7581H524.861V40.0242H526.044V35.596H527.819V30.5563H529.595V29.3728H531.37V24.3529H533.737V22.2719H535.825V19.9049H537.6V17.5379H541.429V15.7627H546.755V17.5379H571.017V19.3132H576.342V23.7612H571.017V25.8223H566.283V27.5976H560.957V29.3728H555.631V31.148H549.122V32.3315H544.98V33.515H542.613V35.2902H539.654V38.2489H538.471V40.0242H543.205V38.2489H554.702V36.4737H562.14V40.6159H560.365V42.3912H558.59V43.5746H556.815V45.3499H551.489V47.4901H547.347V48.5552H542.613V50.0838H537.6V51.2673H533.737V53.0425H531.962V57.7765H530.186V63.6939H529.003V70.2031H527.228V74.3453H529.003V72.5701H530.778V71.3866H531.962V70.2031H535.825V69.0196H537.287V67.2444H540.838V65.4691H544.388V63.6939H547.66V61.9187H554.702V60.7352H559.773V65.4691H556.815V67.8361H555.04V69.6114H553.518V71.3866H551.489V73.4085H547.347V74.937H545.825V76.7123H543.796V78.4875H541.429V80.2627H539.062V82.038H536.104V83.8132H533.737V84.9967H530.186V87.3637H527.819V88.5471H520.127V86.1802H517.168V84.7107H515.984L515.984 73.7536H517.168V67.2444H518.351V62.5104Z"/>
</mask>
<path d="M518.351 62.5104H518.943V58.3682H520.127V54.226H521.902V49.4921H523.677V44.7581H524.861V40.0242H526.044V35.596H527.819V30.5563H529.595V29.3728H531.37V24.3529H533.737V22.2719H535.825V19.9049H537.6V17.5379H541.429V15.7627H546.755V17.5379H571.017V19.3132H576.342V23.7612H571.017V25.8223H566.283V27.5976H560.957V29.3728H555.631V31.148H549.122V32.3315H544.98V33.515H542.613V35.2902H539.654V38.2489H538.471V40.0242H543.205V38.2489H554.702V36.4737H562.14V40.6159H560.365V42.3912H558.59V43.5746H556.815V45.3499H551.489V47.4901H547.347V48.5552H542.613V50.0838H537.6V51.2673H533.737V53.0425H531.962V57.7765H530.186V63.6939H529.003V70.2031H527.228V74.3453H529.003V72.5701H530.778V71.3866H531.962V70.2031H535.825V69.0196H537.287V67.2444H540.838V65.4691H544.388V63.6939H547.66V61.9187H554.702V60.7352H559.773V65.4691H556.815V67.8361H555.04V69.6114H553.518V71.3866H551.489V73.4085H547.347V74.937H545.825V76.7123H543.796V78.4875H541.429V80.2627H539.062V82.038H536.104V83.8132H533.737V84.9967H530.186V87.3637H527.819V88.5471H520.127V86.1802H517.168V84.7107H515.984L515.984 73.7536H517.168V67.2444H518.351V62.5104Z" fill="url(#paint8_linear_359_20323)"/>
<path d="M518.351 62.5104H518.943V58.3682H520.127V54.226H521.902V49.4921H523.677V44.7581H524.861V40.0242H526.044V35.596H527.819V30.5563H529.595V29.3728H531.37V24.3529H533.737V22.2719H535.825V19.9049H537.6V17.5379H541.429V15.7627H546.755V17.5379H571.017V19.3132H576.342V23.7612H571.017V25.8223H566.283V27.5976H560.957V29.3728H555.631V31.148H549.122V32.3315H544.98V33.515H542.613V35.2902H539.654V38.2489H538.471V40.0242H543.205V38.2489H554.702V36.4737H562.14V40.6159H560.365V42.3912H558.59V43.5746H556.815V45.3499H551.489V47.4901H547.347V48.5552H542.613V50.0838H537.6V51.2673H533.737V53.0425H531.962V57.7765H530.186V63.6939H529.003V70.2031H527.228V74.3453H529.003V72.5701H530.778V71.3866H531.962V70.2031H535.825V69.0196H537.287V67.2444H540.838V65.4691H544.388V63.6939H547.66V61.9187H554.702V60.7352H559.773V65.4691H556.815V67.8361H555.04V69.6114H553.518V71.3866H551.489V73.4085H547.347V74.937H545.825V76.7123H543.796V78.4875H541.429V80.2627H539.062V82.038H536.104V83.8132H533.737V84.9967H530.186V87.3637H527.819V88.5471H520.127V86.1802H517.168V84.7107H515.984L515.984 73.7536H517.168V67.2444H518.351V62.5104Z" stroke="black" stroke-width="8" mask="url(#path-9-outside-8_359_20323)"/>
<mask id="path-10-outside-9_359_20323" maskUnits="userSpaceOnUse" x="312.203" y="1.10986" width="59" height="110" fill="black">
<rect fill="white" x="312.203" y="1.10986" width="59" height="110"/>
<path d="M316.203 100.381V89.7292H318.57V83.22H319.754V77.3026H320.937V70.2017H322.712V64.876H324.488V60.142H325.671V54.2246H327.446V49.4906H329.221V46.5319H330.997V42.3897H333.364V40.0227H335.139V36.4723H336.914V31.7383H339.873V29.3713H341.648V27.0044H343.423V25.8209H345.199V24.0457H346.382V22.2704H347.566V20.4952H349.341V15.7612H351.116V14.5778H352.891V11.619H356.442V8.06858H358.217V6.29335H361.767V5.10986H367.093V9.25207H365.318V14.5778H362.951V18.72H361.767V21.6787H359.992V26.4126H358.217V31.1466H357.033V32.9218H355.85V40.0227H354.075V47.874L353.483 47.7154V50.0824H352.299V55.4081H353.483V54.2246H359.992V51.8576H361.767V63.6925H359.4V65.4677H352.891V66.6512H351.116V82.6283H352.299V83.8118H353.483V100.381H349.341V97.4219H347.566V95.0549H345.199V93.2796H343.423V90.3209H341.648V85.8616L340.465 86.1787V68.4264H338.689V70.7934H335.139V74.9356H333.364V79.0778H332.18V84.4035H329.813V92.0962H328.038V96.8301H326.855V99.7888H325.079V104.523H323.304V106.298H319.754V105.115H317.978V100.381H316.203Z"/>
</mask>
<path d="M316.203 100.381V89.7292H318.57V83.22H319.754V77.3026H320.937V70.2017H322.712V64.876H324.488V60.142H325.671V54.2246H327.446V49.4906H329.221V46.5319H330.997V42.3897H333.364V40.0227H335.139V36.4723H336.914V31.7383H339.873V29.3713H341.648V27.0044H343.423V25.8209H345.199V24.0457H346.382V22.2704H347.566V20.4952H349.341V15.7612H351.116V14.5778H352.891V11.619H356.442V8.06858H358.217V6.29335H361.767V5.10986H367.093V9.25207H365.318V14.5778H362.951V18.72H361.767V21.6787H359.992V26.4126H358.217V31.1466H357.033V32.9218H355.85V40.0227H354.075V47.874L353.483 47.7154V50.0824H352.299V55.4081H353.483V54.2246H359.992V51.8576H361.767V63.6925H359.4V65.4677H352.891V66.6512H351.116V82.6283H352.299V83.8118H353.483V100.381H349.341V97.4219H347.566V95.0549H345.199V93.2796H343.423V90.3209H341.648V85.8616L340.465 86.1787V68.4264H338.689V70.7934H335.139V74.9356H333.364V79.0778H332.18V84.4035H329.813V92.0962H328.038V96.8301H326.855V99.7888H325.079V104.523H323.304V106.298H319.754V105.115H317.978V100.381H316.203Z" fill="url(#paint9_linear_359_20323)"/>
<path d="M316.203 100.381V89.7292H318.57V83.22H319.754V77.3026H320.937V70.2017H322.712V64.876H324.488V60.142H325.671V54.2246H327.446V49.4906H329.221V46.5319H330.997V42.3897H333.364V40.0227H335.139V36.4723H336.914V31.7383H339.873V29.3713H341.648V27.0044H343.423V25.8209H345.199V24.0457H346.382V22.2704H347.566V20.4952H349.341V15.7612H351.116V14.5778H352.891V11.619H356.442V8.06858H358.217V6.29335H361.767V5.10986H367.093V9.25207H365.318V14.5778H362.951V18.72H361.767V21.6787H359.992V26.4126H358.217V31.1466H357.033V32.9218H355.85V40.0227H354.075V47.874L353.483 47.7154V50.0824H352.299V55.4081H353.483V54.2246H359.992V51.8576H361.767V63.6925H359.4V65.4677H352.891V66.6512H351.116V82.6283H352.299V83.8118H353.483V100.381H349.341V97.4219H347.566V95.0549H345.199V93.2796H343.423V90.3209H341.648V85.8616L340.465 86.1787V68.4264H338.689V70.7934H335.139V74.9356H333.364V79.0778H332.18V84.4035H329.813V92.0962H328.038V96.8301H326.855V99.7888H325.079V104.523H323.304V106.298H319.754V105.115H317.978V100.381H316.203Z" stroke="black" stroke-width="8" mask="url(#path-10-outside-9_359_20323)"/>
<path d="M426.263 14.353V17.312H431.588V33.147H429.812V38.4722H428.038V40.9819H428.18V39.7983H434.098V38.6147H436.464V36.8394H438.239V31.5132H439.423V27.9634H441.198V23.8208H442.974V19.0874H445.341V16.1284H451.258V14.353H459.992V26.0454H458.809V30.188H457.033V33.2886H459.992V44.3901H455.85V47.9399H452.299V51.4907H451.115V72.7935H449.932V78.853H451.115V89.3618H449.341V93.5044H441.198V91.1372H439.423V89.3618H438.239V86.4038H437.056V81.0776H435.28V53.2661H435.139V55.0415H430.404V56.2251H426.263V57.9995H425.079V82.853H423.304V89.9536H415.753V87.5874H414.569V86.4038H412.795V84.6284H411.02V79.3022H410.09V72.2017H408.652V46.3071H409.836V38.6147H411.611V33.2886H412.795V23.8208H414.569V18.4956H416.937V14.353H426.263Z" fill="url(#paint10_linear_359_20323)" stroke="black" stroke-width="4"/>
<path d="M480.704 11.395V15.5376H483.071V29.0054H481.296V32.5552H480.112V35.5142H478.929V39.0649H476.562V45.5737H475.379V48.5327H473.604V54.4497H471.828V58.5923H470.645V62.1431H469.461V67.4683H467.687V72.2026H465.319V81.6704H464.136V86.9956H462.952V91.73H461.769V94.0972H460.585V98.2388H452.443V92.9136H450.668V91.1382H448.301V82.4038H451.26V64.0601H452.443V59.3267H453.626V52.2251H454.81V47.4917H455.993V42.7573H458.36V35.0649H459.544V32.106H461.319V27.3726H463.095V20.271H464.869V15.5376H467.828V13.7622H471.971V11.395H480.704Z" fill="url(#paint11_linear_359_20323)" stroke="black" stroke-width="4"/>
<defs>
<linearGradient id="paint0_linear_359_20323" x1="49.9597" y1="11.0693" x2="49.9597" y2="98.7555" gradientUnits="userSpaceOnUse">
<stop offset="0.230769" stop-color="#FFEF2C"/>
<stop offset="0.418169" stop-color="#F8D20B"/>
<stop offset="0.418269" stop-color="#EFAF00"/>
<stop offset="0.480769" stop-color="#FFA200"/>
<stop offset="0.538462" stop-color="#F6CA09"/>
<stop offset="0.655878" stop-color="#FF9A40"/>
<stop offset="0.655978" stop-color="#DE6006"/>
<stop offset="0.764423" stop-color="#D64105"/>
<stop offset="0.813219" stop-color="#D02404"/>
<stop offset="0.904254" stop-color="#FC1A00"/>
<stop offset="1" stop-color="#CA0C03"/>
</linearGradient>
<linearGradient id="paint1_linear_359_20323" x1="147.623" y1="8.2334" x2="147.623" y2="101.967" gradientUnits="userSpaceOnUse">
<stop offset="0.230769" stop-color="#FFEF2C"/>
<stop offset="0.418169" stop-color="#F8D20B"/>
<stop offset="0.418269" stop-color="#EFAF00"/>
<stop offset="0.480769" stop-color="#FFA200"/>
<stop offset="0.538462" stop-color="#F6CA09"/>
<stop offset="0.655878" stop-color="#FF9A40"/>
<stop offset="0.655978" stop-color="#DE6006"/>
<stop offset="0.764423" stop-color="#D64105"/>
<stop offset="0.813219" stop-color="#D02404"/>
<stop offset="0.904254" stop-color="#FC1A00"/>
<stop offset="1" stop-color="#CA0C03"/>
</linearGradient>
<linearGradient id="paint2_linear_359_20323" x1="98.941" y1="4" x2="98.941" y2="107.409" gradientUnits="userSpaceOnUse">
<stop offset="0.230769" stop-color="#FFEF2C"/>
<stop offset="0.418169" stop-color="#F8D20B"/>
<stop offset="0.418269" stop-color="#EFAF00"/>
<stop offset="0.480769" stop-color="#FFA200"/>
<stop offset="0.538462" stop-color="#F6CA09"/>
<stop offset="0.655878" stop-color="#FF9A40"/>
<stop offset="0.655978" stop-color="#DE6006"/>
<stop offset="0.764423" stop-color="#D64105"/>
<stop offset="0.813219" stop-color="#D02404"/>
<stop offset="0.904254" stop-color="#FC1A00"/>
<stop offset="1" stop-color="#CA0C03"/>
</linearGradient>
<linearGradient id="paint3_linear_359_20323" x1="198.947" y1="28.9209" x2="198.947" y2="81.7171" gradientUnits="userSpaceOnUse">
<stop offset="0.230769" stop-color="#FFEF2C"/>
<stop offset="0.418169" stop-color="#F8D20B"/>
<stop offset="0.418269" stop-color="#EFAF00"/>
<stop offset="0.480769" stop-color="#FFA200"/>
<stop offset="0.538462" stop-color="#F6CA09"/>
<stop offset="0.655878" stop-color="#FF9A40"/>
<stop offset="0.655978" stop-color="#DE6006"/>
<stop offset="0.764423" stop-color="#D64105"/>
<stop offset="0.813219" stop-color="#D02404"/>
<stop offset="0.904254" stop-color="#FC1A00"/>
<stop offset="1" stop-color="#CA0C03"/>
</linearGradient>
<linearGradient id="paint4_linear_359_20323" x1="220.975" y1="23.207" x2="220.975" y2="88.1994" gradientUnits="userSpaceOnUse">
<stop offset="0.230769" stop-color="#FFEF2C"/>
<stop offset="0.418169" stop-color="#F8D20B"/>
<stop offset="0.418269" stop-color="#EFAF00"/>
<stop offset="0.480769" stop-color="#FFA200"/>
<stop offset="0.538462" stop-color="#F6CA09"/>
<stop offset="0.655878" stop-color="#FF9A40"/>
<stop offset="0.655978" stop-color="#DE6006"/>
<stop offset="0.764423" stop-color="#D64105"/>
<stop offset="0.813219" stop-color="#D02404"/>
<stop offset="0.904254" stop-color="#FC1A00"/>
<stop offset="1" stop-color="#CA0C03"/>
</linearGradient>
<linearGradient id="paint5_linear_359_20323" x1="387.127" y1="16.7485" x2="387.127" y2="91.9" gradientUnits="userSpaceOnUse">
<stop offset="0.230769" stop-color="#FFEF2C"/>
<stop offset="0.418169" stop-color="#F8D20B"/>
<stop offset="0.418269" stop-color="#EFAF00"/>
<stop offset="0.480769" stop-color="#FFA200"/>
<stop offset="0.538462" stop-color="#F6CA09"/>
<stop offset="0.655878" stop-color="#FF9A40"/>
<stop offset="0.655978" stop-color="#DE6006"/>
<stop offset="0.764423" stop-color="#D64105"/>
<stop offset="0.813219" stop-color="#D02404"/>
<stop offset="0.904254" stop-color="#FC1A00"/>
<stop offset="1" stop-color="#CA0C03"/>
</linearGradient>
<linearGradient id="paint6_linear_359_20323" x1="293.75" y1="12.3926" x2="293.75" y2="98.1954" gradientUnits="userSpaceOnUse">
<stop offset="0.230769" stop-color="#FFEF2C"/>
<stop offset="0.418169" stop-color="#F8D20B"/>
<stop offset="0.418269" stop-color="#EFAF00"/>
<stop offset="0.480769" stop-color="#FFA200"/>
<stop offset="0.538462" stop-color="#F6CA09"/>
<stop offset="0.655878" stop-color="#FF9A40"/>
<stop offset="0.655978" stop-color="#DE6006"/>
<stop offset="0.764423" stop-color="#D64105"/>
<stop offset="0.813219" stop-color="#D02404"/>
<stop offset="0.904254" stop-color="#FC1A00"/>
<stop offset="1" stop-color="#CA0C03"/>
</linearGradient>
<linearGradient id="paint7_linear_359_20323" x1="500.836" y1="6.88477" x2="500.836" y2="98.605" gradientUnits="userSpaceOnUse">
<stop offset="0.230769" stop-color="#FFEF2C"/>
<stop offset="0.418169" stop-color="#F8D20B"/>
<stop offset="0.418269" stop-color="#EFAF00"/>
<stop offset="0.480769" stop-color="#FFA200"/>
<stop offset="0.538462" stop-color="#F6CA09"/>
<stop offset="0.655878" stop-color="#FF9A40"/>
<stop offset="0.655978" stop-color="#DE6006"/>
<stop offset="0.764423" stop-color="#D64105"/>
<stop offset="0.813219" stop-color="#D02404"/>
<stop offset="0.904254" stop-color="#FC1A00"/>
<stop offset="1" stop-color="#CA0C03"/>
</linearGradient>
<linearGradient id="paint8_linear_359_20323" x1="546.163" y1="15.7627" x2="546.163" y2="88.5471" gradientUnits="userSpaceOnUse">
<stop offset="0.230769" stop-color="#FFEF2C"/>
<stop offset="0.418169" stop-color="#F8D20B"/>
<stop offset="0.418269" stop-color="#EFAF00"/>
<stop offset="0.480769" stop-color="#FFA200"/>
<stop offset="0.538462" stop-color="#F6CA09"/>
<stop offset="0.655878" stop-color="#FF9A40"/>
<stop offset="0.655978" stop-color="#DE6006"/>
<stop offset="0.764423" stop-color="#D64105"/>
<stop offset="0.813219" stop-color="#D02404"/>
<stop offset="0.904254" stop-color="#FC1A00"/>
<stop offset="1" stop-color="#CA0C03"/>
</linearGradient>
<linearGradient id="paint9_linear_359_20323" x1="341.648" y1="5.10986" x2="341.648" y2="106.298" gradientUnits="userSpaceOnUse">
<stop offset="0.230769" stop-color="#FFEF2C"/>
<stop offset="0.418169" stop-color="#F8D20B"/>
<stop offset="0.418269" stop-color="#EFAF00"/>
<stop offset="0.480769" stop-color="#FFA200"/>
<stop offset="0.538462" stop-color="#F6CA09"/>
<stop offset="0.655878" stop-color="#FF9A40"/>
<stop offset="0.655978" stop-color="#DE6006"/>
<stop offset="0.764423" stop-color="#D64105"/>
<stop offset="0.813219" stop-color="#D02404"/>
<stop offset="0.904254" stop-color="#FC1A00"/>
<stop offset="1" stop-color="#CA0C03"/>
</linearGradient>
<linearGradient id="paint10_linear_359_20323" x1="434.322" y1="16.353" x2="434.322" y2="91.5045" gradientUnits="userSpaceOnUse">
<stop offset="0.230769" stop-color="#FFEF2C"/>
<stop offset="0.418169" stop-color="#F8D20B"/>
<stop offset="0.418269" stop-color="#EFAF00"/>
<stop offset="0.480769" stop-color="#FFA200"/>
<stop offset="0.538462" stop-color="#F6CA09"/>
<stop offset="0.655878" stop-color="#FF9A40"/>
<stop offset="0.655978" stop-color="#DE6006"/>
<stop offset="0.764423" stop-color="#D64105"/>
<stop offset="0.813219" stop-color="#D02404"/>
<stop offset="0.904254" stop-color="#FC1A00"/>
<stop offset="1" stop-color="#CA0C03"/>
</linearGradient>
<linearGradient id="paint11_linear_359_20323" x1="465.686" y1="13.395" x2="465.686" y2="96.2391" gradientUnits="userSpaceOnUse">
<stop offset="0.230769" stop-color="#FFEF2C"/>
<stop offset="0.418169" stop-color="#F8D20B"/>
<stop offset="0.418269" stop-color="#EFAF00"/>
<stop offset="0.480769" stop-color="#FFA200"/>
<stop offset="0.538462" stop-color="#F6CA09"/>
<stop offset="0.655878" stop-color="#FF9A40"/>
<stop offset="0.655978" stop-color="#DE6006"/>
<stop offset="0.764423" stop-color="#D64105"/>
<stop offset="0.813219" stop-color="#D02404"/>
<stop offset="0.904254" stop-color="#FC1A00"/>
<stop offset="1" stop-color="#CA0C03"/>
</linearGradient>
</defs>
</svg>
