<svg width="412" height="64" viewBox="0 0 412 64" fill="none" xmlns="http://www.w3.org/2000/svg">
<mask id="path-1-outside-1_287_30378" maskUnits="userSpaceOnUse" x="-0.0683594" y="-0.519531" width="412" height="64" fill="black">
<rect fill="white" x="-0.0683594" y="-0.519531" width="412" height="64"/>
<path d="M6.00038 57.4405V13.2805H13.2804V6.00047H21.2804V13.2805H28.6404V27.7605H35.0404V13.2805H42.4004V6.00047H50.4804V13.2805H57.6804V57.4405H49.6804V14.0805H43.2004V28.4805H35.8404V50.2405H27.8404V28.4805H20.4804V14.0805H14.0804V57.4405H6.00038ZM77.0085 57.4405V50.2405H69.7285V27.7605H77.0085V20.4805H99.5685V27.7605H106.929V35.6805H98.7685V28.4805H77.8085V34.8805H92.3685V42.9605H77.8085V49.4405H98.7685V42.0805H106.929V50.1605H99.5685V57.4405H77.0085ZM126.284 57.4405V50.2405H119.004V27.7605H126.284V20.4805H148.124V6.00047H156.204V50.2405H148.844V57.4405H126.284ZM127.084 49.4405H148.044V28.4805H127.084V49.4405ZM166.716 57.4405V6.00047H174.796V27.7605H181.196V20.4805H196.556V27.7605H203.916V57.4405H195.756V28.4805H181.996V35.6805H174.796V57.4405H166.716ZM221.709 57.4405V50.2405H214.429V20.4805H222.509V49.4405H243.469V20.4805H251.629V50.2405H244.269V57.4405H221.709ZM270.984 57.4405V50.2405H263.704V6.00047H271.784V20.4805H293.544V27.7605H300.904V50.2405H293.544V57.4405H270.984ZM271.784 49.4405H292.744V28.4805H271.784V49.4405ZM312.978 56.4805V48.4005H321.058V56.4805H312.978ZM333.113 57.4405V20.4805H340.393V13.2805H347.593V6.00047H355.753V13.2805H362.953V20.4805H370.313V57.4405H362.153V42.9605H341.193V57.4405H333.113ZM341.193 34.8805H362.153V21.2805H354.953V14.0805H348.393V21.2805H341.193V34.8805ZM382.388 57.4405V49.4405H389.668V14.0805H382.388V6.00047H405.028V14.0805H397.668V49.4405H405.028V57.4405H382.388Z"/>
</mask>
<path d="M6.00038 57.4405V13.2805H13.2804V6.00047H21.2804V13.2805H28.6404V27.7605H35.0404V13.2805H42.4004V6.00047H50.4804V13.2805H57.6804V57.4405H49.6804V14.0805H43.2004V28.4805H35.8404V50.2405H27.8404V28.4805H20.4804V14.0805H14.0804V57.4405H6.00038ZM77.0085 57.4405V50.2405H69.7285V27.7605H77.0085V20.4805H99.5685V27.7605H106.929V35.6805H98.7685V28.4805H77.8085V34.8805H92.3685V42.9605H77.8085V49.4405H98.7685V42.0805H106.929V50.1605H99.5685V57.4405H77.0085ZM126.284 57.4405V50.2405H119.004V27.7605H126.284V20.4805H148.124V6.00047H156.204V50.2405H148.844V57.4405H126.284ZM127.084 49.4405H148.044V28.4805H127.084V49.4405ZM166.716 57.4405V6.00047H174.796V27.7605H181.196V20.4805H196.556V27.7605H203.916V57.4405H195.756V28.4805H181.996V35.6805H174.796V57.4405H166.716ZM221.709 57.4405V50.2405H214.429V20.4805H222.509V49.4405H243.469V20.4805H251.629V50.2405H244.269V57.4405H221.709ZM270.984 57.4405V50.2405H263.704V6.00047H271.784V20.4805H293.544V27.7605H300.904V50.2405H293.544V57.4405H270.984ZM271.784 49.4405H292.744V28.4805H271.784V49.4405ZM312.978 56.4805V48.4005H321.058V56.4805H312.978ZM333.113 57.4405V20.4805H340.393V13.2805H347.593V6.00047H355.753V13.2805H362.953V20.4805H370.313V57.4405H362.153V42.9605H341.193V57.4405H333.113ZM341.193 34.8805H362.153V21.2805H354.953V14.0805H348.393V21.2805H341.193V34.8805ZM382.388 57.4405V49.4405H389.668V14.0805H382.388V6.00047H405.028V14.0805H397.668V49.4405H405.028V57.4405H382.388Z" fill="#12F1C7"/>
<path d="M6.00038 57.4405H0.000378609V63.4405H6.00038V57.4405ZM6.00038 13.2805V7.28047H0.000378609V13.2805H6.00038ZM13.2804 13.2805V19.2805H19.2804V13.2805H13.2804ZM13.2804 6.00047V0.000465393H7.28038V6.00047H13.2804ZM21.2804 6.00047H27.2804V0.000465393H21.2804V6.00047ZM21.2804 13.2805H15.2804V19.2805H21.2804V13.2805ZM28.6404 13.2805H34.6404V7.28047H28.6404V13.2805ZM28.6404 27.7605H22.6404V33.7605H28.6404V27.7605ZM35.0404 27.7605V33.7605H41.0404V27.7605H35.0404ZM35.0404 13.2805V7.28047H29.0404V13.2805H35.0404ZM42.4004 13.2805V19.2805H48.4004V13.2805H42.4004ZM42.4004 6.00047V0.000465393H36.4004V6.00047H42.4004ZM50.4804 6.00047H56.4804V0.000465393H50.4804V6.00047ZM50.4804 13.2805H44.4804V19.2805H50.4804V13.2805ZM57.6804 13.2805H63.6804V7.28047H57.6804V13.2805ZM57.6804 57.4405V63.4405H63.6804V57.4405H57.6804ZM49.6804 57.4405H43.6804V63.4405H49.6804V57.4405ZM49.6804 14.0805H55.6804V8.08047H49.6804V14.0805ZM43.2004 14.0805V8.08047H37.2004V14.0805H43.2004ZM43.2004 28.4805V34.4805H49.2004V28.4805H43.2004ZM35.8404 28.4805V22.4805H29.8404V28.4805H35.8404ZM35.8404 50.2405V56.2405H41.8404V50.2405H35.8404ZM27.8404 50.2405H21.8404V56.2405H27.8404V50.2405ZM27.8404 28.4805H33.8404V22.4805H27.8404V28.4805ZM20.4804 28.4805H14.4804V34.4805H20.4804V28.4805ZM20.4804 14.0805H26.4804V8.08047H20.4804V14.0805ZM14.0804 14.0805V8.08047H8.08038V14.0805H14.0804ZM14.0804 57.4405V63.4405H20.0804V57.4405H14.0804ZM6.00038 57.4405H12.0004V13.2805H6.00038H0.000378609V57.4405H6.00038ZM6.00038 13.2805V19.2805H13.2804V13.2805V7.28047H6.00038V13.2805ZM13.2804 13.2805H19.2804V6.00047H13.2804H7.28038V13.2805H13.2804ZM13.2804 6.00047V12.0005H21.2804V6.00047V0.000465393H13.2804V6.00047ZM21.2804 6.00047H15.2804V13.2805H21.2804H27.2804V6.00047H21.2804ZM21.2804 13.2805V19.2805H28.6404V13.2805V7.28047H21.2804V13.2805ZM28.6404 13.2805H22.6404V27.7605H28.6404H34.6404V13.2805H28.6404ZM28.6404 27.7605V33.7605H35.0404V27.7605V21.7605H28.6404V27.7605ZM35.0404 27.7605H41.0404V13.2805H35.0404H29.0404V27.7605H35.0404ZM35.0404 13.2805V19.2805H42.4004V13.2805V7.28047H35.0404V13.2805ZM42.4004 13.2805H48.4004V6.00047H42.4004H36.4004V13.2805H42.4004ZM42.4004 6.00047V12.0005H50.4804V6.00047V0.000465393H42.4004V6.00047ZM50.4804 6.00047H44.4804V13.2805H50.4804H56.4804V6.00047H50.4804ZM50.4804 13.2805V19.2805H57.6804V13.2805V7.28047H50.4804V13.2805ZM57.6804 13.2805H51.6804V57.4405H57.6804H63.6804V13.2805H57.6804ZM57.6804 57.4405V51.4405H49.6804V57.4405V63.4405H57.6804V57.4405ZM49.6804 57.4405H55.6804V14.0805H49.6804H43.6804V57.4405H49.6804ZM49.6804 14.0805V8.08047H43.2004V14.0805V20.0805H49.6804V14.0805ZM43.2004 14.0805H37.2004V28.4805H43.2004H49.2004V14.0805H43.2004ZM43.2004 28.4805V22.4805H35.8404V28.4805V34.4805H43.2004V28.4805ZM35.8404 28.4805H29.8404V50.2405H35.8404H41.8404V28.4805H35.8404ZM35.8404 50.2405V44.2405H27.8404V50.2405V56.2405H35.8404V50.2405ZM27.8404 50.2405H33.8404V28.4805H27.8404H21.8404V50.2405H27.8404ZM27.8404 28.4805V22.4805H20.4804V28.4805V34.4805H27.8404V28.4805ZM20.4804 28.4805H26.4804V14.0805H20.4804H14.4804V28.4805H20.4804ZM20.4804 14.0805V8.08047H14.0804V14.0805V20.0805H20.4804V14.0805ZM14.0804 14.0805H8.08038V57.4405H14.0804H20.0804V14.0805H14.0804ZM14.0804 57.4405V51.4405H6.00038V57.4405V63.4405H14.0804V57.4405ZM77.0085 57.4405H71.0085V63.4405H77.0085V57.4405ZM77.0085 50.2405H83.0085V44.2405H77.0085V50.2405ZM69.7285 50.2405H63.7285V56.2405H69.7285V50.2405ZM69.7285 27.7605V21.7605H63.7285V27.7605H69.7285ZM77.0085 27.7605V33.7605H83.0085V27.7605H77.0085ZM77.0085 20.4805V14.4805H71.0085V20.4805H77.0085ZM99.5685 20.4805H105.569V14.4805H99.5685V20.4805ZM99.5685 27.7605H93.5685V33.7605H99.5685V27.7605ZM106.929 27.7605H112.929V21.7605H106.929V27.7605ZM106.929 35.6805V41.6805H112.929V35.6805H106.929ZM98.7685 35.6805H92.7685V41.6805H98.7685V35.6805ZM98.7685 28.4805H104.769V22.4805H98.7685V28.4805ZM77.8085 28.4805V22.4805H71.8085V28.4805H77.8085ZM77.8085 34.8805H71.8085V40.8805H77.8085V34.8805ZM92.3685 34.8805H98.3685V28.8805H92.3685V34.8805ZM92.3685 42.9605V48.9605H98.3685V42.9605H92.3685ZM77.8085 42.9605V36.9605H71.8085V42.9605H77.8085ZM77.8085 49.4405H71.8085V55.4405H77.8085V49.4405ZM98.7685 49.4405V55.4405H104.769V49.4405H98.7685ZM98.7685 42.0805V36.0805H92.7685V42.0805H98.7685ZM106.929 42.0805H112.929V36.0805H106.929V42.0805ZM106.929 50.1605V56.1605H112.929V50.1605H106.929ZM99.5685 50.1605V44.1605H93.5685V50.1605H99.5685ZM99.5685 57.4405V63.4405H105.569V57.4405H99.5685ZM77.0085 57.4405H83.0085V50.2405H77.0085H71.0085V57.4405H77.0085ZM77.0085 50.2405V44.2405H69.7285V50.2405V56.2405H77.0085V50.2405ZM69.7285 50.2405H75.7285V27.7605H69.7285H63.7285V50.2405H69.7285ZM69.7285 27.7605V33.7605H77.0085V27.7605V21.7605H69.7285V27.7605ZM77.0085 27.7605H83.0085V20.4805H77.0085H71.0085V27.7605H77.0085ZM77.0085 20.4805V26.4805H99.5685V20.4805V14.4805H77.0085V20.4805ZM99.5685 20.4805H93.5685V27.7605H99.5685H105.569V20.4805H99.5685ZM99.5685 27.7605V33.7605H106.929V27.7605V21.7605H99.5685V27.7605ZM106.929 27.7605H100.929V35.6805H106.929H112.929V27.7605H106.929ZM106.929 35.6805V29.6805H98.7685V35.6805V41.6805H106.929V35.6805ZM98.7685 35.6805H104.769V28.4805H98.7685H92.7685V35.6805H98.7685ZM98.7685 28.4805V22.4805H77.8085V28.4805V34.4805H98.7685V28.4805ZM77.8085 28.4805H71.8085V34.8805H77.8085H83.8085V28.4805H77.8085ZM77.8085 34.8805V40.8805H92.3685V34.8805V28.8805H77.8085V34.8805ZM92.3685 34.8805H86.3685V42.9605H92.3685H98.3685V34.8805H92.3685ZM92.3685 42.9605V36.9605H77.8085V42.9605V48.9605H92.3685V42.9605ZM77.8085 42.9605H71.8085V49.4405H77.8085H83.8085V42.9605H77.8085ZM77.8085 49.4405V55.4405H98.7685V49.4405V43.4405H77.8085V49.4405ZM98.7685 49.4405H104.769V42.0805H98.7685H92.7685V49.4405H98.7685ZM98.7685 42.0805V48.0805H106.929V42.0805V36.0805H98.7685V42.0805ZM106.929 42.0805H100.929V50.1605H106.929H112.929V42.0805H106.929ZM106.929 50.1605V44.1605H99.5685V50.1605V56.1605H106.929V50.1605ZM99.5685 50.1605H93.5685V57.4405H99.5685H105.569V50.1605H99.5685ZM99.5685 57.4405V51.4405H77.0085V57.4405V63.4405H99.5685V57.4405ZM126.284 57.4405H120.284V63.4405H126.284V57.4405ZM126.284 50.2405H132.284V44.2405H126.284V50.2405ZM119.004 50.2405H113.004V56.2405H119.004V50.2405ZM119.004 27.7605V21.7605H113.004V27.7605H119.004ZM126.284 27.7605V33.7605H132.284V27.7605H126.284ZM126.284 20.4805V14.4805H120.284V20.4805H126.284ZM148.124 20.4805V26.4805H154.124V20.4805H148.124ZM148.124 6.00047V0.000465393H142.124V6.00047H148.124ZM156.204 6.00047H162.204V0.000465393H156.204V6.00047ZM156.204 50.2405V56.2405H162.204V50.2405H156.204ZM148.844 50.2405V44.2405H142.844V50.2405H148.844ZM148.844 57.4405V63.4405H154.844V57.4405H148.844ZM127.084 49.4405H121.084V55.4405H127.084V49.4405ZM148.044 49.4405V55.4405H154.044V49.4405H148.044ZM148.044 28.4805H154.044V22.4805H148.044V28.4805ZM127.084 28.4805V22.4805H121.084V28.4805H127.084ZM126.284 57.4405H132.284V50.2405H126.284H120.284V57.4405H126.284ZM126.284 50.2405V44.2405H119.004V50.2405V56.2405H126.284V50.2405ZM119.004 50.2405H125.004V27.7605H119.004H113.004V50.2405H119.004ZM119.004 27.7605V33.7605H126.284V27.7605V21.7605H119.004V27.7605ZM126.284 27.7605H132.284V20.4805H126.284H120.284V27.7605H126.284ZM126.284 20.4805V26.4805H148.124V20.4805V14.4805H126.284V20.4805ZM148.124 20.4805H154.124V6.00047H148.124H142.124V20.4805H148.124ZM148.124 6.00047V12.0005H156.204V6.00047V0.000465393H148.124V6.00047ZM156.204 6.00047H150.204V50.2405H156.204H162.204V6.00047H156.204ZM156.204 50.2405V44.2405H148.844V50.2405V56.2405H156.204V50.2405ZM148.844 50.2405H142.844V57.4405H148.844H154.844V50.2405H148.844ZM148.844 57.4405V51.4405H126.284V57.4405V63.4405H148.844V57.4405ZM127.084 49.4405V55.4405H148.044V49.4405V43.4405H127.084V49.4405ZM148.044 49.4405H154.044V28.4805H148.044H142.044V49.4405H148.044ZM148.044 28.4805V22.4805H127.084V28.4805V34.4805H148.044V28.4805ZM127.084 28.4805H121.084V49.4405H127.084H133.084V28.4805H127.084ZM166.716 57.4405H160.716V63.4405H166.716V57.4405ZM166.716 6.00047V0.000465393H160.716V6.00047H166.716ZM174.796 6.00047H180.796V0.000465393H174.796V6.00047ZM174.796 27.7605H168.796V33.7605H174.796V27.7605ZM181.196 27.7605V33.7605H187.196V27.7605H181.196ZM181.196 20.4805V14.4805H175.196V20.4805H181.196ZM196.556 20.4805H202.556V14.4805H196.556V20.4805ZM196.556 27.7605H190.556V33.7605H196.556V27.7605ZM203.916 27.7605H209.916V21.7605H203.916V27.7605ZM203.916 57.4405V63.4405H209.916V57.4405H203.916ZM195.756 57.4405H189.756V63.4405H195.756V57.4405ZM195.756 28.4805H201.756V22.4805H195.756V28.4805ZM181.996 28.4805V22.4805H175.996V28.4805H181.996ZM181.996 35.6805V41.6805H187.996V35.6805H181.996ZM174.796 35.6805V29.6805H168.796V35.6805H174.796ZM174.796 57.4405V63.4405H180.796V57.4405H174.796ZM166.716 57.4405H172.716V6.00047H166.716H160.716V57.4405H166.716ZM166.716 6.00047V12.0005H174.796V6.00047V0.000465393H166.716V6.00047ZM174.796 6.00047H168.796V27.7605H174.796H180.796V6.00047H174.796ZM174.796 27.7605V33.7605H181.196V27.7605V21.7605H174.796V27.7605ZM181.196 27.7605H187.196V20.4805H181.196H175.196V27.7605H181.196ZM181.196 20.4805V26.4805H196.556V20.4805V14.4805H181.196V20.4805ZM196.556 20.4805H190.556V27.7605H196.556H202.556V20.4805H196.556ZM196.556 27.7605V33.7605H203.916V27.7605V21.7605H196.556V27.7605ZM203.916 27.7605H197.916V57.4405H203.916H209.916V27.7605H203.916ZM203.916 57.4405V51.4405H195.756V57.4405V63.4405H203.916V57.4405ZM195.756 57.4405H201.756V28.4805H195.756H189.756V57.4405H195.756ZM195.756 28.4805V22.4805H181.996V28.4805V34.4805H195.756V28.4805ZM181.996 28.4805H175.996V35.6805H181.996H187.996V28.4805H181.996ZM181.996 35.6805V29.6805H174.796V35.6805V41.6805H181.996V35.6805ZM174.796 35.6805H168.796V57.4405H174.796H180.796V35.6805H174.796ZM174.796 57.4405V51.4405H166.716V57.4405V63.4405H174.796V57.4405ZM221.709 57.4405H215.709V63.4405H221.709V57.4405ZM221.709 50.2405H227.709V44.2405H221.709V50.2405ZM214.429 50.2405H208.429V56.2405H214.429V50.2405ZM214.429 20.4805V14.4805H208.429V20.4805H214.429ZM222.509 20.4805H228.509V14.4805H222.509V20.4805ZM222.509 49.4405H216.509V55.4405H222.509V49.4405ZM243.469 49.4405V55.4405H249.469V49.4405H243.469ZM243.469 20.4805V14.4805H237.469V20.4805H243.469ZM251.629 20.4805H257.629V14.4805H251.629V20.4805ZM251.629 50.2405V56.2405H257.629V50.2405H251.629ZM244.269 50.2405V44.2405H238.269V50.2405H244.269ZM244.269 57.4405V63.4405H250.269V57.4405H244.269ZM221.709 57.4405H227.709V50.2405H221.709H215.709V57.4405H221.709ZM221.709 50.2405V44.2405H214.429V50.2405V56.2405H221.709V50.2405ZM214.429 50.2405H220.429V20.4805H214.429H208.429V50.2405H214.429ZM214.429 20.4805V26.4805H222.509V20.4805V14.4805H214.429V20.4805ZM222.509 20.4805H216.509V49.4405H222.509H228.509V20.4805H222.509ZM222.509 49.4405V55.4405H243.469V49.4405V43.4405H222.509V49.4405ZM243.469 49.4405H249.469V20.4805H243.469H237.469V49.4405H243.469ZM243.469 20.4805V26.4805H251.629V20.4805V14.4805H243.469V20.4805ZM251.629 20.4805H245.629V50.2405H251.629H257.629V20.4805H251.629ZM251.629 50.2405V44.2405H244.269V50.2405V56.2405H251.629V50.2405ZM244.269 50.2405H238.269V57.4405H244.269H250.269V50.2405H244.269ZM244.269 57.4405V51.4405H221.709V57.4405V63.4405H244.269V57.4405ZM270.983 57.4405H264.983V63.4405H270.983V57.4405ZM270.983 50.2405H276.983V44.2405H270.983V50.2405ZM263.703 50.2405H257.703V56.2405H263.703V50.2405ZM263.703 6.00047V0.000465393H257.703V6.00047H263.703ZM271.784 6.00047H277.784V0.000465393H271.784V6.00047ZM271.784 20.4805H265.784V26.4805H271.784V20.4805ZM293.544 20.4805H299.544V14.4805H293.544V20.4805ZM293.544 27.7605H287.544V33.7605H293.544V27.7605ZM300.904 27.7605H306.904V21.7605H300.904V27.7605ZM300.904 50.2405V56.2405H306.904V50.2405H300.904ZM293.544 50.2405V44.2405H287.544V50.2405H293.544ZM293.544 57.4405V63.4405H299.544V57.4405H293.544ZM271.784 49.4405H265.784V55.4405H271.784V49.4405ZM292.743 49.4405V55.4405H298.743V49.4405H292.743ZM292.743 28.4805H298.743V22.4805H292.743V28.4805ZM271.784 28.4805V22.4805H265.784V28.4805H271.784ZM270.983 57.4405H276.983V50.2405H270.983H264.983V57.4405H270.983ZM270.983 50.2405V44.2405H263.703V50.2405V56.2405H270.983V50.2405ZM263.703 50.2405H269.703V6.00047H263.703H257.703V50.2405H263.703ZM263.703 6.00047V12.0005H271.784V6.00047V0.000465393H263.703V6.00047ZM271.784 6.00047H265.784V20.4805H271.784H277.784V6.00047H271.784ZM271.784 20.4805V26.4805H293.544V20.4805V14.4805H271.784V20.4805ZM293.544 20.4805H287.544V27.7605H293.544H299.544V20.4805H293.544ZM293.544 27.7605V33.7605H300.904V27.7605V21.7605H293.544V27.7605ZM300.904 27.7605H294.904V50.2405H300.904H306.904V27.7605H300.904ZM300.904 50.2405V44.2405H293.544V50.2405V56.2405H300.904V50.2405ZM293.544 50.2405H287.544V57.4405H293.544H299.544V50.2405H293.544ZM293.544 57.4405V51.4405H270.983V57.4405V63.4405H293.544V57.4405ZM271.784 49.4405V55.4405H292.743V49.4405V43.4405H271.784V49.4405ZM292.743 49.4405H298.743V28.4805H292.743H286.743V49.4405H292.743ZM292.743 28.4805V22.4805H271.784V28.4805V34.4805H292.743V28.4805ZM271.784 28.4805H265.784V49.4405H271.784H277.784V28.4805H271.784ZM312.978 56.4805H306.978V62.4805H312.978V56.4805ZM312.978 48.4005V42.4005H306.978V48.4005H312.978ZM321.059 48.4005H327.059V42.4005H321.059V48.4005ZM321.059 56.4805V62.4805H327.059V56.4805H321.059ZM312.978 56.4805H318.978V48.4005H312.978H306.978V56.4805H312.978ZM312.978 48.4005V54.4005H321.059V48.4005V42.4005H312.978V48.4005ZM321.059 48.4005H315.059V56.4805H321.059H327.059V48.4005H321.059ZM321.059 56.4805V50.4805H312.978V56.4805V62.4805H321.059V56.4805ZM333.113 57.4405H327.113V63.4405H333.113V57.4405ZM333.113 20.4805V14.4805H327.113V20.4805H333.113ZM340.393 20.4805V26.4805H346.393V20.4805H340.393ZM340.393 13.2805V7.28047H334.393V13.2805H340.393ZM347.593 13.2805V19.2805H353.593V13.2805H347.593ZM347.593 6.00047V0.000465393H341.593V6.00047H347.593ZM355.753 6.00047H361.753V0.000465393H355.753V6.00047ZM355.753 13.2805H349.753V19.2805H355.753V13.2805ZM362.953 13.2805H368.953V7.28047H362.953V13.2805ZM362.953 20.4805H356.953V26.4805H362.953V20.4805ZM370.313 20.4805H376.313V14.4805H370.313V20.4805ZM370.313 57.4405V63.4405H376.313V57.4405H370.313ZM362.153 57.4405H356.153V63.4405H362.153V57.4405ZM362.153 42.9605H368.153V36.9605H362.153V42.9605ZM341.193 42.9605V36.9605H335.193V42.9605H341.193ZM341.193 57.4405V63.4405H347.193V57.4405H341.193ZM341.193 34.8805H335.193V40.8805H341.193V34.8805ZM362.153 34.8805V40.8805H368.153V34.8805H362.153ZM362.153 21.2805H368.153V15.2805H362.153V21.2805ZM354.953 21.2805H348.953V27.2805H354.953V21.2805ZM354.953 14.0805H360.953V8.08047H354.953V14.0805ZM348.393 14.0805V8.08047H342.393V14.0805H348.393ZM348.393 21.2805V27.2805H354.393V21.2805H348.393ZM341.193 21.2805V15.2805H335.193V21.2805H341.193ZM333.113 57.4405H339.113V20.4805H333.113H327.113V57.4405H333.113ZM333.113 20.4805V26.4805H340.393V20.4805V14.4805H333.113V20.4805ZM340.393 20.4805H346.393V13.2805H340.393H334.393V20.4805H340.393ZM340.393 13.2805V19.2805H347.593V13.2805V7.28047H340.393V13.2805ZM347.593 13.2805H353.593V6.00047H347.593H341.593V13.2805H347.593ZM347.593 6.00047V12.0005H355.753V6.00047V0.000465393H347.593V6.00047ZM355.753 6.00047H349.753V13.2805H355.753H361.753V6.00047H355.753ZM355.753 13.2805V19.2805H362.953V13.2805V7.28047H355.753V13.2805ZM362.953 13.2805H356.953V20.4805H362.953H368.953V13.2805H362.953ZM362.953 20.4805V26.4805H370.313V20.4805V14.4805H362.953V20.4805ZM370.313 20.4805H364.313V57.4405H370.313H376.313V20.4805H370.313ZM370.313 57.4405V51.4405H362.153V57.4405V63.4405H370.313V57.4405ZM362.153 57.4405H368.153V42.9605H362.153H356.153V57.4405H362.153ZM362.153 42.9605V36.9605H341.193V42.9605V48.9605H362.153V42.9605ZM341.193 42.9605H335.193V57.4405H341.193H347.193V42.9605H341.193ZM341.193 57.4405V51.4405H333.113V57.4405V63.4405H341.193V57.4405ZM341.193 34.8805V40.8805H362.153V34.8805V28.8805H341.193V34.8805ZM362.153 34.8805H368.153V21.2805H362.153H356.153V34.8805H362.153ZM362.153 21.2805V15.2805H354.953V21.2805V27.2805H362.153V21.2805ZM354.953 21.2805H360.953V14.0805H354.953H348.953V21.2805H354.953ZM354.953 14.0805V8.08047H348.393V14.0805V20.0805H354.953V14.0805ZM348.393 14.0805H342.393V21.2805H348.393H354.393V14.0805H348.393ZM348.393 21.2805V15.2805H341.193V21.2805V27.2805H348.393V21.2805ZM341.193 21.2805H335.193V34.8805H341.193H347.193V21.2805H341.193ZM382.388 57.4405H376.388V63.4405H382.388V57.4405ZM382.388 49.4405V43.4405H376.388V49.4405H382.388ZM389.668 49.4405V55.4405H395.668V49.4405H389.668ZM389.668 14.0805H395.668V8.08047H389.668V14.0805ZM382.388 14.0805H376.388V20.0805H382.388V14.0805ZM382.388 6.00047V0.000465393H376.388V6.00047H382.388ZM405.028 6.00047H411.028V0.000465393H405.028V6.00047ZM405.028 14.0805V20.0805H411.028V14.0805H405.028ZM397.668 14.0805V8.08047H391.668V14.0805H397.668ZM397.668 49.4405H391.668V55.4405H397.668V49.4405ZM405.028 49.4405H411.028V43.4405H405.028V49.4405ZM405.028 57.4405V63.4405H411.028V57.4405H405.028ZM382.388 57.4405H388.388V49.4405H382.388H376.388V57.4405H382.388ZM382.388 49.4405V55.4405H389.668V49.4405V43.4405H382.388V49.4405ZM389.668 49.4405H395.668V14.0805H389.668H383.668V49.4405H389.668ZM389.668 14.0805V8.08047H382.388V14.0805V20.0805H389.668V14.0805ZM382.388 14.0805H388.388V6.00047H382.388H376.388V14.0805H382.388ZM382.388 6.00047V12.0005H405.028V6.00047V0.000465393H382.388V6.00047ZM405.028 6.00047H399.028V14.0805H405.028H411.028V6.00047H405.028ZM405.028 14.0805V8.08047H397.668V14.0805V20.0805H405.028V14.0805ZM397.668 14.0805H391.668V49.4405H397.668H403.668V14.0805H397.668ZM397.668 49.4405V55.4405H405.028V49.4405V43.4405H397.668V49.4405ZM405.028 49.4405H399.028V57.4405H405.028H411.028V49.4405H405.028ZM405.028 57.4405V51.4405H382.388V57.4405V63.4405H405.028V57.4405Z" fill="black" mask="url(#path-1-outside-1_287_30378)"/>
</svg>
