<?xml version="1.0" encoding="utf-8"?>
<!-- Generator: Adobe Illustrator 26.1.0, SVG Export Plug-In . SVG Version: 6.00 Build 0)  -->
<svg version="1.1" id="Layer_1" xmlns="http://www.w3.org/2000/svg" xmlns:xlink="http://www.w3.org/1999/xlink" x="0px" y="0px"
	 viewBox="0 0 1306.2 171.2" style="enable-background:new 0 0 1306.2 171.2;" xml:space="preserve">
<style type="text/css">
	.st0{fill:#03203C;}
	.st1{fill:#00B189;}
</style>
<g>
	<g>
		<g>
			<path class="st0" d="M177.7,41.7c2,0,5.7,0.5,8.9,3.7l63.2,63.2c4.9,4.9,4.9,13,0,17.9c-3.2,3.2-7,3.7-8.9,3.7
				c-2,0-5.7-0.5-8.9-3.7l-31.6-31.6l-22.6-22.6l-22.6,22.6l-8.9,8.9l-8.9-8.9l-22.6-22.6L91.9,94.9l-31.6,31.6
				c-3.2,3.2-7,3.7-8.9,3.7c-2,0-5.7-0.5-8.9-3.7c-4.9-4.9-4.9-13,0-17.9l63.2-63.2c3.2-3.2,7-3.7,8.9-3.7c2,0,5.7,0.5,8.9,3.7
				L146.1,68l22.6-22.6C172,42.2,175.8,41.7,177.7,41.7 M177.7,9.7c-11.4,0-22.9,4.4-31.6,13.1C137.4,14,126,9.7,114.6,9.7
				C103.1,9.7,91.7,14,83,22.8L19.8,85.9c-17.4,17.4-17.4,45.7,0,63.2c8.7,8.7,20.2,13.1,31.6,13.1s22.9-4.4,31.6-13.1l31.6-31.6
				L139,142c2,2,4.5,2.9,7.1,2.9s5.1-1,7.1-2.9l24.5-24.5l31.6,31.6c8.7,8.7,20.2,13.1,31.6,13.1s22.9-4.4,31.6-13.1
				c17.4-17.4,17.4-45.7,0-63.2l-63.2-63.2C200.6,14,189.2,9.7,177.7,9.7L177.7,9.7z"/>
		</g>
		<path class="st1" d="M210.3,75.2l-26.7-26.7c-3.2-3.2-8.4-3.2-11.7,0l-25.8,25.8l-25.8-25.8c-3.2-3.2-8.4-3.2-11.7,0L82,75.3
			c-2.9,2.9-3.4,7.6-1.1,10.8c1.4,2,3.6,3.2,6,3.4c2.4,0.2,4.8-0.7,6.5-2.4L114.6,66l31.6,31.6L177.7,66l21.1,21.1
			c1.7,1.7,4.1,2.6,6.5,2.4s4.6-1.4,6-3.4C213.7,82.8,213.2,78.2,210.3,75.2z"/>
	</g>
</g>
<g>
	<path class="st0" d="M440.6,145.2l-9.4-69.3l-31.9,69.5h-9.8l-31.9-69.5l-9.3,69.3h-33.6l18.2-120.4H366l28.4,65.5l28.5-65.5H456
		l18,120.4H440.6z"/>
	<path class="st0" d="M578.6,97.9c0,2.8-0.2,5.6-0.7,8.5h-69c2.1,10.7,8.9,16.2,19,16.2c7.5,0,13.7-3.3,16.8-8.7h31.8
		c-6.5,21.2-25.3,34.4-48.6,34.4c-29,0-50.4-21.2-50.4-49.6c0-28.5,21.3-49.4,50.4-49.4C557.9,49.3,578.6,70.6,578.6,97.9
		L578.6,97.9z M509.5,88.6H547c-2.8-9.3-9.5-14.3-19.2-14.3C518.6,74.3,512.1,79.4,509.5,88.6z"/>
	<path class="st0" d="M691.5,18.8v126.4h-23.7l-3-6.9c-7.6,6.4-17.2,10-28,10c-28.5,0-48.8-20.7-48.8-49.6s20.3-49.5,48.8-49.5
		c8.6,0,16.4,2.3,23.1,6.4V18.8H691.5z M661.9,98.7c0-12.1-8.8-21.3-20.8-21.3s-20.8,9.1-20.8,21.3c0,12.1,8.8,21.3,20.8,21.3
		S661.9,110.9,661.9,98.7z"/>
	<path class="st0" d="M809.3,19.1v126.1h-33.5V96.8h-36.1v48.4h-33.5V19.1h33.5v45.5h36.1V19.1H809.3z"/>
	<path class="st0" d="M824.1,105.3v-53h32v51.6c0,9.8,5.3,15.6,13.8,15.6s13.7-5.9,13.7-15.6V52.3h32v53c0,26-18.3,42.9-45.7,42.9
		C842.5,148.2,824.1,131.3,824.1,105.3z"/>
	<path class="st0" d="M985.1,49.4c28.6,0,48.8,20.5,48.8,49.4s-20.2,49.4-48.8,49.4c-10.8,0-20.5-3.6-28-9.9l-3,6.9h-23.7V18.8H962
		v37C968.7,51.7,976.5,49.4,985.1,49.4L985.1,49.4z M1001.6,98.8c0-12.1-8.8-21.2-20.8-21.2S960,86.7,960,98.8
		c0,12,8.8,21.1,20.8,21.1C992.7,119.9,1001.6,110.8,1001.6,98.8z"/>
	<path class="st0" d="M1057,115.5h1.3c8.2,0,14.9,6.7,14.9,14.9l0,0c0,8.2-6.7,14.9-14.9,14.9h-1.3c-8.2,0-14.9-6.7-14.9-14.9l0,0
		C1042.1,122.1,1048.8,115.5,1057,115.5z"/>
	<path class="st0" d="M1166.9,125.6h-42.7l-6.7,19.6H1082l47.3-120.4h32.4l48.3,120.4h-36.5L1166.9,125.6z M1145.5,62.4l-13.2,37.3
		h26.5L1145.5,62.4z"/>
	<path class="st0" d="M1222.8,24.8h33.6v120.4h-33.6V24.8z"/>
</g>
</svg>
