<svg width="392" height="100" viewBox="0 0 392 100" fill="none" xmlns="http://www.w3.org/2000/svg">
<rect width="392" height="100" fill="#6E71FF"/>
<mask id="path-1-outside-1_515_35661" maskUnits="userSpaceOnUse" x="41" y="21" width="311" height="60" fill="black">
<rect fill="white" x="41" y="21" width="311" height="60"/>
<path d="M45.1344 76.96V32.8H52.4144V25.52H74.9744V32.8H82.3344V55.2H74.9744V62.48H71.4544V68.96H78.6544V76.96H70.6544V69.76H63.2944V62.48H53.2144V76.96H45.1344ZM53.2144 54.4H74.1744V33.6H53.2144V54.4ZM101.689 76.96V69.76H94.4094V32.8H101.689V25.52H124.249V32.8H131.609V69.76H124.249V76.96H101.689ZM102.489 68.96H123.449V33.6H102.489V68.96ZM150.964 76.96V69.76H143.684V25.52H151.764V68.96H172.724V25.52H180.884V69.76H173.524V76.96H150.964ZM192.959 76.96V25.52H201.039V32.8H208.239V40H215.599V61.68H221.999V25.52H230.159V76.96H221.999V69.76H214.799V62.48H207.439V40.8H201.039V76.96H192.959ZM242.234 76.96V25.52H264.874V32.8H272.074V40H279.434V62.48H272.074V69.76H264.874V76.96H242.234ZM250.314 68.96H264.074V61.68H271.274V40.8H264.074V33.6H250.314V68.96ZM317.205 76.96V69.76H309.925V54.4H317.205V47.28H338.965V33.6H318.005V40.8H309.925V32.8H317.205V25.52H339.765V32.8H347.125V48H339.765V55.2H318.005V68.96H338.965V61.68H347.125V69.76H339.765V76.96H317.205Z"/>
</mask>
<path d="M45.1344 76.96V32.8H52.4144V25.52H74.9744V32.8H82.3344V55.2H74.9744V62.48H71.4544V68.96H78.6544V76.96H70.6544V69.76H63.2944V62.48H53.2144V76.96H45.1344ZM53.2144 54.4H74.1744V33.6H53.2144V54.4ZM101.689 76.96V69.76H94.4094V32.8H101.689V25.52H124.249V32.8H131.609V69.76H124.249V76.96H101.689ZM102.489 68.96H123.449V33.6H102.489V68.96ZM150.964 76.96V69.76H143.684V25.52H151.764V68.96H172.724V25.52H180.884V69.76H173.524V76.96H150.964ZM192.959 76.96V25.52H201.039V32.8H208.239V40H215.599V61.68H221.999V25.52H230.159V76.96H221.999V69.76H214.799V62.48H207.439V40.8H201.039V76.96H192.959ZM242.234 76.96V25.52H264.874V32.8H272.074V40H279.434V62.48H272.074V69.76H264.874V76.96H242.234ZM250.314 68.96H264.074V61.68H271.274V40.8H264.074V33.6H250.314V68.96ZM317.205 76.96V69.76H309.925V54.4H317.205V47.28H338.965V33.6H318.005V40.8H309.925V32.8H317.205V25.52H339.765V32.8H347.125V48H339.765V55.2H318.005V68.96H338.965V61.68H347.125V69.76H339.765V76.96H317.205Z" fill="white"/>
<path d="M45.1344 76.96H41.1344V80.96H45.1344V76.96ZM45.1344 32.8V28.8H41.1344V32.8H45.1344ZM52.4144 32.8V36.8H56.4144V32.8H52.4144ZM52.4144 25.52V21.52H48.4144V25.52H52.4144ZM74.9744 25.52H78.9744V21.52H74.9744V25.52ZM74.9744 32.8H70.9744V36.8H74.9744V32.8ZM82.3344 32.8H86.3344V28.8H82.3344V32.8ZM82.3344 55.2V59.2H86.3344V55.2H82.3344ZM74.9744 55.2V51.2H70.9744V55.2H74.9744ZM74.9744 62.48V66.48H78.9744V62.48H74.9744ZM71.4544 62.48V58.48H67.4544V62.48H71.4544ZM71.4544 68.96H67.4544V72.96H71.4544V68.96ZM78.6544 68.96H82.6544V64.96H78.6544V68.96ZM78.6544 76.96V80.96H82.6544V76.96H78.6544ZM70.6544 76.96H66.6544V80.96H70.6544V76.96ZM70.6544 69.76H74.6544V65.76H70.6544V69.76ZM63.2944 69.76H59.2944V73.76H63.2944V69.76ZM63.2944 62.48H67.2944V58.48H63.2944V62.48ZM53.2144 62.48V58.48H49.2144V62.48H53.2144ZM53.2144 76.96V80.96H57.2144V76.96H53.2144ZM53.2144 54.4H49.2144V58.4H53.2144V54.4ZM74.1744 54.4V58.4H78.1744V54.4H74.1744ZM74.1744 33.6H78.1744V29.6H74.1744V33.6ZM53.2144 33.6V29.6H49.2144V33.6H53.2144ZM45.1344 76.96H49.1344V32.8H45.1344H41.1344V76.96H45.1344ZM45.1344 32.8V36.8H52.4144V32.8V28.8H45.1344V32.8ZM52.4144 32.8H56.4144V25.52H52.4144H48.4144V32.8H52.4144ZM52.4144 25.52V29.52H74.9744V25.52V21.52H52.4144V25.52ZM74.9744 25.52H70.9744V32.8H74.9744H78.9744V25.52H74.9744ZM74.9744 32.8V36.8H82.3344V32.8V28.8H74.9744V32.8ZM82.3344 32.8H78.3344V55.2H82.3344H86.3344V32.8H82.3344ZM82.3344 55.2V51.2H74.9744V55.2V59.2H82.3344V55.2ZM74.9744 55.2H70.9744V62.48H74.9744H78.9744V55.2H74.9744ZM74.9744 62.48V58.48H71.4544V62.48V66.48H74.9744V62.48ZM71.4544 62.48H67.4544V68.96H71.4544H75.4544V62.48H71.4544ZM71.4544 68.96V72.96H78.6544V68.96V64.96H71.4544V68.96ZM78.6544 68.96H74.6544V76.96H78.6544H82.6544V68.96H78.6544ZM78.6544 76.96V72.96H70.6544V76.96V80.96H78.6544V76.96ZM70.6544 76.96H74.6544V69.76H70.6544H66.6544V76.96H70.6544ZM70.6544 69.76V65.76H63.2944V69.76V73.76H70.6544V69.76ZM63.2944 69.76H67.2944V62.48H63.2944H59.2944V69.76H63.2944ZM63.2944 62.48V58.48H53.2144V62.48V66.48H63.2944V62.48ZM53.2144 62.48H49.2144V76.96H53.2144H57.2144V62.48H53.2144ZM53.2144 76.96V72.96H45.1344V76.96V80.96H53.2144V76.96ZM53.2144 54.4V58.4H74.1744V54.4V50.4H53.2144V54.4ZM74.1744 54.4H78.1744V33.6H74.1744H70.1744V54.4H74.1744ZM74.1744 33.6V29.6H53.2144V33.6V37.6H74.1744V33.6ZM53.2144 33.6H49.2144V54.4H53.2144H57.2144V33.6H53.2144ZM101.689 76.96H97.6894V80.96H101.689V76.96ZM101.689 69.76H105.689V65.76H101.689V69.76ZM94.4094 69.76H90.4094V73.76H94.4094V69.76ZM94.4094 32.8V28.8H90.4094V32.8H94.4094ZM101.689 32.8V36.8H105.689V32.8H101.689ZM101.689 25.52V21.52H97.6894V25.52H101.689ZM124.249 25.52H128.249V21.52H124.249V25.52ZM124.249 32.8H120.249V36.8H124.249V32.8ZM131.609 32.8H135.609V28.8H131.609V32.8ZM131.609 69.76V73.76H135.609V69.76H131.609ZM124.249 69.76V65.76H120.249V69.76H124.249ZM124.249 76.96V80.96H128.249V76.96H124.249ZM102.489 68.96H98.4894V72.96H102.489V68.96ZM123.449 68.96V72.96H127.449V68.96H123.449ZM123.449 33.6H127.449V29.6H123.449V33.6ZM102.489 33.6V29.6H98.4894V33.6H102.489ZM101.689 76.96H105.689V69.76H101.689H97.6894V76.96H101.689ZM101.689 69.76V65.76H94.4094V69.76V73.76H101.689V69.76ZM94.4094 69.76H98.4094V32.8H94.4094H90.4094V69.76H94.4094ZM94.4094 32.8V36.8H101.689V32.8V28.8H94.4094V32.8ZM101.689 32.8H105.689V25.52H101.689H97.6894V32.8H101.689ZM101.689 25.52V29.52H124.249V25.52V21.52H101.689V25.52ZM124.249 25.52H120.249V32.8H124.249H128.249V25.52H124.249ZM124.249 32.8V36.8H131.609V32.8V28.8H124.249V32.8ZM131.609 32.8H127.609V69.76H131.609H135.609V32.8H131.609ZM131.609 69.76V65.76H124.249V69.76V73.76H131.609V69.76ZM124.249 69.76H120.249V76.96H124.249H128.249V69.76H124.249ZM124.249 76.96V72.96H101.689V76.96V80.96H124.249V76.96ZM102.489 68.96V72.96H123.449V68.96V64.96H102.489V68.96ZM123.449 68.96H127.449V33.6H123.449H119.449V68.96H123.449ZM123.449 33.6V29.6H102.489V33.6V37.6H123.449V33.6ZM102.489 33.6H98.4894V68.96H102.489H106.489V33.6H102.489ZM150.964 76.96H146.964V80.96H150.964V76.96ZM150.964 69.76H154.964V65.76H150.964V69.76ZM143.684 69.76H139.684V73.76H143.684V69.76ZM143.684 25.52V21.52H139.684V25.52H143.684ZM151.764 25.52H155.764V21.52H151.764V25.52ZM151.764 68.96H147.764V72.96H151.764V68.96ZM172.724 68.96V72.96H176.724V68.96H172.724ZM172.724 25.52V21.52H168.724V25.52H172.724ZM180.884 25.52H184.884V21.52H180.884V25.52ZM180.884 69.76V73.76H184.884V69.76H180.884ZM173.524 69.76V65.76H169.524V69.76H173.524ZM173.524 76.96V80.96H177.524V76.96H173.524ZM150.964 76.96H154.964V69.76H150.964H146.964V76.96H150.964ZM150.964 69.76V65.76H143.684V69.76V73.76H150.964V69.76ZM143.684 69.76H147.684V25.52H143.684H139.684V69.76H143.684ZM143.684 25.52V29.52H151.764V25.52V21.52H143.684V25.52ZM151.764 25.52H147.764V68.96H151.764H155.764V25.52H151.764ZM151.764 68.96V72.96H172.724V68.96V64.96H151.764V68.96ZM172.724 68.96H176.724V25.52H172.724H168.724V68.96H172.724ZM172.724 25.52V29.52H180.884V25.52V21.52H172.724V25.52ZM180.884 25.52H176.884V69.76H180.884H184.884V25.52H180.884ZM180.884 69.76V65.76H173.524V69.76V73.76H180.884V69.76ZM173.524 69.76H169.524V76.96H173.524H177.524V69.76H173.524ZM173.524 76.96V72.96H150.964V76.96V80.96H173.524V76.96ZM192.959 76.96H188.959V80.96H192.959V76.96ZM192.959 25.52V21.52H188.959V25.52H192.959ZM201.039 25.52H205.039V21.52H201.039V25.52ZM201.039 32.8H197.039V36.8H201.039V32.8ZM208.239 32.8H212.239V28.8H208.239V32.8ZM208.239 40H204.239V44H208.239V40ZM215.599 40H219.599V36H215.599V40ZM215.599 61.68H211.599V65.68H215.599V61.68ZM221.999 61.68V65.68H225.999V61.68H221.999ZM221.999 25.52V21.52H217.999V25.52H221.999ZM230.159 25.52H234.159V21.52H230.159V25.52ZM230.159 76.96V80.96H234.159V76.96H230.159ZM221.999 76.96H217.999V80.96H221.999V76.96ZM221.999 69.76H225.999V65.76H221.999V69.76ZM214.799 69.76H210.799V73.76H214.799V69.76ZM214.799 62.48H218.799V58.48H214.799V62.48ZM207.439 62.48H203.439V66.48H207.439V62.48ZM207.439 40.8H211.439V36.8H207.439V40.8ZM201.039 40.8V36.8H197.039V40.8H201.039ZM201.039 76.96V80.96H205.039V76.96H201.039ZM192.959 76.96H196.959V25.52H192.959H188.959V76.96H192.959ZM192.959 25.52V29.52H201.039V25.52V21.52H192.959V25.52ZM201.039 25.52H197.039V32.8H201.039H205.039V25.52H201.039ZM201.039 32.8V36.8H208.239V32.8V28.8H201.039V32.8ZM208.239 32.8H204.239V40H208.239H212.239V32.8H208.239ZM208.239 40V44H215.599V40V36H208.239V40ZM215.599 40H211.599V61.68H215.599H219.599V40H215.599ZM215.599 61.68V65.68H221.999V61.68V57.68H215.599V61.68ZM221.999 61.68H225.999V25.52H221.999H217.999V61.68H221.999ZM221.999 25.52V29.52H230.159V25.52V21.52H221.999V25.52ZM230.159 25.52H226.159V76.96H230.159H234.159V25.52H230.159ZM230.159 76.96V72.96H221.999V76.96V80.96H230.159V76.96ZM221.999 76.96H225.999V69.76H221.999H217.999V76.96H221.999ZM221.999 69.76V65.76H214.799V69.76V73.76H221.999V69.76ZM214.799 69.76H218.799V62.48H214.799H210.799V69.76H214.799ZM214.799 62.48V58.48H207.439V62.48V66.48H214.799V62.48ZM207.439 62.48H211.439V40.8H207.439H203.439V62.48H207.439ZM207.439 40.8V36.8H201.039V40.8V44.8H207.439V40.8ZM201.039 40.8H197.039V76.96H201.039H205.039V40.8H201.039ZM201.039 76.96V72.96H192.959V76.96V80.96H201.039V76.96ZM242.234 76.96H238.234V80.96H242.234V76.96ZM242.234 25.52V21.52H238.234V25.52H242.234ZM264.874 25.52H268.874V21.52H264.874V25.52ZM264.874 32.8H260.874V36.8H264.874V32.8ZM272.074 32.8H276.074V28.8H272.074V32.8ZM272.074 40H268.074V44H272.074V40ZM279.434 40H283.434V36H279.434V40ZM279.434 62.48V66.48H283.434V62.48H279.434ZM272.074 62.48V58.48H268.074V62.48H272.074ZM272.074 69.76V73.76H276.074V69.76H272.074ZM264.874 69.76V65.76H260.874V69.76H264.874ZM264.874 76.96V80.96H268.874V76.96H264.874ZM250.314 68.96H246.314V72.96H250.314V68.96ZM264.074 68.96V72.96H268.074V68.96H264.074ZM264.074 61.68V57.68H260.074V61.68H264.074ZM271.274 61.68V65.68H275.274V61.68H271.274ZM271.274 40.8H275.274V36.8H271.274V40.8ZM264.074 40.8H260.074V44.8H264.074V40.8ZM264.074 33.6H268.074V29.6H264.074V33.6ZM250.314 33.6V29.6H246.314V33.6H250.314ZM242.234 76.96H246.234V25.52H242.234H238.234V76.96H242.234ZM242.234 25.52V29.52H264.874V25.52V21.52H242.234V25.52ZM264.874 25.52H260.874V32.8H264.874H268.874V25.52H264.874ZM264.874 32.8V36.8H272.074V32.8V28.8H264.874V32.8ZM272.074 32.8H268.074V40H272.074H276.074V32.8H272.074ZM272.074 40V44H279.434V40V36H272.074V40ZM279.434 40H275.434V62.48H279.434H283.434V40H279.434ZM279.434 62.48V58.48H272.074V62.48V66.48H279.434V62.48ZM272.074 62.48H268.074V69.76H272.074H276.074V62.48H272.074ZM272.074 69.76V65.76H264.874V69.76V73.76H272.074V69.76ZM264.874 69.76H260.874V76.96H264.874H268.874V69.76H264.874ZM264.874 76.96V72.96H242.234V76.96V80.96H264.874V76.96ZM250.314 68.96V72.96H264.074V68.96V64.96H250.314V68.96ZM264.074 68.96H268.074V61.68H264.074H260.074V68.96H264.074ZM264.074 61.68V65.68H271.274V61.68V57.68H264.074V61.68ZM271.274 61.68H275.274V40.8H271.274H267.274V61.68H271.274ZM271.274 40.8V36.8H264.074V40.8V44.8H271.274V40.8ZM264.074 40.8H268.074V33.6H264.074H260.074V40.8H264.074ZM264.074 33.6V29.6H250.314V33.6V37.6H264.074V33.6ZM250.314 33.6H246.314V68.96H250.314H254.314V33.6H250.314ZM317.205 76.96H313.205V80.96H317.205V76.96ZM317.205 69.76H321.205V65.76H317.205V69.76ZM309.925 69.76H305.925V73.76H309.925V69.76ZM309.925 54.4V50.4H305.925V54.4H309.925ZM317.205 54.4V58.4H321.205V54.4H317.205ZM317.205 47.28V43.28H313.205V47.28H317.205ZM338.965 47.28V51.28H342.965V47.28H338.965ZM338.965 33.6H342.965V29.6H338.965V33.6ZM318.005 33.6V29.6H314.005V33.6H318.005ZM318.005 40.8V44.8H322.005V40.8H318.005ZM309.925 40.8H305.925V44.8H309.925V40.8ZM309.925 32.8V28.8H305.925V32.8H309.925ZM317.205 32.8V36.8H321.205V32.8H317.205ZM317.205 25.52V21.52H313.205V25.52H317.205ZM339.765 25.52H343.765V21.52H339.765V25.52ZM339.765 32.8H335.765V36.8H339.765V32.8ZM347.125 32.8H351.125V28.8H347.125V32.8ZM347.125 48V52H351.125V48H347.125ZM339.765 48V44H335.765V48H339.765ZM339.765 55.2V59.2H343.765V55.2H339.765ZM318.005 55.2V51.2H314.005V55.2H318.005ZM318.005 68.96H314.005V72.96H318.005V68.96ZM338.965 68.96V72.96H342.965V68.96H338.965ZM338.965 61.68V57.68H334.965V61.68H338.965ZM347.125 61.68H351.125V57.68H347.125V61.68ZM347.125 69.76V73.76H351.125V69.76H347.125ZM339.765 69.76V65.76H335.765V69.76H339.765ZM339.765 76.96V80.96H343.765V76.96H339.765ZM317.205 76.96H321.205V69.76H317.205H313.205V76.96H317.205ZM317.205 69.76V65.76H309.925V69.76V73.76H317.205V69.76ZM309.925 69.76H313.925V54.4H309.925H305.925V69.76H309.925ZM309.925 54.4V58.4H317.205V54.4V50.4H309.925V54.4ZM317.205 54.4H321.205V47.28H317.205H313.205V54.4H317.205ZM317.205 47.28V51.28H338.965V47.28V43.28H317.205V47.28ZM338.965 47.28H342.965V33.6H338.965H334.965V47.28H338.965ZM338.965 33.6V29.6H318.005V33.6V37.6H338.965V33.6ZM318.005 33.6H314.005V40.8H318.005H322.005V33.6H318.005ZM318.005 40.8V36.8H309.925V40.8V44.8H318.005V40.8ZM309.925 40.8H313.925V32.8H309.925H305.925V40.8H309.925ZM309.925 32.8V36.8H317.205V32.8V28.8H309.925V32.8ZM317.205 32.8H321.205V25.52H317.205H313.205V32.8H317.205ZM317.205 25.52V29.52H339.765V25.52V21.52H317.205V25.52ZM339.765 25.52H335.765V32.8H339.765H343.765V25.52H339.765ZM339.765 32.8V36.8H347.125V32.8V28.8H339.765V32.8ZM347.125 32.8H343.125V48H347.125H351.125V32.8H347.125ZM347.125 48V44H339.765V48V52H347.125V48ZM339.765 48H335.765V55.2H339.765H343.765V48H339.765ZM339.765 55.2V51.2H318.005V55.2V59.2H339.765V55.2ZM318.005 55.2H314.005V68.96H318.005H322.005V55.2H318.005ZM318.005 68.96V72.96H338.965V68.96V64.96H318.005V68.96ZM338.965 68.96H342.965V61.68H338.965H334.965V68.96H338.965ZM338.965 61.68V65.68H347.125V61.68V57.68H338.965V61.68ZM347.125 61.68H343.125V69.76H347.125H351.125V61.68H347.125ZM347.125 69.76V65.76H339.765V69.76V73.76H347.125V69.76ZM339.765 69.76H335.765V76.96H339.765H343.765V69.76H339.765ZM339.765 76.96V72.96H317.205V76.96V80.96H339.765V76.96Z" fill="black" mask="url(#path-1-outside-1_515_35661)"/>
</svg>
