<svg width="536" height="78" viewBox="0 0 536 78" fill="none" xmlns="http://www.w3.org/2000/svg">
<mask id="path-1-outside-1_287_30376" maskUnits="userSpaceOnUse" x="-0.800781" y="-0.519531" width="537" height="79" fill="black">
<rect fill="white" x="-0.800781" y="-0.519531" width="537" height="79"/>
<path d="M13.2792 57.4405V50.2405H5.99922V13.2805H13.2792V6.00047H35.8392V13.2805H43.1992V50.2405H35.8392V57.4405H13.2792ZM14.0792 49.4405H35.0392V14.0805H14.0792V49.4405ZM55.2742 57.4405V27.7605H62.5542V20.4805H85.1142V27.7605H92.4742V35.6805H84.3142V28.4805H63.3542V57.4405H55.2742ZM110.267 71.9205V64.7205H102.987V56.7205H111.067V63.9205H132.107V50.2405H110.267V42.9605H102.987V27.7605H110.267V20.4805H132.907V27.7605H140.187V64.7205H132.907V71.9205H110.267ZM111.067 42.1605H132.107V28.4805H111.067V42.1605ZM157.12 57.4405V50.2405H149.84V27.7605H157.12V20.4805H179.68V27.7605H187.04V49.4405H194.32V57.4405H186.24V50.2405H179.68V57.4405H157.12ZM157.92 49.4405H178.88V28.4805H157.92V49.4405ZM203.959 57.4405V20.4805H233.799V27.7605H241.159V57.4405H232.999V28.4805H212.039V57.4405H203.959ZM253.234 57.4405V20.4805H261.314V57.4405H253.234ZM253.234 14.0805V6.00047H261.314V14.0805H253.234ZM272.587 57.4405V49.4405H279.867V42.1605H287.067V34.8805H294.427V28.4805H272.587V20.4805H309.787V28.4805H302.427V35.6805H295.227V42.9605H287.867V49.4405H309.787V57.4405H272.587ZM327.579 57.4405V50.2405H320.299V27.7605H327.579V20.4805H350.139V27.7605H357.499V49.4405H364.779V57.4405H356.699V50.2405H350.139V57.4405H327.579ZM328.379 49.4405H349.339V28.4805H328.379V49.4405ZM382.492 57.4405V50.2405H375.292V28.4805H368.012V20.4805H375.292V6.00047H383.292V20.4805H405.212V28.4805H383.292V49.4405H404.412V42.1605H412.492V50.2405H405.212V57.4405H382.492ZM424.552 57.4405V20.4805H432.632V57.4405H424.552ZM424.552 14.0805V6.00047H432.632V14.0805H424.552ZM450.404 57.4405V50.2405H443.124V27.7605H450.404V20.4805H472.964V27.7605H480.324V50.2405H472.964V57.4405H450.404ZM451.204 49.4405H472.164V28.4805H451.204V49.4405ZM492.399 57.4405V20.4805H522.239V27.7605H529.599V57.4405H521.439V28.4805H500.479V57.4405H492.399Z"/>
</mask>
<path d="M13.2792 57.4405V50.2405H5.99922V13.2805H13.2792V6.00047H35.8392V13.2805H43.1992V50.2405H35.8392V57.4405H13.2792ZM14.0792 49.4405H35.0392V14.0805H14.0792V49.4405ZM55.2742 57.4405V27.7605H62.5542V20.4805H85.1142V27.7605H92.4742V35.6805H84.3142V28.4805H63.3542V57.4405H55.2742ZM110.267 71.9205V64.7205H102.987V56.7205H111.067V63.9205H132.107V50.2405H110.267V42.9605H102.987V27.7605H110.267V20.4805H132.907V27.7605H140.187V64.7205H132.907V71.9205H110.267ZM111.067 42.1605H132.107V28.4805H111.067V42.1605ZM157.12 57.4405V50.2405H149.84V27.7605H157.12V20.4805H179.68V27.7605H187.04V49.4405H194.32V57.4405H186.24V50.2405H179.68V57.4405H157.12ZM157.92 49.4405H178.88V28.4805H157.92V49.4405ZM203.959 57.4405V20.4805H233.799V27.7605H241.159V57.4405H232.999V28.4805H212.039V57.4405H203.959ZM253.234 57.4405V20.4805H261.314V57.4405H253.234ZM253.234 14.0805V6.00047H261.314V14.0805H253.234ZM272.587 57.4405V49.4405H279.867V42.1605H287.067V34.8805H294.427V28.4805H272.587V20.4805H309.787V28.4805H302.427V35.6805H295.227V42.9605H287.867V49.4405H309.787V57.4405H272.587ZM327.579 57.4405V50.2405H320.299V27.7605H327.579V20.4805H350.139V27.7605H357.499V49.4405H364.779V57.4405H356.699V50.2405H350.139V57.4405H327.579ZM328.379 49.4405H349.339V28.4805H328.379V49.4405ZM382.492 57.4405V50.2405H375.292V28.4805H368.012V20.4805H375.292V6.00047H383.292V20.4805H405.212V28.4805H383.292V49.4405H404.412V42.1605H412.492V50.2405H405.212V57.4405H382.492ZM424.552 57.4405V20.4805H432.632V57.4405H424.552ZM424.552 14.0805V6.00047H432.632V14.0805H424.552ZM450.404 57.4405V50.2405H443.124V27.7605H450.404V20.4805H472.964V27.7605H480.324V50.2405H472.964V57.4405H450.404ZM451.204 49.4405H472.164V28.4805H451.204V49.4405ZM492.399 57.4405V20.4805H522.239V27.7605H529.599V57.4405H521.439V28.4805H500.479V57.4405H492.399Z" fill="#FEEF2C"/>
<path d="M13.2792 57.4405H7.27922V63.4405H13.2792V57.4405ZM13.2792 50.2405H19.2792V44.2405H13.2792V50.2405ZM5.99922 50.2405H-0.000781059V56.2405H5.99922V50.2405ZM5.99922 13.2805V7.28047H-0.000781059V13.2805H5.99922ZM13.2792 13.2805V19.2805H19.2792V13.2805H13.2792ZM13.2792 6.00047V0.000465393H7.27922V6.00047H13.2792ZM35.8392 6.00047H41.8392V0.000465393H35.8392V6.00047ZM35.8392 13.2805H29.8392V19.2805H35.8392V13.2805ZM43.1992 13.2805H49.1992V7.28047H43.1992V13.2805ZM43.1992 50.2405V56.2405H49.1992V50.2405H43.1992ZM35.8392 50.2405V44.2405H29.8392V50.2405H35.8392ZM35.8392 57.4405V63.4405H41.8392V57.4405H35.8392ZM14.0792 49.4405H8.07922V55.4405H14.0792V49.4405ZM35.0392 49.4405V55.4405H41.0392V49.4405H35.0392ZM35.0392 14.0805H41.0392V8.08047H35.0392V14.0805ZM14.0792 14.0805V8.08047H8.07922V14.0805H14.0792ZM13.2792 57.4405H19.2792V50.2405H13.2792H7.27922V57.4405H13.2792ZM13.2792 50.2405V44.2405H5.99922V50.2405V56.2405H13.2792V50.2405ZM5.99922 50.2405H11.9992V13.2805H5.99922H-0.000781059V50.2405H5.99922ZM5.99922 13.2805V19.2805H13.2792V13.2805V7.28047H5.99922V13.2805ZM13.2792 13.2805H19.2792V6.00047H13.2792H7.27922V13.2805H13.2792ZM13.2792 6.00047V12.0005H35.8392V6.00047V0.000465393H13.2792V6.00047ZM35.8392 6.00047H29.8392V13.2805H35.8392H41.8392V6.00047H35.8392ZM35.8392 13.2805V19.2805H43.1992V13.2805V7.28047H35.8392V13.2805ZM43.1992 13.2805H37.1992V50.2405H43.1992H49.1992V13.2805H43.1992ZM43.1992 50.2405V44.2405H35.8392V50.2405V56.2405H43.1992V50.2405ZM35.8392 50.2405H29.8392V57.4405H35.8392H41.8392V50.2405H35.8392ZM35.8392 57.4405V51.4405H13.2792V57.4405V63.4405H35.8392V57.4405ZM14.0792 49.4405V55.4405H35.0392V49.4405V43.4405H14.0792V49.4405ZM35.0392 49.4405H41.0392V14.0805H35.0392H29.0392V49.4405H35.0392ZM35.0392 14.0805V8.08047H14.0792V14.0805V20.0805H35.0392V14.0805ZM14.0792 14.0805H8.07922V49.4405H14.0792H20.0792V14.0805H14.0792ZM55.2742 57.4405H49.2742V63.4405H55.2742V57.4405ZM55.2742 27.7605V21.7605H49.2742V27.7605H55.2742ZM62.5542 27.7605V33.7605H68.5542V27.7605H62.5542ZM62.5542 20.4805V14.4805H56.5542V20.4805H62.5542ZM85.1142 20.4805H91.1142V14.4805H85.1142V20.4805ZM85.1142 27.7605H79.1142V33.7605H85.1142V27.7605ZM92.4742 27.7605H98.4742V21.7605H92.4742V27.7605ZM92.4742 35.6805V41.6805H98.4742V35.6805H92.4742ZM84.3142 35.6805H78.3142V41.6805H84.3142V35.6805ZM84.3142 28.4805H90.3142V22.4805H84.3142V28.4805ZM63.3542 28.4805V22.4805H57.3542V28.4805H63.3542ZM63.3542 57.4405V63.4405H69.3542V57.4405H63.3542ZM55.2742 57.4405H61.2742V27.7605H55.2742H49.2742V57.4405H55.2742ZM55.2742 27.7605V33.7605H62.5542V27.7605V21.7605H55.2742V27.7605ZM62.5542 27.7605H68.5542V20.4805H62.5542H56.5542V27.7605H62.5542ZM62.5542 20.4805V26.4805H85.1142V20.4805V14.4805H62.5542V20.4805ZM85.1142 20.4805H79.1142V27.7605H85.1142H91.1142V20.4805H85.1142ZM85.1142 27.7605V33.7605H92.4742V27.7605V21.7605H85.1142V27.7605ZM92.4742 27.7605H86.4742V35.6805H92.4742H98.4742V27.7605H92.4742ZM92.4742 35.6805V29.6805H84.3142V35.6805V41.6805H92.4742V35.6805ZM84.3142 35.6805H90.3142V28.4805H84.3142H78.3142V35.6805H84.3142ZM84.3142 28.4805V22.4805H63.3542V28.4805V34.4805H84.3142V28.4805ZM63.3542 28.4805H57.3542V57.4405H63.3542H69.3542V28.4805H63.3542ZM63.3542 57.4405V51.4405H55.2742V57.4405V63.4405H63.3542V57.4405ZM110.267 71.9205H104.267V77.9205H110.267V71.9205ZM110.267 64.7205H116.267V58.7205H110.267V64.7205ZM102.987 64.7205H96.9867V70.7205H102.987V64.7205ZM102.987 56.7205V50.7205H96.9867V56.7205H102.987ZM111.067 56.7205H117.067V50.7205H111.067V56.7205ZM111.067 63.9205H105.067V69.9205H111.067V63.9205ZM132.107 63.9205V69.9205H138.107V63.9205H132.107ZM132.107 50.2405H138.107V44.2405H132.107V50.2405ZM110.267 50.2405H104.267V56.2405H110.267V50.2405ZM110.267 42.9605H116.267V36.9605H110.267V42.9605ZM102.987 42.9605H96.9867V48.9605H102.987V42.9605ZM102.987 27.7605V21.7605H96.9867V27.7605H102.987ZM110.267 27.7605V33.7605H116.267V27.7605H110.267ZM110.267 20.4805V14.4805H104.267V20.4805H110.267ZM132.907 20.4805H138.907V14.4805H132.907V20.4805ZM132.907 27.7605H126.907V33.7605H132.907V27.7605ZM140.187 27.7605H146.187V21.7605H140.187V27.7605ZM140.187 64.7205V70.7205H146.187V64.7205H140.187ZM132.907 64.7205V58.7205H126.907V64.7205H132.907ZM132.907 71.9205V77.9205H138.907V71.9205H132.907ZM111.067 42.1605H105.067V48.1605H111.067V42.1605ZM132.107 42.1605V48.1605H138.107V42.1605H132.107ZM132.107 28.4805H138.107V22.4805H132.107V28.4805ZM111.067 28.4805V22.4805H105.067V28.4805H111.067ZM110.267 71.9205H116.267V64.7205H110.267H104.267V71.9205H110.267ZM110.267 64.7205V58.7205H102.987V64.7205V70.7205H110.267V64.7205ZM102.987 64.7205H108.987V56.7205H102.987H96.9867V64.7205H102.987ZM102.987 56.7205V62.7205H111.067V56.7205V50.7205H102.987V56.7205ZM111.067 56.7205H105.067V63.9205H111.067H117.067V56.7205H111.067ZM111.067 63.9205V69.9205H132.107V63.9205V57.9205H111.067V63.9205ZM132.107 63.9205H138.107V50.2405H132.107H126.107V63.9205H132.107ZM132.107 50.2405V44.2405H110.267V50.2405V56.2405H132.107V50.2405ZM110.267 50.2405H116.267V42.9605H110.267H104.267V50.2405H110.267ZM110.267 42.9605V36.9605H102.987V42.9605V48.9605H110.267V42.9605ZM102.987 42.9605H108.987V27.7605H102.987H96.9867V42.9605H102.987ZM102.987 27.7605V33.7605H110.267V27.7605V21.7605H102.987V27.7605ZM110.267 27.7605H116.267V20.4805H110.267H104.267V27.7605H110.267ZM110.267 20.4805V26.4805H132.907V20.4805V14.4805H110.267V20.4805ZM132.907 20.4805H126.907V27.7605H132.907H138.907V20.4805H132.907ZM132.907 27.7605V33.7605H140.187V27.7605V21.7605H132.907V27.7605ZM140.187 27.7605H134.187V64.7205H140.187H146.187V27.7605H140.187ZM140.187 64.7205V58.7205H132.907V64.7205V70.7205H140.187V64.7205ZM132.907 64.7205H126.907V71.9205H132.907H138.907V64.7205H132.907ZM132.907 71.9205V65.9205H110.267V71.9205V77.9205H132.907V71.9205ZM111.067 42.1605V48.1605H132.107V42.1605V36.1605H111.067V42.1605ZM132.107 42.1605H138.107V28.4805H132.107H126.107V42.1605H132.107ZM132.107 28.4805V22.4805H111.067V28.4805V34.4805H132.107V28.4805ZM111.067 28.4805H105.067V42.1605H111.067H117.067V28.4805H111.067ZM157.12 57.4405H151.12V63.4405H157.12V57.4405ZM157.12 50.2405H163.12V44.2405H157.12V50.2405ZM149.84 50.2405H143.84V56.2405H149.84V50.2405ZM149.84 27.7605V21.7605H143.84V27.7605H149.84ZM157.12 27.7605V33.7605H163.12V27.7605H157.12ZM157.12 20.4805V14.4805H151.12V20.4805H157.12ZM179.68 20.4805H185.68V14.4805H179.68V20.4805ZM179.68 27.7605H173.68V33.7605H179.68V27.7605ZM187.04 27.7605H193.04V21.7605H187.04V27.7605ZM187.04 49.4405H181.04V55.4405H187.04V49.4405ZM194.32 49.4405H200.32V43.4405H194.32V49.4405ZM194.32 57.4405V63.4405H200.32V57.4405H194.32ZM186.24 57.4405H180.24V63.4405H186.24V57.4405ZM186.24 50.2405H192.24V44.2405H186.24V50.2405ZM179.68 50.2405V44.2405H173.68V50.2405H179.68ZM179.68 57.4405V63.4405H185.68V57.4405H179.68ZM157.92 49.4405H151.92V55.4405H157.92V49.4405ZM178.88 49.4405V55.4405H184.88V49.4405H178.88ZM178.88 28.4805H184.88V22.4805H178.88V28.4805ZM157.92 28.4805V22.4805H151.92V28.4805H157.92ZM157.12 57.4405H163.12V50.2405H157.12H151.12V57.4405H157.12ZM157.12 50.2405V44.2405H149.84V50.2405V56.2405H157.12V50.2405ZM149.84 50.2405H155.84V27.7605H149.84H143.84V50.2405H149.84ZM149.84 27.7605V33.7605H157.12V27.7605V21.7605H149.84V27.7605ZM157.12 27.7605H163.12V20.4805H157.12H151.12V27.7605H157.12ZM157.12 20.4805V26.4805H179.68V20.4805V14.4805H157.12V20.4805ZM179.68 20.4805H173.68V27.7605H179.68H185.68V20.4805H179.68ZM179.68 27.7605V33.7605H187.04V27.7605V21.7605H179.68V27.7605ZM187.04 27.7605H181.04V49.4405H187.04H193.04V27.7605H187.04ZM187.04 49.4405V55.4405H194.32V49.4405V43.4405H187.04V49.4405ZM194.32 49.4405H188.32V57.4405H194.32H200.32V49.4405H194.32ZM194.32 57.4405V51.4405H186.24V57.4405V63.4405H194.32V57.4405ZM186.24 57.4405H192.24V50.2405H186.24H180.24V57.4405H186.24ZM186.24 50.2405V44.2405H179.68V50.2405V56.2405H186.24V50.2405ZM179.68 50.2405H173.68V57.4405H179.68H185.68V50.2405H179.68ZM179.68 57.4405V51.4405H157.12V57.4405V63.4405H179.68V57.4405ZM157.92 49.4405V55.4405H178.88V49.4405V43.4405H157.92V49.4405ZM178.88 49.4405H184.88V28.4805H178.88H172.88V49.4405H178.88ZM178.88 28.4805V22.4805H157.92V28.4805V34.4805H178.88V28.4805ZM157.92 28.4805H151.92V49.4405H157.92H163.92V28.4805H157.92ZM203.959 57.4405H197.959V63.4405H203.959V57.4405ZM203.959 20.4805V14.4805H197.959V20.4805H203.959ZM233.799 20.4805H239.799V14.4805H233.799V20.4805ZM233.799 27.7605H227.799V33.7605H233.799V27.7605ZM241.159 27.7605H247.159V21.7605H241.159V27.7605ZM241.159 57.4405V63.4405H247.159V57.4405H241.159ZM232.999 57.4405H226.999V63.4405H232.999V57.4405ZM232.999 28.4805H238.999V22.4805H232.999V28.4805ZM212.039 28.4805V22.4805H206.039V28.4805H212.039ZM212.039 57.4405V63.4405H218.039V57.4405H212.039ZM203.959 57.4405H209.959V20.4805H203.959H197.959V57.4405H203.959ZM203.959 20.4805V26.4805H233.799V20.4805V14.4805H203.959V20.4805ZM233.799 20.4805H227.799V27.7605H233.799H239.799V20.4805H233.799ZM233.799 27.7605V33.7605H241.159V27.7605V21.7605H233.799V27.7605ZM241.159 27.7605H235.159V57.4405H241.159H247.159V27.7605H241.159ZM241.159 57.4405V51.4405H232.999V57.4405V63.4405H241.159V57.4405ZM232.999 57.4405H238.999V28.4805H232.999H226.999V57.4405H232.999ZM232.999 28.4805V22.4805H212.039V28.4805V34.4805H232.999V28.4805ZM212.039 28.4805H206.039V57.4405H212.039H218.039V28.4805H212.039ZM212.039 57.4405V51.4405H203.959V57.4405V63.4405H212.039V57.4405ZM253.234 57.4405H247.234V63.4405H253.234V57.4405ZM253.234 20.4805V14.4805H247.234V20.4805H253.234ZM261.314 20.4805H267.314V14.4805H261.314V20.4805ZM261.314 57.4405V63.4405H267.314V57.4405H261.314ZM253.234 14.0805H247.234V20.0805H253.234V14.0805ZM253.234 6.00047V0.000465393H247.234V6.00047H253.234ZM261.314 6.00047H267.314V0.000465393H261.314V6.00047ZM261.314 14.0805V20.0805H267.314V14.0805H261.314ZM253.234 57.4405H259.234V20.4805H253.234H247.234V57.4405H253.234ZM253.234 20.4805V26.4805H261.314V20.4805V14.4805H253.234V20.4805ZM261.314 20.4805H255.314V57.4405H261.314H267.314V20.4805H261.314ZM261.314 57.4405V51.4405H253.234V57.4405V63.4405H261.314V57.4405ZM253.234 14.0805H259.234V6.00047H253.234H247.234V14.0805H253.234ZM253.234 6.00047V12.0005H261.314V6.00047V0.000465393H253.234V6.00047ZM261.314 6.00047H255.314V14.0805H261.314H267.314V6.00047H261.314ZM261.314 14.0805V8.08047H253.234V14.0805V20.0805H261.314V14.0805ZM272.587 57.4405H266.587V63.4405H272.587V57.4405ZM272.587 49.4405V43.4405H266.587V49.4405H272.587ZM279.867 49.4405V55.4405H285.867V49.4405H279.867ZM279.867 42.1605V36.1605H273.867V42.1605H279.867ZM287.067 42.1605V48.1605H293.067V42.1605H287.067ZM287.067 34.8805V28.8805H281.067V34.8805H287.067ZM294.427 34.8805V40.8805H300.427V34.8805H294.427ZM294.427 28.4805H300.427V22.4805H294.427V28.4805ZM272.587 28.4805H266.587V34.4805H272.587V28.4805ZM272.587 20.4805V14.4805H266.587V20.4805H272.587ZM309.787 20.4805H315.787V14.4805H309.787V20.4805ZM309.787 28.4805V34.4805H315.787V28.4805H309.787ZM302.427 28.4805V22.4805H296.427V28.4805H302.427ZM302.427 35.6805V41.6805H308.427V35.6805H302.427ZM295.227 35.6805V29.6805H289.227V35.6805H295.227ZM295.227 42.9605V48.9605H301.227V42.9605H295.227ZM287.867 42.9605V36.9605H281.867V42.9605H287.867ZM287.867 49.4405H281.867V55.4405H287.867V49.4405ZM309.787 49.4405H315.787V43.4405H309.787V49.4405ZM309.787 57.4405V63.4405H315.787V57.4405H309.787ZM272.587 57.4405H278.587V49.4405H272.587H266.587V57.4405H272.587ZM272.587 49.4405V55.4405H279.867V49.4405V43.4405H272.587V49.4405ZM279.867 49.4405H285.867V42.1605H279.867H273.867V49.4405H279.867ZM279.867 42.1605V48.1605H287.067V42.1605V36.1605H279.867V42.1605ZM287.067 42.1605H293.067V34.8805H287.067H281.067V42.1605H287.067ZM287.067 34.8805V40.8805H294.427V34.8805V28.8805H287.067V34.8805ZM294.427 34.8805H300.427V28.4805H294.427H288.427V34.8805H294.427ZM294.427 28.4805V22.4805H272.587V28.4805V34.4805H294.427V28.4805ZM272.587 28.4805H278.587V20.4805H272.587H266.587V28.4805H272.587ZM272.587 20.4805V26.4805H309.787V20.4805V14.4805H272.587V20.4805ZM309.787 20.4805H303.787V28.4805H309.787H315.787V20.4805H309.787ZM309.787 28.4805V22.4805H302.427V28.4805V34.4805H309.787V28.4805ZM302.427 28.4805H296.427V35.6805H302.427H308.427V28.4805H302.427ZM302.427 35.6805V29.6805H295.227V35.6805V41.6805H302.427V35.6805ZM295.227 35.6805H289.227V42.9605H295.227H301.227V35.6805H295.227ZM295.227 42.9605V36.9605H287.867V42.9605V48.9605H295.227V42.9605ZM287.867 42.9605H281.867V49.4405H287.867H293.867V42.9605H287.867ZM287.867 49.4405V55.4405H309.787V49.4405V43.4405H287.867V49.4405ZM309.787 49.4405H303.787V57.4405H309.787H315.787V49.4405H309.787ZM309.787 57.4405V51.4405H272.587V57.4405V63.4405H309.787V57.4405ZM327.579 57.4405H321.579V63.4405H327.579V57.4405ZM327.579 50.2405H333.579V44.2405H327.579V50.2405ZM320.299 50.2405H314.299V56.2405H320.299V50.2405ZM320.299 27.7605V21.7605H314.299V27.7605H320.299ZM327.579 27.7605V33.7605H333.579V27.7605H327.579ZM327.579 20.4805V14.4805H321.579V20.4805H327.579ZM350.139 20.4805H356.139V14.4805H350.139V20.4805ZM350.139 27.7605H344.139V33.7605H350.139V27.7605ZM357.499 27.7605H363.499V21.7605H357.499V27.7605ZM357.499 49.4405H351.499V55.4405H357.499V49.4405ZM364.779 49.4405H370.779V43.4405H364.779V49.4405ZM364.779 57.4405V63.4405H370.779V57.4405H364.779ZM356.699 57.4405H350.699V63.4405H356.699V57.4405ZM356.699 50.2405H362.699V44.2405H356.699V50.2405ZM350.139 50.2405V44.2405H344.139V50.2405H350.139ZM350.139 57.4405V63.4405H356.139V57.4405H350.139ZM328.379 49.4405H322.379V55.4405H328.379V49.4405ZM349.339 49.4405V55.4405H355.339V49.4405H349.339ZM349.339 28.4805H355.339V22.4805H349.339V28.4805ZM328.379 28.4805V22.4805H322.379V28.4805H328.379ZM327.579 57.4405H333.579V50.2405H327.579H321.579V57.4405H327.579ZM327.579 50.2405V44.2405H320.299V50.2405V56.2405H327.579V50.2405ZM320.299 50.2405H326.299V27.7605H320.299H314.299V50.2405H320.299ZM320.299 27.7605V33.7605H327.579V27.7605V21.7605H320.299V27.7605ZM327.579 27.7605H333.579V20.4805H327.579H321.579V27.7605H327.579ZM327.579 20.4805V26.4805H350.139V20.4805V14.4805H327.579V20.4805ZM350.139 20.4805H344.139V27.7605H350.139H356.139V20.4805H350.139ZM350.139 27.7605V33.7605H357.499V27.7605V21.7605H350.139V27.7605ZM357.499 27.7605H351.499V49.4405H357.499H363.499V27.7605H357.499ZM357.499 49.4405V55.4405H364.779V49.4405V43.4405H357.499V49.4405ZM364.779 49.4405H358.779V57.4405H364.779H370.779V49.4405H364.779ZM364.779 57.4405V51.4405H356.699V57.4405V63.4405H364.779V57.4405ZM356.699 57.4405H362.699V50.2405H356.699H350.699V57.4405H356.699ZM356.699 50.2405V44.2405H350.139V50.2405V56.2405H356.699V50.2405ZM350.139 50.2405H344.139V57.4405H350.139H356.139V50.2405H350.139ZM350.139 57.4405V51.4405H327.579V57.4405V63.4405H350.139V57.4405ZM328.379 49.4405V55.4405H349.339V49.4405V43.4405H328.379V49.4405ZM349.339 49.4405H355.339V28.4805H349.339H343.339V49.4405H349.339ZM349.339 28.4805V22.4805H328.379V28.4805V34.4805H349.339V28.4805ZM328.379 28.4805H322.379V49.4405H328.379H334.379V28.4805H328.379ZM382.492 57.4405H376.492V63.4405H382.492V57.4405ZM382.492 50.2405H388.492V44.2405H382.492V50.2405ZM375.292 50.2405H369.292V56.2405H375.292V50.2405ZM375.292 28.4805H381.292V22.4805H375.292V28.4805ZM368.012 28.4805H362.012V34.4805H368.012V28.4805ZM368.012 20.4805V14.4805H362.012V20.4805H368.012ZM375.292 20.4805V26.4805H381.292V20.4805H375.292ZM375.292 6.00047V0.000465393H369.292V6.00047H375.292ZM383.292 6.00047H389.292V0.000465393H383.292V6.00047ZM383.292 20.4805H377.292V26.4805H383.292V20.4805ZM405.212 20.4805H411.212V14.4805H405.212V20.4805ZM405.212 28.4805V34.4805H411.212V28.4805H405.212ZM383.292 28.4805V22.4805H377.292V28.4805H383.292ZM383.292 49.4405H377.292V55.4405H383.292V49.4405ZM404.412 49.4405V55.4405H410.412V49.4405H404.412ZM404.412 42.1605V36.1605H398.412V42.1605H404.412ZM412.492 42.1605H418.492V36.1605H412.492V42.1605ZM412.492 50.2405V56.2405H418.492V50.2405H412.492ZM405.212 50.2405V44.2405H399.212V50.2405H405.212ZM405.212 57.4405V63.4405H411.212V57.4405H405.212ZM382.492 57.4405H388.492V50.2405H382.492H376.492V57.4405H382.492ZM382.492 50.2405V44.2405H375.292V50.2405V56.2405H382.492V50.2405ZM375.292 50.2405H381.292V28.4805H375.292H369.292V50.2405H375.292ZM375.292 28.4805V22.4805H368.012V28.4805V34.4805H375.292V28.4805ZM368.012 28.4805H374.012V20.4805H368.012H362.012V28.4805H368.012ZM368.012 20.4805V26.4805H375.292V20.4805V14.4805H368.012V20.4805ZM375.292 20.4805H381.292V6.00047H375.292H369.292V20.4805H375.292ZM375.292 6.00047V12.0005H383.292V6.00047V0.000465393H375.292V6.00047ZM383.292 6.00047H377.292V20.4805H383.292H389.292V6.00047H383.292ZM383.292 20.4805V26.4805H405.212V20.4805V14.4805H383.292V20.4805ZM405.212 20.4805H399.212V28.4805H405.212H411.212V20.4805H405.212ZM405.212 28.4805V22.4805H383.292V28.4805V34.4805H405.212V28.4805ZM383.292 28.4805H377.292V49.4405H383.292H389.292V28.4805H383.292ZM383.292 49.4405V55.4405H404.412V49.4405V43.4405H383.292V49.4405ZM404.412 49.4405H410.412V42.1605H404.412H398.412V49.4405H404.412ZM404.412 42.1605V48.1605H412.492V42.1605V36.1605H404.412V42.1605ZM412.492 42.1605H406.492V50.2405H412.492H418.492V42.1605H412.492ZM412.492 50.2405V44.2405H405.212V50.2405V56.2405H412.492V50.2405ZM405.212 50.2405H399.212V57.4405H405.212H411.212V50.2405H405.212ZM405.212 57.4405V51.4405H382.492V57.4405V63.4405H405.212V57.4405ZM424.552 57.4405H418.552V63.4405H424.552V57.4405ZM424.552 20.4805V14.4805H418.552V20.4805H424.552ZM432.632 20.4805H438.632V14.4805H432.632V20.4805ZM432.632 57.4405V63.4405H438.632V57.4405H432.632ZM424.552 14.0805H418.552V20.0805H424.552V14.0805ZM424.552 6.00047V0.000465393H418.552V6.00047H424.552ZM432.632 6.00047H438.632V0.000465393H432.632V6.00047ZM432.632 14.0805V20.0805H438.632V14.0805H432.632ZM424.552 57.4405H430.552V20.4805H424.552H418.552V57.4405H424.552ZM424.552 20.4805V26.4805H432.632V20.4805V14.4805H424.552V20.4805ZM432.632 20.4805H426.632V57.4405H432.632H438.632V20.4805H432.632ZM432.632 57.4405V51.4405H424.552V57.4405V63.4405H432.632V57.4405ZM424.552 14.0805H430.552V6.00047H424.552H418.552V14.0805H424.552ZM424.552 6.00047V12.0005H432.632V6.00047V0.000465393H424.552V6.00047ZM432.632 6.00047H426.632V14.0805H432.632H438.632V6.00047H432.632ZM432.632 14.0805V8.08047H424.552V14.0805V20.0805H432.632V14.0805ZM450.404 57.4405H444.404V63.4405H450.404V57.4405ZM450.404 50.2405H456.404V44.2405H450.404V50.2405ZM443.124 50.2405H437.124V56.2405H443.124V50.2405ZM443.124 27.7605V21.7605H437.124V27.7605H443.124ZM450.404 27.7605V33.7605H456.404V27.7605H450.404ZM450.404 20.4805V14.4805H444.404V20.4805H450.404ZM472.964 20.4805H478.964V14.4805H472.964V20.4805ZM472.964 27.7605H466.964V33.7605H472.964V27.7605ZM480.324 27.7605H486.324V21.7605H480.324V27.7605ZM480.324 50.2405V56.2405H486.324V50.2405H480.324ZM472.964 50.2405V44.2405H466.964V50.2405H472.964ZM472.964 57.4405V63.4405H478.964V57.4405H472.964ZM451.204 49.4405H445.204V55.4405H451.204V49.4405ZM472.164 49.4405V55.4405H478.164V49.4405H472.164ZM472.164 28.4805H478.164V22.4805H472.164V28.4805ZM451.204 28.4805V22.4805H445.204V28.4805H451.204ZM450.404 57.4405H456.404V50.2405H450.404H444.404V57.4405H450.404ZM450.404 50.2405V44.2405H443.124V50.2405V56.2405H450.404V50.2405ZM443.124 50.2405H449.124V27.7605H443.124H437.124V50.2405H443.124ZM443.124 27.7605V33.7605H450.404V27.7605V21.7605H443.124V27.7605ZM450.404 27.7605H456.404V20.4805H450.404H444.404V27.7605H450.404ZM450.404 20.4805V26.4805H472.964V20.4805V14.4805H450.404V20.4805ZM472.964 20.4805H466.964V27.7605H472.964H478.964V20.4805H472.964ZM472.964 27.7605V33.7605H480.324V27.7605V21.7605H472.964V27.7605ZM480.324 27.7605H474.324V50.2405H480.324H486.324V27.7605H480.324ZM480.324 50.2405V44.2405H472.964V50.2405V56.2405H480.324V50.2405ZM472.964 50.2405H466.964V57.4405H472.964H478.964V50.2405H472.964ZM472.964 57.4405V51.4405H450.404V57.4405V63.4405H472.964V57.4405ZM451.204 49.4405V55.4405H472.164V49.4405V43.4405H451.204V49.4405ZM472.164 49.4405H478.164V28.4805H472.164H466.164V49.4405H472.164ZM472.164 28.4805V22.4805H451.204V28.4805V34.4805H472.164V28.4805ZM451.204 28.4805H445.204V49.4405H451.204H457.204V28.4805H451.204ZM492.399 57.4405H486.399V63.4405H492.399V57.4405ZM492.399 20.4805V14.4805H486.399V20.4805H492.399ZM522.239 20.4805H528.239V14.4805H522.239V20.4805ZM522.239 27.7605H516.239V33.7605H522.239V27.7605ZM529.599 27.7605H535.599V21.7605H529.599V27.7605ZM529.599 57.4405V63.4405H535.599V57.4405H529.599ZM521.439 57.4405H515.439V63.4405H521.439V57.4405ZM521.439 28.4805H527.439V22.4805H521.439V28.4805ZM500.479 28.4805V22.4805H494.479V28.4805H500.479ZM500.479 57.4405V63.4405H506.479V57.4405H500.479ZM492.399 57.4405H498.399V20.4805H492.399H486.399V57.4405H492.399ZM492.399 20.4805V26.4805H522.239V20.4805V14.4805H492.399V20.4805ZM522.239 20.4805H516.239V27.7605H522.239H528.239V20.4805H522.239ZM522.239 27.7605V33.7605H529.599V27.7605V21.7605H522.239V27.7605ZM529.599 27.7605H523.599V57.4405H529.599H535.599V27.7605H529.599ZM529.599 57.4405V51.4405H521.439V57.4405V63.4405H529.599V57.4405ZM521.439 57.4405H527.439V28.4805H521.439H515.439V57.4405H521.439ZM521.439 28.4805V22.4805H500.479V28.4805V34.4805H521.439V28.4805ZM500.479 28.4805H494.479V57.4405H500.479H506.479V28.4805H500.479ZM500.479 57.4405V51.4405H492.399V57.4405V63.4405H500.479V57.4405Z" fill="black" mask="url(#path-1-outside-1_287_30376)"/>
</svg>
