<svg width="531" height="145" viewBox="0 0 531 145" fill="none" xmlns="http://www.w3.org/2000/svg">
<path d="M34.8296 8.24879V0.523438H496.387V8.37973H505.422V17.1526H513.932V25.2708H522.182V119.808H513.932V128.188H505.291V136.699H496.78L496.387 144.948H33.2583V136.306H25.1401V127.926H17.022V119.808H8.64192V102.939H0V41.5726H8.64192V24.747H17.022V16.367H25.1401V8.24879H34.8296Z" fill="#00DC8F"/>
<rect x="16.8555" y="16.3203" width="8.06057" height="8.81877" fill="black"/>
<rect width="8.67723" height="8.95139" transform="matrix(-1 0 0 1 514.102 16.1875)" fill="black"/>
<rect x="8.47656" y="24.126" width="8.38004" height="17.7735" fill="black"/>
<rect width="8.08219" height="16.7601" transform="matrix(-1 0 0 1 522.184 25.1406)" fill="black"/>
<rect y="41.0195" width="8.47667" height="62.0278" fill="black"/>
<rect width="8.38004" height="61.1481" transform="matrix(-1 0 0 1 530.562 41.8994)" fill="black"/>
<rect width="8.38004" height="61.6572" transform="matrix(-1 0 0 1 530.562 41.8994)" fill="black"/>
<rect x="24.916" y="8.37988" width="8.70285" height="8.37945" fill="black"/>
<rect width="8.38004" height="8.38004" transform="matrix(-1 0 0 1 505.422 8.37988)" fill="black"/>
<rect width="8.58387" height="8.38004" transform="matrix(-1 0 0 1 505.627 8.37988)" fill="black"/>
<rect x="33.6191" width="455.044" height="8.38004" fill="black"/>
<rect width="8.38004" height="8.38004" transform="matrix(-1 0 0 1 497.043 0)" fill="black"/>
<rect width="8.38004" height="8.38004" transform="matrix(-1 0 0 1 497.043 0)" fill="black"/>
<rect x="514.102" y="128.479" width="8.67723" height="8.66881" transform="rotate(-180 514.102 128.479)" fill="black"/>
<rect width="8.38004" height="16.7601" transform="matrix(1 -8.74228e-08 -8.74228e-08 -1 8.47656 119.808)" fill="black"/>
<rect width="8.70432" height="8.66897" transform="matrix(1 -8.74228e-08 -8.74228e-08 -1 24.916 137.147)" fill="black"/>
<rect x="505.422" y="137.251" width="8.38004" height="9.06257" transform="rotate(-180 505.422 137.251)" fill="black"/>
<rect x="505.422" y="137.251" width="8.38004" height="9.06257" transform="rotate(-180 505.422 137.251)" fill="black"/>
<rect width="8.38004" height="8.38004" transform="matrix(1 -8.74228e-08 -8.74228e-08 -1 33.6191 144.948)" fill="black"/>
<rect width="8.38004" height="8.38004" transform="matrix(1 -8.74228e-08 -8.74228e-08 -1 33.6191 144.948)" fill="black"/>
<rect x="497.043" y="144.948" width="463.748" height="8.38004" transform="rotate(-180 497.043 144.948)" fill="black"/>
<rect x="497.043" y="144.948" width="463.748" height="8.38004" transform="rotate(-180 497.043 144.948)" fill="black"/>
<rect x="33.2949" y="128.189" width="463.748" height="8.95773" fill="#00825A"/>
<rect x="33.2949" y="119.81" width="472.127" height="8.66897" fill="#00B576"/>
<rect x="497.043" y="119.521" width="8.37867" height="8.95773" fill="#00825A"/>
<rect x="497.043" y="119.521" width="8.37867" height="8.95773" fill="#00825A"/>
<rect x="24.916" y="119.808" width="8.37867" height="8.38099" fill="#00825A"/>
<rect x="497.057" y="103.444" width="8.36632" height="16.3651" fill="#00B576"/>
<rect x="24.916" y="103.047" width="8.37867" height="16.9897" fill="#00B576"/>
<rect x="505.422" y="25.1406" width="8.38176" height="78.3041" fill="#00B576"/>
<rect x="505.422" y="25.1406" width="8.67824" height="78.3041" fill="#00B576"/>
<rect x="16.8535" y="24.126" width="8.06366" height="79.1055" fill="#00B576"/>
<rect x="497.043" y="16.1875" width="8.5825" height="8.95233" fill="#00B576"/>
<rect x="497.043" y="16.1875" width="8.5825" height="8.95233" fill="#00B576"/>
<rect x="24.916" y="16.3203" width="8.70294" height="7.80578" fill="#00B576"/>
<rect x="489.072" y="8.37988" width="7.97101" height="7.80733" fill="#00B576"/>
<path d="M488.727 8.37988H497.043V16.1872H488.727V8.37988Z" fill="#00B576"/>
<rect x="33.6191" y="8.37988" width="7.97101" height="7.9409" fill="#00B576"/>
<rect x="33.6191" y="8.37988" width="7.97101" height="7.9409" fill="#00B576"/>
<rect x="16.8555" y="103.047" width="8.06057" height="16.7612" fill="#00825A"/>
<rect x="16.8555" y="103.047" width="8.06057" height="16.7612" fill="#00825A"/>
<rect x="514.102" y="41.9014" width="8.08219" height="61.5336" fill="#00825A"/>
<rect x="8.47656" y="41.5137" width="8.37867" height="61.5336" fill="#00825A"/>
<rect x="8.47656" y="41.0195" width="8.37867" height="62.0278" fill="#00825A"/>
<rect x="505.422" y="103.444" width="9.36385" height="16.3643" fill="#00825A"/>
<rect x="505.422" y="103.444" width="9.36385" height="16.3643" fill="#00825A"/>
<path d="M34.3633 24.1322H42.325V16.6167L488.776 16.0469V25.1698H497.055V103.047H488.43V111.316H42.325V103.047H34.3633V24.1322Z" fill="#22FFB2"/>
<path d="M146.14 97.409V41.809H155.14V32.909H184.14V41.809H193.24V70.709H184.14V79.609H157.14V97.409H146.14ZM157.14 68.309H182.14V44.209H157.14V68.309ZM216.32 97.409V88.509H207.32V32.909H218.32V86.209H243.32V77.209H254.42V88.509H245.32V97.409H216.32ZM268.499 97.409V50.609H277.499V41.809H286.499V32.909H297.499V41.809H306.499V50.609H315.599V97.409H304.499V79.609H279.499V97.409H268.499ZM279.499 68.309H304.499V53.009H295.599V44.209H288.399V53.009H279.499V68.309ZM342.699 97.409V61.809H333.699V53.009H324.699V32.909H335.699V50.609H344.599V59.609H351.799V50.609H360.699V32.909H371.799V53.009H362.699V61.809H353.699V97.409H342.699Z" fill="black"/>
<rect x="478.227" y="103.445" width="10.4386" height="7.87064" fill="#E5FFF6"/>
<rect x="488.666" y="95.6865" width="8.37867" height="7.87064" fill="#E5FFF6"/>
<rect x="488.666" y="71.6631" width="8.37867" height="13.127" fill="#E5FFF6"/>
<rect x="488.666" y="25.1406" width="8.37867" height="42.4755" fill="#E5FFF6"/>
<rect x="428.418" y="103.557" width="41.9242" height="7.87064" fill="#E5FFF6"/>
<rect x="522.184" y="119.808" width="8.08219" height="16.3728" transform="rotate(-180 522.184 119.808)" fill="black"/>
<rect x="24.916" y="119.808" width="8.37867" height="8.67052" fill="#00825A"/>
<rect width="8.06057" height="8.66881" transform="matrix(1 -8.74228e-08 -8.74228e-08 -1 16.8555 128.479)" fill="black"/>
</svg>
