<svg width="531" height="105" viewBox="0 0 531 105" fill="none" xmlns="http://www.w3.org/2000/svg">
<path d="M0 0H531V89C531 97.8366 523.837 105 515 105H16C7.16344 105 0 97.8366 0 89V0Z" fill="#6E71FF"/>
<rect x="16" y="12.0791" width="241.502" height="80.8412" rx="25" fill="#111232"/>
<path d="M292.132 14.4333V9.85449H499.263V14.5109H503.318V19.7106H507.137V24.5223H510.839V80.5548H507.137V85.5217H503.259V90.5662H499.439L499.263 95.4554H291.427V90.3334H287.784V85.3665H284.141V80.5548H280.38V70.5566H276.502V34.1844H280.38V24.2119H284.141V19.245H287.784V14.4333H292.132Z" fill="#00DC8F"/>
<rect x="284.066" y="19.2178" width="3.61662" height="5.2269" fill="black"/>
<rect width="3.89331" height="5.30551" transform="matrix(-1 0 0 1 507.211 19.1387)" fill="black"/>
<rect x="280.305" y="23.8442" width="3.75996" height="10.5344" fill="black"/>
<rect width="3.62632" height="9.93374" transform="matrix(-1 0 0 1 510.84 24.4453)" fill="black"/>
<rect x="276.502" y="33.8569" width="3.80332" height="36.764" fill="black"/>
<rect width="3.75996" height="36.2426" transform="matrix(-1 0 0 1 514.6 34.3784)" fill="black"/>
<rect width="3.75996" height="36.5444" transform="matrix(-1 0 0 1 514.6 34.3784)" fill="black"/>
<rect x="287.684" y="14.5112" width="3.9048" height="4.96652" fill="black"/>
<rect width="3.75996" height="4.96687" transform="matrix(-1 0 0 1 503.318 14.5112)" fill="black"/>
<rect width="3.85142" height="4.96687" transform="matrix(-1 0 0 1 503.41 14.5112)" fill="black"/>
<rect x="291.59" y="9.54443" width="204.208" height="4.96687" fill="black"/>
<rect width="3.75996" height="4.96687" transform="matrix(-1 0 0 1 499.559 9.54443)" fill="black"/>
<rect width="3.75996" height="4.96687" transform="matrix(-1 0 0 1 499.559 9.54443)" fill="black"/>
<rect x="507.211" y="85.6938" width="3.8933" height="5.13802" transform="rotate(-180 507.211 85.6938)" fill="black"/>
<rect width="3.75996" height="9.93374" transform="matrix(1 -1.15463e-07 -6.61923e-08 -1 280.305 80.5547)" fill="black"/>
<rect width="3.90546" height="5.13812" transform="matrix(1 -1.15463e-07 -6.61923e-08 -1 287.684 90.832)" fill="black"/>
<rect x="503.318" y="90.8931" width="3.75996" height="5.37141" transform="rotate(-180 503.318 90.8931)" fill="black"/>
<rect x="503.318" y="90.8931" width="3.75996" height="5.37141" transform="rotate(-180 503.318 90.8931)" fill="black"/>
<rect width="3.75996" height="4.96687" transform="matrix(1 -1.15463e-07 -6.61923e-08 -1 291.59 95.4556)" fill="black"/>
<rect width="3.75996" height="4.96687" transform="matrix(1 -1.15463e-07 -6.61923e-08 -1 291.59 95.4556)" fill="black"/>
<rect x="499.559" y="95.4556" width="208.114" height="4.96687" transform="rotate(-180 499.559 95.4556)" fill="black"/>
<rect x="499.559" y="95.4556" width="208.114" height="4.96687" transform="rotate(-180 499.559 95.4556)" fill="black"/>
<rect x="291.443" y="85.5225" width="208.114" height="5.30927" fill="#00825A"/>
<rect x="291.443" y="80.5557" width="211.874" height="5.13812" fill="#00B576"/>
<rect x="499.559" y="80.3843" width="3.75935" height="5.30927" fill="#00825A"/>
<rect x="499.559" y="80.3843" width="3.75935" height="5.30927" fill="#00825A"/>
<rect x="287.684" y="80.5547" width="3.75935" height="4.96743" fill="#00825A"/>
<rect x="499.564" y="70.856" width="3.7538" height="9.69965" fill="#00B576"/>
<rect x="287.684" y="70.6206" width="3.75935" height="10.0699" fill="#00B576"/>
<rect x="503.318" y="24.4453" width="3.76073" height="46.411" fill="#00B576"/>
<rect x="503.318" y="24.4453" width="3.89376" height="46.411" fill="#00B576"/>
<rect x="284.064" y="23.8442" width="3.61801" height="46.886" fill="#00B576"/>
<rect x="499.559" y="19.1387" width="3.8508" height="5.30607" fill="#00B576"/>
<rect x="499.559" y="19.1387" width="3.8508" height="5.30607" fill="#00B576"/>
<rect x="287.684" y="19.2178" width="3.90484" height="4.62651" fill="#00B576"/>
<rect x="495.98" y="14.5112" width="3.57644" height="4.62742" fill="#00B576"/>
<path d="M495.826 14.5112H499.558V19.1387H495.826V14.5112Z" fill="#00B576"/>
<rect x="291.59" y="14.5112" width="3.57644" height="4.70659" fill="#00B576"/>
<rect x="291.59" y="14.5112" width="3.57644" height="4.70659" fill="#00B576"/>
<rect x="284.066" y="70.6206" width="3.61662" height="9.9344" fill="#00825A"/>
<rect x="284.066" y="70.6206" width="3.61662" height="9.9344" fill="#00825A"/>
<rect x="507.211" y="34.3794" width="3.62632" height="36.4711" fill="#00825A"/>
<rect x="280.305" y="34.1494" width="3.75935" height="36.4711" fill="#00825A"/>
<rect x="280.305" y="33.8569" width="3.75935" height="36.764" fill="#00825A"/>
<rect x="503.318" y="70.856" width="4.20138" height="9.69919" fill="#00825A"/>
<rect x="503.318" y="70.856" width="4.20138" height="9.69919" fill="#00825A"/>
<path d="M291.924 23.8478H295.497V19.3934L495.848 19.0557V24.4629H499.564V70.6208H495.693V75.5219H295.497V70.6208H291.924V23.8478Z" fill="#22FFB2"/>
<path d="M319.791 69.3406V30.6406H337.191V35.9806H342.591V41.2606H348.051V58.6606H342.591V64.0006H337.191V69.3406H319.791ZM326.391 62.6206H336.051V57.2206H341.391V42.7006H336.051V37.4206H326.391V62.6206ZM361.899 69.3406V64.0006H356.499V35.9806H361.899V30.6406H379.299V35.9806H384.759V64.0006H379.299V69.3406H361.899ZM363.099 62.6206H378.099V37.4206H363.099V62.6206ZM393.206 69.3406V30.6406H399.806V35.9806H405.146V41.2606H410.606V57.2206H414.806V30.6406H421.466V69.3406H414.806V64.0006H409.466V58.6606H404.006V42.7006H399.806V69.3406H393.206ZM435.314 69.3406V64.0006H429.914V35.9806H435.314V30.6406H452.714V35.9806H458.174V42.7006H451.514V37.4206H436.514V46.6606H447.314V53.3206H436.514V62.6206H451.514V57.2206H458.174V64.0006H452.714V69.3406H435.314ZM466.622 58.6606V30.6406H473.222V58.6606H466.622ZM466.622 69.3406V62.6206H473.222V69.3406H466.622Z" fill="black"/>
<rect x="510.84" y="80.5547" width="3.62632" height="9.70422" transform="rotate(-180 510.84 80.5547)" fill="black"/>
<rect x="287.684" y="80.5547" width="3.75935" height="5.13904" fill="#00825A"/>
<rect width="3.61662" height="5.13802" transform="matrix(1 -1.15463e-07 -6.61923e-08 -1 284.066 85.6938)" fill="black"/>
</svg>
