<svg width="114" height="47" viewBox="0 0 114 47" fill="none" xmlns="http://www.w3.org/2000/svg">
<mask id="path-1-outside-1_532_114694" maskUnits="userSpaceOnUse" x="-0.611328" y="-0.0200195" width="115" height="47" fill="black">
<rect fill="white" x="-0.611328" y="-0.0200195" width="115" height="47"/>
<path d="M9.39961 42.7V37.36H3.99961V9.33998H9.39961V3.99998H26.7996V9.33998H32.2596V37.36H26.7996V42.7H9.39961ZM10.5996 35.98H25.5996V10.78H10.5996V35.98ZM41.3074 41.98V35.2H47.9074V41.98H41.3074ZM65.802 42.7V10.78H61.602V16.06H55.002V9.33998H60.402V3.99998H66.942V9.33998H72.402V42.7H65.802ZM86.8699 42.7V37.36H81.4699V9.33998H86.8699V3.99998H104.27V9.33998H109.73V37.36H104.27V42.7H86.8699ZM88.0699 35.98H103.07V10.78H88.0699V35.98Z"/>
</mask>
<path d="M9.39961 42.7V37.36H3.99961V9.33998H9.39961V3.99998H26.7996V9.33998H32.2596V37.36H26.7996V42.7H9.39961ZM10.5996 35.98H25.5996V10.78H10.5996V35.98ZM41.3074 41.98V35.2H47.9074V41.98H41.3074ZM65.802 42.7V10.78H61.602V16.06H55.002V9.33998H60.402V3.99998H66.942V9.33998H72.402V42.7H65.802ZM86.8699 42.7V37.36H81.4699V9.33998H86.8699V3.99998H104.27V9.33998H109.73V37.36H104.27V42.7H86.8699ZM88.0699 35.98H103.07V10.78H88.0699V35.98Z" fill="#12F1C7"/>
<path d="M9.39961 42.7H5.39961V46.7H9.39961V42.7ZM9.39961 37.36H13.3996V33.36H9.39961V37.36ZM3.99961 37.36H-0.000391245V41.36H3.99961V37.36ZM3.99961 9.33998V5.33998H-0.000391245V9.33998H3.99961ZM9.39961 9.33998V13.34H13.3996V9.33998H9.39961ZM9.39961 3.99998V-1.90735e-05H5.39961V3.99998H9.39961ZM26.7996 3.99998H30.7996V-1.90735e-05H26.7996V3.99998ZM26.7996 9.33998H22.7996V13.34H26.7996V9.33998ZM32.2596 9.33998H36.2596V5.33998H32.2596V9.33998ZM32.2596 37.36V41.36H36.2596V37.36H32.2596ZM26.7996 37.36V33.36H22.7996V37.36H26.7996ZM26.7996 42.7V46.7H30.7996V42.7H26.7996ZM10.5996 35.98H6.59961V39.98H10.5996V35.98ZM25.5996 35.98V39.98H29.5996V35.98H25.5996ZM25.5996 10.78H29.5996V6.77998H25.5996V10.78ZM10.5996 10.78V6.77998H6.59961V10.78H10.5996ZM9.39961 42.7H13.3996V37.36H9.39961H5.39961V42.7H9.39961ZM9.39961 37.36V33.36H3.99961V37.36V41.36H9.39961V37.36ZM3.99961 37.36H7.99961V9.33998H3.99961H-0.000391245V37.36H3.99961ZM3.99961 9.33998V13.34H9.39961V9.33998V5.33998H3.99961V9.33998ZM9.39961 9.33998H13.3996V3.99998H9.39961H5.39961V9.33998H9.39961ZM9.39961 3.99998V7.99998H26.7996V3.99998V-1.90735e-05H9.39961V3.99998ZM26.7996 3.99998H22.7996V9.33998H26.7996H30.7996V3.99998H26.7996ZM26.7996 9.33998V13.34H32.2596V9.33998V5.33998H26.7996V9.33998ZM32.2596 9.33998H28.2596V37.36H32.2596H36.2596V9.33998H32.2596ZM32.2596 37.36V33.36H26.7996V37.36V41.36H32.2596V37.36ZM26.7996 37.36H22.7996V42.7H26.7996H30.7996V37.36H26.7996ZM26.7996 42.7V38.7H9.39961V42.7V46.7H26.7996V42.7ZM10.5996 35.98V39.98H25.5996V35.98V31.98H10.5996V35.98ZM25.5996 35.98H29.5996V10.78H25.5996H21.5996V35.98H25.5996ZM25.5996 10.78V6.77998H10.5996V10.78V14.78H25.5996V10.78ZM10.5996 10.78H6.59961V35.98H10.5996H14.5996V10.78H10.5996ZM41.3074 41.98H37.3074V45.98H41.3074V41.98ZM41.3074 35.2V31.2H37.3074V35.2H41.3074ZM47.9074 35.2H51.9074V31.2H47.9074V35.2ZM47.9074 41.98V45.98H51.9074V41.98H47.9074ZM41.3074 41.98H45.3074V35.2H41.3074H37.3074V41.98H41.3074ZM41.3074 35.2V39.2H47.9074V35.2V31.2H41.3074V35.2ZM47.9074 35.2H43.9074V41.98H47.9074H51.9074V35.2H47.9074ZM47.9074 41.98V37.98H41.3074V41.98V45.98H47.9074V41.98ZM65.8019 42.7H61.802V46.7H65.8019V42.7ZM65.8019 10.78H69.802V6.77998H65.8019V10.78ZM61.602 10.78V6.77998H57.602V10.78H61.602ZM61.602 16.06V20.06H65.602V16.06H61.602ZM55.0019 16.06H51.0019V20.06H55.0019V16.06ZM55.0019 9.33998V5.33998H51.0019V9.33998H55.0019ZM60.402 9.33998V13.34H64.4019V9.33998H60.402ZM60.402 3.99998V-1.90735e-05H56.402V3.99998H60.402ZM66.9419 3.99998H70.942V-1.90735e-05H66.9419V3.99998ZM66.9419 9.33998H62.942V13.34H66.9419V9.33998ZM72.402 9.33998H76.402V5.33998H72.402V9.33998ZM72.402 42.7V46.7H76.402V42.7H72.402ZM65.8019 42.7H69.802V10.78H65.8019H61.802V42.7H65.8019ZM65.8019 10.78V6.77998H61.602V10.78V14.78H65.8019V10.78ZM61.602 10.78H57.602V16.06H61.602H65.602V10.78H61.602ZM61.602 16.06V12.06H55.0019V16.06V20.06H61.602V16.06ZM55.0019 16.06H59.002V9.33998H55.0019H51.0019V16.06H55.0019ZM55.0019 9.33998V13.34H60.402V9.33998V5.33998H55.0019V9.33998ZM60.402 9.33998H64.4019V3.99998H60.402H56.402V9.33998H60.402ZM60.402 3.99998V7.99998H66.9419V3.99998V-1.90735e-05H60.402V3.99998ZM66.9419 3.99998H62.942V9.33998H66.9419H70.942V3.99998H66.9419ZM66.9419 9.33998V13.34H72.402V9.33998V5.33998H66.9419V9.33998ZM72.402 9.33998H68.402V42.7H72.402H76.402V9.33998H72.402ZM72.402 42.7V38.7H65.8019V42.7V46.7H72.402V42.7ZM86.8699 42.7H82.8699V46.7H86.8699V42.7ZM86.8699 37.36H90.8699V33.36H86.8699V37.36ZM81.4699 37.36H77.4699V41.36H81.4699V37.36ZM81.4699 9.33998V5.33998H77.4699V9.33998H81.4699ZM86.8699 9.33998V13.34H90.8699V9.33998H86.8699ZM86.8699 3.99998V-1.90735e-05H82.8699V3.99998H86.8699ZM104.27 3.99998H108.27V-1.90735e-05H104.27V3.99998ZM104.27 9.33998H100.27V13.34H104.27V9.33998ZM109.73 9.33998H113.73V5.33998H109.73V9.33998ZM109.73 37.36V41.36H113.73V37.36H109.73ZM104.27 37.36V33.36H100.27V37.36H104.27ZM104.27 42.7V46.7H108.27V42.7H104.27ZM88.0699 35.98H84.0699V39.98H88.0699V35.98ZM103.07 35.98V39.98H107.07V35.98H103.07ZM103.07 10.78H107.07V6.77998H103.07V10.78ZM88.0699 10.78V6.77998H84.0699V10.78H88.0699ZM86.8699 42.7H90.8699V37.36H86.8699H82.8699V42.7H86.8699ZM86.8699 37.36V33.36H81.4699V37.36V41.36H86.8699V37.36ZM81.4699 37.36H85.4699V9.33998H81.4699H77.4699V37.36H81.4699ZM81.4699 9.33998V13.34H86.8699V9.33998V5.33998H81.4699V9.33998ZM86.8699 9.33998H90.8699V3.99998H86.8699H82.8699V9.33998H86.8699ZM86.8699 3.99998V7.99998H104.27V3.99998V-1.90735e-05H86.8699V3.99998ZM104.27 3.99998H100.27V9.33998H104.27H108.27V3.99998H104.27ZM104.27 9.33998V13.34H109.73V9.33998V5.33998H104.27V9.33998ZM109.73 9.33998H105.73V37.36H109.73H113.73V9.33998H109.73ZM109.73 37.36V33.36H104.27V37.36V41.36H109.73V37.36ZM104.27 37.36H100.27V42.7H104.27H108.27V37.36H104.27ZM104.27 42.7V38.7H86.8699V42.7V46.7H104.27V42.7ZM88.0699 35.98V39.98H103.07V35.98V31.98H88.0699V35.98ZM103.07 35.98H107.07V10.78H103.07H99.0699V35.98H103.07ZM103.07 10.78V6.77998H88.0699V10.78V14.78H103.07V10.78ZM88.0699 10.78H84.0699V35.98H88.0699H92.0699V10.78H88.0699Z" fill="black" mask="url(#path-1-outside-1_532_114694)"/>
</svg>
