<svg width="144" height="109" viewBox="0 0 144 109" fill="none" xmlns="http://www.w3.org/2000/svg">
<path d="M13.5423 50.026L21.4177 47.8765L22.678 60.6761L27.8664 67.0271L33.0449 71.6194H37.9303L47.8964 79.1429L93.0373 78.1658L109.247 73.6224L115.158 66.2943L119.799 62.5814L122.056 50.026L128.153 48.2184L138.07 57.8915L138.412 81.9764L126.649 93.3104L123.317 97.805L113.751 99.5637L108.964 105.035L33.0449 104.351L30.3091 100.443L21.7986 98.9775L3.57617 80.6085L4.35783 59.1617L13.5423 50.026Z" fill="#778391"/>
<path d="M27.7102 66.539L21.6523 59.8949L22.4829 21.1051L30.0552 15.1449L33.9635 9.86872H40.4122L48.0333 3.22461H91.22L108.417 9.86872L114.621 15.1449L119.555 19.8349L120.581 59.8949L115.549 68.9329L103.433 73.5251L95.3237 79.0456L52.3325 80.2669L44.6624 76.5541L35.5757 74.1114L27.7102 66.539Z" fill="#12F1C7"/>
<rect width="6.25328" height="6.25328" transform="matrix(1 -6.92524e-08 -1.10361e-07 -1 124.793 95.8584)" fill="black"/>
<rect width="6.25328" height="6.25328" transform="matrix(1 -6.92524e-08 -1.10361e-07 -1 130.654 89.6055)" fill="black"/>
<rect width="6.64411" height="6.25328" transform="matrix(1 -6.92524e-08 -1.10361e-07 -1 124.402 51.0034)" fill="black"/>
<rect width="6.64411" height="6.25328" transform="matrix(1 -6.92524e-08 -1.10361e-07 -1 131.047 57.2568)" fill="black"/>
<rect width="6.64411" height="6.25328" transform="matrix(1 -6.92524e-08 -1.10361e-07 -1 111.504 18.7603)" fill="black"/>
<rect width="6.64411" height="6.25328" transform="matrix(1 -6.92524e-08 -1.10361e-07 -1 25.4043 18.7603)" fill="black"/>
<rect width="12.4676" height="6.25328" transform="matrix(1 -6.92524e-08 -1.10361e-07 -1 99.0352 12.5068)" fill="black"/>
<rect width="12.4676" height="6.25328" transform="matrix(1 -6.92524e-08 -1.10361e-07 -1 32.0488 12.5068)" fill="black"/>
<rect width="54.5207" height="6.25328" transform="matrix(1 -6.92524e-08 -1.10361e-07 -1 44.5156 6.25342)" fill="black"/>
<rect width="54.5207" height="6.25328" transform="matrix(1 -6.92524e-08 -1.10361e-07 -1 44.5156 82.811)" fill="black"/>
<rect width="79.8857" height="6.25328" transform="matrix(1 -6.92524e-08 -1.10361e-07 -1 31.6172 108.365)" fill="black"/>
<rect width="6.7317" height="6.50136" transform="matrix(1 -6.92524e-08 -1.10361e-07 -1 111.895 70.3047)" fill="black"/>
<rect width="6.25328" height="6.25328" transform="matrix(1 -6.92524e-08 -1.10361e-07 -1 25.4043 70.3047)" fill="black"/>
<rect width="6.64411" height="6.25328" transform="matrix(1 -6.92524e-08 -1.10361e-07 -1 12.5059 51.0034)" fill="black"/>
<rect width="6.25328" height="6.25328" transform="matrix(1 -6.92524e-08 -1.10361e-07 -1 12.5059 95.8584)" fill="black"/>
<rect width="6.25328" height="6.25328" transform="matrix(1 -6.92524e-08 -1.10361e-07 -1 6.25195 89.6055)" fill="black"/>
<rect width="6.25328" height="6.25328" transform="matrix(1 -6.92524e-08 -1.10361e-07 -1 6.25195 57.2568)" fill="black"/>
<rect width="12.8585" height="6.25328" transform="matrix(1 -6.92524e-08 -1.10361e-07 -1 31.6582 76.5581)" fill="black"/>
<rect width="12.8585" height="6.25328" transform="matrix(1 -6.92524e-08 -1.10361e-07 -1 99.0352 76.5581)" fill="black"/>
<rect width="12.8585" height="6.25328" transform="matrix(1 -6.92524e-08 -1.10361e-07 -1 18.7598 102.112)" fill="black"/>
<rect width="6.25328" height="26.0955" transform="matrix(1 -6.92524e-08 -1.10361e-07 -1 136.908 83.3521)" fill="black"/>
<rect width="6.25328" height="26.0955" transform="matrix(1 -6.92524e-08 -1.10361e-07 -1 0 83.3521)" fill="black"/>
<rect width="6.25328" height="45.0431" transform="matrix(1 -6.92524e-08 -1.10361e-07 -1 118.148 63.8027)" fill="black"/>
<rect width="6.25328" height="45.2912" transform="matrix(1 -6.92524e-08 -1.10361e-07 -1 19.1504 64.0513)" fill="black"/>
<rect width="13.2882" height="6.25328" transform="matrix(1 -6.92524e-08 -1.10361e-07 -1 111.504 102.112)" fill="black"/>
<path d="M25.4043 50.6611H35.2136V57.0121H47.9156V63.6562H93.4472V57.0121H105.758V50.6611H118.167V63.8367H111.912V70.3003H99.1631V76.5574H44.4958V70.3003H31.6473V64.0001H25.4043V50.6611Z" fill="#00B290"/>
<path d="M93.4477 57.0121V63.6562H70.5064V70.3003H58.1953V76.5574H99.1635V70.3003H111.912V63.8367H118.168V50.6611H105.759V57.0121H93.4477Z" fill="#00876D"/>
<rect x="25.4043" y="44.75" width="9.72494" height="5.9113" fill="#9BFFDC"/>
<rect x="106.176" y="44.75" width="11.9913" height="5.9113" fill="#9BFFDC"/>
<rect x="35.1289" y="50.6611" width="12.7086" height="6.59525" fill="#9BFFDC"/>
<rect x="93.4668" y="50.6128" width="12.7086" height="6.59525" fill="#9BFFDC"/>
<rect x="47.8379" y="57.208" width="45.6294" height="6.59525" fill="#9BFFDC"/>
<rect x="111.895" y="52.1758" width="4.2602" height="11.8753" fill="#00B290"/>
<path d="M25.4043 50.6611H35.1292V70.3003H31.7162V64.0509H25.4043V50.6611Z" fill="#00CFA8"/>
<path d="M44.5156 19.4439V6.35107H99.0364V12.5066H111.641V18.7599H118.187V44.8478H106.071V50.6126H93.3693V57.159H48.0331V50.0263H53.3093V47.3882H69.5287V40.7441H91.4152V25.1109H63.2755V19.4439H44.5156Z" fill="#00E4B9"/>
<rect x="6.25195" y="70.6626" width="6.25347" height="12.6894" fill="#404B5D"/>
<rect x="130.654" y="70.6626" width="6.25347" height="12.6894" fill="#404B5D"/>
<rect x="12.5059" y="77.0073" width="6.25347" height="12.6894" fill="#404B5D"/>
<rect x="124.402" y="77.0073" width="6.64411" height="12.6894" fill="#404B5D"/>
<rect x="18.7598" y="83.1694" width="12.8974" height="12.6894" fill="#404B5D"/>
<rect x="111.504" y="83.0781" width="13.2882" height="12.7806" fill="#404B5D"/>
<rect x="31.6172" y="89.4229" width="79.8857" height="12.6894" fill="#404B5D"/>
<rect x="6.25195" y="64.3076" width="6.25328" height="6.25328" fill="#8895A6"/>
<rect width="6.25328" height="6.25328" transform="matrix(-1 0 0 1 136.869 64.4966)" fill="#8895A6"/>
<rect x="12.5059" y="70.7554" width="6.25328" height="6.25328" fill="#8895A6"/>
<rect width="6.25328" height="6.25328" transform="matrix(-1 0 0 1 130.615 70.9443)" fill="#8895A6"/>
<rect x="18.5254" y="76.8247" width="13.0928" height="6.25328" fill="#8895A6"/>
<rect x="31.7363" y="83.2607" width="12.5069" height="12.9756" transform="rotate(90 31.7363 83.2607)" fill="#535F74"/>
<rect x="89.5977" y="89.6055" width="12.5069" height="57.8621" transform="rotate(90 89.5977 89.6055)" fill="#535F74"/>
<rect width="13.0928" height="6.25328" transform="matrix(-1 0 0 1 124.598 77.0137)" fill="#8895A6"/>
<rect x="31.7363" y="83.2607" width="79.7688" height="6.25328" fill="#8895A6"/>
<rect x="72.0684" y="84.5205" width="37.9662" height="3.73349" fill="#D2DDE3"/>
<rect x="52.8027" y="58.9062" width="37.9662" height="3.73349" fill="white"/>
<rect x="34.0605" y="22.4351" width="6.25328" height="6.25328" fill="white"/>
<rect x="89.5977" y="9.9668" width="6.25328" height="6.25328" fill="white"/>
<rect x="95.6348" y="16.1816" width="6.25328" height="6.25328" fill="white"/>
<rect x="101.889" y="22.4351" width="6.25328" height="6.25328" fill="white"/>
<rect x="19.2988" y="79.4727" width="11.4402" height="1.58736" fill="#D2DDE3"/>
<rect x="113.146" y="78.2739" width="8.65512" height="3.73349" fill="#D2DDE3"/>
<rect x="125.713" y="72.3145" width="3.71097" height="3.73349" fill="#D2DDE3"/>
</svg>
