<svg width="323" height="85" viewBox="0 0 323 85" fill="none" xmlns="http://www.w3.org/2000/svg">
<mask id="path-1-outside-1_538_144872" maskUnits="userSpaceOnUse" x="58.9785" y="23.1133" width="96" height="60" fill="black">
<rect fill="white" x="58.9785" y="23.1133" width="96" height="60"/>
<path d="M71.0585 79.0733V71.8733H63.7785V56.5133H71.0585V50.1133H63.7785V34.9133H71.0585V27.6333H93.6185V34.9133H100.979V50.1133H93.6185V56.5133H100.979V71.8733H93.6185V79.0733H71.0585ZM71.8585 71.0733H92.8185V57.3133H71.8585V71.0733ZM71.8585 49.3933H92.8185V35.7133H71.8585V49.3933ZM142.094 79.0733V64.5933H113.054V49.3933H120.334V42.1133H127.534V34.9133H134.894V27.6333H150.254V79.0733H142.094ZM121.134 56.5133H142.094V35.7133H135.694V42.9133H128.334V50.1133H121.134V56.5133Z"/>
</mask>
<path d="M71.0585 79.0733V71.8733H63.7785V56.5133H71.0585V50.1133H63.7785V34.9133H71.0585V27.6333H93.6185V34.9133H100.979V50.1133H93.6185V56.5133H100.979V71.8733H93.6185V79.0733H71.0585ZM71.8585 71.0733H92.8185V57.3133H71.8585V71.0733ZM71.8585 49.3933H92.8185V35.7133H71.8585V49.3933ZM142.094 79.0733V64.5933H113.054V49.3933H120.334V42.1133H127.534V34.9133H134.894V27.6333H150.254V79.0733H142.094ZM121.134 56.5133H142.094V35.7133H135.694V42.9133H128.334V50.1133H121.134V56.5133Z" fill="white"/>
<path d="M71.0585 79.0733H67.0585V83.0733H71.0585V79.0733ZM71.0585 71.8733H75.0585V67.8733H71.0585V71.8733ZM63.7785 71.8733H59.7785V75.8733H63.7785V71.8733ZM63.7785 56.5133V52.5133H59.7785V56.5133H63.7785ZM71.0585 56.5133V60.5133H75.0585V56.5133H71.0585ZM71.0585 50.1133H75.0585V46.1133H71.0585V50.1133ZM63.7785 50.1133H59.7785V54.1133H63.7785V50.1133ZM63.7785 34.9133V30.9133H59.7785V34.9133H63.7785ZM71.0585 34.9133V38.9133H75.0585V34.9133H71.0585ZM71.0585 27.6333V23.6333H67.0585V27.6333H71.0585ZM93.6185 27.6333H97.6185V23.6333H93.6185V27.6333ZM93.6185 34.9133H89.6185V38.9133H93.6185V34.9133ZM100.979 34.9133H104.979V30.9133H100.979V34.9133ZM100.979 50.1133V54.1133H104.979V50.1133H100.979ZM93.6185 50.1133V46.1133H89.6185V50.1133H93.6185ZM93.6185 56.5133H89.6185V60.5133H93.6185V56.5133ZM100.979 56.5133H104.979V52.5133H100.979V56.5133ZM100.979 71.8733V75.8733H104.979V71.8733H100.979ZM93.6185 71.8733V67.8733H89.6185V71.8733H93.6185ZM93.6185 79.0733V83.0733H97.6185V79.0733H93.6185ZM71.8585 71.0733H67.8585V75.0733H71.8585V71.0733ZM92.8185 71.0733V75.0733H96.8185V71.0733H92.8185ZM92.8185 57.3133H96.8185V53.3133H92.8185V57.3133ZM71.8585 57.3133V53.3133H67.8585V57.3133H71.8585ZM71.8585 49.3933H67.8585V53.3933H71.8585V49.3933ZM92.8185 49.3933V53.3933H96.8185V49.3933H92.8185ZM92.8185 35.7133H96.8185V31.7133H92.8185V35.7133ZM71.8585 35.7133V31.7133H67.8585V35.7133H71.8585ZM71.0585 79.0733H75.0585V71.8733H71.0585H67.0585V79.0733H71.0585ZM71.0585 71.8733V67.8733H63.7785V71.8733V75.8733H71.0585V71.8733ZM63.7785 71.8733H67.7785V56.5133H63.7785H59.7785V71.8733H63.7785ZM63.7785 56.5133V60.5133H71.0585V56.5133V52.5133H63.7785V56.5133ZM71.0585 56.5133H75.0585V50.1133H71.0585H67.0585V56.5133H71.0585ZM71.0585 50.1133V46.1133H63.7785V50.1133V54.1133H71.0585V50.1133ZM63.7785 50.1133H67.7785V34.9133H63.7785H59.7785V50.1133H63.7785ZM63.7785 34.9133V38.9133H71.0585V34.9133V30.9133H63.7785V34.9133ZM71.0585 34.9133H75.0585V27.6333H71.0585H67.0585V34.9133H71.0585ZM71.0585 27.6333V31.6333H93.6185V27.6333V23.6333H71.0585V27.6333ZM93.6185 27.6333H89.6185V34.9133H93.6185H97.6185V27.6333H93.6185ZM93.6185 34.9133V38.9133H100.979V34.9133V30.9133H93.6185V34.9133ZM100.979 34.9133H96.9785V50.1133H100.979H104.979V34.9133H100.979ZM100.979 50.1133V46.1133H93.6185V50.1133V54.1133H100.979V50.1133ZM93.6185 50.1133H89.6185V56.5133H93.6185H97.6185V50.1133H93.6185ZM93.6185 56.5133V60.5133H100.979V56.5133V52.5133H93.6185V56.5133ZM100.979 56.5133H96.9785V71.8733H100.979H104.979V56.5133H100.979ZM100.979 71.8733V67.8733H93.6185V71.8733V75.8733H100.979V71.8733ZM93.6185 71.8733H89.6185V79.0733H93.6185H97.6185V71.8733H93.6185ZM93.6185 79.0733V75.0733H71.0585V79.0733V83.0733H93.6185V79.0733ZM71.8585 71.0733V75.0733H92.8185V71.0733V67.0733H71.8585V71.0733ZM92.8185 71.0733H96.8185V57.3133H92.8185H88.8185V71.0733H92.8185ZM92.8185 57.3133V53.3133H71.8585V57.3133V61.3133H92.8185V57.3133ZM71.8585 57.3133H67.8585V71.0733H71.8585H75.8585V57.3133H71.8585ZM71.8585 49.3933V53.3933H92.8185V49.3933V45.3933H71.8585V49.3933ZM92.8185 49.3933H96.8185V35.7133H92.8185H88.8185V49.3933H92.8185ZM92.8185 35.7133V31.7133H71.8585V35.7133V39.7133H92.8185V35.7133ZM71.8585 35.7133H67.8585V49.3933H71.8585H75.8585V35.7133H71.8585ZM142.094 79.0733H138.094V83.0733H142.094V79.0733ZM142.094 64.5933H146.094V60.5933H142.094V64.5933ZM113.054 64.5933H109.054V68.5933H113.054V64.5933ZM113.054 49.3933V45.3933H109.054V49.3933H113.054ZM120.334 49.3933V53.3933H124.334V49.3933H120.334ZM120.334 42.1133V38.1133H116.334V42.1133H120.334ZM127.534 42.1133V46.1133H131.534V42.1133H127.534ZM127.534 34.9133V30.9133H123.534V34.9133H127.534ZM134.894 34.9133V38.9133H138.894V34.9133H134.894ZM134.894 27.6333V23.6333H130.894V27.6333H134.894ZM150.254 27.6333H154.254V23.6333H150.254V27.6333ZM150.254 79.0733V83.0733H154.254V79.0733H150.254ZM121.134 56.5133H117.134V60.5133H121.134V56.5133ZM142.094 56.5133V60.5133H146.094V56.5133H142.094ZM142.094 35.7133H146.094V31.7133H142.094V35.7133ZM135.694 35.7133V31.7133H131.694V35.7133H135.694ZM135.694 42.9133V46.9133H139.694V42.9133H135.694ZM128.334 42.9133V38.9133H124.334V42.9133H128.334ZM128.334 50.1133V54.1133H132.334V50.1133H128.334ZM121.134 50.1133V46.1133H117.134V50.1133H121.134ZM142.094 79.0733H146.094V64.5933H142.094H138.094V79.0733H142.094ZM142.094 64.5933V60.5933H113.054V64.5933V68.5933H142.094V64.5933ZM113.054 64.5933H117.054V49.3933H113.054H109.054V64.5933H113.054ZM113.054 49.3933V53.3933H120.334V49.3933V45.3933H113.054V49.3933ZM120.334 49.3933H124.334V42.1133H120.334H116.334V49.3933H120.334ZM120.334 42.1133V46.1133H127.534V42.1133V38.1133H120.334V42.1133ZM127.534 42.1133H131.534V34.9133H127.534H123.534V42.1133H127.534ZM127.534 34.9133V38.9133H134.894V34.9133V30.9133H127.534V34.9133ZM134.894 34.9133H138.894V27.6333H134.894H130.894V34.9133H134.894ZM134.894 27.6333V31.6333H150.254V27.6333V23.6333H134.894V27.6333ZM150.254 27.6333H146.254V79.0733H150.254H154.254V27.6333H150.254ZM150.254 79.0733V75.0733H142.094V79.0733V83.0733H150.254V79.0733ZM121.134 56.5133V60.5133H142.094V56.5133V52.5133H121.134V56.5133ZM142.094 56.5133H146.094V35.7133H142.094H138.094V56.5133H142.094ZM142.094 35.7133V31.7133H135.694V35.7133V39.7133H142.094V35.7133ZM135.694 35.7133H131.694V42.9133H135.694H139.694V35.7133H135.694ZM135.694 42.9133V38.9133H128.334V42.9133V46.9133H135.694V42.9133ZM128.334 42.9133H124.334V50.1133H128.334H132.334V42.9133H128.334ZM128.334 50.1133V46.1133H121.134V50.1133V54.1133H128.334V50.1133ZM121.134 50.1133H117.134V56.5133H121.134H125.134V50.1133H121.134Z" fill="black" mask="url(#path-1-outside-1_538_144872)"/>
<path d="M227 8.00336L222.096 3.44685L215.856 3.19922L212.092 6.96329L210.16 14.4914L205.505 18.8003L204.019 24.2978L182.673 26.5265L178.364 28.9534L175.343 34.8471L181.435 41.038L187.576 47.328L191.588 51.4387L193.123 59.6603L189.706 62.6814L187.972 80.957H199.661L202.83 77.4405L210.903 75.4594L214.172 71.002L222.938 69.5657L226.009 74.4689L233.339 75.4594L237.301 79.9664L249.832 80.957L249.584 63.5729L244.78 60.0069L244.037 54.2618L249.832 47.328L255.775 42.3753L260.034 36.7787L261.025 30.6868L256.865 26.8732L234.478 25.8332L231.705 18.8003L229.278 15.581L227 8.00336Z" fill="#12F1C7"/>
<rect x="252.754" y="39.2305" width="5.50046" height="5.61921" fill="black"/>
<rect width="5.50046" height="5.61921" transform="matrix(-1 0 0 1 185.169 39.2305)" fill="black"/>
<rect x="247.108" y="44.8496" width="5.64612" height="5.76802" fill="black"/>
<rect width="5.64612" height="5.76802" transform="matrix(-1 0 0 1 190.814 44.8496)" fill="black"/>
<rect x="224.87" y="72.5771" width="11.0694" height="5.76802" fill="black"/>
<rect width="11.0694" height="5.76802" transform="matrix(-1 0 0 1 213.053 72.5771)" fill="black"/>
<rect x="235.939" y="78.3457" width="16.8145" height="5.76802" fill="black"/>
<rect width="16.8145" height="5.76802" transform="matrix(-1 0 0 1 201.983 78.3457)" fill="black"/>
<rect x="213.801" y="66.8096" width="11.0694" height="5.76802" fill="black"/>
<rect width="11.0694" height="5.76802" transform="matrix(-1 0 0 1 224.122 66.8096)" fill="black"/>
<rect x="247.108" y="50.5225" width="11.1645" height="5.8176" transform="rotate(90 247.108 50.5225)" fill="black"/>
<rect width="11.1645" height="5.8176" transform="matrix(4.37114e-08 1 1 -4.37114e-08 190.814 50.5225)" fill="black"/>
<rect x="252.876" y="61.6875" width="22.1425" height="5.76802" transform="rotate(90 252.876 61.6875)" fill="black"/>
<rect width="22.1425" height="5.76802" transform="matrix(4.37114e-08 1 1 -4.37114e-08 185.047 61.6875)" fill="black"/>
<rect x="264.022" y="28.1611" width="11.0694" height="5.76802" transform="rotate(90 264.022 28.1611)" fill="black"/>
<rect width="11.0694" height="5.76802" transform="matrix(4.37114e-08 1 1 -4.37114e-08 173.978 28.168)" fill="black"/>
<rect x="236.136" y="16.9678" width="11.2001" height="5.76802" transform="rotate(90 236.136 16.9678)" fill="black"/>
<rect width="11.2001" height="5.76802" transform="matrix(4.37114e-08 1 1 -4.37114e-08 201.787 16.9678)" fill="black"/>
<rect x="230.368" y="5.76758" width="11.2001" height="5.76802" transform="rotate(90 230.368 5.76758)" fill="black"/>
<rect width="11.2001" height="5.76802" transform="matrix(4.37114e-08 1 1 -4.37114e-08 207.555 5.76758)" fill="black"/>
<rect x="224.6" y="5.76758" width="11.2001" height="5.76802" transform="rotate(-180 224.6 5.76758)" fill="black"/>
<rect width="11.2001" height="5.76802" transform="matrix(1 -8.74228e-08 -8.74228e-08 -1 213.323 5.76758)" fill="black"/>
<rect x="258.255" y="28.1611" width="27.8867" height="5.76802" transform="rotate(-180 258.255 28.1611)" fill="black"/>
<rect width="27.8095" height="5.76802" transform="matrix(1 -8.74228e-08 -8.74228e-08 -1 179.745 28.1611)" fill="black"/>
<path d="M232.572 30.8507H227.929V26.708H218.923V31.1509H223.346V35.7738H227.929V40.697H232.572V30.8507Z" fill="white"/>
</svg>
