<svg width="363" height="103" viewBox="0 0 363 103" fill="none" xmlns="http://www.w3.org/2000/svg">
<path d="M0 9.53223C0 6.21852 2.68629 3.53223 6 3.53223H356.693C360.007 3.53223 362.693 6.21852 362.693 9.53223V102.69H0V9.53223Z" fill="#6E71FF"/>
<mask id="path-2-outside-1_286_8721" maskUnits="userSpaceOnUse" x="34.3467" y="21" width="297" height="60" fill="black">
<rect fill="white" x="34.3467" y="21" width="297" height="60"/>
<path d="M39.0123 76.96V32.8H46.2923V25.52H68.8523V32.8H76.2123V55.2H68.8523V62.48H65.3323V68.96H72.5323V76.96H64.5323V69.76H57.1723V62.48H47.0923V76.96H39.0123ZM47.0923 54.4H68.0523V33.6H47.0923V54.4ZM95.5673 76.96V69.76H88.2873V32.8H95.5673V25.52H118.127V32.8H125.487V69.76H118.127V76.96H95.5673ZM96.3673 68.96H117.327V33.6H96.3673V68.96ZM144.842 76.96V69.76H137.562V25.52H145.642V68.96H166.602V25.52H174.762V69.76H167.402V76.96H144.842ZM186.837 76.96V25.52H194.917V32.8H202.117V40H209.477V61.68H215.877V25.52H224.037V76.96H215.877V69.76H208.677V62.48H201.317V40.8H194.917V76.96H186.837ZM236.112 76.96V25.52H258.752V32.8H265.952V40H273.312V62.48H265.952V69.76H258.752V76.96H236.112ZM244.192 68.96H257.952V61.68H265.152V40.8H257.952V33.6H244.192V68.96ZM318.283 76.96V33.6H311.883V40.8H303.803V32.8H311.083V25.52H319.083V32.8H326.443V76.96H318.283Z"/>
</mask>
<path d="M39.0123 76.96V32.8H46.2923V25.52H68.8523V32.8H76.2123V55.2H68.8523V62.48H65.3323V68.96H72.5323V76.96H64.5323V69.76H57.1723V62.48H47.0923V76.96H39.0123ZM47.0923 54.4H68.0523V33.6H47.0923V54.4ZM95.5673 76.96V69.76H88.2873V32.8H95.5673V25.52H118.127V32.8H125.487V69.76H118.127V76.96H95.5673ZM96.3673 68.96H117.327V33.6H96.3673V68.96ZM144.842 76.96V69.76H137.562V25.52H145.642V68.96H166.602V25.52H174.762V69.76H167.402V76.96H144.842ZM186.837 76.96V25.52H194.917V32.8H202.117V40H209.477V61.68H215.877V25.52H224.037V76.96H215.877V69.76H208.677V62.48H201.317V40.8H194.917V76.96H186.837ZM236.112 76.96V25.52H258.752V32.8H265.952V40H273.312V62.48H265.952V69.76H258.752V76.96H236.112ZM244.192 68.96H257.952V61.68H265.152V40.8H257.952V33.6H244.192V68.96ZM318.283 76.96V33.6H311.883V40.8H303.803V32.8H311.083V25.52H319.083V32.8H326.443V76.96H318.283Z" fill="white"/>
<path d="M39.0123 76.96H35.0123V80.96H39.0123V76.96ZM39.0123 32.8V28.8H35.0123V32.8H39.0123ZM46.2923 32.8V36.8H50.2923V32.8H46.2923ZM46.2923 25.52V21.52H42.2923V25.52H46.2923ZM68.8523 25.52H72.8523V21.52H68.8523V25.52ZM68.8523 32.8H64.8523V36.8H68.8523V32.8ZM76.2123 32.8H80.2123V28.8H76.2123V32.8ZM76.2123 55.2V59.2H80.2123V55.2H76.2123ZM68.8523 55.2V51.2H64.8523V55.2H68.8523ZM68.8523 62.48V66.48H72.8523V62.48H68.8523ZM65.3323 62.48V58.48H61.3323V62.48H65.3323ZM65.3323 68.96H61.3323V72.96H65.3323V68.96ZM72.5323 68.96H76.5323V64.96H72.5323V68.96ZM72.5323 76.96V80.96H76.5323V76.96H72.5323ZM64.5323 76.96H60.5323V80.96H64.5323V76.96ZM64.5323 69.76H68.5323V65.76H64.5323V69.76ZM57.1723 69.76H53.1723V73.76H57.1723V69.76ZM57.1723 62.48H61.1723V58.48H57.1723V62.48ZM47.0923 62.48V58.48H43.0923V62.48H47.0923ZM47.0923 76.96V80.96H51.0923V76.96H47.0923ZM47.0923 54.4H43.0923V58.4H47.0923V54.4ZM68.0523 54.4V58.4H72.0523V54.4H68.0523ZM68.0523 33.6H72.0523V29.6H68.0523V33.6ZM47.0923 33.6V29.6H43.0923V33.6H47.0923ZM39.0123 76.96H43.0123V32.8H39.0123H35.0123V76.96H39.0123ZM39.0123 32.8V36.8H46.2923V32.8V28.8H39.0123V32.8ZM46.2923 32.8H50.2923V25.52H46.2923H42.2923V32.8H46.2923ZM46.2923 25.52V29.52H68.8523V25.52V21.52H46.2923V25.52ZM68.8523 25.52H64.8523V32.8H68.8523H72.8523V25.52H68.8523ZM68.8523 32.8V36.8H76.2123V32.8V28.8H68.8523V32.8ZM76.2123 32.8H72.2123V55.2H76.2123H80.2123V32.8H76.2123ZM76.2123 55.2V51.2H68.8523V55.2V59.2H76.2123V55.2ZM68.8523 55.2H64.8523V62.48H68.8523H72.8523V55.2H68.8523ZM68.8523 62.48V58.48H65.3323V62.48V66.48H68.8523V62.48ZM65.3323 62.48H61.3323V68.96H65.3323H69.3323V62.48H65.3323ZM65.3323 68.96V72.96H72.5323V68.96V64.96H65.3323V68.96ZM72.5323 68.96H68.5323V76.96H72.5323H76.5323V68.96H72.5323ZM72.5323 76.96V72.96H64.5323V76.96V80.96H72.5323V76.96ZM64.5323 76.96H68.5323V69.76H64.5323H60.5323V76.96H64.5323ZM64.5323 69.76V65.76H57.1723V69.76V73.76H64.5323V69.76ZM57.1723 69.76H61.1723V62.48H57.1723H53.1723V69.76H57.1723ZM57.1723 62.48V58.48H47.0923V62.48V66.48H57.1723V62.48ZM47.0923 62.48H43.0923V76.96H47.0923H51.0923V62.48H47.0923ZM47.0923 76.96V72.96H39.0123V76.96V80.96H47.0923V76.96ZM47.0923 54.4V58.4H68.0523V54.4V50.4H47.0923V54.4ZM68.0523 54.4H72.0523V33.6H68.0523H64.0523V54.4H68.0523ZM68.0523 33.6V29.6H47.0923V33.6V37.6H68.0523V33.6ZM47.0923 33.6H43.0923V54.4H47.0923H51.0923V33.6H47.0923ZM95.5673 76.96H91.5673V80.96H95.5673V76.96ZM95.5673 69.76H99.5673V65.76H95.5673V69.76ZM88.2873 69.76H84.2873V73.76H88.2873V69.76ZM88.2873 32.8V28.8H84.2873V32.8H88.2873ZM95.5673 32.8V36.8H99.5673V32.8H95.5673ZM95.5673 25.52V21.52H91.5673V25.52H95.5673ZM118.127 25.52H122.127V21.52H118.127V25.52ZM118.127 32.8H114.127V36.8H118.127V32.8ZM125.487 32.8H129.487V28.8H125.487V32.8ZM125.487 69.76V73.76H129.487V69.76H125.487ZM118.127 69.76V65.76H114.127V69.76H118.127ZM118.127 76.96V80.96H122.127V76.96H118.127ZM96.3673 68.96H92.3673V72.96H96.3673V68.96ZM117.327 68.96V72.96H121.327V68.96H117.327ZM117.327 33.6H121.327V29.6H117.327V33.6ZM96.3673 33.6V29.6H92.3673V33.6H96.3673ZM95.5673 76.96H99.5673V69.76H95.5673H91.5673V76.96H95.5673ZM95.5673 69.76V65.76H88.2873V69.76V73.76H95.5673V69.76ZM88.2873 69.76H92.2873V32.8H88.2873H84.2873V69.76H88.2873ZM88.2873 32.8V36.8H95.5673V32.8V28.8H88.2873V32.8ZM95.5673 32.8H99.5673V25.52H95.5673H91.5673V32.8H95.5673ZM95.5673 25.52V29.52H118.127V25.52V21.52H95.5673V25.52ZM118.127 25.52H114.127V32.8H118.127H122.127V25.52H118.127ZM118.127 32.8V36.8H125.487V32.8V28.8H118.127V32.8ZM125.487 32.8H121.487V69.76H125.487H129.487V32.8H125.487ZM125.487 69.76V65.76H118.127V69.76V73.76H125.487V69.76ZM118.127 69.76H114.127V76.96H118.127H122.127V69.76H118.127ZM118.127 76.96V72.96H95.5673V76.96V80.96H118.127V76.96ZM96.3673 68.96V72.96H117.327V68.96V64.96H96.3673V68.96ZM117.327 68.96H121.327V33.6H117.327H113.327V68.96H117.327ZM117.327 33.6V29.6H96.3673V33.6V37.6H117.327V33.6ZM96.3673 33.6H92.3673V68.96H96.3673H100.367V33.6H96.3673ZM144.842 76.96H140.842V80.96H144.842V76.96ZM144.842 69.76H148.842V65.76H144.842V69.76ZM137.562 69.76H133.562V73.76H137.562V69.76ZM137.562 25.52V21.52H133.562V25.52H137.562ZM145.642 25.52H149.642V21.52H145.642V25.52ZM145.642 68.96H141.642V72.96H145.642V68.96ZM166.602 68.96V72.96H170.602V68.96H166.602ZM166.602 25.52V21.52H162.602V25.52H166.602ZM174.762 25.52H178.762V21.52H174.762V25.52ZM174.762 69.76V73.76H178.762V69.76H174.762ZM167.402 69.76V65.76H163.402V69.76H167.402ZM167.402 76.96V80.96H171.402V76.96H167.402ZM144.842 76.96H148.842V69.76H144.842H140.842V76.96H144.842ZM144.842 69.76V65.76H137.562V69.76V73.76H144.842V69.76ZM137.562 69.76H141.562V25.52H137.562H133.562V69.76H137.562ZM137.562 25.52V29.52H145.642V25.52V21.52H137.562V25.52ZM145.642 25.52H141.642V68.96H145.642H149.642V25.52H145.642ZM145.642 68.96V72.96H166.602V68.96V64.96H145.642V68.96ZM166.602 68.96H170.602V25.52H166.602H162.602V68.96H166.602ZM166.602 25.52V29.52H174.762V25.52V21.52H166.602V25.52ZM174.762 25.52H170.762V69.76H174.762H178.762V25.52H174.762ZM174.762 69.76V65.76H167.402V69.76V73.76H174.762V69.76ZM167.402 69.76H163.402V76.96H167.402H171.402V69.76H167.402ZM167.402 76.96V72.96H144.842V76.96V80.96H167.402V76.96ZM186.837 76.96H182.837V80.96H186.837V76.96ZM186.837 25.52V21.52H182.837V25.52H186.837ZM194.917 25.52H198.917V21.52H194.917V25.52ZM194.917 32.8H190.917V36.8H194.917V32.8ZM202.117 32.8H206.117V28.8H202.117V32.8ZM202.117 40H198.117V44H202.117V40ZM209.477 40H213.477V36H209.477V40ZM209.477 61.68H205.477V65.68H209.477V61.68ZM215.877 61.68V65.68H219.877V61.68H215.877ZM215.877 25.52V21.52H211.877V25.52H215.877ZM224.037 25.52H228.037V21.52H224.037V25.52ZM224.037 76.96V80.96H228.037V76.96H224.037ZM215.877 76.96H211.877V80.96H215.877V76.96ZM215.877 69.76H219.877V65.76H215.877V69.76ZM208.677 69.76H204.677V73.76H208.677V69.76ZM208.677 62.48H212.677V58.48H208.677V62.48ZM201.317 62.48H197.317V66.48H201.317V62.48ZM201.317 40.8H205.317V36.8H201.317V40.8ZM194.917 40.8V36.8H190.917V40.8H194.917ZM194.917 76.96V80.96H198.917V76.96H194.917ZM186.837 76.96H190.837V25.52H186.837H182.837V76.96H186.837ZM186.837 25.52V29.52H194.917V25.52V21.52H186.837V25.52ZM194.917 25.52H190.917V32.8H194.917H198.917V25.52H194.917ZM194.917 32.8V36.8H202.117V32.8V28.8H194.917V32.8ZM202.117 32.8H198.117V40H202.117H206.117V32.8H202.117ZM202.117 40V44H209.477V40V36H202.117V40ZM209.477 40H205.477V61.68H209.477H213.477V40H209.477ZM209.477 61.68V65.68H215.877V61.68V57.68H209.477V61.68ZM215.877 61.68H219.877V25.52H215.877H211.877V61.68H215.877ZM215.877 25.52V29.52H224.037V25.52V21.52H215.877V25.52ZM224.037 25.52H220.037V76.96H224.037H228.037V25.52H224.037ZM224.037 76.96V72.96H215.877V76.96V80.96H224.037V76.96ZM215.877 76.96H219.877V69.76H215.877H211.877V76.96H215.877ZM215.877 69.76V65.76H208.677V69.76V73.76H215.877V69.76ZM208.677 69.76H212.677V62.48H208.677H204.677V69.76H208.677ZM208.677 62.48V58.48H201.317V62.48V66.48H208.677V62.48ZM201.317 62.48H205.317V40.8H201.317H197.317V62.48H201.317ZM201.317 40.8V36.8H194.917V40.8V44.8H201.317V40.8ZM194.917 40.8H190.917V76.96H194.917H198.917V40.8H194.917ZM194.917 76.96V72.96H186.837V76.96V80.96H194.917V76.96ZM236.112 76.96H232.112V80.96H236.112V76.96ZM236.112 25.52V21.52H232.112V25.52H236.112ZM258.752 25.52H262.752V21.52H258.752V25.52ZM258.752 32.8H254.752V36.8H258.752V32.8ZM265.952 32.8H269.952V28.8H265.952V32.8ZM265.952 40H261.952V44H265.952V40ZM273.312 40H277.312V36H273.312V40ZM273.312 62.48V66.48H277.312V62.48H273.312ZM265.952 62.48V58.48H261.952V62.48H265.952ZM265.952 69.76V73.76H269.952V69.76H265.952ZM258.752 69.76V65.76H254.752V69.76H258.752ZM258.752 76.96V80.96H262.752V76.96H258.752ZM244.192 68.96H240.192V72.96H244.192V68.96ZM257.952 68.96V72.96H261.952V68.96H257.952ZM257.952 61.68V57.68H253.952V61.68H257.952ZM265.152 61.68V65.68H269.152V61.68H265.152ZM265.152 40.8H269.152V36.8H265.152V40.8ZM257.952 40.8H253.952V44.8H257.952V40.8ZM257.952 33.6H261.952V29.6H257.952V33.6ZM244.192 33.6V29.6H240.192V33.6H244.192ZM236.112 76.96H240.112V25.52H236.112H232.112V76.96H236.112ZM236.112 25.52V29.52H258.752V25.52V21.52H236.112V25.52ZM258.752 25.52H254.752V32.8H258.752H262.752V25.52H258.752ZM258.752 32.8V36.8H265.952V32.8V28.8H258.752V32.8ZM265.952 32.8H261.952V40H265.952H269.952V32.8H265.952ZM265.952 40V44H273.312V40V36H265.952V40ZM273.312 40H269.312V62.48H273.312H277.312V40H273.312ZM273.312 62.48V58.48H265.952V62.48V66.48H273.312V62.48ZM265.952 62.48H261.952V69.76H265.952H269.952V62.48H265.952ZM265.952 69.76V65.76H258.752V69.76V73.76H265.952V69.76ZM258.752 69.76H254.752V76.96H258.752H262.752V69.76H258.752ZM258.752 76.96V72.96H236.112V76.96V80.96H258.752V76.96ZM244.192 68.96V72.96H257.952V68.96V64.96H244.192V68.96ZM257.952 68.96H261.952V61.68H257.952H253.952V68.96H257.952ZM257.952 61.68V65.68H265.152V61.68V57.68H257.952V61.68ZM265.152 61.68H269.152V40.8H265.152H261.152V61.68H265.152ZM265.152 40.8V36.8H257.952V40.8V44.8H265.152V40.8ZM257.952 40.8H261.952V33.6H257.952H253.952V40.8H257.952ZM257.952 33.6V29.6H244.192V33.6V37.6H257.952V33.6ZM244.192 33.6H240.192V68.96H244.192H248.192V33.6H244.192ZM318.283 76.96H314.283V80.96H318.283V76.96ZM318.283 33.6H322.283V29.6H318.283V33.6ZM311.883 33.6V29.6H307.883V33.6H311.883ZM311.883 40.8V44.8H315.883V40.8H311.883ZM303.803 40.8H299.803V44.8H303.803V40.8ZM303.803 32.8V28.8H299.803V32.8H303.803ZM311.083 32.8V36.8H315.083V32.8H311.083ZM311.083 25.52V21.52H307.083V25.52H311.083ZM319.083 25.52H323.083V21.52H319.083V25.52ZM319.083 32.8H315.083V36.8H319.083V32.8ZM326.443 32.8H330.443V28.8H326.443V32.8ZM326.443 76.96V80.96H330.443V76.96H326.443ZM318.283 76.96H322.283V33.6H318.283H314.283V76.96H318.283ZM318.283 33.6V29.6H311.883V33.6V37.6H318.283V33.6ZM311.883 33.6H307.883V40.8H311.883H315.883V33.6H311.883ZM311.883 40.8V36.8H303.803V40.8V44.8H311.883V40.8ZM303.803 40.8H307.803V32.8H303.803H299.803V40.8H303.803ZM303.803 32.8V36.8H311.083V32.8V28.8H303.803V32.8ZM311.083 32.8H315.083V25.52H311.083H307.083V32.8H311.083ZM311.083 25.52V29.52H319.083V25.52V21.52H311.083V25.52ZM319.083 25.52H315.083V32.8H319.083H323.083V25.52H319.083ZM319.083 32.8V36.8H326.443V32.8V28.8H319.083V32.8ZM326.443 32.8H322.443V76.96H326.443H330.443V32.8H326.443ZM326.443 76.96V72.96H318.283V76.96V80.96H326.443V76.96Z" fill="black" mask="url(#path-2-outside-1_286_8721)"/>
</svg>
