<svg width="206" height="85" viewBox="0 0 206 85" fill="none" xmlns="http://www.w3.org/2000/svg">
<path d="M53.0221 8.00336L48.1189 3.44685L41.8785 3.19922L38.1144 6.96329L36.1829 14.4914L31.5273 18.8003L30.0415 24.2978L8.69526 26.5265L4.38639 28.9534L1.36523 34.8471L7.45708 41.038L13.5985 47.328L17.6102 51.4387L19.1455 59.6603L15.7281 62.6814L13.9947 80.957H25.6831L28.8528 77.4405L36.9258 75.4594L40.1946 71.002L48.9609 69.5657L52.0316 74.4689L59.3616 75.4594L63.3238 79.9664L75.8542 80.957L75.6065 63.5729L70.8024 60.0069L70.0595 54.2618L75.8542 47.328L81.7974 42.3753L86.0568 36.7787L87.0473 30.6868L82.887 26.8732L60.5007 25.8332L57.7272 18.8003L55.3004 15.581L53.0221 8.00336Z" fill="#12F1C7"/>
<rect x="78.7764" y="39.2305" width="5.50046" height="5.61921" fill="black"/>
<rect width="5.50046" height="5.61921" transform="matrix(-1 0 0 1 11.1914 39.2305)" fill="black"/>
<rect x="73.1309" y="44.8496" width="5.64612" height="5.76802" fill="black"/>
<rect width="5.64612" height="5.76802" transform="matrix(-1 0 0 1 16.8369 44.8496)" fill="black"/>
<rect x="50.8926" y="72.5771" width="11.0694" height="5.76802" fill="black"/>
<rect width="11.0694" height="5.76802" transform="matrix(-1 0 0 1 39.0752 72.5771)" fill="black"/>
<rect x="61.9619" y="78.3457" width="16.8145" height="5.76802" fill="black"/>
<rect width="16.8145" height="5.76802" transform="matrix(-1 0 0 1 28.0059 78.3457)" fill="black"/>
<rect x="39.8232" y="66.8096" width="11.0694" height="5.76802" fill="black"/>
<rect width="11.0694" height="5.76802" transform="matrix(-1 0 0 1 50.1445 66.8096)" fill="black"/>
<rect x="73.1309" y="50.5225" width="11.1645" height="5.8176" transform="rotate(90 73.1309 50.5225)" fill="black"/>
<rect width="11.1645" height="5.8176" transform="matrix(4.37114e-08 1 1 -4.37114e-08 16.8369 50.5225)" fill="black"/>
<rect x="78.8984" y="61.6875" width="22.1425" height="5.76802" transform="rotate(90 78.8984 61.6875)" fill="black"/>
<rect width="22.1425" height="5.76802" transform="matrix(4.37114e-08 1 1 -4.37114e-08 11.0693 61.6875)" fill="black"/>
<rect x="90.0449" y="28.1611" width="11.0694" height="5.76802" transform="rotate(90 90.0449 28.1611)" fill="black"/>
<rect width="11.0694" height="5.76802" transform="matrix(4.37114e-08 1 1 -4.37114e-08 0 28.168)" fill="black"/>
<rect x="62.1582" y="16.9678" width="11.2001" height="5.76802" transform="rotate(90 62.1582 16.9678)" fill="black"/>
<rect width="11.2001" height="5.76802" transform="matrix(4.37114e-08 1 1 -4.37114e-08 27.8096 16.9678)" fill="black"/>
<rect x="56.3906" y="5.76758" width="11.2001" height="5.76802" transform="rotate(90 56.3906 5.76758)" fill="black"/>
<rect width="11.2001" height="5.76802" transform="matrix(4.37114e-08 1 1 -4.37114e-08 33.5771 5.76758)" fill="black"/>
<rect x="50.6221" y="5.76758" width="11.2001" height="5.76802" transform="rotate(-180 50.6221 5.76758)" fill="black"/>
<rect width="11.2001" height="5.76802" transform="matrix(1 -8.74228e-08 -8.74228e-08 -1 39.3457 5.76758)" fill="black"/>
<rect x="84.2773" y="28.1611" width="27.8867" height="5.76802" transform="rotate(-180 84.2773 28.1611)" fill="black"/>
<rect width="27.8095" height="5.76802" transform="matrix(1 -8.74228e-08 -8.74228e-08 -1 5.76758 28.1611)" fill="black"/>
<path d="M58.5947 30.8507H53.9517V26.708H44.9459V31.1509H49.3688V35.7738H53.9517V40.697H58.5947V30.8507Z" fill="white"/>
<mask id="path-27-outside-1_287_30379" maskUnits="userSpaceOnUse" x="108.045" y="23.1133" width="96" height="60" fill="black">
<rect fill="white" x="108.045" y="23.1133" width="96" height="60"/>
<path d="M120.125 79.0733V71.8733H112.845V56.5133H120.125V50.1133H112.845V34.9133H120.125V27.6333H142.685V34.9133H150.045V50.1133H142.685V56.5133H150.045V71.8733H142.685V79.0733H120.125ZM120.925 71.0733H141.885V57.3133H120.925V71.0733ZM120.925 49.3933H141.885V35.7133H120.925V49.3933ZM169.4 79.0733V71.8733H162.12V63.7933H170.2V71.0733H191.16V64.5933H176.6V57.3133H169.4V50.1133H162.12V34.9133H169.4V27.6333H191.96V34.9133H199.32V50.1133H191.16V35.7133H170.2V49.3933H177.4V56.5133H191.96V63.7933H199.32V71.8733H191.96V79.0733H169.4Z"/>
</mask>
<path d="M120.125 79.0733V71.8733H112.845V56.5133H120.125V50.1133H112.845V34.9133H120.125V27.6333H142.685V34.9133H150.045V50.1133H142.685V56.5133H150.045V71.8733H142.685V79.0733H120.125ZM120.925 71.0733H141.885V57.3133H120.925V71.0733ZM120.925 49.3933H141.885V35.7133H120.925V49.3933ZM169.4 79.0733V71.8733H162.12V63.7933H170.2V71.0733H191.16V64.5933H176.6V57.3133H169.4V50.1133H162.12V34.9133H169.4V27.6333H191.96V34.9133H199.32V50.1133H191.16V35.7133H170.2V49.3933H177.4V56.5133H191.96V63.7933H199.32V71.8733H191.96V79.0733H169.4Z" fill="white"/>
<path d="M120.125 79.0733H116.125V83.0733H120.125V79.0733ZM120.125 71.8733H124.125V67.8733H120.125V71.8733ZM112.845 71.8733H108.845V75.8733H112.845V71.8733ZM112.845 56.5133V52.5133H108.845V56.5133H112.845ZM120.125 56.5133V60.5133H124.125V56.5133H120.125ZM120.125 50.1133H124.125V46.1133H120.125V50.1133ZM112.845 50.1133H108.845V54.1133H112.845V50.1133ZM112.845 34.9133V30.9133H108.845V34.9133H112.845ZM120.125 34.9133V38.9133H124.125V34.9133H120.125ZM120.125 27.6333V23.6333H116.125V27.6333H120.125ZM142.685 27.6333H146.685V23.6333H142.685V27.6333ZM142.685 34.9133H138.685V38.9133H142.685V34.9133ZM150.045 34.9133H154.045V30.9133H150.045V34.9133ZM150.045 50.1133V54.1133H154.045V50.1133H150.045ZM142.685 50.1133V46.1133H138.685V50.1133H142.685ZM142.685 56.5133H138.685V60.5133H142.685V56.5133ZM150.045 56.5133H154.045V52.5133H150.045V56.5133ZM150.045 71.8733V75.8733H154.045V71.8733H150.045ZM142.685 71.8733V67.8733H138.685V71.8733H142.685ZM142.685 79.0733V83.0733H146.685V79.0733H142.685ZM120.925 71.0733H116.925V75.0733H120.925V71.0733ZM141.885 71.0733V75.0733H145.885V71.0733H141.885ZM141.885 57.3133H145.885V53.3133H141.885V57.3133ZM120.925 57.3133V53.3133H116.925V57.3133H120.925ZM120.925 49.3933H116.925V53.3933H120.925V49.3933ZM141.885 49.3933V53.3933H145.885V49.3933H141.885ZM141.885 35.7133H145.885V31.7133H141.885V35.7133ZM120.925 35.7133V31.7133H116.925V35.7133H120.925ZM120.125 79.0733H124.125V71.8733H120.125H116.125V79.0733H120.125ZM120.125 71.8733V67.8733H112.845V71.8733V75.8733H120.125V71.8733ZM112.845 71.8733H116.845V56.5133H112.845H108.845V71.8733H112.845ZM112.845 56.5133V60.5133H120.125V56.5133V52.5133H112.845V56.5133ZM120.125 56.5133H124.125V50.1133H120.125H116.125V56.5133H120.125ZM120.125 50.1133V46.1133H112.845V50.1133V54.1133H120.125V50.1133ZM112.845 50.1133H116.845V34.9133H112.845H108.845V50.1133H112.845ZM112.845 34.9133V38.9133H120.125V34.9133V30.9133H112.845V34.9133ZM120.125 34.9133H124.125V27.6333H120.125H116.125V34.9133H120.125ZM120.125 27.6333V31.6333H142.685V27.6333V23.6333H120.125V27.6333ZM142.685 27.6333H138.685V34.9133H142.685H146.685V27.6333H142.685ZM142.685 34.9133V38.9133H150.045V34.9133V30.9133H142.685V34.9133ZM150.045 34.9133H146.045V50.1133H150.045H154.045V34.9133H150.045ZM150.045 50.1133V46.1133H142.685V50.1133V54.1133H150.045V50.1133ZM142.685 50.1133H138.685V56.5133H142.685H146.685V50.1133H142.685ZM142.685 56.5133V60.5133H150.045V56.5133V52.5133H142.685V56.5133ZM150.045 56.5133H146.045V71.8733H150.045H154.045V56.5133H150.045ZM150.045 71.8733V67.8733H142.685V71.8733V75.8733H150.045V71.8733ZM142.685 71.8733H138.685V79.0733H142.685H146.685V71.8733H142.685ZM142.685 79.0733V75.0733H120.125V79.0733V83.0733H142.685V79.0733ZM120.925 71.0733V75.0733H141.885V71.0733V67.0733H120.925V71.0733ZM141.885 71.0733H145.885V57.3133H141.885H137.885V71.0733H141.885ZM141.885 57.3133V53.3133H120.925V57.3133V61.3133H141.885V57.3133ZM120.925 57.3133H116.925V71.0733H120.925H124.925V57.3133H120.925ZM120.925 49.3933V53.3933H141.885V49.3933V45.3933H120.925V49.3933ZM141.885 49.3933H145.885V35.7133H141.885H137.885V49.3933H141.885ZM141.885 35.7133V31.7133H120.925V35.7133V39.7133H141.885V35.7133ZM120.925 35.7133H116.925V49.3933H120.925H124.925V35.7133H120.925ZM169.4 79.0733H165.4V83.0733H169.4V79.0733ZM169.4 71.8733H173.4V67.8733H169.4V71.8733ZM162.12 71.8733H158.12V75.8733H162.12V71.8733ZM162.12 63.7933V59.7933H158.12V63.7933H162.12ZM170.2 63.7933H174.2V59.7933H170.2V63.7933ZM170.2 71.0733H166.2V75.0733H170.2V71.0733ZM191.16 71.0733V75.0733H195.16V71.0733H191.16ZM191.16 64.5933H195.16V60.5933H191.16V64.5933ZM176.6 64.5933H172.6V68.5933H176.6V64.5933ZM176.6 57.3133H180.6V53.3133H176.6V57.3133ZM169.4 57.3133H165.4V61.3133H169.4V57.3133ZM169.4 50.1133H173.4V46.1133H169.4V50.1133ZM162.12 50.1133H158.12V54.1133H162.12V50.1133ZM162.12 34.9133V30.9133H158.12V34.9133H162.12ZM169.4 34.9133V38.9133H173.4V34.9133H169.4ZM169.4 27.6333V23.6333H165.4V27.6333H169.4ZM191.96 27.6333H195.96V23.6333H191.96V27.6333ZM191.96 34.9133H187.96V38.9133H191.96V34.9133ZM199.32 34.9133H203.32V30.9133H199.32V34.9133ZM199.32 50.1133V54.1133H203.32V50.1133H199.32ZM191.16 50.1133H187.16V54.1133H191.16V50.1133ZM191.16 35.7133H195.16V31.7133H191.16V35.7133ZM170.2 35.7133V31.7133H166.2V35.7133H170.2ZM170.2 49.3933H166.2V53.3933H170.2V49.3933ZM177.4 49.3933H181.4V45.3933H177.4V49.3933ZM177.4 56.5133H173.4V60.5133H177.4V56.5133ZM191.96 56.5133H195.96V52.5133H191.96V56.5133ZM191.96 63.7933H187.96V67.7933H191.96V63.7933ZM199.32 63.7933H203.32V59.7933H199.32V63.7933ZM199.32 71.8733V75.8733H203.32V71.8733H199.32ZM191.96 71.8733V67.8733H187.96V71.8733H191.96ZM191.96 79.0733V83.0733H195.96V79.0733H191.96ZM169.4 79.0733H173.4V71.8733H169.4H165.4V79.0733H169.4ZM169.4 71.8733V67.8733H162.12V71.8733V75.8733H169.4V71.8733ZM162.12 71.8733H166.12V63.7933H162.12H158.12V71.8733H162.12ZM162.12 63.7933V67.7933H170.2V63.7933V59.7933H162.12V63.7933ZM170.2 63.7933H166.2V71.0733H170.2H174.2V63.7933H170.2ZM170.2 71.0733V75.0733H191.16V71.0733V67.0733H170.2V71.0733ZM191.16 71.0733H195.16V64.5933H191.16H187.16V71.0733H191.16ZM191.16 64.5933V60.5933H176.6V64.5933V68.5933H191.16V64.5933ZM176.6 64.5933H180.6V57.3133H176.6H172.6V64.5933H176.6ZM176.6 57.3133V53.3133H169.4V57.3133V61.3133H176.6V57.3133ZM169.4 57.3133H173.4V50.1133H169.4H165.4V57.3133H169.4ZM169.4 50.1133V46.1133H162.12V50.1133V54.1133H169.4V50.1133ZM162.12 50.1133H166.12V34.9133H162.12H158.12V50.1133H162.12ZM162.12 34.9133V38.9133H169.4V34.9133V30.9133H162.12V34.9133ZM169.4 34.9133H173.4V27.6333H169.4H165.4V34.9133H169.4ZM169.4 27.6333V31.6333H191.96V27.6333V23.6333H169.4V27.6333ZM191.96 27.6333H187.96V34.9133H191.96H195.96V27.6333H191.96ZM191.96 34.9133V38.9133H199.32V34.9133V30.9133H191.96V34.9133ZM199.32 34.9133H195.32V50.1133H199.32H203.32V34.9133H199.32ZM199.32 50.1133V46.1133H191.16V50.1133V54.1133H199.32V50.1133ZM191.16 50.1133H195.16V35.7133H191.16H187.16V50.1133H191.16ZM191.16 35.7133V31.7133H170.2V35.7133V39.7133H191.16V35.7133ZM170.2 35.7133H166.2V49.3933H170.2H174.2V35.7133H170.2ZM170.2 49.3933V53.3933H177.4V49.3933V45.3933H170.2V49.3933ZM177.4 49.3933H173.4V56.5133H177.4H181.4V49.3933H177.4ZM177.4 56.5133V60.5133H191.96V56.5133V52.5133H177.4V56.5133ZM191.96 56.5133H187.96V63.7933H191.96H195.96V56.5133H191.96ZM191.96 63.7933V67.7933H199.32V63.7933V59.7933H191.96V63.7933ZM199.32 63.7933H195.32V71.8733H199.32H203.32V63.7933H199.32ZM199.32 71.8733V67.8733H191.96V71.8733V75.8733H199.32V71.8733ZM191.96 71.8733H187.96V79.0733H191.96H195.96V71.8733H191.96ZM191.96 79.0733V75.0733H169.4V79.0733V83.0733H191.96V79.0733Z" fill="black" mask="url(#path-27-outside-1_287_30379)"/>
</svg>
