<svg width="206" height="85" viewBox="0 0 206 85" fill="none" xmlns="http://www.w3.org/2000/svg">
<mask id="path-1-outside-1_287_30340" maskUnits="userSpaceOnUse" x="0" y="23.1133" width="96" height="60" fill="black">
<rect fill="white" y="23.1133" width="96" height="60"/>
<path d="M12.08 79.0733V71.8733H4.8V34.9133H12.08V27.6333H34.64V34.9133H42V42.9133H33.84V35.7133H12.88V49.3933H34.64V56.5133H42V71.8733H34.64V79.0733H12.08ZM12.88 71.0733H33.84V57.3133H12.88V71.0733ZM61.355 79.0733V71.8733H54.075V34.9133H61.355V27.6333H83.915V34.9133H91.275V71.8733H83.915V79.0733H61.355ZM62.155 71.0733H83.115V35.7133H62.155V71.0733Z"/>
</mask>
<path d="M12.08 79.0733V71.8733H4.8V34.9133H12.08V27.6333H34.64V34.9133H42V42.9133H33.84V35.7133H12.88V49.3933H34.64V56.5133H42V71.8733H34.64V79.0733H12.08ZM12.88 71.0733H33.84V57.3133H12.88V71.0733ZM61.355 79.0733V71.8733H54.075V34.9133H61.355V27.6333H83.915V34.9133H91.275V71.8733H83.915V79.0733H61.355ZM62.155 71.0733H83.115V35.7133H62.155V71.0733Z" fill="white"/>
<path d="M12.08 79.0733H8.08V83.0733H12.08V79.0733ZM12.08 71.8733H16.08V67.8733H12.08V71.8733ZM4.8 71.8733H0.8V75.8733H4.8V71.8733ZM4.8 34.9133V30.9133H0.8V34.9133H4.8ZM12.08 34.9133V38.9133H16.08V34.9133H12.08ZM12.08 27.6333V23.6333H8.08V27.6333H12.08ZM34.64 27.6333H38.64V23.6333H34.64V27.6333ZM34.64 34.9133H30.64V38.9133H34.64V34.9133ZM42 34.9133H46V30.9133H42V34.9133ZM42 42.9133V46.9133H46V42.9133H42ZM33.84 42.9133H29.84V46.9133H33.84V42.9133ZM33.84 35.7133H37.84V31.7133H33.84V35.7133ZM12.88 35.7133V31.7133H8.88V35.7133H12.88ZM12.88 49.3933H8.88V53.3933H12.88V49.3933ZM34.64 49.3933H38.64V45.3933H34.64V49.3933ZM34.64 56.5133H30.64V60.5133H34.64V56.5133ZM42 56.5133H46V52.5133H42V56.5133ZM42 71.8733V75.8733H46V71.8733H42ZM34.64 71.8733V67.8733H30.64V71.8733H34.64ZM34.64 79.0733V83.0733H38.64V79.0733H34.64ZM12.88 71.0733H8.88V75.0733H12.88V71.0733ZM33.84 71.0733V75.0733H37.84V71.0733H33.84ZM33.84 57.3133H37.84V53.3133H33.84V57.3133ZM12.88 57.3133V53.3133H8.88V57.3133H12.88ZM12.08 79.0733H16.08V71.8733H12.08H8.08V79.0733H12.08ZM12.08 71.8733V67.8733H4.8V71.8733V75.8733H12.08V71.8733ZM4.8 71.8733H8.8V34.9133H4.8H0.8V71.8733H4.8ZM4.8 34.9133V38.9133H12.08V34.9133V30.9133H4.8V34.9133ZM12.08 34.9133H16.08V27.6333H12.08H8.08V34.9133H12.08ZM12.08 27.6333V31.6333H34.64V27.6333V23.6333H12.08V27.6333ZM34.64 27.6333H30.64V34.9133H34.64H38.64V27.6333H34.64ZM34.64 34.9133V38.9133H42V34.9133V30.9133H34.64V34.9133ZM42 34.9133H38V42.9133H42H46V34.9133H42ZM42 42.9133V38.9133H33.84V42.9133V46.9133H42V42.9133ZM33.84 42.9133H37.84V35.7133H33.84H29.84V42.9133H33.84ZM33.84 35.7133V31.7133H12.88V35.7133V39.7133H33.84V35.7133ZM12.88 35.7133H8.88V49.3933H12.88H16.88V35.7133H12.88ZM12.88 49.3933V53.3933H34.64V49.3933V45.3933H12.88V49.3933ZM34.64 49.3933H30.64V56.5133H34.64H38.64V49.3933H34.64ZM34.64 56.5133V60.5133H42V56.5133V52.5133H34.64V56.5133ZM42 56.5133H38V71.8733H42H46V56.5133H42ZM42 71.8733V67.8733H34.64V71.8733V75.8733H42V71.8733ZM34.64 71.8733H30.64V79.0733H34.64H38.64V71.8733H34.64ZM34.64 79.0733V75.0733H12.08V79.0733V83.0733H34.64V79.0733ZM12.88 71.0733V75.0733H33.84V71.0733V67.0733H12.88V71.0733ZM33.84 71.0733H37.84V57.3133H33.84H29.84V71.0733H33.84ZM33.84 57.3133V53.3133H12.88V57.3133V61.3133H33.84V57.3133ZM12.88 57.3133H8.88V71.0733H12.88H16.88V57.3133H12.88ZM61.355 79.0733H57.355V83.0733H61.355V79.0733ZM61.355 71.8733H65.355V67.8733H61.355V71.8733ZM54.075 71.8733H50.075V75.8733H54.075V71.8733ZM54.075 34.9133V30.9133H50.075V34.9133H54.075ZM61.355 34.9133V38.9133H65.355V34.9133H61.355ZM61.355 27.6333V23.6333H57.355V27.6333H61.355ZM83.915 27.6333H87.915V23.6333H83.915V27.6333ZM83.915 34.9133H79.915V38.9133H83.915V34.9133ZM91.275 34.9133H95.275V30.9133H91.275V34.9133ZM91.275 71.8733V75.8733H95.275V71.8733H91.275ZM83.915 71.8733V67.8733H79.915V71.8733H83.915ZM83.915 79.0733V83.0733H87.915V79.0733H83.915ZM62.155 71.0733H58.155V75.0733H62.155V71.0733ZM83.115 71.0733V75.0733H87.115V71.0733H83.115ZM83.115 35.7133H87.115V31.7133H83.115V35.7133ZM62.155 35.7133V31.7133H58.155V35.7133H62.155ZM61.355 79.0733H65.355V71.8733H61.355H57.355V79.0733H61.355ZM61.355 71.8733V67.8733H54.075V71.8733V75.8733H61.355V71.8733ZM54.075 71.8733H58.075V34.9133H54.075H50.075V71.8733H54.075ZM54.075 34.9133V38.9133H61.355V34.9133V30.9133H54.075V34.9133ZM61.355 34.9133H65.355V27.6333H61.355H57.355V34.9133H61.355ZM61.355 27.6333V31.6333H83.915V27.6333V23.6333H61.355V27.6333ZM83.915 27.6333H79.915V34.9133H83.915H87.915V27.6333H83.915ZM83.915 34.9133V38.9133H91.275V34.9133V30.9133H83.915V34.9133ZM91.275 34.9133H87.275V71.8733H91.275H95.275V34.9133H91.275ZM91.275 71.8733V67.8733H83.915V71.8733V75.8733H91.275V71.8733ZM83.915 71.8733H79.915V79.0733H83.915H87.915V71.8733H83.915ZM83.915 79.0733V75.0733H61.355V79.0733V83.0733H83.915V79.0733ZM62.155 71.0733V75.0733H83.115V71.0733V67.0733H62.155V71.0733ZM83.115 71.0733H87.115V35.7133H83.115H79.115V71.0733H83.115ZM83.115 35.7133V31.7133H62.155V35.7133V39.7133H83.115V35.7133ZM62.155 35.7133H58.155V71.0733H62.155H66.155V35.7133H62.155Z" fill="black" mask="url(#path-1-outside-1_287_30340)"/>
<path d="M168.022 8.00336L163.119 3.44685L156.879 3.19922L153.114 6.96329L151.183 14.4914L146.527 18.8003L145.041 24.2978L123.695 26.5265L119.386 28.9534L116.365 34.8471L122.457 41.038L128.598 47.328L132.61 51.4387L134.146 59.6603L130.728 62.6814L128.995 80.957H140.683L143.853 77.4405L151.926 75.4594L155.195 71.002L163.961 69.5657L167.032 74.4689L174.362 75.4594L178.324 79.9664L190.854 80.957L190.607 63.5729L185.802 60.0069L185.059 54.2618L190.854 47.328L196.797 42.3753L201.057 36.7787L202.047 30.6868L197.887 26.8732L175.501 25.8332L172.727 18.8003L170.3 15.581L168.022 8.00336Z" fill="#FFEF2C"/>
<rect x="193.776" y="39.2305" width="5.50046" height="5.61921" fill="black"/>
<rect width="5.50046" height="5.61921" transform="matrix(-1 0 0 1 126.191 39.2305)" fill="black"/>
<rect x="188.131" y="44.8496" width="5.64612" height="5.76802" fill="black"/>
<rect width="5.64612" height="5.76802" transform="matrix(-1 0 0 1 131.837 44.8496)" fill="black"/>
<rect x="165.893" y="72.5771" width="11.0694" height="5.76802" fill="black"/>
<rect width="11.0694" height="5.76802" transform="matrix(-1 0 0 1 154.075 72.5771)" fill="black"/>
<rect x="176.962" y="78.3457" width="16.8145" height="5.76802" fill="black"/>
<rect width="16.8145" height="5.76802" transform="matrix(-1 0 0 1 143.006 78.3457)" fill="black"/>
<rect x="154.823" y="66.8096" width="11.0694" height="5.76802" fill="black"/>
<rect width="11.0694" height="5.76802" transform="matrix(-1 0 0 1 165.145 66.8096)" fill="black"/>
<rect x="188.131" y="50.5225" width="11.1645" height="5.8176" transform="rotate(90 188.131 50.5225)" fill="black"/>
<rect width="11.1645" height="5.8176" transform="matrix(4.37114e-08 1 1 -4.37114e-08 131.837 50.5225)" fill="black"/>
<rect x="193.898" y="61.6875" width="22.1425" height="5.76802" transform="rotate(90 193.898 61.6875)" fill="black"/>
<rect width="22.1425" height="5.76802" transform="matrix(4.37114e-08 1 1 -4.37114e-08 126.069 61.6875)" fill="black"/>
<rect x="205.045" y="28.1611" width="11.0694" height="5.76802" transform="rotate(90 205.045 28.1611)" fill="black"/>
<rect width="11.0694" height="5.76802" transform="matrix(4.37114e-08 1 1 -4.37114e-08 115 28.168)" fill="black"/>
<rect x="177.158" y="16.9678" width="11.2001" height="5.76802" transform="rotate(90 177.158 16.9678)" fill="black"/>
<rect width="11.2001" height="5.76802" transform="matrix(4.37114e-08 1 1 -4.37114e-08 142.81 16.9678)" fill="black"/>
<rect x="171.391" y="5.76758" width="11.2001" height="5.76802" transform="rotate(90 171.391 5.76758)" fill="black"/>
<rect width="11.2001" height="5.76802" transform="matrix(4.37114e-08 1 1 -4.37114e-08 148.577 5.76758)" fill="black"/>
<rect x="165.622" y="5.76758" width="11.2001" height="5.76802" transform="rotate(-180 165.622 5.76758)" fill="black"/>
<rect width="11.2001" height="5.76802" transform="matrix(1 -8.74228e-08 -8.74228e-08 -1 154.346 5.76758)" fill="black"/>
<rect x="199.277" y="28.1611" width="27.8867" height="5.76802" transform="rotate(-180 199.277 28.1611)" fill="black"/>
<rect width="27.8095" height="5.76802" transform="matrix(1 -8.74228e-08 -8.74228e-08 -1 120.768 28.1611)" fill="black"/>
<path d="M173.595 30.8507H168.952V26.708H159.946V31.1509H164.369V35.7738H168.952V40.697H173.595V30.8507Z" fill="white"/>
</svg>
