<svg width="336" height="92" viewBox="0 0 336 92" fill="none" xmlns="http://www.w3.org/2000/svg">
<path d="M22.0269 5.21671V0.331055H313.924V5.29952H319.638V10.8476H325.021V15.9817H330.237V75.769H325.021V81.0686H319.555V86.4512H314.173L313.924 91.668H21.0332V86.2027H15.8991V80.903H10.765V75.769H5.46531V65.1008H0V26.2913H5.46531V15.6505H10.765V10.3508H15.8991V5.21671H22.0269Z" fill="#2ECC00"/>
<rect x="10.6602" y="10.3213" width="5.09766" height="5.57715" fill="black"/>
<rect width="5.48764" height="5.66103" transform="matrix(-1 0 0 1 325.127 10.2373)" fill="black"/>
<rect x="5.36133" y="15.2578" width="5.2997" height="11.2403" fill="black"/>
<rect width="5.11133" height="10.5994" transform="matrix(-1 0 0 1 330.238 15.8994)" fill="black"/>
<rect y="25.9414" width="5.36081" height="39.2275" fill="black"/>
<rect width="5.2997" height="38.6712" transform="matrix(-1 0 0 1 335.537 26.498)" fill="black"/>
<rect width="5.2997" height="38.9932" transform="matrix(-1 0 0 1 335.537 26.498)" fill="black"/>
<rect x="15.7578" y="5.2998" width="5.50385" height="5.29932" fill="black"/>
<rect width="5.2997" height="5.2997" transform="matrix(-1 0 0 1 319.639 5.2998)" fill="black"/>
<rect width="5.4286" height="5.2997" transform="matrix(-1 0 0 1 319.768 5.2998)" fill="black"/>
<rect x="21.2617" width="287.778" height="5.2997" fill="black"/>
<rect width="5.2997" height="5.2997" transform="matrix(-1 0 0 1 314.34 0)" fill="black"/>
<rect width="5.2997" height="5.2997" transform="matrix(-1 0 0 1 314.34 0)" fill="black"/>
<rect x="325.127" y="81.252" width="5.48764" height="5.48232" transform="rotate(-180 325.127 81.252)" fill="black"/>
<rect width="5.2997" height="10.5994" transform="matrix(1 -8.74228e-08 -8.74228e-08 -1 5.36133 75.7686)" fill="black"/>
<rect width="5.50478" height="5.48242" transform="matrix(1 -8.74228e-08 -8.74228e-08 -1 15.7578 86.7344)" fill="black"/>
<rect x="319.639" y="86.7998" width="5.2997" height="5.73134" transform="rotate(-180 319.639 86.7998)" fill="black"/>
<rect x="319.639" y="86.7998" width="5.2997" height="5.73134" transform="rotate(-180 319.639 86.7998)" fill="black"/>
<rect width="5.2997" height="5.2997" transform="matrix(1 -8.74228e-08 -8.74228e-08 -1 21.2617 91.668)" fill="black"/>
<rect width="5.2997" height="5.2997" transform="matrix(1 -8.74228e-08 -8.74228e-08 -1 21.2617 91.668)" fill="black"/>
<rect x="314.34" y="91.668" width="293.283" height="5.2997" transform="rotate(-180 314.34 91.668)" fill="black"/>
<rect x="314.34" y="91.668" width="293.283" height="5.2997" transform="rotate(-180 314.34 91.668)" fill="black"/>
<rect x="21.0566" y="81.0693" width="293.283" height="5.66504" fill="#176600"/>
<rect x="21.0566" y="75.7695" width="298.582" height="5.48242" fill="#25A800"/>
<rect x="314.34" y="75.5869" width="5.29883" height="5.66504" fill="#176600"/>
<rect x="314.34" y="75.5869" width="5.29883" height="5.66504" fill="#176600"/>
<rect x="15.7578" y="75.7686" width="5.29883" height="5.30029" fill="#176600"/>
<rect x="314.348" y="65.4199" width="5.29102" height="10.3496" fill="#25A800"/>
<rect x="15.7578" y="65.1689" width="5.29883" height="10.7446" fill="#25A800"/>
<rect x="319.639" y="15.8994" width="5.30078" height="49.521" fill="#25A800"/>
<rect x="319.639" y="15.8994" width="5.48828" height="49.521" fill="#25A800"/>
<rect x="10.6582" y="15.2578" width="5.09961" height="50.0278" fill="#25A800"/>
<rect x="314.34" y="10.2373" width="5.42773" height="5.66162" fill="#25A800"/>
<rect x="314.34" y="10.2373" width="5.42773" height="5.66162" fill="#25A800"/>
<rect x="15.7578" y="10.3213" width="5.50391" height="4.93652" fill="#25A800"/>
<rect x="309.299" y="5.2998" width="5.04102" height="4.9375" fill="#25A800"/>
<path d="M309.08 5.2998H314.34V10.2373H309.08V5.2998Z" fill="#25A800"/>
<rect x="21.2617" y="5.2998" width="5.04102" height="5.02197" fill="#25A800"/>
<rect x="21.2617" y="5.2998" width="5.04102" height="5.02197" fill="#25A800"/>
<rect x="10.6602" y="65.1689" width="5.09766" height="10.6001" fill="#176600"/>
<rect x="10.6602" y="65.1689" width="5.09766" height="10.6001" fill="#176600"/>
<rect x="325.127" y="26.499" width="5.11133" height="38.915" fill="#176600"/>
<rect x="5.36133" y="26.2539" width="5.29883" height="38.915" fill="#176600"/>
<rect x="5.36133" y="25.9414" width="5.29883" height="39.2275" fill="#176600"/>
<rect x="319.639" y="65.4199" width="5.92188" height="10.3491" fill="#176600"/>
<rect x="319.639" y="65.4199" width="5.92188" height="10.3491" fill="#176600"/>
<path d="M21.7324 15.2617H26.7676V10.5088L309.111 10.1484V15.918H314.348V65.1689H308.893V70.3984H26.7676V65.1689H21.7324V15.2617Z" fill="#55FF22"/>
<path d="M87.0566 60.3538V55.0138H81.6566V48.2338H88.2566V53.6338H103.257V44.3338H87.0566V38.9938H81.6566V26.9938H87.0566V21.6538H104.457V26.9938H109.917V33.7138H103.257V28.4338H88.2566V37.6738H104.457V42.8938H109.917V55.0138H104.457V60.3538H87.0566ZM127.993 60.3538V28.4338H123.793V33.7138H117.193V26.9938H122.593V21.6538H139.993V26.9938H145.453V33.7138H138.793V28.4338H134.593V60.3538H127.993ZM151.498 60.3538V32.2738H156.898V26.9938H162.298V21.6538H168.898V26.9938H174.298V32.2738H179.758V60.3538H173.098V49.6738H158.098V60.3538H151.498ZM158.098 42.8938H173.098V33.7138H167.758V28.4338H163.438V33.7138H158.098V42.8938ZM188.206 60.3538V26.9938H193.606V21.6538H211.006V26.9938H216.466V44.3338H211.006V49.6738H208.366V53.6338H213.706V60.3538H207.166V55.0138H201.706V49.6738H194.806V60.3538H188.206ZM194.806 42.8938H209.806V28.4338H194.806V42.8938ZM235.714 60.3538V28.4338H231.514V33.7138H224.914V26.9938H230.314V21.6538H247.714V26.9938H253.174V33.7138H246.514V28.4338H242.314V60.3538H235.714Z" fill="black"/>
<rect x="302.439" y="65.4209" width="6.60156" height="4.97754" fill="#D4FFB0"/>
<rect x="309.041" y="60.5137" width="5.29883" height="4.97754" fill="#D4FFB0"/>
<rect x="309.041" y="45.3213" width="5.29883" height="8.30176" fill="#D4FFB0"/>
<rect x="309.041" y="15.8994" width="5.29883" height="26.8623" fill="#D4FFB0"/>
<rect x="270.939" y="65.4912" width="26.5137" height="4.97754" fill="#D4FFB0"/>
<rect x="239.127" y="65.4141" width="26.5137" height="4.97754" fill="#D4FFB0"/>
<rect x="330.238" y="75.7686" width="5.11133" height="10.3545" transform="rotate(-180 330.238 75.7686)" fill="black"/>
<rect x="15.7578" y="75.7686" width="5.29883" height="5.4834" fill="#176600"/>
<rect width="5.09766" height="5.48232" transform="matrix(1 -8.74228e-08 -8.74228e-08 -1 10.6602 81.252)" fill="black"/>
<rect x="95.752" y="22.6338" width="7.75" height="2.12012" fill="white"/>
<rect x="130.896" y="22.6338" width="7.75" height="2.12012" fill="white"/>
<rect x="238.654" y="22.6338" width="7.75" height="2.12012" fill="white"/>
<rect x="202.146" y="22.5137" width="7.75" height="2.12012" fill="white"/>
<rect x="107.127" y="27.7588" width="2" height="2" fill="white"/>
<rect x="142.627" y="27.7588" width="2" height="2" fill="white"/>
<rect x="250.385" y="27.7588" width="2" height="2" fill="white"/>
<rect x="166.039" y="22.6338" width="2" height="2" fill="white"/>
<rect x="213.289" y="28.2275" width="2" height="2" fill="white"/>
<rect x="171.477" y="27.7588" width="2" height="2.9375" fill="white"/>
<rect x="176.977" y="33.3213" width="2" height="6.125" fill="white"/>
</svg>
