<svg width="326" height="88" viewBox="0 0 326 88" fill="none" xmlns="http://www.w3.org/2000/svg">
<mask id="path-1-outside-1_286_17182" maskUnits="userSpaceOnUse" x="-0.685547" y="-0.679688" width="326" height="89" fill="black">
<rect fill="white" x="-0.685547" y="-0.679688" width="326" height="89"/>
<path d="M15.6801 82.6403V72.3203H5.00008V15.5603H15.6801V5.00031H51.2001V15.5603H62.0001V72.3203H51.2001V82.6403H15.6801ZM19.1601 67.7603H47.7201V20.0003H19.1601V67.7603ZM90.8816 82.6403V72.3203H80.2016V15.5603H90.8816V5.00031H126.402V15.5603H137.202V72.3203H126.402V82.6403H90.8816ZM94.3616 67.7603H122.922V20.0003H94.3616V67.7603ZM155.403 71.9603V56.9603H169.563V71.9603H155.403ZM155.403 51.3203V36.4403H169.563V51.3203H155.403ZM198.511 82.6403V72.3203H187.831V15.5603H198.511V5.00031H234.031V15.5603H244.831V72.3203H234.031V82.6403H198.511ZM201.991 67.7603H230.551V20.0003H201.991V67.7603ZM273.713 82.6403V72.3203H263.033V15.5603H273.713V5.00031H309.233V15.5603H320.033V72.3203H309.233V82.6403H273.713ZM277.193 67.7603H305.753V20.0003H277.193V67.7603Z"/>
</mask>
<path d="M15.6801 82.6403V72.3203H5.00008V15.5603H15.6801V5.00031H51.2001V15.5603H62.0001V72.3203H51.2001V82.6403H15.6801ZM19.1601 67.7603H47.7201V20.0003H19.1601V67.7603ZM90.8816 82.6403V72.3203H80.2016V15.5603H90.8816V5.00031H126.402V15.5603H137.202V72.3203H126.402V82.6403H90.8816ZM94.3616 67.7603H122.922V20.0003H94.3616V67.7603ZM155.403 71.9603V56.9603H169.563V71.9603H155.403ZM155.403 51.3203V36.4403H169.563V51.3203H155.403ZM198.511 82.6403V72.3203H187.831V15.5603H198.511V5.00031H234.031V15.5603H244.831V72.3203H234.031V82.6403H198.511ZM201.991 67.7603H230.551V20.0003H201.991V67.7603ZM273.713 82.6403V72.3203H263.033V15.5603H273.713V5.00031H309.233V15.5603H320.033V72.3203H309.233V82.6403H273.713ZM277.193 67.7603H305.753V20.0003H277.193V67.7603Z" fill="#F2DF00"/>
<path d="M15.6801 82.6403H10.6801V87.6403H15.6801V82.6403ZM15.6801 72.3203H20.6801V67.3203H15.6801V72.3203ZM5.00008 72.3203H8.4877e-05V77.3203H5.00008V72.3203ZM5.00008 15.5603V10.5603H8.4877e-05V15.5603H5.00008ZM15.6801 15.5603V20.5603H20.6801V15.5603H15.6801ZM15.6801 5.00031V0.000305176H10.6801V5.00031H15.6801ZM51.2001 5.00031H56.2001V0.000305176H51.2001V5.00031ZM51.2001 15.5603H46.2001V20.5603H51.2001V15.5603ZM62.0001 15.5603H67.0001V10.5603H62.0001V15.5603ZM62.0001 72.3203V77.3203H67.0001V72.3203H62.0001ZM51.2001 72.3203V67.3203H46.2001V72.3203H51.2001ZM51.2001 82.6403V87.6403H56.2001V82.6403H51.2001ZM19.1601 67.7603H14.1601V72.7603H19.1601V67.7603ZM47.7201 67.7603V72.7603H52.7201V67.7603H47.7201ZM47.7201 20.0003H52.7201V15.0003H47.7201V20.0003ZM19.1601 20.0003V15.0003H14.1601V20.0003H19.1601ZM15.6801 82.6403H20.6801V72.3203H15.6801H10.6801V82.6403H15.6801ZM15.6801 72.3203V67.3203H5.00008V72.3203V77.3203H15.6801V72.3203ZM5.00008 72.3203H10.0001V15.5603H5.00008H8.4877e-05V72.3203H5.00008ZM5.00008 15.5603V20.5603H15.6801V15.5603V10.5603H5.00008V15.5603ZM15.6801 15.5603H20.6801V5.00031H15.6801H10.6801V15.5603H15.6801ZM15.6801 5.00031V10.0003H51.2001V5.00031V0.000305176H15.6801V5.00031ZM51.2001 5.00031H46.2001V15.5603H51.2001H56.2001V5.00031H51.2001ZM51.2001 15.5603V20.5603H62.0001V15.5603V10.5603H51.2001V15.5603ZM62.0001 15.5603H57.0001V72.3203H62.0001H67.0001V15.5603H62.0001ZM62.0001 72.3203V67.3203H51.2001V72.3203V77.3203H62.0001V72.3203ZM51.2001 72.3203H46.2001V82.6403H51.2001H56.2001V72.3203H51.2001ZM51.2001 82.6403V77.6403H15.6801V82.6403V87.6403H51.2001V82.6403ZM19.1601 67.7603V72.7603H47.7201V67.7603V62.7603H19.1601V67.7603ZM47.7201 67.7603H52.7201V20.0003H47.7201H42.7201V67.7603H47.7201ZM47.7201 20.0003V15.0003H19.1601V20.0003V25.0003H47.7201V20.0003ZM19.1601 20.0003H14.1601V67.7603H19.1601H24.1601V20.0003H19.1601ZM90.8816 82.6403H85.8816V87.6403H90.8816V82.6403ZM90.8816 72.3203H95.8816V67.3203H90.8816V72.3203ZM80.2016 72.3203H75.2016V77.3203H80.2016V72.3203ZM80.2016 15.5603V10.5603H75.2016V15.5603H80.2016ZM90.8816 15.5603V20.5603H95.8816V15.5603H90.8816ZM90.8816 5.00031V0.000305176H85.8816V5.00031H90.8816ZM126.402 5.00031H131.402V0.000305176H126.402V5.00031ZM126.402 15.5603H121.402V20.5603H126.402V15.5603ZM137.202 15.5603H142.202V10.5603H137.202V15.5603ZM137.202 72.3203V77.3203H142.202V72.3203H137.202ZM126.402 72.3203V67.3203H121.402V72.3203H126.402ZM126.402 82.6403V87.6403H131.402V82.6403H126.402ZM94.3616 67.7603H89.3616V72.7603H94.3616V67.7603ZM122.922 67.7603V72.7603H127.922V67.7603H122.922ZM122.922 20.0003H127.922V15.0003H122.922V20.0003ZM94.3616 20.0003V15.0003H89.3616V20.0003H94.3616ZM90.8816 82.6403H95.8816V72.3203H90.8816H85.8816V82.6403H90.8816ZM90.8816 72.3203V67.3203H80.2016V72.3203V77.3203H90.8816V72.3203ZM80.2016 72.3203H85.2016V15.5603H80.2016H75.2016V72.3203H80.2016ZM80.2016 15.5603V20.5603H90.8816V15.5603V10.5603H80.2016V15.5603ZM90.8816 15.5603H95.8816V5.00031H90.8816H85.8816V15.5603H90.8816ZM90.8816 5.00031V10.0003H126.402V5.00031V0.000305176H90.8816V5.00031ZM126.402 5.00031H121.402V15.5603H126.402H131.402V5.00031H126.402ZM126.402 15.5603V20.5603H137.202V15.5603V10.5603H126.402V15.5603ZM137.202 15.5603H132.202V72.3203H137.202H142.202V15.5603H137.202ZM137.202 72.3203V67.3203H126.402V72.3203V77.3203H137.202V72.3203ZM126.402 72.3203H121.402V82.6403H126.402H131.402V72.3203H126.402ZM126.402 82.6403V77.6403H90.8816V82.6403V87.6403H126.402V82.6403ZM94.3616 67.7603V72.7603H122.922V67.7603V62.7603H94.3616V67.7603ZM122.922 67.7603H127.922V20.0003H122.922H117.922V67.7603H122.922ZM122.922 20.0003V15.0003H94.3616V20.0003V25.0003H122.922V20.0003ZM94.3616 20.0003H89.3616V67.7603H94.3616H99.3616V20.0003H94.3616ZM155.403 71.9603H150.403V76.9603H155.403V71.9603ZM155.403 56.9603V51.9603H150.403V56.9603H155.403ZM169.563 56.9603H174.563V51.9603H169.563V56.9603ZM169.563 71.9603V76.9603H174.563V71.9603H169.563ZM155.403 51.3203H150.403V56.3203H155.403V51.3203ZM155.403 36.4403V31.4403H150.403V36.4403H155.403ZM169.563 36.4403H174.563V31.4403H169.563V36.4403ZM169.563 51.3203V56.3203H174.563V51.3203H169.563ZM155.403 71.9603H160.403V56.9603H155.403H150.403V71.9603H155.403ZM155.403 56.9603V61.9603H169.563V56.9603V51.9603H155.403V56.9603ZM169.563 56.9603H164.563V71.9603H169.563H174.563V56.9603H169.563ZM169.563 71.9603V66.9603H155.403V71.9603V76.9603H169.563V71.9603ZM155.403 51.3203H160.403V36.4403H155.403H150.403V51.3203H155.403ZM155.403 36.4403V41.4403H169.563V36.4403V31.4403H155.403V36.4403ZM169.563 36.4403H164.563V51.3203H169.563H174.563V36.4403H169.563ZM169.563 51.3203V46.3203H155.403V51.3203V56.3203H169.563V51.3203ZM198.511 82.6403H193.511V87.6403H198.511V82.6403ZM198.511 72.3203H203.511V67.3203H198.511V72.3203ZM187.831 72.3203H182.831V77.3203H187.831V72.3203ZM187.831 15.5603V10.5603H182.831V15.5603H187.831ZM198.511 15.5603V20.5603H203.511V15.5603H198.511ZM198.511 5.00031V0.000305176H193.511V5.00031H198.511ZM234.031 5.00031H239.031V0.000305176H234.031V5.00031ZM234.031 15.5603H229.031V20.5603H234.031V15.5603ZM244.831 15.5603H249.831V10.5603H244.831V15.5603ZM244.831 72.3203V77.3203H249.831V72.3203H244.831ZM234.031 72.3203V67.3203H229.031V72.3203H234.031ZM234.031 82.6403V87.6403H239.031V82.6403H234.031ZM201.991 67.7603H196.991V72.7603H201.991V67.7603ZM230.551 67.7603V72.7603H235.551V67.7603H230.551ZM230.551 20.0003H235.551V15.0003H230.551V20.0003ZM201.991 20.0003V15.0003H196.991V20.0003H201.991ZM198.511 82.6403H203.511V72.3203H198.511H193.511V82.6403H198.511ZM198.511 72.3203V67.3203H187.831V72.3203V77.3203H198.511V72.3203ZM187.831 72.3203H192.831V15.5603H187.831H182.831V72.3203H187.831ZM187.831 15.5603V20.5603H198.511V15.5603V10.5603H187.831V15.5603ZM198.511 15.5603H203.511V5.00031H198.511H193.511V15.5603H198.511ZM198.511 5.00031V10.0003H234.031V5.00031V0.000305176H198.511V5.00031ZM234.031 5.00031H229.031V15.5603H234.031H239.031V5.00031H234.031ZM234.031 15.5603V20.5603H244.831V15.5603V10.5603H234.031V15.5603ZM244.831 15.5603H239.831V72.3203H244.831H249.831V15.5603H244.831ZM244.831 72.3203V67.3203H234.031V72.3203V77.3203H244.831V72.3203ZM234.031 72.3203H229.031V82.6403H234.031H239.031V72.3203H234.031ZM234.031 82.6403V77.6403H198.511V82.6403V87.6403H234.031V82.6403ZM201.991 67.7603V72.7603H230.551V67.7603V62.7603H201.991V67.7603ZM230.551 67.7603H235.551V20.0003H230.551H225.551V67.7603H230.551ZM230.551 20.0003V15.0003H201.991V20.0003V25.0003H230.551V20.0003ZM201.991 20.0003H196.991V67.7603H201.991H206.991V20.0003H201.991ZM273.713 82.6403H268.713V87.6403H273.713V82.6403ZM273.713 72.3203H278.713V67.3203H273.713V72.3203ZM263.033 72.3203H258.033V77.3203H263.033V72.3203ZM263.033 15.5603V10.5603H258.033V15.5603H263.033ZM273.713 15.5603V20.5603H278.713V15.5603H273.713ZM273.713 5.00031V0.000305176H268.713V5.00031H273.713ZM309.233 5.00031H314.233V0.000305176H309.233V5.00031ZM309.233 15.5603H304.233V20.5603H309.233V15.5603ZM320.033 15.5603H325.033V10.5603H320.033V15.5603ZM320.033 72.3203V77.3203H325.033V72.3203H320.033ZM309.233 72.3203V67.3203H304.233V72.3203H309.233ZM309.233 82.6403V87.6403H314.233V82.6403H309.233ZM277.193 67.7603H272.193V72.7603H277.193V67.7603ZM305.753 67.7603V72.7603H310.753V67.7603H305.753ZM305.753 20.0003H310.753V15.0003H305.753V20.0003ZM277.193 20.0003V15.0003H272.193V20.0003H277.193ZM273.713 82.6403H278.713V72.3203H273.713H268.713V82.6403H273.713ZM273.713 72.3203V67.3203H263.033V72.3203V77.3203H273.713V72.3203ZM263.033 72.3203H268.033V15.5603H263.033H258.033V72.3203H263.033ZM263.033 15.5603V20.5603H273.713V15.5603V10.5603H263.033V15.5603ZM273.713 15.5603H278.713V5.00031H273.713H268.713V15.5603H273.713ZM273.713 5.00031V10.0003H309.233V5.00031V0.000305176H273.713V5.00031ZM309.233 5.00031H304.233V15.5603H309.233H314.233V5.00031H309.233ZM309.233 15.5603V20.5603H320.033V15.5603V10.5603H309.233V15.5603ZM320.033 15.5603H315.033V72.3203H320.033H325.033V15.5603H320.033ZM320.033 72.3203V67.3203H309.233V72.3203V77.3203H320.033V72.3203ZM309.233 72.3203H304.233V82.6403H309.233H314.233V72.3203H309.233ZM309.233 82.6403V77.6403H273.713V82.6403V87.6403H309.233V82.6403ZM277.193 67.7603V72.7603H305.753V67.7603V62.7603H277.193V67.7603ZM305.753 67.7603H310.753V20.0003H305.753H300.753V67.7603H305.753ZM305.753 20.0003V15.0003H277.193V20.0003V25.0003H305.753V20.0003ZM277.193 20.0003H272.193V67.7603H277.193H282.193V20.0003H277.193Z" fill="black" mask="url(#path-1-outside-1_286_17182)"/>
</svg>
