<svg width="1533" height="253" viewBox="0 0 1533 253" fill="none" xmlns="http://www.w3.org/2000/svg">
<mask id="path-1-outside-1_287_30338" maskUnits="userSpaceOnUse" x="-0.0273438" y="-0.976562" width="1533" height="254" fill="black">
<rect fill="white" x="-0.0273438" y="-0.976562" width="1533" height="254"/>
<path d="M76.4055 43.2031H9.99921V10H176.015V43.2031H109.609V242.422H76.4055V43.2031ZM235.621 242.422V209.219H268.824V43.2031H235.621V10H335.23V43.2031H302.027V209.219H335.23V242.422H235.621ZM428.04 242.422H394.837V10H428.04V43.2031H444.641V59.8047H461.243V76.4062H494.446V59.8047H511.048V43.2031H527.649V10H560.852V242.422H527.649V93.0078H511.048V109.609H494.446V142.812H461.243V109.609H444.641V93.0078H428.04V242.422ZM753.271 10V43.2031H620.459V109.609H720.068V142.812H620.459V209.219H753.271V242.422H587.255V10H753.271ZM1088.3 43.2031H1021.9V59.8047H1005.3V192.617H1021.9V209.219H1088.3V192.617H1104.91V59.8047H1088.3V43.2031ZM1005.3 26.6016V10H1104.91V26.6016H1121.51V43.2031H1138.11V209.219H1121.51V225.82H1104.91V242.422H1005.3V225.82H988.695V209.219H972.093V43.2031H988.695V26.6016H1005.3ZM1181.11 209.219H1164.51V10H1197.71V192.617H1214.32V209.219H1280.72V192.617H1297.32V10H1330.53V209.219H1313.93V225.82H1297.32V242.422H1197.71V225.82H1181.11V209.219ZM1423.34 43.2031H1356.93V10H1522.95V43.2031H1456.54V242.422H1423.34V43.2031Z"/>
</mask>
<path d="M76.4055 43.2031H9.99921V10H176.015V43.2031H109.609V242.422H76.4055V43.2031ZM235.621 242.422V209.219H268.824V43.2031H235.621V10H335.23V43.2031H302.027V209.219H335.23V242.422H235.621ZM428.04 242.422H394.837V10H428.04V43.2031H444.641V59.8047H461.243V76.4062H494.446V59.8047H511.048V43.2031H527.649V10H560.852V242.422H527.649V93.0078H511.048V109.609H494.446V142.812H461.243V109.609H444.641V93.0078H428.04V242.422ZM753.271 10V43.2031H620.459V109.609H720.068V142.812H620.459V209.219H753.271V242.422H587.255V10H753.271ZM1088.3 43.2031H1021.9V59.8047H1005.3V192.617H1021.9V209.219H1088.3V192.617H1104.91V59.8047H1088.3V43.2031ZM1005.3 26.6016V10H1104.91V26.6016H1121.51V43.2031H1138.11V209.219H1121.51V225.82H1104.91V242.422H1005.3V225.82H988.695V209.219H972.093V43.2031H988.695V26.6016H1005.3ZM1181.11 209.219H1164.51V10H1197.71V192.617H1214.32V209.219H1280.72V192.617H1297.32V10H1330.53V209.219H1313.93V225.82H1297.32V242.422H1197.71V225.82H1181.11V209.219ZM1423.34 43.2031H1356.93V10H1522.95V43.2031H1456.54V242.422H1423.34V43.2031Z" fill="url(#paint0_linear_287_30338)"/>
<path d="M76.4055 43.2031H86.4055V33.2031H76.4055V43.2031ZM9.99921 43.2031H-0.000793457V53.2031H9.99921V43.2031ZM9.99921 10V0H-0.000793457V10H9.99921ZM176.015 10H186.015V0H176.015V10ZM176.015 43.2031V53.2031H186.015V43.2031H176.015ZM109.609 43.2031V33.2031H99.6086V43.2031H109.609ZM109.609 242.422V252.422H119.609V242.422H109.609ZM76.4055 242.422H66.4055V252.422H76.4055V242.422ZM76.4055 43.2031V33.2031H9.99921V43.2031V53.2031H76.4055V43.2031ZM9.99921 43.2031H19.9992V10H9.99921H-0.000793457V43.2031H9.99921ZM9.99921 10V20H176.015V10V0H9.99921V10ZM176.015 10H166.015V43.2031H176.015H186.015V10H176.015ZM176.015 43.2031V33.2031H109.609V43.2031V53.2031H176.015V43.2031ZM109.609 43.2031H99.6086V242.422H109.609H119.609V43.2031H109.609ZM109.609 242.422V232.422H76.4055V242.422V252.422H109.609V242.422ZM76.4055 242.422H86.4055V43.2031H76.4055H66.4055V242.422H76.4055ZM235.621 242.422H225.621V252.422H235.621V242.422ZM235.621 209.219V199.219H225.621V209.219H235.621ZM268.824 209.219V219.219H278.824V209.219H268.824ZM268.824 43.2031H278.824V33.2031H268.824V43.2031ZM235.621 43.2031H225.621V53.2031H235.621V43.2031ZM235.621 10V0H225.621V10H235.621ZM335.23 10H345.23V0H335.23V10ZM335.23 43.2031V53.2031H345.23V43.2031H335.23ZM302.027 43.2031V33.2031H292.027V43.2031H302.027ZM302.027 209.219H292.027V219.219H302.027V209.219ZM335.23 209.219H345.23V199.219H335.23V209.219ZM335.23 242.422V252.422H345.23V242.422H335.23ZM235.621 242.422H245.621V209.219H235.621H225.621V242.422H235.621ZM235.621 209.219V219.219H268.824V209.219V199.219H235.621V209.219ZM268.824 209.219H278.824V43.2031H268.824H258.824V209.219H268.824ZM268.824 43.2031V33.2031H235.621V43.2031V53.2031H268.824V43.2031ZM235.621 43.2031H245.621V10H235.621H225.621V43.2031H235.621ZM235.621 10V20H335.23V10V0H235.621V10ZM335.23 10H325.23V43.2031H335.23H345.23V10H335.23ZM335.23 43.2031V33.2031H302.027V43.2031V53.2031H335.23V43.2031ZM302.027 43.2031H292.027V209.219H302.027H312.027V43.2031H302.027ZM302.027 209.219V219.219H335.23V209.219V199.219H302.027V209.219ZM335.23 209.219H325.23V242.422H335.23H345.23V209.219H335.23ZM335.23 242.422V232.422H235.621V242.422V252.422H335.23V242.422ZM428.04 242.422V252.422H438.04V242.422H428.04ZM394.837 242.422H384.837V252.422H394.837V242.422ZM394.837 10V0H384.837V10H394.837ZM428.04 10H438.04V0H428.04V10ZM428.04 43.2031H418.04V53.2031H428.04V43.2031ZM444.641 43.2031H454.641V33.2031H444.641V43.2031ZM444.641 59.8047H434.641V69.8047H444.641V59.8047ZM461.243 59.8047H471.243V49.8047H461.243V59.8047ZM461.243 76.4062H451.243V86.4062H461.243V76.4062ZM494.446 76.4062V86.4062H504.446V76.4062H494.446ZM494.446 59.8047V49.8047H484.446V59.8047H494.446ZM511.048 59.8047V69.8047H521.048V59.8047H511.048ZM511.048 43.2031V33.2031H501.048V43.2031H511.048ZM527.649 43.2031V53.2031H537.649V43.2031H527.649ZM527.649 10V0H517.649V10H527.649ZM560.852 10H570.852V0H560.852V10ZM560.852 242.422V252.422H570.852V242.422H560.852ZM527.649 242.422H517.649V252.422H527.649V242.422ZM527.649 93.0078H537.649V83.0078H527.649V93.0078ZM511.048 93.0078V83.0078H501.048V93.0078H511.048ZM511.048 109.609V119.609H521.048V109.609H511.048ZM494.446 109.609V99.6094H484.446V109.609H494.446ZM494.446 142.812V152.812H504.446V142.812H494.446ZM461.243 142.812H451.243V152.812H461.243V142.812ZM461.243 109.609H471.243V99.6094H461.243V109.609ZM444.641 109.609H434.641V119.609H444.641V109.609ZM444.641 93.0078H454.641V83.0078H444.641V93.0078ZM428.04 93.0078V83.0078H418.04V93.0078H428.04ZM428.04 242.422V232.422H394.837V242.422V252.422H428.04V242.422ZM394.837 242.422H404.837V10H394.837H384.837V242.422H394.837ZM394.837 10V20H428.04V10V0H394.837V10ZM428.04 10H418.04V43.2031H428.04H438.04V10H428.04ZM428.04 43.2031V53.2031H444.641V43.2031V33.2031H428.04V43.2031ZM444.641 43.2031H434.641V59.8047H444.641H454.641V43.2031H444.641ZM444.641 59.8047V69.8047H461.243V59.8047V49.8047H444.641V59.8047ZM461.243 59.8047H451.243V76.4062H461.243H471.243V59.8047H461.243ZM461.243 76.4062V86.4062H494.446V76.4062V66.4062H461.243V76.4062ZM494.446 76.4062H504.446V59.8047H494.446H484.446V76.4062H494.446ZM494.446 59.8047V69.8047H511.048V59.8047V49.8047H494.446V59.8047ZM511.048 59.8047H521.048V43.2031H511.048H501.048V59.8047H511.048ZM511.048 43.2031V53.2031H527.649V43.2031V33.2031H511.048V43.2031ZM527.649 43.2031H537.649V10H527.649H517.649V43.2031H527.649ZM527.649 10V20H560.852V10V0H527.649V10ZM560.852 10H550.852V242.422H560.852H570.852V10H560.852ZM560.852 242.422V232.422H527.649V242.422V252.422H560.852V242.422ZM527.649 242.422H537.649V93.0078H527.649H517.649V242.422H527.649ZM527.649 93.0078V83.0078H511.048V93.0078V103.008H527.649V93.0078ZM511.048 93.0078H501.048V109.609H511.048H521.048V93.0078H511.048ZM511.048 109.609V99.6094H494.446V109.609V119.609H511.048V109.609ZM494.446 109.609H484.446V142.812H494.446H504.446V109.609H494.446ZM494.446 142.812V132.812H461.243V142.812V152.812H494.446V142.812ZM461.243 142.812H471.243V109.609H461.243H451.243V142.812H461.243ZM461.243 109.609V99.6094H444.641V109.609V119.609H461.243V109.609ZM444.641 109.609H454.641V93.0078H444.641H434.641V109.609H444.641ZM444.641 93.0078V83.0078H428.04V93.0078V103.008H444.641V93.0078ZM428.04 93.0078H418.04V242.422H428.04H438.04V93.0078H428.04ZM753.271 10H763.271V0H753.271V10ZM753.271 43.2031V53.2031H763.271V43.2031H753.271ZM620.459 43.2031V33.2031H610.459V43.2031H620.459ZM620.459 109.609H610.459V119.609H620.459V109.609ZM720.068 109.609H730.068V99.6094H720.068V109.609ZM720.068 142.812V152.812H730.068V142.812H720.068ZM620.459 142.812V132.812H610.459V142.812H620.459ZM620.459 209.219H610.459V219.219H620.459V209.219ZM753.271 209.219H763.271V199.219H753.271V209.219ZM753.271 242.422V252.422H763.271V242.422H753.271ZM587.255 242.422H577.255V252.422H587.255V242.422ZM587.255 10V0H577.255V10H587.255ZM753.271 10H743.271V43.2031H753.271H763.271V10H753.271ZM753.271 43.2031V33.2031H620.459V43.2031V53.2031H753.271V43.2031ZM620.459 43.2031H610.459V109.609H620.459H630.459V43.2031H620.459ZM620.459 109.609V119.609H720.068V109.609V99.6094H620.459V109.609ZM720.068 109.609H710.068V142.812H720.068H730.068V109.609H720.068ZM720.068 142.812V132.812H620.459V142.812V152.812H720.068V142.812ZM620.459 142.812H610.459V209.219H620.459H630.459V142.812H620.459ZM620.459 209.219V219.219H753.271V209.219V199.219H620.459V209.219ZM753.271 209.219H743.271V242.422H753.271H763.271V209.219H753.271ZM753.271 242.422V232.422H587.255V242.422V252.422H753.271V242.422ZM587.255 242.422H597.255V10H587.255H577.255V242.422H587.255ZM587.255 10V20H753.271V10V0H587.255V10ZM1088.3 43.2031H1098.3V33.2031H1088.3V43.2031ZM1021.9 43.2031V33.2031H1011.9V43.2031H1021.9ZM1021.9 59.8047V69.8047H1031.9V59.8047H1021.9ZM1005.3 59.8047V49.8047H995.296V59.8047H1005.3ZM1005.3 192.617H995.296V202.617H1005.3V192.617ZM1021.9 192.617H1031.9V182.617H1021.9V192.617ZM1021.9 209.219H1011.9V219.219H1021.9V209.219ZM1088.3 209.219V219.219H1098.3V209.219H1088.3ZM1088.3 192.617V182.617H1078.3V192.617H1088.3ZM1104.91 192.617V202.617H1114.91V192.617H1104.91ZM1104.91 59.8047H1114.91V49.8047H1104.91V59.8047ZM1088.3 59.8047H1078.3V69.8047H1088.3V59.8047ZM1005.3 26.6016V36.6016H1015.3V26.6016H1005.3ZM1005.3 10V0H995.296V10H1005.3ZM1104.91 10H1114.91V0H1104.91V10ZM1104.91 26.6016H1094.91V36.6016H1104.91V26.6016ZM1121.51 26.6016H1131.51V16.6016H1121.51V26.6016ZM1121.51 43.2031H1111.51V53.2031H1121.51V43.2031ZM1138.11 43.2031H1148.11V33.2031H1138.11V43.2031ZM1138.11 209.219V219.219H1148.11V209.219H1138.11ZM1121.51 209.219V199.219H1111.51V209.219H1121.51ZM1121.51 225.82V235.82H1131.51V225.82H1121.51ZM1104.91 225.82V215.82H1094.91V225.82H1104.91ZM1104.91 242.422V252.422H1114.91V242.422H1104.91ZM1005.3 242.422H995.296V252.422H1005.3V242.422ZM1005.3 225.82H1015.3V215.82H1005.3V225.82ZM988.695 225.82H978.695V235.82H988.695V225.82ZM988.695 209.219H998.695V199.219H988.695V209.219ZM972.093 209.219H962.093V219.219H972.093V209.219ZM972.093 43.2031V33.2031H962.093V43.2031H972.093ZM988.695 43.2031V53.2031H998.695V43.2031H988.695ZM988.695 26.6016V16.6016H978.695V26.6016H988.695ZM1088.3 43.2031V33.2031H1021.9V43.2031V53.2031H1088.3V43.2031ZM1021.9 43.2031H1011.9V59.8047H1021.9H1031.9V43.2031H1021.9ZM1021.9 59.8047V49.8047H1005.3V59.8047V69.8047H1021.9V59.8047ZM1005.3 59.8047H995.296V192.617H1005.3H1015.3V59.8047H1005.3ZM1005.3 192.617V202.617H1021.9V192.617V182.617H1005.3V192.617ZM1021.9 192.617H1011.9V209.219H1021.9H1031.9V192.617H1021.9ZM1021.9 209.219V219.219H1088.3V209.219V199.219H1021.9V209.219ZM1088.3 209.219H1098.3V192.617H1088.3H1078.3V209.219H1088.3ZM1088.3 192.617V202.617H1104.91V192.617V182.617H1088.3V192.617ZM1104.91 192.617H1114.91V59.8047H1104.91H1094.91V192.617H1104.91ZM1104.91 59.8047V49.8047H1088.3V59.8047V69.8047H1104.91V59.8047ZM1088.3 59.8047H1098.3V43.2031H1088.3H1078.3V59.8047H1088.3ZM1005.3 26.6016H1015.3V10H1005.3H995.296V26.6016H1005.3ZM1005.3 10V20H1104.91V10V0H1005.3V10ZM1104.91 10H1094.91V26.6016H1104.91H1114.91V10H1104.91ZM1104.91 26.6016V36.6016H1121.51V26.6016V16.6016H1104.91V26.6016ZM1121.51 26.6016H1111.51V43.2031H1121.51H1131.51V26.6016H1121.51ZM1121.51 43.2031V53.2031H1138.11V43.2031V33.2031H1121.51V43.2031ZM1138.11 43.2031H1128.11V209.219H1138.11H1148.11V43.2031H1138.11ZM1138.11 209.219V199.219H1121.51V209.219V219.219H1138.11V209.219ZM1121.51 209.219H1111.51V225.82H1121.51H1131.51V209.219H1121.51ZM1121.51 225.82V215.82H1104.91V225.82V235.82H1121.51V225.82ZM1104.91 225.82H1094.91V242.422H1104.91H1114.91V225.82H1104.91ZM1104.91 242.422V232.422H1005.3V242.422V252.422H1104.91V242.422ZM1005.3 242.422H1015.3V225.82H1005.3H995.296V242.422H1005.3ZM1005.3 225.82V215.82H988.695V225.82V235.82H1005.3V225.82ZM988.695 225.82H998.695V209.219H988.695H978.695V225.82H988.695ZM988.695 209.219V199.219H972.093V209.219V219.219H988.695V209.219ZM972.093 209.219H982.093V43.2031H972.093H962.093V209.219H972.093ZM972.093 43.2031V53.2031H988.695V43.2031V33.2031H972.093V43.2031ZM988.695 43.2031H998.695V26.6016H988.695H978.695V43.2031H988.695ZM988.695 26.6016V36.6016H1005.3V26.6016V16.6016H988.695V26.6016ZM1181.11 209.219H1191.11V199.219H1181.11V209.219ZM1164.51 209.219H1154.51V219.219H1164.51V209.219ZM1164.51 10V0H1154.51V10H1164.51ZM1197.71 10H1207.71V0H1197.71V10ZM1197.71 192.617H1187.71V202.617H1197.71V192.617ZM1214.32 192.617H1224.32V182.617H1214.32V192.617ZM1214.32 209.219H1204.32V219.219H1214.32V209.219ZM1280.72 209.219V219.219H1290.72V209.219H1280.72ZM1280.72 192.617V182.617H1270.72V192.617H1280.72ZM1297.32 192.617V202.617H1307.32V192.617H1297.32ZM1297.32 10V0H1287.32V10H1297.32ZM1330.53 10H1340.53V0H1330.53V10ZM1330.53 209.219V219.219H1340.53V209.219H1330.53ZM1313.93 209.219V199.219H1303.93V209.219H1313.93ZM1313.93 225.82V235.82H1323.93V225.82H1313.93ZM1297.32 225.82V215.82H1287.32V225.82H1297.32ZM1297.32 242.422V252.422H1307.32V242.422H1297.32ZM1197.71 242.422H1187.71V252.422H1197.71V242.422ZM1197.71 225.82H1207.71V215.82H1197.71V225.82ZM1181.11 225.82H1171.11V235.82H1181.11V225.82ZM1181.11 209.219V199.219H1164.51V209.219V219.219H1181.11V209.219ZM1164.51 209.219H1174.51V10H1164.51H1154.51V209.219H1164.51ZM1164.51 10V20H1197.71V10V0H1164.51V10ZM1197.71 10H1187.71V192.617H1197.71H1207.71V10H1197.71ZM1197.71 192.617V202.617H1214.32V192.617V182.617H1197.71V192.617ZM1214.32 192.617H1204.32V209.219H1214.32H1224.32V192.617H1214.32ZM1214.32 209.219V219.219H1280.72V209.219V199.219H1214.32V209.219ZM1280.72 209.219H1290.72V192.617H1280.72H1270.72V209.219H1280.72ZM1280.72 192.617V202.617H1297.32V192.617V182.617H1280.72V192.617ZM1297.32 192.617H1307.32V10H1297.32H1287.32V192.617H1297.32ZM1297.32 10V20H1330.53V10V0H1297.32V10ZM1330.53 10H1320.53V209.219H1330.53H1340.53V10H1330.53ZM1330.53 209.219V199.219H1313.93V209.219V219.219H1330.53V209.219ZM1313.93 209.219H1303.93V225.82H1313.93H1323.93V209.219H1313.93ZM1313.93 225.82V215.82H1297.32V225.82V235.82H1313.93V225.82ZM1297.32 225.82H1287.32V242.422H1297.32H1307.32V225.82H1297.32ZM1297.32 242.422V232.422H1197.71V242.422V252.422H1297.32V242.422ZM1197.71 242.422H1207.71V225.82H1197.71H1187.71V242.422H1197.71ZM1197.71 225.82V215.82H1181.11V225.82V235.82H1197.71V225.82ZM1181.11 225.82H1191.11V209.219H1181.11H1171.11V225.82H1181.11ZM1423.34 43.2031H1433.34V33.2031H1423.34V43.2031ZM1356.93 43.2031H1346.93V53.2031H1356.93V43.2031ZM1356.93 10V0H1346.93V10H1356.93ZM1522.95 10H1532.95V0H1522.95V10ZM1522.95 43.2031V53.2031H1532.95V43.2031H1522.95ZM1456.54 43.2031V33.2031H1446.54V43.2031H1456.54ZM1456.54 242.422V252.422H1466.54V242.422H1456.54ZM1423.34 242.422H1413.34V252.422H1423.34V242.422ZM1423.34 43.2031V33.2031H1356.93V43.2031V53.2031H1423.34V43.2031ZM1356.93 43.2031H1366.93V10H1356.93H1346.93V43.2031H1356.93ZM1356.93 10V20H1522.95V10V0H1356.93V10ZM1522.95 10H1512.95V43.2031H1522.95H1532.95V10H1522.95ZM1522.95 43.2031V33.2031H1456.54V43.2031V53.2031H1522.95V43.2031ZM1456.54 43.2031H1446.54V242.422H1456.54H1466.54V43.2031H1456.54ZM1456.54 242.422V232.422H1423.34V242.422V252.422H1456.54V242.422ZM1423.34 242.422H1433.34V43.2031H1423.34H1413.34V242.422H1423.34Z" fill="black" mask="url(#path-1-outside-1_287_30338)"/>
<defs>
<linearGradient id="paint0_linear_287_30338" x1="766.473" y1="0.298828" x2="766.473" y2="249.299" gradientUnits="userSpaceOnUse">
<stop offset="0.297189" stop-color="#FFEF2C"/>
<stop offset="0.418169" stop-color="#F8D20B"/>
<stop offset="0.418269" stop-color="#EFAF00"/>
<stop offset="0.480769" stop-color="#FFA200"/>
<stop offset="0.538462" stop-color="#F6CA09"/>
<stop offset="0.655878" stop-color="#FF9A40"/>
<stop offset="0.655978" stop-color="#DE6006"/>
<stop offset="0.764423" stop-color="#D64105"/>
<stop offset="0.813219" stop-color="#F52903"/>
</linearGradient>
</defs>
</svg>
