<svg width="148" height="78" viewBox="0 0 148 78" fill="none" xmlns="http://www.w3.org/2000/svg">
<path d="M132.044 3.44393L129.938 1.48303L127.257 1.37646L125.64 2.99633L124.81 6.23606L122.81 8.09038L122.172 10.4562L113.002 11.4154L111.15 12.4598L109.853 14.9961L112.47 17.6604L115.108 20.3673L116.831 22.1363L117.491 25.6745L116.023 26.9746L115.278 34.8395H120.299L121.661 33.3262L125.129 32.4736L126.534 30.5554L130.3 29.9373L131.619 32.0473L134.768 32.4736L136.47 34.4132L141.853 34.8395L141.746 27.3583L139.683 25.8236L139.363 23.3512L141.853 20.3673L144.406 18.2359L146.236 15.8274L146.661 13.2057L144.874 11.5646L135.257 11.117L134.066 8.09038L133.023 6.70497L132.044 3.44393Z" fill="#3DF4B4"/>
<rect x="143.108" y="16.8823" width="2.36299" height="2.41822" fill="black"/>
<rect width="2.36299" height="2.41822" transform="matrix(-1 0 0 1 114.073 16.8823)" fill="black"/>
<rect x="140.684" y="19.3008" width="2.42557" height="2.48226" fill="black"/>
<rect width="2.42557" height="2.48226" transform="matrix(-1 0 0 1 116.5 19.3008)" fill="black"/>
<rect x="131.13" y="31.2339" width="4.75538" height="2.48226" fill="black"/>
<rect width="4.75538" height="2.48226" transform="matrix(-1 0 0 1 126.053 31.2339)" fill="black"/>
<rect x="135.884" y="33.7158" width="7.22348" height="2.48226" fill="black"/>
<rect width="7.22348" height="2.48226" transform="matrix(-1 0 0 1 121.297 33.7158)" fill="black"/>
<rect x="126.374" y="28.751" width="4.75538" height="2.48226" fill="black"/>
<rect width="4.75538" height="2.48226" transform="matrix(-1 0 0 1 130.808 28.751)" fill="black"/>
<rect x="140.684" y="21.7422" width="4.80465" height="2.49923" transform="rotate(90 140.684 21.7422)" fill="black"/>
<rect width="4.80465" height="2.49923" transform="matrix(4.36351e-08 1 1 -4.37878e-08 116.5 21.7422)" fill="black"/>
<rect x="143.162" y="26.5469" width="9.52903" height="2.47793" transform="rotate(90 143.162 26.5469)" fill="black"/>
<rect width="9.52903" height="2.47793" transform="matrix(4.36351e-08 1 1 -4.37878e-08 114.021 26.5469)" fill="black"/>
<rect x="147.948" y="12.1191" width="4.76369" height="2.47793" transform="rotate(90 147.948 12.1191)" fill="black"/>
<rect width="4.76369" height="2.47793" transform="matrix(4.36351e-08 1 1 -4.37878e-08 109.266 12.1221)" fill="black"/>
<rect x="135.968" y="7.30225" width="4.81998" height="2.47793" transform="rotate(90 135.968 7.30225)" fill="black"/>
<rect width="4.81998" height="2.47793" transform="matrix(4.36351e-08 1 1 -4.37878e-08 121.212 7.30225)" fill="black"/>
<rect x="133.491" y="2.48242" width="4.81998" height="2.47793" transform="rotate(90 133.491 2.48242)" fill="black"/>
<rect width="4.81998" height="2.47793" transform="matrix(4.36351e-08 1 1 -4.37878e-08 123.689 2.48242)" fill="black"/>
<rect x="131.015" y="2.48242" width="4.81156" height="2.48226" transform="rotate(-180 131.015 2.48242)" fill="black"/>
<rect width="4.81156" height="2.48226" transform="matrix(1 -8.75757e-08 -8.72702e-08 -1 126.17 2.48242)" fill="black"/>
<rect x="145.47" y="12.1191" width="11.9801" height="2.48226" transform="rotate(-180 145.47 12.1191)" fill="black"/>
<rect width="11.9469" height="2.48226" transform="matrix(1 -8.75757e-08 -8.72702e-08 -1 111.743 12.1191)" fill="black"/>
<path d="M134.438 13.2769H132.443V11.4941H128.574V13.4061H130.474V15.3956H132.443V17.5143H134.438V13.2769Z" fill="white"/>
<path d="M140.057 61.7085L139.029 60.7517L137.721 60.6997L136.932 61.4901L136.527 63.071L135.551 63.9758L135.24 65.1302L130.765 65.5982L129.862 66.1078L129.229 67.3454L130.505 68.6455L131.793 69.9663L132.634 70.8295L132.956 72.5559L132.239 73.1903L131.876 77.028H134.326L134.99 76.2896L136.683 75.8736L137.368 74.9376L139.206 74.636L139.849 75.6656L141.386 75.8736L142.216 76.82L144.843 77.028L144.791 73.3775L143.784 72.6287L143.628 71.4223L144.843 69.9663L146.089 68.9263L146.982 67.751L147.189 66.4718L146.317 65.671L141.625 65.4526L141.043 63.9758L140.534 63.2998L140.057 61.7085Z" fill="#3DF4B4"/>
<rect x="145.456" y="68.2656" width="1.15241" height="1.17936" fill="black"/>
<rect width="1.15241" height="1.17936" transform="matrix(-1 0 0 1 131.288 68.2656)" fill="black"/>
<rect x="144.272" y="69.4458" width="1.18292" height="1.21059" fill="black"/>
<rect width="1.18292" height="1.21059" transform="matrix(-1 0 0 1 132.473 69.4458)" fill="black"/>
<rect x="139.611" y="75.2681" width="2.32036" height="1.21122" fill="black"/>
<rect width="2.32036" height="1.21122" transform="matrix(-1 0 0 1 137.134 75.2681)" fill="black"/>
<rect x="141.931" y="76.4795" width="3.52466" height="1.21122" fill="black"/>
<rect width="3.52466" height="1.21122" transform="matrix(-1 0 0 1 134.813 76.4795)" fill="black"/>
<rect x="137.29" y="74.0571" width="2.32036" height="1.21122" fill="black"/>
<rect width="2.32036" height="1.21122" transform="matrix(-1 0 0 1 139.454 74.0571)" fill="black"/>
<rect x="144.272" y="70.6367" width="2.34443" height="1.21949" transform="rotate(90 144.272 70.6367)" fill="black"/>
<rect width="2.34443" height="1.21949" transform="matrix(4.36346e-08 1 1 -4.37883e-08 132.473 70.6367)" fill="black"/>
<rect x="145.482" y="72.9814" width="4.6497" height="1.20909" transform="rotate(90 145.482 72.9814)" fill="black"/>
<rect width="4.6497" height="1.20909" transform="matrix(4.36346e-08 1 1 -4.37883e-08 131.263 72.9814)" fill="black"/>
<rect x="147.817" y="65.9414" width="2.32445" height="1.20909" transform="rotate(90 147.817 65.9414)" fill="black"/>
<rect width="2.32445" height="1.20909" transform="matrix(4.36346e-08 1 1 -4.37883e-08 128.942 65.9424)" fill="black"/>
<rect x="141.972" y="63.5908" width="2.35191" height="1.20909" transform="rotate(90 141.972 63.5908)" fill="black"/>
<rect width="2.35191" height="1.20909" transform="matrix(4.36346e-08 1 1 -4.37883e-08 134.771 63.5908)" fill="black"/>
<rect x="140.764" y="61.2393" width="2.35191" height="1.20909" transform="rotate(90 140.764 61.2393)" fill="black"/>
<rect width="2.35191" height="1.20909" transform="matrix(4.36346e-08 1 1 -4.37883e-08 135.98 61.2393)" fill="black"/>
<rect x="139.555" y="61.2393" width="2.34778" height="1.21122" transform="rotate(-180 139.555 61.2393)" fill="black"/>
<rect width="2.34778" height="1.21122" transform="matrix(1 -8.75766e-08 -8.72692e-08 -1 137.191 61.2393)" fill="black"/>
<rect x="146.608" y="65.9414" width="5.84563" height="1.21122" transform="rotate(-180 146.608 65.9414)" fill="black"/>
<rect width="5.82945" height="1.21122" transform="matrix(1 -8.75766e-08 -8.72692e-08 -1 130.151 65.9414)" fill="black"/>
<path d="M141.225 66.5061H140.251V65.6362H138.364V66.5692H139.291V67.54H140.251V68.5738H141.225V66.5061Z" fill="white"/>
<path d="M114.864 48.6812L113.563 47.4697L111.906 47.4038L110.907 48.4046L110.395 50.4063L109.159 51.5519L108.765 53.0137L103.099 53.6062L101.955 54.2515L101.153 55.8186L102.77 57.4647L104.4 59.1371L105.465 60.2301L105.873 62.4161L104.966 63.2193L104.505 68.0786H107.608L108.449 67.1436L110.592 66.6169L111.459 65.4317L113.786 65.0498L114.601 66.3535L116.547 66.6169L117.598 67.8152L120.924 68.0786L120.858 63.4564L119.583 62.5082L119.386 60.9807L120.924 59.1371L122.502 57.8202L123.632 56.3321L123.895 54.7124L122.791 53.6984L116.849 53.4219L116.113 51.5519L115.469 50.696L114.864 48.6812Z" fill="#3DF4B4"/>
<rect x="121.7" y="56.9839" width="1.45917" height="1.49329" fill="black"/>
<rect width="1.45917" height="1.49329" transform="matrix(-1 0 0 1 103.762 56.9839)" fill="black"/>
<rect x="120.202" y="58.478" width="1.49781" height="1.53284" fill="black"/>
<rect width="1.49781" height="1.53284" transform="matrix(-1 0 0 1 105.261 58.478)" fill="black"/>
<rect x="114.3" y="65.8506" width="2.93803" height="1.53364" fill="black"/>
<rect width="2.93803" height="1.53364" transform="matrix(-1 0 0 1 111.163 65.8506)" fill="black"/>
<rect x="117.236" y="67.3843" width="4.4629" height="1.53364" fill="black"/>
<rect width="4.4629" height="1.53364" transform="matrix(-1 0 0 1 108.225 67.3843)" fill="black"/>
<rect x="111.361" y="64.3169" width="2.93803" height="1.53364" fill="black"/>
<rect width="2.93803" height="1.53364" transform="matrix(-1 0 0 1 114.101 64.3169)" fill="black"/>
<rect x="120.202" y="59.9863" width="2.9685" height="1.54411" transform="rotate(90 120.202 59.9863)" fill="black"/>
<rect width="2.9685" height="1.54411" transform="matrix(4.36346e-08 1 1 -4.37883e-08 105.261 59.9863)" fill="black"/>
<rect x="121.733" y="62.9551" width="5.88741" height="1.53095" transform="rotate(90 121.733 62.9551)" fill="black"/>
<rect width="5.88741" height="1.53095" transform="matrix(4.36346e-08 1 1 -4.37883e-08 103.729 62.9551)" fill="black"/>
<rect x="124.69" y="54.041" width="2.9432" height="1.53095" transform="rotate(90 124.69 54.041)" fill="black"/>
<rect width="2.9432" height="1.53095" transform="matrix(4.36346e-08 1 1 -4.37883e-08 100.791 54.0425)" fill="black"/>
<rect x="117.288" y="51.0649" width="2.97797" height="1.53095" transform="rotate(90 117.288 51.0649)" fill="black"/>
<rect width="2.97797" height="1.53095" transform="matrix(4.36346e-08 1 1 -4.37883e-08 108.172 51.0649)" fill="black"/>
<rect x="115.759" y="48.0869" width="2.97797" height="1.53095" transform="rotate(90 115.759 48.0869)" fill="black"/>
<rect width="2.97797" height="1.53095" transform="matrix(4.36346e-08 1 1 -4.37883e-08 109.702 48.0869)" fill="black"/>
<rect x="114.229" y="48.0869" width="2.97274" height="1.53364" transform="rotate(-180 114.229 48.0869)" fill="black"/>
<rect width="2.97274" height="1.53364" transform="matrix(1 -8.75766e-08 -8.72692e-08 -1 111.235 48.0869)" fill="black"/>
<rect x="123.159" y="54.041" width="7.40169" height="1.53364" transform="rotate(-180 123.159 54.041)" fill="black"/>
<rect width="7.38121" height="1.53364" transform="matrix(1 -8.75766e-08 -8.72692e-08 -1 102.321 54.041)" fill="black"/>
<path d="M116.343 54.7563H115.11V53.6548H112.72V54.8361H113.894V56.0653H115.11V57.3743H116.343V54.7563Z" fill="white"/>
<mask id="path-79-outside-1_532_125496" maskUnits="userSpaceOnUse" x="-0.847656" y="9.53711" width="97" height="41" fill="black">
<rect fill="white" x="-0.847656" y="9.53711" width="97" height="41"/>
<path d="M13.0504 41.1871V32.6871H4.00039V27.6871H13.0504V18.0871H18.1504V27.6871H27.2504V32.6871H18.1504V41.1871H13.0504ZM55.6906 46.1371V19.0371H51.6906V23.5371H46.6406V18.5371H51.1906V13.9871H56.1906V18.5371H60.7906V46.1371H55.6906ZM72.9055 46.1371V41.6371H68.3555V18.5371H72.9055V13.9871H87.0055V18.5371H91.6055V23.5371H86.5055V19.0371H73.4055V27.5871H87.0055V32.0371H91.6055V41.6371H87.0055V46.1371H72.9055ZM73.4055 41.1371H86.5055V32.5371H73.4055V41.1371Z"/>
</mask>
<path d="M13.0504 41.1871V32.6871H4.00039V27.6871H13.0504V18.0871H18.1504V27.6871H27.2504V32.6871H18.1504V41.1871H13.0504ZM55.6906 46.1371V19.0371H51.6906V23.5371H46.6406V18.5371H51.1906V13.9871H56.1906V18.5371H60.7906V46.1371H55.6906ZM72.9055 46.1371V41.6371H68.3555V18.5371H72.9055V13.9871H87.0055V18.5371H91.6055V23.5371H86.5055V19.0371H73.4055V27.5871H87.0055V32.0371H91.6055V41.6371H87.0055V46.1371H72.9055ZM73.4055 41.1371H86.5055V32.5371H73.4055V41.1371Z" fill="white"/>
<path d="M13.0504 41.1871H9.05039V45.1871H13.0504V41.1871ZM13.0504 32.6871H17.0504V28.6871H13.0504V32.6871ZM4.00039 32.6871H0.000390708V36.6871H4.00039V32.6871ZM4.00039 27.6871V23.6871H0.000390708V27.6871H4.00039ZM13.0504 27.6871V31.6871H17.0504V27.6871H13.0504ZM13.0504 18.0871V14.0871H9.05039V18.0871H13.0504ZM18.1504 18.0871H22.1504V14.0871H18.1504V18.0871ZM18.1504 27.6871H14.1504V31.6871H18.1504V27.6871ZM27.2504 27.6871H31.2504V23.6871H27.2504V27.6871ZM27.2504 32.6871V36.6871H31.2504V32.6871H27.2504ZM18.1504 32.6871V28.6871H14.1504V32.6871H18.1504ZM18.1504 41.1871V45.1871H22.1504V41.1871H18.1504ZM13.0504 41.1871H17.0504V32.6871H13.0504H9.05039V41.1871H13.0504ZM13.0504 32.6871V28.6871H4.00039V32.6871V36.6871H13.0504V32.6871ZM4.00039 32.6871H8.00039V27.6871H4.00039H0.000390708V32.6871H4.00039ZM4.00039 27.6871V31.6871H13.0504V27.6871V23.6871H4.00039V27.6871ZM13.0504 27.6871H17.0504V18.0871H13.0504H9.05039V27.6871H13.0504ZM13.0504 18.0871V22.0871H18.1504V18.0871V14.0871H13.0504V18.0871ZM18.1504 18.0871H14.1504V27.6871H18.1504H22.1504V18.0871H18.1504ZM18.1504 27.6871V31.6871H27.2504V27.6871V23.6871H18.1504V27.6871ZM27.2504 27.6871H23.2504V32.6871H27.2504H31.2504V27.6871H27.2504ZM27.2504 32.6871V28.6871H18.1504V32.6871V36.6871H27.2504V32.6871ZM18.1504 32.6871H14.1504V41.1871H18.1504H22.1504V32.6871H18.1504ZM18.1504 41.1871V37.1871H13.0504V41.1871V45.1871H18.1504V41.1871ZM55.6906 46.1371H51.6906V50.1371H55.6906V46.1371ZM55.6906 19.0371H59.6906V15.0371H55.6906V19.0371ZM51.6906 19.0371V15.0371H47.6906V19.0371H51.6906ZM51.6906 23.5371V27.5371H55.6906V23.5371H51.6906ZM46.6406 23.5371H42.6406V27.5371H46.6406V23.5371ZM46.6406 18.5371V14.5371H42.6406V18.5371H46.6406ZM51.1906 18.5371V22.5371H55.1906V18.5371H51.1906ZM51.1906 13.9871V9.98711H47.1906V13.9871H51.1906ZM56.1906 13.9871H60.1906V9.98711H56.1906V13.9871ZM56.1906 18.5371H52.1906V22.5371H56.1906V18.5371ZM60.7906 18.5371H64.7906V14.5371H60.7906V18.5371ZM60.7906 46.1371V50.1371H64.7906V46.1371H60.7906ZM55.6906 46.1371H59.6906V19.0371H55.6906H51.6906V46.1371H55.6906ZM55.6906 19.0371V15.0371H51.6906V19.0371V23.0371H55.6906V19.0371ZM51.6906 19.0371H47.6906V23.5371H51.6906H55.6906V19.0371H51.6906ZM51.6906 23.5371V19.5371H46.6406V23.5371V27.5371H51.6906V23.5371ZM46.6406 23.5371H50.6406V18.5371H46.6406H42.6406V23.5371H46.6406ZM46.6406 18.5371V22.5371H51.1906V18.5371V14.5371H46.6406V18.5371ZM51.1906 18.5371H55.1906V13.9871H51.1906H47.1906V18.5371H51.1906ZM51.1906 13.9871V17.9871H56.1906V13.9871V9.98711H51.1906V13.9871ZM56.1906 13.9871H52.1906V18.5371H56.1906H60.1906V13.9871H56.1906ZM56.1906 18.5371V22.5371H60.7906V18.5371V14.5371H56.1906V18.5371ZM60.7906 18.5371H56.7906V46.1371H60.7906H64.7906V18.5371H60.7906ZM60.7906 46.1371V42.1371H55.6906V46.1371V50.1371H60.7906V46.1371ZM72.9055 46.1371H68.9055V50.1371H72.9055V46.1371ZM72.9055 41.6371H76.9055V37.6371H72.9055V41.6371ZM68.3555 41.6371H64.3555V45.6371H68.3555V41.6371ZM68.3555 18.5371V14.5371H64.3555V18.5371H68.3555ZM72.9055 18.5371V22.5371H76.9055V18.5371H72.9055ZM72.9055 13.9871V9.98711H68.9055V13.9871H72.9055ZM87.0055 13.9871H91.0055V9.98711H87.0055V13.9871ZM87.0055 18.5371H83.0055V22.5371H87.0055V18.5371ZM91.6055 18.5371H95.6055V14.5371H91.6055V18.5371ZM91.6055 23.5371V27.5371H95.6055V23.5371H91.6055ZM86.5055 23.5371H82.5055V27.5371H86.5055V23.5371ZM86.5055 19.0371H90.5055V15.0371H86.5055V19.0371ZM73.4055 19.0371V15.0371H69.4055V19.0371H73.4055ZM73.4055 27.5871H69.4055V31.5871H73.4055V27.5871ZM87.0055 27.5871H91.0055V23.5871H87.0055V27.5871ZM87.0055 32.0371H83.0055V36.0371H87.0055V32.0371ZM91.6055 32.0371H95.6055V28.0371H91.6055V32.0371ZM91.6055 41.6371V45.6371H95.6055V41.6371H91.6055ZM87.0055 41.6371V37.6371H83.0055V41.6371H87.0055ZM87.0055 46.1371V50.1371H91.0055V46.1371H87.0055ZM73.4055 41.1371H69.4055V45.1371H73.4055V41.1371ZM86.5055 41.1371V45.1371H90.5055V41.1371H86.5055ZM86.5055 32.5371H90.5055V28.5371H86.5055V32.5371ZM73.4055 32.5371V28.5371H69.4055V32.5371H73.4055ZM72.9055 46.1371H76.9055V41.6371H72.9055H68.9055V46.1371H72.9055ZM72.9055 41.6371V37.6371H68.3555V41.6371V45.6371H72.9055V41.6371ZM68.3555 41.6371H72.3555V18.5371H68.3555H64.3555V41.6371H68.3555ZM68.3555 18.5371V22.5371H72.9055V18.5371V14.5371H68.3555V18.5371ZM72.9055 18.5371H76.9055V13.9871H72.9055H68.9055V18.5371H72.9055ZM72.9055 13.9871V17.9871H87.0055V13.9871V9.98711H72.9055V13.9871ZM87.0055 13.9871H83.0055V18.5371H87.0055H91.0055V13.9871H87.0055ZM87.0055 18.5371V22.5371H91.6055V18.5371V14.5371H87.0055V18.5371ZM91.6055 18.5371H87.6055V23.5371H91.6055H95.6055V18.5371H91.6055ZM91.6055 23.5371V19.5371H86.5055V23.5371V27.5371H91.6055V23.5371ZM86.5055 23.5371H90.5055V19.0371H86.5055H82.5055V23.5371H86.5055ZM86.5055 19.0371V15.0371H73.4055V19.0371V23.0371H86.5055V19.0371ZM73.4055 19.0371H69.4055V27.5871H73.4055H77.4055V19.0371H73.4055ZM73.4055 27.5871V31.5871H87.0055V27.5871V23.5871H73.4055V27.5871ZM87.0055 27.5871H83.0055V32.0371H87.0055H91.0055V27.5871H87.0055ZM87.0055 32.0371V36.0371H91.6055V32.0371V28.0371H87.0055V32.0371ZM91.6055 32.0371H87.6055V41.6371H91.6055H95.6055V32.0371H91.6055ZM91.6055 41.6371V37.6371H87.0055V41.6371V45.6371H91.6055V41.6371ZM87.0055 41.6371H83.0055V46.1371H87.0055H91.0055V41.6371H87.0055ZM87.0055 46.1371V42.1371H72.9055V46.1371V50.1371H87.0055V46.1371ZM73.4055 41.1371V45.1371H86.5055V41.1371V37.1371H73.4055V41.1371ZM86.5055 41.1371H90.5055V32.5371H86.5055H82.5055V41.1371H86.5055ZM86.5055 32.5371V28.5371H73.4055V32.5371V36.5371H86.5055V32.5371ZM73.4055 32.5371H69.4055V41.1371H73.4055H77.4055V32.5371H73.4055Z" fill="black" mask="url(#path-79-outside-1_532_125496)"/>
</svg>
